<?xml version="1.0" encoding="utf-8"?>
<!-- Generator: Adobe Illustrator 23.0.1, SVG Export Plug-In . SVG Version: 6.00 Build 0)  -->
<svg version="1.1" id="Слой_1" xmlns="http://www.w3.org/2000/svg" xmlns:xlink="http://www.w3.org/1999/xlink" x="0px" y="0px"
	 width="836px" height="180px" viewBox="0 0 836 180" style="enable-background:new 0 0 836 180;" xml:space="preserve">
<style type="text/css">
	.st0{fill-rule:evenodd;clip-rule:evenodd;fill:#E1E3E8;}
	.st1{fill-rule:evenodd;clip-rule:evenodd;fill:#FFFFFF;}
	.st2{fill-rule:evenodd;clip-rule:evenodd;}
	.st3{fill-rule:evenodd;clip-rule:evenodd;fill:#333333;}
	.st4{fill-rule:evenodd;clip-rule:evenodd;fill:#ECEDF2;}
	.st5{fill-rule:evenodd;clip-rule:evenodd;fill:#4CABE9;}
	.st6{fill:#4CABE9;}
	.st7{enable-background:new    ;}
	.st8{fill:#333333;}
	.st9{fill-rule:evenodd;clip-rule:evenodd;fill:#BAC0CF;}
	.st10{fill:#979797;}
	.st11{fill-rule:evenodd;clip-rule:evenodd;fill:#979797;}
	.st12{opacity:0.6953;fill-rule:evenodd;clip-rule:evenodd;fill:#ECEDF2;enable-background:new    ;}
</style>
<title>proxy</title>
<desc>Created with Sketch.</desc>
<path id="Rectangle-11" class="st0" d="M2,19h196c1.1,0,2,0.9,2,2v138c0,1.1-0.9,2-2,2H2c-1.1,0-2-0.9-2-2V21C0,19.9,0.9,19,2,19z"
	/>
<rect id="Rectangle-12" x="5" y="34" class="st1" width="190" height="122"/>
<circle id="Oval-2" class="st1" cx="174" cy="27" r="3"/>
<circle id="Oval-Copy-4" class="st1" cx="183" cy="27" r="3"/>
<circle id="Oval-Copy-5" class="st1" cx="192" cy="27" r="3"/>
<path id="Rectangle" class="st1" d="M8,24h155c1.7,0,3,1.3,3,3l0,0c0,1.7-1.3,3-3,3H8c-1.7,0-3-1.3-3-3l0,0C5,25.3,6.3,24,8,24z"/>
<g id="Браузер">
	<g>
		<path id="path-1" class="st2" d="M63.7,98V85h8.9v2.5h-6v2.6h1.8c0.7,0,1.3,0.1,1.9,0.2s1.1,0.3,1.6,0.6c0.5,0.3,0.8,0.7,1.1,1.2
			s0.4,1.1,0.4,1.8c0,0.7-0.1,1.4-0.4,1.9s-0.6,1-1,1.3s-1,0.6-1.6,0.7C69.8,98,69.2,98,68.5,98C68.5,98,63.7,98,63.7,98z
			 M66.6,95.7h1.6c0.8,0,1.4-0.1,1.8-0.4s0.6-0.8,0.6-1.4s-0.2-1-0.6-1.3s-1-0.4-1.8-0.4h-1.6V95.7z M75.4,101.7V88.1h2.4l0.2,1h0.1
			c0.4-0.3,0.8-0.6,1.3-0.9c0.5-0.2,1-0.4,1.5-0.4c0.6,0,1.1,0.1,1.6,0.4c0.5,0.2,0.9,0.6,1.2,1s0.6,1,0.8,1.6s0.3,1.3,0.3,2.1
			c0,0.9-0.1,1.6-0.4,2.3c-0.2,0.7-0.5,1.2-0.9,1.7s-0.8,0.8-1.3,1s-1,0.4-1.5,0.4c-0.4,0-0.8-0.1-1.2-0.3s-0.8-0.4-1.1-0.8l0.1,1.6
			v2.9C78.5,101.7,75.4,101.7,75.4,101.7z M79.9,95.8c0.5,0,0.9-0.2,1.3-0.7s0.5-1.2,0.5-2.2c0-1.8-0.6-2.7-1.7-2.7
			c-0.6,0-1.1,0.3-1.7,0.9v4.1c0.3,0.2,0.5,0.4,0.8,0.5C79.4,95.8,79.7,95.8,79.9,95.8z M89.2,98.2c-0.5,0-0.9-0.1-1.2-0.2
			s-0.7-0.4-0.9-0.6c-0.3-0.3-0.4-0.6-0.6-1c-0.1-0.4-0.2-0.8-0.2-1.2c0-1,0.4-1.9,1.3-2.4c0.9-0.6,2.3-1,4.3-1.2
			c0-0.4-0.2-0.8-0.4-1.1s-0.6-0.4-1.2-0.4c-0.4,0-0.8,0.1-1.3,0.2c-0.4,0.2-0.9,0.4-1.3,0.7l-1.1-1.9c0.6-0.4,1.3-0.7,2-0.9
			c0.7-0.2,1.4-0.4,2.2-0.4c1.3,0,2.3,0.4,2.9,1.1c0.7,0.7,1,1.9,1,3.4V98h-2.4l-0.2-1H92c-0.4,0.4-0.9,0.7-1.3,0.9
			C90.2,98.1,89.7,98.2,89.2,98.2z M90.2,96c0.3,0,0.6-0.1,0.9-0.2c0.2-0.1,0.5-0.4,0.8-0.6v-1.7c-1,0.1-1.8,0.4-2.2,0.6
			c-0.4,0.3-0.6,0.6-0.6,1c0,0.3,0.1,0.6,0.3,0.7C89.5,95.9,89.8,96,90.2,96z M98.3,101.9c-0.3,0-0.6,0-0.8,0
			c-0.2,0-0.4-0.1-0.6-0.2l0.5-2.2c0.1,0,0.2,0.1,0.3,0.1c0.1,0,0.2,0,0.3,0c0.5,0,0.9-0.1,1.1-0.4c0.3-0.2,0.5-0.6,0.6-0.9l0.1-0.5
			L96,88.1h3l1.4,4.3c0.1,0.5,0.3,0.9,0.4,1.4s0.2,0.9,0.4,1.4h0.1c0.1-0.5,0.2-0.9,0.3-1.4s0.2-0.9,0.3-1.4l1.2-4.3h2.8l-3.4,10
			c-0.2,0.6-0.5,1.2-0.8,1.7s-0.6,0.9-0.9,1.2c-0.3,0.3-0.7,0.5-1.2,0.7S98.9,101.9,98.3,101.9z M110.4,98.2c-0.7,0-1.3-0.1-1.9-0.2
			c-0.6-0.2-1.2-0.5-1.9-0.9l1.1-1.9c0.4,0.3,0.8,0.5,1.3,0.6c0.4,0.1,0.8,0.2,1.2,0.2c0.5,0,1-0.1,1.3-0.3c0.4-0.2,0.5-0.5,0.5-0.8
			c0-0.7-0.5-1-1.5-1h-1.6V92h1.4c0.9,0,1.4-0.3,1.4-1c0-0.6-0.5-0.9-1.5-0.9c-0.4,0-0.8,0-1.2,0.1c-0.4,0.1-0.8,0.3-1.1,0.5
			l-1.1-1.9c0.5-0.3,1.1-0.6,1.7-0.8c0.6-0.2,1.2-0.2,1.9-0.2c0.5,0,1,0.1,1.5,0.2s0.9,0.3,1.3,0.5s0.7,0.5,0.9,0.9s0.3,0.8,0.3,1.3
			c0,0.4-0.1,0.8-0.4,1.2c-0.2,0.4-0.6,0.7-1.2,0.9v0.1c0.6,0.2,1.1,0.4,1.4,0.8s0.5,0.9,0.5,1.6c0,0.5-0.1,0.9-0.4,1.3
			s-0.6,0.7-1,0.9c-0.4,0.3-0.9,0.4-1.4,0.6S110.9,98.2,110.4,98.2z M121.2,98.2c-0.7,0-1.4-0.1-2-0.3s-1.1-0.6-1.6-1
			s-0.8-1-1.1-1.6c-0.3-0.6-0.4-1.4-0.4-2.2c0-0.8,0.1-1.5,0.4-2.2c0.3-0.6,0.6-1.2,1.1-1.6c0.4-0.4,0.9-0.8,1.5-1s1.1-0.4,1.7-0.4
			c0.7,0,1.3,0.1,1.9,0.4c0.5,0.2,1,0.6,1.3,1c0.4,0.4,0.6,0.9,0.8,1.5c0.2,0.6,0.3,1.2,0.3,1.9c0,0.3,0,0.5,0,0.8
			c0,0.2-0.1,0.4-0.1,0.5h-6c0.1,0.7,0.4,1.2,0.9,1.6c0.5,0.3,1,0.5,1.7,0.5s1.4-0.2,2.1-0.7l1,1.8c-0.5,0.3-1.1,0.6-1.7,0.8
			C122.4,98.1,121.8,98.2,121.2,98.2z M119,92h3.6c0-0.6-0.1-1-0.4-1.4c-0.3-0.3-0.7-0.5-1.3-0.5c-0.5,0-0.9,0.2-1.2,0.5
			C119.4,90.8,119.1,91.3,119,92z M127.1,101.7V88.1h2.4l0.2,1h0.1c0.4-0.3,0.8-0.6,1.3-0.9c0.5-0.2,1-0.4,1.5-0.4
			c0.6,0,1.1,0.1,1.6,0.4c0.5,0.2,0.9,0.6,1.2,1s0.6,1,0.8,1.6s0.3,1.3,0.3,2.1c0,0.9-0.1,1.6-0.4,2.3s-0.5,1.2-0.9,1.7
			s-0.8,0.8-1.3,1s-1,0.4-1.6,0.4c-0.4,0-0.8-0.1-1.2-0.3c-0.4-0.2-0.8-0.4-1.1-0.8l0.1,1.6v2.9
			C130.1,101.7,127.1,101.7,127.1,101.7z M131.7,95.8c0.5,0,0.9-0.2,1.3-0.7c0.4-0.5,0.5-1.2,0.5-2.2c0-1.8-0.6-2.7-1.7-2.7
			c-0.6,0-1.1,0.3-1.7,0.9v4.1c0.3,0.2,0.5,0.4,0.8,0.5C131.1,95.8,131.4,95.8,131.7,95.8z"/>
	</g>
	<g>
		<path class="st3" d="M63.7,98V85h8.9v2.5h-6v2.6h1.8c0.7,0,1.3,0.1,1.9,0.2s1.1,0.3,1.6,0.6c0.5,0.3,0.8,0.7,1.1,1.2
			s0.4,1.1,0.4,1.8c0,0.7-0.1,1.4-0.4,1.9s-0.6,1-1,1.3s-1,0.6-1.6,0.7C69.8,98,69.2,98,68.5,98C68.5,98,63.7,98,63.7,98z
			 M66.6,95.7h1.6c0.8,0,1.4-0.1,1.8-0.4s0.6-0.8,0.6-1.4s-0.2-1-0.6-1.3s-1-0.4-1.8-0.4h-1.6V95.7z M75.4,101.7V88.1h2.4l0.2,1h0.1
			c0.4-0.3,0.8-0.6,1.3-0.9c0.5-0.2,1-0.4,1.5-0.4c0.6,0,1.1,0.1,1.6,0.4c0.5,0.2,0.9,0.6,1.2,1s0.6,1,0.8,1.6s0.3,1.3,0.3,2.1
			c0,0.9-0.1,1.6-0.4,2.3c-0.2,0.7-0.5,1.2-0.9,1.7s-0.8,0.8-1.3,1s-1,0.4-1.5,0.4c-0.4,0-0.8-0.1-1.2-0.3s-0.8-0.4-1.1-0.8l0.1,1.6
			v2.9C78.5,101.7,75.4,101.7,75.4,101.7z M79.9,95.8c0.5,0,0.9-0.2,1.3-0.7s0.5-1.2,0.5-2.2c0-1.8-0.6-2.7-1.7-2.7
			c-0.6,0-1.1,0.3-1.7,0.9v4.1c0.3,0.2,0.5,0.4,0.8,0.5C79.4,95.8,79.7,95.8,79.9,95.8z M89.2,98.2c-0.5,0-0.9-0.1-1.2-0.2
			s-0.7-0.4-0.9-0.6c-0.3-0.3-0.4-0.6-0.6-1c-0.1-0.4-0.2-0.8-0.2-1.2c0-1,0.4-1.9,1.3-2.4c0.9-0.6,2.3-1,4.3-1.2
			c0-0.4-0.2-0.8-0.4-1.1s-0.6-0.4-1.2-0.4c-0.4,0-0.8,0.1-1.3,0.2c-0.4,0.2-0.9,0.4-1.3,0.7l-1.1-1.9c0.6-0.4,1.3-0.7,2-0.9
			c0.7-0.2,1.4-0.4,2.2-0.4c1.3,0,2.3,0.4,2.9,1.1c0.7,0.7,1,1.9,1,3.4V98h-2.4l-0.2-1H92c-0.4,0.4-0.9,0.7-1.3,0.9
			C90.2,98.1,89.7,98.2,89.2,98.2z M90.2,96c0.3,0,0.6-0.1,0.9-0.2c0.2-0.1,0.5-0.4,0.8-0.6v-1.7c-1,0.1-1.8,0.4-2.2,0.6
			c-0.4,0.3-0.6,0.6-0.6,1c0,0.3,0.1,0.6,0.3,0.7C89.5,95.9,89.8,96,90.2,96z M98.3,101.9c-0.3,0-0.6,0-0.8,0
			c-0.2,0-0.4-0.1-0.6-0.2l0.5-2.2c0.1,0,0.2,0.1,0.3,0.1c0.1,0,0.2,0,0.3,0c0.5,0,0.9-0.1,1.1-0.4c0.3-0.2,0.5-0.6,0.6-0.9l0.1-0.5
			L96,88.1h3l1.4,4.3c0.1,0.5,0.3,0.9,0.4,1.4s0.2,0.9,0.4,1.4h0.1c0.1-0.5,0.2-0.9,0.3-1.4s0.2-0.9,0.3-1.4l1.2-4.3h2.8l-3.4,10
			c-0.2,0.6-0.5,1.2-0.8,1.7s-0.6,0.9-0.9,1.2c-0.3,0.3-0.7,0.5-1.2,0.7S98.9,101.9,98.3,101.9z M110.4,98.2c-0.7,0-1.3-0.1-1.9-0.2
			c-0.6-0.2-1.2-0.5-1.9-0.9l1.1-1.9c0.4,0.3,0.8,0.5,1.3,0.6c0.4,0.1,0.8,0.2,1.2,0.2c0.5,0,1-0.1,1.3-0.3c0.4-0.2,0.5-0.5,0.5-0.8
			c0-0.7-0.5-1-1.5-1h-1.6V92h1.4c0.9,0,1.4-0.3,1.4-1c0-0.6-0.5-0.9-1.5-0.9c-0.4,0-0.8,0-1.2,0.1c-0.4,0.1-0.8,0.3-1.1,0.5
			l-1.1-1.9c0.5-0.3,1.1-0.6,1.7-0.8c0.6-0.2,1.2-0.2,1.9-0.2c0.5,0,1,0.1,1.5,0.2s0.9,0.3,1.3,0.5s0.7,0.5,0.9,0.9s0.3,0.8,0.3,1.3
			c0,0.4-0.1,0.8-0.4,1.2c-0.2,0.4-0.6,0.7-1.2,0.9v0.1c0.6,0.2,1.1,0.4,1.4,0.8s0.5,0.9,0.5,1.6c0,0.5-0.1,0.9-0.4,1.3
			s-0.6,0.7-1,0.9c-0.4,0.3-0.9,0.4-1.4,0.6S110.9,98.2,110.4,98.2z M121.2,98.2c-0.7,0-1.4-0.1-2-0.3s-1.1-0.6-1.6-1
			s-0.8-1-1.1-1.6c-0.3-0.6-0.4-1.4-0.4-2.2c0-0.8,0.1-1.5,0.4-2.2c0.3-0.6,0.6-1.2,1.1-1.6c0.4-0.4,0.9-0.8,1.5-1s1.1-0.4,1.7-0.4
			c0.7,0,1.3,0.1,1.9,0.4c0.5,0.2,1,0.6,1.3,1c0.4,0.4,0.6,0.9,0.8,1.5c0.2,0.6,0.3,1.2,0.3,1.9c0,0.3,0,0.5,0,0.8
			c0,0.2-0.1,0.4-0.1,0.5h-6c0.1,0.7,0.4,1.2,0.9,1.6c0.5,0.3,1,0.5,1.7,0.5s1.4-0.2,2.1-0.7l1,1.8c-0.5,0.3-1.1,0.6-1.7,0.8
			C122.4,98.1,121.8,98.2,121.2,98.2z M119,92h3.6c0-0.6-0.1-1-0.4-1.4c-0.3-0.3-0.7-0.5-1.3-0.5c-0.5,0-0.9,0.2-1.2,0.5
			C119.4,90.8,119.1,91.3,119,92z M127.1,101.7V88.1h2.4l0.2,1h0.1c0.4-0.3,0.8-0.6,1.3-0.9c0.5-0.2,1-0.4,1.5-0.4
			c0.6,0,1.1,0.1,1.6,0.4c0.5,0.2,0.9,0.6,1.2,1s0.6,1,0.8,1.6s0.3,1.3,0.3,2.1c0,0.9-0.1,1.6-0.4,2.3s-0.5,1.2-0.9,1.7
			s-0.8,0.8-1.3,1s-1,0.4-1.6,0.4c-0.4,0-0.8-0.1-1.2-0.3c-0.4-0.2-0.8-0.4-1.1-0.8l0.1,1.6v2.9
			C130.1,101.7,127.1,101.7,127.1,101.7z M131.7,95.8c0.5,0,0.9-0.2,1.3-0.7c0.4-0.5,0.5-1.2,0.5-2.2c0-1.8-0.6-2.7-1.7-2.7
			c-0.6,0-1.1,0.3-1.7,0.9v4.1c0.3,0.2,0.5,0.4,0.8,0.5C131.1,95.8,131.4,95.8,131.7,95.8z"/>
	</g>
</g>
<path id="Rectangle-Copy-8-Copy-3" class="st4" d="M373,15h140c2.8,0,5,3.2,5,7.1V158c0,3.9-2.2,7.1-5,7.1H373c-2.8,0-5-3.2-5-7.1
	V22.1C368,18.2,370.2,15,373,15z"/>
<path id="Rectangle-Copy-8-Copy-3-Copy" class="st4" d="M691,15h140c2.8,0,5,3.2,5,7.1V158c0,3.9-2.2,7.1-5,7.1H691
	c-2.8,0-5-3.2-5-7.1V22.1C686,18.2,688.2,15,691,15z"/>
<path id="Path-32" class="st5" d="M754.7,121l-2.6-10.1h1.4l1.2,5c0.3,1.3,0.6,2.5,0.8,3.5c0.2-0.9,0.5-2.2,0.8-3.5l1.4-5h1.5l1.2,5
	c0.3,1.3,0.6,2.4,0.8,3.5c0.2-1.1,0.5-2.2,0.8-3.5l1.4-5h1.4l-2.9,10.1h-1.4l-1.2-5.2c-0.3-1.1-0.5-2.2-0.6-3.3
	c-0.2,1.1-0.5,2.2-0.8,3.3l-1.7,5.2H754.7z"/>
<path id="Shape-9" class="st6" d="M768.3,111.7c0,0.3-0.2,0.6-0.5,0.8c-0.3,0.2-0.6,0.2-0.9,0c-0.3-0.2-0.5-0.5-0.5-0.8
	c0-0.2,0.2-0.5,0.3-0.6s0.3-0.2,0.6-0.2c0.2,0,0.5,0,0.6,0.2S768.3,111.6,768.3,111.7z M766.7,121v-7.2h1.4v7.2H766.7z"/>
<path id="Path-33" class="st5" d="M770.9,115.8c0-0.8,0-1.4,0-1.9h1.2v1.3c0.5-0.8,1.4-1.4,2.5-1.4s2.6,0.6,2.6,3v4.2h-1.4v-4.1
	c0-1.1-0.5-2.2-1.7-2.2c-0.8,0-1.5,0.6-1.8,1.4c0,0.2-0.2,0.5-0.2,0.6v4.4h-1.4v-5.3H770.9z"/>
<path id="Shape-10" class="st6" d="M785.8,110.5v8.6c0,0.6,0,1.4,0,1.9h-1.2v-1.3c-0.6,0.9-1.5,1.4-2.6,1.4c-0.9,0-1.8-0.5-2.5-1.1
	c-0.6-0.6-0.9-1.6-0.8-2.5c-0.2-0.9,0.2-1.9,0.8-2.7c0.6-0.8,1.5-1.1,2.5-1.3c0.9,0,1.7,0.3,2.2,1.1v-4.2L785.8,110.5L785.8,110.5z
	 M784.4,116.7c0-0.2,0-0.3,0-0.6c-0.2-0.9-1.1-1.6-2-1.6c-1.4,0-2.2,1.3-2.2,2.8c0,1.4,0.8,2.7,2.2,2.7c0.9,0,1.7-0.6,2-1.6
	c0-0.2,0-0.3,0-0.6V116.7z"/>
<path id="Shape-11" class="st6" d="M794.7,117.4c0.2,0.9-0.3,2-0.9,2.7c-0.8,0.8-1.7,1.1-2.8,1.1c-0.9,0-2-0.3-2.6-1.1
	c-0.6-0.6-1.1-1.7-0.9-2.7c0-0.9,0.3-1.9,0.9-2.7c0.8-0.8,1.7-1.1,2.8-1.1c0.9,0,2,0.3,2.6,1.1C794.4,115.5,794.7,116.4,794.7,117.4
	z M788.9,117.4c0,1.6,0.9,2.8,2.2,2.8s2.3-1.1,2.3-2.8c0-1.3-0.6-2.7-2.2-2.7C789.6,114.7,788.9,116.1,788.9,117.4z"/>
<path id="Path-34" class="st5" d="M797.2,113.8l0.9,3.6c0.2,0.8,0.5,1.6,0.6,2.4c0.2-0.8,0.5-1.6,0.6-2.4l1.2-3.6h1.1l1.1,3.6
	c0.3,0.8,0.5,1.6,0.6,2.4c0.2-0.8,0.3-1.4,0.6-2.4l1.1-3.6h1.4l-2.3,7.2h-1.2l-1.1-3.5c-0.3-0.8-0.5-1.6-0.6-2.4
	c-0.2,0.8-0.5,1.6-0.6,2.4l-1.4,3.5H798l-2.2-7.2H797.2z"/>
<path id="Path-35" class="st5" d="M808.1,119.7c0.5,0.3,1.1,0.5,1.8,0.5c0.9,0,1.4-0.5,1.4-1.1s-0.5-0.9-1.4-1.3c-1.4-0.5-2-1.1-2-2
	c0-0.6,0.3-1.3,0.8-1.6c0.5-0.5,1.1-0.6,1.7-0.5c0.6,0,1.2,0.2,1.8,0.5l-0.3,0.9c-0.5-0.3-0.9-0.5-1.5-0.5c-0.8,0-1.2,0.5-1.2,0.9
	c0,0.6,0.5,0.8,1.4,1.3c1.2,0.5,2,1.1,2,2.2s-1.1,2-2.8,2c-0.8,0-1.4-0.2-2-0.5L808.1,119.7z"/>
<path id="Path-36" class="st5" d="M752.3,134.8c0.8,0.5,1.5,0.6,2.3,0.6c1.4,0,2.2-0.6,2.2-1.7c0-0.9-0.6-1.4-2-2
	c-1.7-0.6-2.8-1.4-2.8-2.8c0-0.8,0.5-1.6,1.1-2c0.6-0.5,1.4-0.8,2.3-0.6c0.8,0,1.5,0.2,2.3,0.5l-0.3,1.1c-0.6-0.3-1.2-0.5-2-0.5
	c-1.4,0-2,0.8-2,1.6c0,0.9,0.6,1.4,2,1.9c1.7,0.6,2.6,1.4,2.6,3s-1.2,2.8-3.5,2.8c-0.9,0-1.8-0.2-2.6-0.6L752.3,134.8z"/>
<path id="Shape-12" class="st6" d="M760.7,133.1c0,0.6,0.2,1.4,0.6,1.9c0.5,0.5,1.2,0.8,1.8,0.6c0.8,0,1.4-0.2,2-0.3l0.3,0.9
	c-0.8,0.3-1.5,0.5-2.5,0.5c-0.9,0-2-0.3-2.6-0.9c-0.8-0.6-1.1-1.7-0.9-2.7c-0.2-0.9,0.2-1.9,0.9-2.7c0.6-0.8,1.5-1.1,2.6-1.3
	c0.9,0,1.7,0.3,2.3,1.1s0.9,1.6,0.8,2.4c0,0.2,0,0.5,0,0.6L760.7,133.1z M764.7,132.1c0-0.5-0.2-1.1-0.5-1.4
	c-0.3-0.5-0.9-0.6-1.4-0.6c-1.1,0-2,0.9-2,2H764.7z"/>
<path id="Path-37" class="st5" d="M768.1,131.5c0-0.8,0-1.6,0-2.2h1.2v1.4c0.3-0.9,1.1-1.6,2-1.6c0.2,0,0.3,0,0.3,0v1.3
	c-0.2,0-0.3,0-0.5,0c-0.9,0-1.7,0.8-1.8,1.7c0,0.2,0,0.5,0,0.6v3.8H768L768.1,131.5z"/>
<path id="Path-38" class="st5" d="M774.4,129.2l1.4,4.1c0.3,0.6,0.5,1.3,0.6,1.9c0.2-0.6,0.3-1.3,0.6-1.9l1.4-4.1h1.4l-2.9,7.2h-1.2
	l-2.6-7.2H774.4z"/>
<path id="Shape-13" class="st6" d="M781.9,133.1c0,0.6,0.2,1.4,0.6,1.9c0.5,0.5,1.2,0.8,1.8,0.6c0.8,0,1.4-0.2,2-0.3l0.3,0.9
	c-0.8,0.3-1.5,0.5-2.5,0.5c-0.9,0-2-0.3-2.6-0.9s-0.9-1.9-0.9-2.8c-0.2-0.9,0.2-1.9,0.9-2.7c0.6-0.8,1.5-1.1,2.6-1.3
	c0.9,0,1.7,0.3,2.3,1.1c0.6,0.6,0.9,1.6,0.8,2.4c0,0.2,0,0.5,0,0.6H781.9z M785.9,132.1c0-0.5-0.2-1.1-0.5-1.4
	c-0.3-0.3-0.9-0.6-1.4-0.6c-1.1,0-2,0.9-2,2H785.9z"/>
<path id="Path-39" class="st5" d="M789.5,131.5c0-0.8,0-1.6,0-2.2h1.2v1.4c0.3-0.9,1.1-1.6,2-1.6c0.2,0,0.3,0,0.3,0v1.3
	c-0.2,0-0.3,0-0.5,0c-0.9,0-1.7,0.8-1.8,1.7c0,0.2,0,0.5,0,0.6v3.8h-1.4L789.5,131.5z"/>
<polygon id="Path-40" class="st5" points="723.7,122.6 723.7,109.7 710,111.4 710,122.6 "/>
<polygon id="Path-41" class="st5" points="725.7,122.6 743.8,122.6 743.8,107 725.7,109.4 "/>
<polygon id="Path-42" class="st5" points="723.7,124.4 710,124.4 710,135.1 723.7,137 "/>
<polygon id="Path-43" class="st5" points="725.7,124.4 725.7,137.3 743.8,139.8 743.8,124.4 "/>
<g class="st7">
	<path class="st8" d="M723.9,61V48h2.9v10.6h5.2V61H723.9z"/>
	<path class="st8" d="M738,61.2c-0.6,0-1.2-0.1-1.8-0.4c-0.6-0.2-1.1-0.6-1.5-1c-0.4-0.4-0.8-1-1.1-1.6s-0.4-1.4-0.4-2.2
		c0-0.8,0.1-1.6,0.4-2.2c0.3-0.6,0.6-1.2,1.1-1.6c0.4-0.4,1-0.8,1.5-1c0.6-0.2,1.2-0.4,1.8-0.4c0.6,0,1.2,0.1,1.8,0.4
		c0.6,0.2,1.1,0.6,1.5,1c0.4,0.4,0.8,1,1.1,1.6c0.3,0.6,0.4,1.4,0.4,2.2c0,0.8-0.1,1.6-0.4,2.2c-0.3,0.6-0.6,1.2-1.1,1.6
		c-0.4,0.4-1,0.8-1.5,1C739.2,61.1,738.6,61.2,738,61.2z M738,58.9c0.6,0,1.1-0.3,1.4-0.8c0.3-0.5,0.5-1.2,0.5-2.1
		c0-0.9-0.2-1.6-0.5-2.1c-0.3-0.5-0.8-0.8-1.4-0.8c-0.6,0-1.1,0.3-1.4,0.8c-0.3,0.5-0.5,1.2-0.5,2.1c0,0.9,0.1,1.6,0.5,2.1
		C736.9,58.6,737.4,58.9,738,58.9z"/>
	<path class="st8" d="M748.3,65.2c-0.6,0-1.1,0-1.6-0.1c-0.5-0.1-0.9-0.2-1.3-0.5s-0.7-0.5-0.9-0.8c-0.2-0.3-0.3-0.7-0.3-1.1
		c0-0.8,0.5-1.5,1.4-2v-0.1c-0.3-0.2-0.5-0.4-0.7-0.7c-0.2-0.3-0.3-0.6-0.3-1c0-0.4,0.1-0.7,0.3-1c0.2-0.3,0.5-0.6,0.8-0.8V57
		c-0.3-0.2-0.7-0.6-0.9-1c-0.3-0.4-0.4-1-0.4-1.5c0-0.6,0.1-1.1,0.3-1.6s0.5-0.8,0.9-1.1s0.8-0.5,1.3-0.7c0.5-0.1,1-0.2,1.5-0.2
		c0.6,0,1.1,0.1,1.5,0.2h3.6v2.1h-1.6c0.1,0.1,0.2,0.3,0.2,0.6c0.1,0.2,0.1,0.5,0.1,0.7c0,0.6-0.1,1.1-0.3,1.5s-0.5,0.8-0.8,1
		c-0.4,0.3-0.8,0.5-1.2,0.6s-1,0.2-1.5,0.2c-0.4,0-0.8-0.1-1.2-0.2c-0.1,0.1-0.2,0.2-0.3,0.3c-0.1,0.1-0.1,0.2-0.1,0.4
		c0,0.3,0.1,0.4,0.3,0.6s0.6,0.2,1.2,0.2h1.6c1.2,0,2.2,0.2,2.8,0.6c0.6,0.4,1,1,1,1.9c0,0.5-0.1,1-0.4,1.4s-0.6,0.8-1.1,1.1
		c-0.5,0.3-1.1,0.6-1.7,0.7C750,65.1,749.2,65.2,748.3,65.2z M748.8,63.4c0.7,0,1.2-0.1,1.6-0.3c0.4-0.2,0.6-0.5,0.6-0.9
		c0-0.3-0.1-0.5-0.4-0.6c-0.3-0.1-0.6-0.2-1.1-0.2h-1c-0.3,0-0.6,0-0.8,0c-0.2,0-0.4,0-0.6-0.1c-0.4,0.3-0.5,0.6-0.5,1
		c0,0.4,0.2,0.7,0.6,0.8C747.6,63.3,748.1,63.4,748.8,63.4z M748.6,56.1c0.4,0,0.7-0.1,1-0.4c0.3-0.3,0.4-0.7,0.4-1.2
		c0-0.5-0.1-0.9-0.4-1.2c-0.3-0.3-0.6-0.4-1-0.4s-0.7,0.1-1,0.4s-0.4,0.7-0.4,1.2c0,0.6,0.1,1,0.4,1.2S748.2,56.1,748.6,56.1z"/>
	<path class="st8" d="M756.9,49.6c-0.5,0-0.9-0.1-1.2-0.4c-0.3-0.3-0.5-0.7-0.5-1.1s0.2-0.8,0.5-1.1s0.7-0.4,1.2-0.4
		c0.5,0,0.9,0.1,1.2,0.4c0.3,0.3,0.5,0.6,0.5,1.1s-0.2,0.8-0.5,1.1C757.9,49.5,757.5,49.6,756.9,49.6z M755.5,61v-9.9h2.9V61H755.5z
		"/>
	<path class="st8" d="M761,61v-9.9h2.4l0.2,1.3h0.1c0.4-0.4,0.9-0.8,1.4-1s1.1-0.5,1.8-0.5c1.1,0,1.9,0.4,2.3,1.1
		c0.5,0.7,0.7,1.7,0.7,2.9V61H767v-5.8c0-0.7-0.1-1.2-0.3-1.5s-0.5-0.4-0.9-0.4c-0.4,0-0.7,0.1-1,0.2c-0.3,0.2-0.6,0.4-0.9,0.7V61
		H761z"/>
	<path class="st8" d="M776.7,61.2c-0.6,0-1.2-0.1-1.8-0.4c-0.6-0.2-1.1-0.6-1.5-1c-0.4-0.4-0.8-1-1.1-1.6s-0.4-1.4-0.4-2.2
		c0-0.8,0.1-1.6,0.4-2.2c0.3-0.6,0.6-1.2,1.1-1.6c0.4-0.4,1-0.8,1.5-1c0.6-0.2,1.2-0.4,1.8-0.4c0.6,0,1.2,0.1,1.8,0.4
		c0.6,0.2,1.1,0.6,1.5,1c0.4,0.4,0.8,1,1.1,1.6c0.3,0.6,0.4,1.4,0.4,2.2c0,0.8-0.1,1.6-0.4,2.2c-0.3,0.6-0.6,1.2-1.1,1.6
		c-0.4,0.4-1,0.8-1.5,1C777.9,61.1,777.3,61.2,776.7,61.2z M776.7,58.9c0.6,0,1.1-0.3,1.4-0.8c0.3-0.5,0.5-1.2,0.5-2.1
		c0-0.9-0.2-1.6-0.5-2.1c-0.3-0.5-0.8-0.8-1.4-0.8c-0.6,0-1.1,0.3-1.4,0.8c-0.3,0.5-0.5,1.2-0.5,2.1c0,0.9,0.1,1.6,0.5,2.1
		C775.6,58.6,776.1,58.9,776.7,58.9z"/>
	<path class="st8" d="M783.5,61v-9.9h2.4l0.2,1.3h0.1c0.4-0.4,0.9-0.8,1.3-1.1s1-0.5,1.7-0.5c0.7,0,1.3,0.1,1.7,0.4
		c0.4,0.3,0.8,0.7,1,1.2c0.4-0.5,0.9-0.8,1.4-1.2c0.5-0.3,1.1-0.5,1.7-0.5c1.1,0,1.9,0.4,2.4,1.1s0.8,1.7,0.8,2.9V61h-2.9v-5.8
		c0-0.7-0.1-1.2-0.3-1.5s-0.5-0.4-0.9-0.4c-0.5,0-1.1,0.3-1.7,1V61h-2.9v-5.8c0-0.7-0.1-1.2-0.3-1.5s-0.5-0.4-0.9-0.4
		c-0.5,0-1.1,0.3-1.7,1V61H783.5z"/>
</g>
<g class="st7">
	<path class="st8" d="M737.4,86.2c-0.9,0-1.7-0.2-2.5-0.5c-0.8-0.3-1.6-0.8-2.3-1.4l1.7-2c0.5,0.4,1,0.7,1.6,1
		c0.6,0.3,1.1,0.4,1.7,0.4c0.6,0,1.1-0.1,1.4-0.3s0.5-0.5,0.5-0.9c0-0.2,0-0.4-0.1-0.5s-0.2-0.3-0.4-0.4c-0.2-0.1-0.4-0.2-0.6-0.3
		s-0.5-0.2-0.8-0.3l-1.7-0.7c-0.3-0.1-0.7-0.3-1-0.5s-0.6-0.5-0.8-0.8c-0.2-0.3-0.4-0.6-0.6-1c-0.1-0.4-0.2-0.8-0.2-1.3
		c0-0.5,0.1-1,0.3-1.5c0.2-0.5,0.5-0.9,1-1.2c0.4-0.4,0.9-0.6,1.5-0.8s1.2-0.3,1.9-0.3c0.8,0,1.5,0.1,2.2,0.4
		c0.7,0.3,1.4,0.7,1.9,1.3l-1.5,1.9c-0.4-0.3-0.9-0.6-1.3-0.8c-0.4-0.2-0.9-0.3-1.4-0.3c-0.5,0-0.9,0.1-1.2,0.3
		c-0.3,0.2-0.5,0.5-0.5,0.9c0,0.2,0,0.4,0.2,0.5c0.1,0.1,0.2,0.3,0.4,0.4c0.2,0.1,0.4,0.2,0.6,0.3s0.5,0.2,0.8,0.3l1.7,0.7
		c0.8,0.3,1.4,0.8,1.9,1.3s0.7,1.3,0.7,2.2c0,0.5-0.1,1.1-0.3,1.5c-0.2,0.5-0.5,0.9-1,1.3c-0.4,0.4-0.9,0.7-1.6,0.9
		S738.2,86.2,737.4,86.2z"/>
	<path class="st8" d="M748.8,86.2c-0.7,0-1.4-0.1-2-0.4c-0.6-0.2-1.1-0.6-1.6-1s-0.8-1-1.1-1.6c-0.3-0.6-0.4-1.4-0.4-2.2
		c0-0.8,0.1-1.5,0.4-2.2c0.3-0.6,0.6-1.2,1-1.6s0.9-0.8,1.5-1c0.6-0.2,1.1-0.4,1.7-0.4c0.7,0,1.3,0.1,1.8,0.4c0.5,0.2,1,0.6,1.3,1
		c0.4,0.4,0.6,0.9,0.8,1.5c0.2,0.6,0.3,1.2,0.3,1.9c0,0.3,0,0.5,0,0.8c0,0.2-0.1,0.4-0.1,0.5h-5.9c0.1,0.7,0.4,1.2,0.9,1.6
		s1,0.5,1.7,0.5c0.7,0,1.4-0.2,2.1-0.7l1,1.8c-0.5,0.3-1.1,0.6-1.7,0.8C750,86.1,749.3,86.2,748.8,86.2z M746.5,80h3.6
		c0-0.6-0.1-1-0.4-1.4c-0.3-0.3-0.7-0.5-1.3-0.5c-0.5,0-0.9,0.2-1.2,0.5C746.9,78.8,746.7,79.3,746.5,80z"/>
	<path class="st8" d="M754.7,86v-9.9h2.4l0.2,1.7h0.1c0.4-0.7,0.8-1.2,1.3-1.5c0.5-0.3,1-0.5,1.5-0.5c0.3,0,0.5,0,0.7,0.1
		c0.2,0,0.3,0.1,0.5,0.1l-0.5,2.5c-0.2-0.1-0.4-0.1-0.5-0.1c-0.2,0-0.3,0-0.6,0c-0.4,0-0.8,0.1-1.2,0.4c-0.4,0.3-0.7,0.7-1,1.4V86
		H754.7z"/>
	<path class="st8" d="M765,86l-3.3-9.9h3l1.3,4.7c0.1,0.5,0.3,1,0.4,1.5c0.1,0.5,0.3,1,0.4,1.6h0.1c0.1-0.5,0.2-1,0.4-1.6
		c0.1-0.5,0.3-1,0.4-1.5l1.3-4.7h2.8l-3.2,9.9H765z"/>
	<path class="st8" d="M777.5,86.2c-0.7,0-1.4-0.1-2-0.4c-0.6-0.2-1.1-0.6-1.6-1s-0.8-1-1.1-1.6c-0.3-0.6-0.4-1.4-0.4-2.2
		c0-0.8,0.1-1.5,0.4-2.2c0.3-0.6,0.6-1.2,1-1.6s0.9-0.8,1.5-1c0.6-0.2,1.1-0.4,1.7-0.4c0.7,0,1.3,0.1,1.8,0.4c0.5,0.2,1,0.6,1.3,1
		c0.4,0.4,0.6,0.9,0.8,1.5c0.2,0.6,0.3,1.2,0.3,1.9c0,0.3,0,0.5,0,0.8c0,0.2-0.1,0.4-0.1,0.5h-5.9c0.1,0.7,0.4,1.2,0.9,1.6
		s1,0.5,1.7,0.5c0.7,0,1.4-0.2,2.1-0.7l1,1.8c-0.5,0.3-1.1,0.6-1.7,0.8C778.7,86.1,778.1,86.2,777.5,86.2z M775.3,80h3.6
		c0-0.6-0.1-1-0.4-1.4c-0.3-0.3-0.7-0.5-1.3-0.5c-0.5,0-0.9,0.2-1.2,0.5C775.6,78.8,775.4,79.3,775.3,80z"/>
	<path class="st8" d="M783.4,86v-9.9h2.4l0.2,1.7h0.1c0.4-0.7,0.8-1.2,1.3-1.5c0.5-0.3,1-0.5,1.5-0.5c0.3,0,0.5,0,0.7,0.1
		c0.2,0,0.3,0.1,0.5,0.1l-0.5,2.5c-0.2-0.1-0.4-0.1-0.5-0.1c-0.2,0-0.3,0-0.6,0c-0.4,0-0.8,0.1-1.2,0.4c-0.4,0.3-0.7,0.7-1,1.4V86
		H783.4z"/>
</g>
<g id="Веб-сервер">
	<g>
		<path id="path-2" class="st2" d="M395.6,76V63h4.5c0.7,0,1.3,0,1.9,0.2c0.6,0.1,1.1,0.3,1.5,0.5c0.4,0.3,0.8,0.6,1,1
			s0.4,0.9,0.4,1.6c0,0.3,0,0.6-0.1,0.9s-0.2,0.6-0.3,0.8s-0.3,0.5-0.5,0.7s-0.4,0.3-0.7,0.4v0.1c0.3,0.1,0.6,0.2,0.9,0.4
			c0.3,0.2,0.5,0.4,0.7,0.6c0.2,0.3,0.4,0.6,0.5,0.9s0.2,0.7,0.2,1.2c0,0.7-0.1,1.2-0.4,1.7s-0.6,0.9-1.1,1.2
			c-0.5,0.3-1,0.5-1.6,0.7s-1.3,0.2-2,0.2L395.6,76L395.6,76z M398.5,68.2h1.4c0.7,0,1.2-0.1,1.6-0.4c0.3-0.3,0.5-0.7,0.5-1.1
			c0-0.5-0.2-0.9-0.5-1.1s-0.8-0.3-1.5-0.3h-1.4v2.9H398.5z M398.5,73.7h1.7c1.6,0,2.4-0.6,2.4-1.8c0-0.6-0.2-1-0.6-1.2
			s-1-0.4-1.8-0.4h-1.7V73.7z M411.9,76.2c-0.7,0-1.4-0.1-2-0.3s-1.1-0.6-1.6-1s-0.8-1-1.1-1.6c-0.3-0.6-0.4-1.4-0.4-2.2
			c0-0.8,0.1-1.5,0.4-2.2c0.3-0.6,0.6-1.2,1-1.6s0.9-0.8,1.5-1s1.1-0.4,1.7-0.4c0.7,0,1.3,0.1,1.9,0.4c0.5,0.2,1,0.6,1.3,1
			c0.4,0.4,0.6,0.9,0.8,1.5s0.3,1.2,0.3,1.9c0,0.3,0,0.5,0,0.8c0,0.2-0.1,0.4-0.1,0.5h-5.9c0.1,0.7,0.4,1.2,0.9,1.6
			c0.5,0.3,1,0.5,1.7,0.5s1.4-0.2,2.1-0.7l1,1.8c-0.5,0.3-1.1,0.6-1.7,0.8C413.1,76.1,412.5,76.2,411.9,76.2z M409.7,70h3.6
			c0-0.6-0.1-1-0.4-1.4c-0.3-0.3-0.7-0.5-1.3-0.5c-0.5,0-0.9,0.2-1.2,0.5C410,68.8,409.8,69.3,409.7,70z M422.3,76.2
			c-1.6,0-2.8-0.6-3.6-1.7c-0.8-1.1-1.3-2.7-1.3-4.8c0-1.5,0.2-2.7,0.5-3.7s0.7-1.7,1.3-2.3s1.2-1,2-1.3s1.6-0.5,2.5-0.6
			c0.6-0.1,1.1-0.2,1.4-0.2c0.3-0.1,0.7-0.2,1-0.3l0.6,2.6c-0.3,0.2-0.6,0.4-1,0.5s-0.9,0.2-1.3,0.3c-0.7,0.1-1.3,0.2-1.8,0.3
			c-0.5,0.1-0.9,0.2-1.2,0.4c-0.3,0.2-0.5,0.5-0.7,0.8s-0.3,0.9-0.3,1.5c0.3-0.4,0.8-0.7,1.3-0.9c0.5-0.2,1-0.3,1.6-0.3
			c0.5,0,1,0.1,1.5,0.3c0.5,0.2,0.9,0.5,1.2,0.9c0.4,0.4,0.6,0.9,0.8,1.4c0.2,0.6,0.3,1.2,0.3,2s-0.1,1.5-0.4,2.1
			c-0.2,0.6-0.6,1.2-1,1.6s-0.9,0.8-1.5,1C423.6,76.1,423,76.2,422.3,76.2z M422.2,73.9c0.5,0,1-0.2,1.2-0.7s0.4-1.1,0.4-2
			s-0.2-1.5-0.5-1.9s-0.7-0.6-1.2-0.6c-0.3,0-0.7,0.1-1.1,0.3s-0.7,0.5-1,0.9v0.6c0,1.1,0.2,2,0.5,2.5
			C421.1,73.6,421.6,73.9,422.2,73.9z M428.6,72v-2.1h4.9V72H428.6z M440,76.2c-0.7,0-1.3-0.1-1.9-0.3c-0.6-0.2-1.1-0.6-1.5-1
			s-0.8-1-1-1.6c-0.3-0.6-0.4-1.4-0.4-2.2c0-0.8,0.1-1.6,0.4-2.2s0.7-1.2,1.1-1.6s1-0.8,1.6-1s1.3-0.4,2-0.4c0.6,0,1.2,0.1,1.6,0.3
			c0.5,0.2,0.9,0.5,1.3,0.8l-1.4,1.9c-0.5-0.4-0.9-0.6-1.3-0.6c-0.7,0-1.3,0.3-1.7,0.8c-0.4,0.5-0.6,1.2-0.6,2.1s0.2,1.6,0.6,2.1
			s0.9,0.8,1.6,0.8c0.3,0,0.6-0.1,0.9-0.2s0.6-0.3,0.9-0.5l1.2,1.9c-0.5,0.4-1,0.7-1.6,0.9S440.6,76.2,440,76.2z M448.9,76.2
			c-0.7,0-1.4-0.1-2-0.3s-1.1-0.6-1.6-1s-0.8-1-1.1-1.6c-0.3-0.6-0.4-1.4-0.4-2.2c0-0.8,0.1-1.5,0.4-2.2c0.3-0.6,0.6-1.2,1-1.6
			s0.9-0.8,1.5-1s1.1-0.4,1.7-0.4c0.7,0,1.3,0.1,1.9,0.4c0.5,0.2,1,0.6,1.3,1c0.4,0.4,0.6,0.9,0.8,1.5s0.3,1.2,0.3,1.9
			c0,0.3,0,0.5,0,0.8c0,0.2-0.1,0.4-0.1,0.5h-5.9c0.1,0.7,0.4,1.2,0.9,1.6c0.5,0.3,1,0.5,1.7,0.5s1.4-0.2,2.1-0.7l1,1.8
			c-0.5,0.3-1.1,0.6-1.7,0.8C450.1,76.1,449.5,76.2,448.9,76.2z M446.7,70h3.6c0-0.6-0.1-1-0.4-1.4c-0.3-0.3-0.7-0.5-1.3-0.5
			c-0.5,0-0.9,0.2-1.2,0.5C447,68.8,446.8,69.3,446.7,70z M454.8,79.7V66.1h2.4l0.2,1h0.1c0.4-0.3,0.8-0.6,1.3-0.9
			c0.5-0.2,1-0.4,1.5-0.4c0.6,0,1.1,0.1,1.6,0.4c0.5,0.2,0.9,0.6,1.2,1c0.3,0.4,0.6,1,0.8,1.6s0.3,1.3,0.3,2.1
			c0,0.9-0.1,1.6-0.4,2.3c-0.2,0.7-0.5,1.2-0.9,1.7s-0.8,0.8-1.3,1s-1,0.4-1.5,0.4c-0.4,0-0.8-0.1-1.2-0.3c-0.4-0.2-0.8-0.4-1.1-0.8
			l0.1,1.6v2.9C457.9,79.7,454.8,79.7,454.8,79.7z M459.4,73.8c0.5,0,0.9-0.2,1.3-0.7s0.5-1.2,0.5-2.2c0-1.8-0.6-2.7-1.7-2.7
			c-0.6,0-1.1,0.3-1.7,0.9v4.1c0.3,0.2,0.5,0.4,0.8,0.5C458.8,73.8,459.1,73.8,459.4,73.8z M466.3,76v-9.9h4.2c0.6,0,1.1,0,1.6,0.1
			s0.9,0.2,1.3,0.4c0.4,0.2,0.6,0.5,0.9,0.8s0.3,0.7,0.3,1.2c0,0.4-0.1,0.8-0.4,1.2c-0.3,0.4-0.7,0.7-1.3,0.8v0.1
			c0.6,0.1,1.1,0.4,1.5,0.8s0.5,0.9,0.5,1.6c0,0.5-0.1,0.9-0.3,1.3s-0.5,0.7-0.9,0.9c-0.4,0.2-0.8,0.4-1.3,0.5s-1,0.2-1.6,0.2H466.3
			z M469.1,70h1.2c0.5,0,0.8-0.1,1.1-0.2c0.2-0.2,0.3-0.4,0.3-0.7s-0.1-0.5-0.3-0.7s-0.6-0.3-1.1-0.3h-1.2V70z M469.1,74.1h1.4
			c0.5,0,0.9-0.1,1.1-0.3s0.3-0.5,0.3-0.8s-0.1-0.5-0.4-0.7c-0.2-0.2-0.6-0.3-1.1-0.3H469v2.1H469.1z M481.3,76.2
			c-0.7,0-1.4-0.1-2-0.3s-1.1-0.6-1.6-1s-0.8-1-1.1-1.6c-0.3-0.6-0.4-1.4-0.4-2.2c0-0.8,0.1-1.5,0.4-2.2c0.3-0.6,0.6-1.2,1-1.6
			s0.9-0.8,1.5-1s1.1-0.4,1.7-0.4c0.7,0,1.3,0.1,1.8,0.4c0.5,0.2,1,0.6,1.3,1c0.4,0.4,0.6,0.9,0.8,1.5s0.3,1.2,0.3,1.9
			c0,0.3,0,0.5,0,0.8c0,0.2-0.1,0.4-0.1,0.5H479c0.1,0.7,0.4,1.2,0.9,1.6c0.5,0.3,1,0.5,1.7,0.5s1.4-0.2,2.1-0.7l1,1.8
			c-0.5,0.3-1.1,0.6-1.7,0.8C482.5,76.1,481.9,76.2,481.3,76.2z M479.1,70h3.6c0-0.6-0.1-1-0.4-1.4c-0.3-0.3-0.7-0.5-1.3-0.5
			c-0.5,0-0.9,0.2-1.2,0.5C479.4,68.8,479.2,69.3,479.1,70z M487.2,79.7V66.1h2.4l0.2,1h0.1c0.4-0.3,0.8-0.6,1.3-0.9
			c0.5-0.2,1-0.4,1.5-0.4c0.6,0,1.1,0.1,1.6,0.4c0.5,0.2,0.9,0.6,1.2,1c0.3,0.4,0.6,1,0.8,1.6c0.2,0.6,0.3,1.3,0.3,2.1
			c0,0.9-0.1,1.6-0.4,2.3s-0.5,1.2-0.9,1.7s-0.8,0.8-1.3,1s-1,0.4-1.5,0.4c-0.4,0-0.8-0.1-1.2-0.3c-0.4-0.2-0.8-0.4-1.1-0.8l0.1,1.6
			v2.9C490.3,79.7,487.2,79.7,487.2,79.7z M491.7,73.8c0.5,0,0.9-0.2,1.3-0.7s0.5-1.2,0.5-2.2c0-1.8-0.6-2.7-1.7-2.7
			c-0.6,0-1.1,0.3-1.7,0.9v4.1c0.3,0.2,0.5,0.4,0.8,0.5C491.2,73.8,491.5,73.8,491.7,73.8z"/>
	</g>
	<g>
		<path class="st3" d="M395.6,76V63h4.5c0.7,0,1.3,0,1.9,0.2c0.6,0.1,1.1,0.3,1.5,0.5c0.4,0.3,0.8,0.6,1,1s0.4,0.9,0.4,1.6
			c0,0.3,0,0.6-0.1,0.9s-0.2,0.6-0.3,0.8s-0.3,0.5-0.5,0.7s-0.4,0.3-0.7,0.4v0.1c0.3,0.1,0.6,0.2,0.9,0.4c0.3,0.2,0.5,0.4,0.7,0.6
			c0.2,0.3,0.4,0.6,0.5,0.9s0.2,0.7,0.2,1.2c0,0.7-0.1,1.2-0.4,1.7s-0.6,0.9-1.1,1.2c-0.5,0.3-1,0.5-1.6,0.7s-1.3,0.2-2,0.2
			L395.6,76L395.6,76z M398.5,68.2h1.4c0.7,0,1.2-0.1,1.6-0.4c0.3-0.3,0.5-0.7,0.5-1.1c0-0.5-0.2-0.9-0.5-1.1s-0.8-0.3-1.5-0.3h-1.4
			v2.9H398.5z M398.5,73.7h1.7c1.6,0,2.4-0.6,2.4-1.8c0-0.6-0.2-1-0.6-1.2s-1-0.4-1.8-0.4h-1.7V73.7z M411.9,76.2
			c-0.7,0-1.4-0.1-2-0.3s-1.1-0.6-1.6-1s-0.8-1-1.1-1.6c-0.3-0.6-0.4-1.4-0.4-2.2c0-0.8,0.1-1.5,0.4-2.2c0.3-0.6,0.6-1.2,1-1.6
			s0.9-0.8,1.5-1s1.1-0.4,1.7-0.4c0.7,0,1.3,0.1,1.9,0.4c0.5,0.2,1,0.6,1.3,1c0.4,0.4,0.6,0.9,0.8,1.5s0.3,1.2,0.3,1.9
			c0,0.3,0,0.5,0,0.8c0,0.2-0.1,0.4-0.1,0.5h-5.9c0.1,0.7,0.4,1.2,0.9,1.6c0.5,0.3,1,0.5,1.7,0.5s1.4-0.2,2.1-0.7l1,1.8
			c-0.5,0.3-1.1,0.6-1.7,0.8C413.1,76.1,412.5,76.2,411.9,76.2z M409.7,70h3.6c0-0.6-0.1-1-0.4-1.4c-0.3-0.3-0.7-0.5-1.3-0.5
			c-0.5,0-0.9,0.2-1.2,0.5C410,68.8,409.8,69.3,409.7,70z M422.3,76.2c-1.6,0-2.8-0.6-3.6-1.7c-0.8-1.1-1.3-2.7-1.3-4.8
			c0-1.5,0.2-2.7,0.5-3.7s0.7-1.7,1.3-2.3s1.2-1,2-1.3s1.6-0.5,2.5-0.6c0.6-0.1,1.1-0.2,1.4-0.2c0.3-0.1,0.7-0.2,1-0.3l0.6,2.6
			c-0.3,0.2-0.6,0.4-1,0.5s-0.9,0.2-1.3,0.3c-0.7,0.1-1.3,0.2-1.8,0.3c-0.5,0.1-0.9,0.2-1.2,0.4c-0.3,0.2-0.5,0.5-0.7,0.8
			s-0.3,0.9-0.3,1.5c0.3-0.4,0.8-0.7,1.3-0.9c0.5-0.2,1-0.3,1.6-0.3c0.5,0,1,0.1,1.5,0.3c0.5,0.2,0.9,0.5,1.2,0.9
			c0.4,0.4,0.6,0.9,0.8,1.4c0.2,0.6,0.3,1.2,0.3,2s-0.1,1.5-0.4,2.1c-0.2,0.6-0.6,1.2-1,1.6s-0.9,0.8-1.5,1
			C423.6,76.1,423,76.2,422.3,76.2z M422.2,73.9c0.5,0,1-0.2,1.2-0.7s0.4-1.1,0.4-2s-0.2-1.5-0.5-1.9s-0.7-0.6-1.2-0.6
			c-0.3,0-0.7,0.1-1.1,0.3s-0.7,0.5-1,0.9v0.6c0,1.1,0.2,2,0.5,2.5C421.1,73.6,421.6,73.9,422.2,73.9z M428.6,72v-2.1h4.9V72H428.6z
			 M440,76.2c-0.7,0-1.3-0.1-1.9-0.3c-0.6-0.2-1.1-0.6-1.5-1s-0.8-1-1-1.6c-0.3-0.6-0.4-1.4-0.4-2.2c0-0.8,0.1-1.6,0.4-2.2
			s0.7-1.2,1.1-1.6s1-0.8,1.6-1s1.3-0.4,2-0.4c0.6,0,1.2,0.1,1.6,0.3c0.5,0.2,0.9,0.5,1.3,0.8l-1.4,1.9c-0.5-0.4-0.9-0.6-1.3-0.6
			c-0.7,0-1.3,0.3-1.7,0.8c-0.4,0.5-0.6,1.2-0.6,2.1s0.2,1.6,0.6,2.1s0.9,0.8,1.6,0.8c0.3,0,0.6-0.1,0.9-0.2s0.6-0.3,0.9-0.5
			l1.2,1.9c-0.5,0.4-1,0.7-1.6,0.9S440.6,76.2,440,76.2z M448.9,76.2c-0.7,0-1.4-0.1-2-0.3s-1.1-0.6-1.6-1s-0.8-1-1.1-1.6
			c-0.3-0.6-0.4-1.4-0.4-2.2c0-0.8,0.1-1.5,0.4-2.2c0.3-0.6,0.6-1.2,1-1.6s0.9-0.8,1.5-1s1.1-0.4,1.7-0.4c0.7,0,1.3,0.1,1.9,0.4
			c0.5,0.2,1,0.6,1.3,1c0.4,0.4,0.6,0.9,0.8,1.5s0.3,1.2,0.3,1.9c0,0.3,0,0.5,0,0.8c0,0.2-0.1,0.4-0.1,0.5h-5.9
			c0.1,0.7,0.4,1.2,0.9,1.6c0.5,0.3,1,0.5,1.7,0.5s1.4-0.2,2.1-0.7l1,1.8c-0.5,0.3-1.1,0.6-1.7,0.8
			C450.1,76.1,449.5,76.2,448.9,76.2z M446.7,70h3.6c0-0.6-0.1-1-0.4-1.4c-0.3-0.3-0.7-0.5-1.3-0.5c-0.5,0-0.9,0.2-1.2,0.5
			C447,68.8,446.8,69.3,446.7,70z M454.8,79.7V66.1h2.4l0.2,1h0.1c0.4-0.3,0.8-0.6,1.3-0.9c0.5-0.2,1-0.4,1.5-0.4
			c0.6,0,1.1,0.1,1.6,0.4c0.5,0.2,0.9,0.6,1.2,1c0.3,0.4,0.6,1,0.8,1.6s0.3,1.3,0.3,2.1c0,0.9-0.1,1.6-0.4,2.3
			c-0.2,0.7-0.5,1.2-0.9,1.7s-0.8,0.8-1.3,1s-1,0.4-1.5,0.4c-0.4,0-0.8-0.1-1.2-0.3c-0.4-0.2-0.8-0.4-1.1-0.8l0.1,1.6v2.9
			C457.9,79.7,454.8,79.7,454.8,79.7z M459.4,73.8c0.5,0,0.9-0.2,1.3-0.7s0.5-1.2,0.5-2.2c0-1.8-0.6-2.7-1.7-2.7
			c-0.6,0-1.1,0.3-1.7,0.9v4.1c0.3,0.2,0.5,0.4,0.8,0.5C458.8,73.8,459.1,73.8,459.4,73.8z M466.3,76v-9.9h4.2c0.6,0,1.1,0,1.6,0.1
			s0.9,0.2,1.3,0.4c0.4,0.2,0.6,0.5,0.9,0.8s0.3,0.7,0.3,1.2c0,0.4-0.1,0.8-0.4,1.2c-0.3,0.4-0.7,0.7-1.3,0.8v0.1
			c0.6,0.1,1.1,0.4,1.5,0.8s0.5,0.9,0.5,1.6c0,0.5-0.1,0.9-0.3,1.3s-0.5,0.7-0.9,0.9c-0.4,0.2-0.8,0.4-1.3,0.5s-1,0.2-1.6,0.2H466.3
			z M469.1,70h1.2c0.5,0,0.8-0.1,1.1-0.2c0.2-0.2,0.3-0.4,0.3-0.7s-0.1-0.5-0.3-0.7s-0.6-0.3-1.1-0.3h-1.2V70z M469.1,74.1h1.4
			c0.5,0,0.9-0.1,1.1-0.3s0.3-0.5,0.3-0.8s-0.1-0.5-0.4-0.7c-0.2-0.2-0.6-0.3-1.1-0.3H469v2.1H469.1z M481.3,76.2
			c-0.7,0-1.4-0.1-2-0.3s-1.1-0.6-1.6-1s-0.8-1-1.1-1.6c-0.3-0.6-0.4-1.4-0.4-2.2c0-0.8,0.1-1.5,0.4-2.2c0.3-0.6,0.6-1.2,1-1.6
			s0.9-0.8,1.5-1s1.1-0.4,1.7-0.4c0.7,0,1.3,0.1,1.8,0.4c0.5,0.2,1,0.6,1.3,1c0.4,0.4,0.6,0.9,0.8,1.5s0.3,1.2,0.3,1.9
			c0,0.3,0,0.5,0,0.8c0,0.2-0.1,0.4-0.1,0.5H479c0.1,0.7,0.4,1.2,0.9,1.6c0.5,0.3,1,0.5,1.7,0.5s1.4-0.2,2.1-0.7l1,1.8
			c-0.5,0.3-1.1,0.6-1.7,0.8C482.5,76.1,481.9,76.2,481.3,76.2z M479.1,70h3.6c0-0.6-0.1-1-0.4-1.4c-0.3-0.3-0.7-0.5-1.3-0.5
			c-0.5,0-0.9,0.2-1.2,0.5C479.4,68.8,479.2,69.3,479.1,70z M487.2,79.7V66.1h2.4l0.2,1h0.1c0.4-0.3,0.8-0.6,1.3-0.9
			c0.5-0.2,1-0.4,1.5-0.4c0.6,0,1.1,0.1,1.6,0.4c0.5,0.2,0.9,0.6,1.2,1c0.3,0.4,0.6,1,0.8,1.6c0.2,0.6,0.3,1.3,0.3,2.1
			c0,0.9-0.1,1.6-0.4,2.3s-0.5,1.2-0.9,1.7s-0.8,0.8-1.3,1s-1,0.4-1.5,0.4c-0.4,0-0.8-0.1-1.2-0.3c-0.4-0.2-0.8-0.4-1.1-0.8l0.1,1.6
			v2.9C490.3,79.7,487.2,79.7,487.2,79.7z M491.7,73.8c0.5,0,0.9-0.2,1.3-0.7s0.5-1.2,0.5-2.2c0-1.8-0.6-2.7-1.7-2.7
			c-0.6,0-1.1,0.3-1.7,0.9v4.1c0.3,0.2,0.5,0.4,0.8,0.5C491.2,73.8,491.5,73.8,491.7,73.8z"/>
	</g>
</g>
<rect x="358" y="54" class="st9" width="10" height="75"/>
<rect id="Rectangle-Copy-2" x="200" y="54" class="st9" width="10" height="31"/>
<rect id="Rectangle-Copy-3" x="200" y="97" class="st9" width="10" height="32"/>
<rect id="Rectangle-Copy-6" x="518" y="97" class="st9" width="10" height="32"/>
<rect id="Rectangle-Copy" x="676" y="98" class="st9" width="10" height="31"/>
<g>
	<g>
		<path id="path-3" class="st2" d="M263.4,51V39.6h1.3v3.1v1.6c0.4-0.4,0.8-0.7,1.2-0.9s0.9-0.4,1.4-0.4c0.8,0,1.4,0.3,1.8,0.8
			s0.6,1.3,0.6,2.3V51h-1.3v-4.8c0-0.7-0.1-1.3-0.4-1.6c-0.2-0.3-0.6-0.5-1.1-0.5c-0.4,0-0.8,0.1-1.1,0.3s-0.7,0.5-1.1,0.9V51H263.4
			z M274.6,51.2c-0.4,0-0.8-0.1-1-0.2c-0.3-0.1-0.5-0.3-0.7-0.5s-0.3-0.5-0.4-0.8s-0.1-0.7-0.1-1.1v-4.3h-1.2v-1l1.2-0.1l0.2-2.2
			h1.1v2.2h2.1v1.1h-2.1v4.3c0,0.5,0.1,0.9,0.3,1.1s0.5,0.4,0.9,0.4c0.1,0,0.3,0,0.4-0.1s0.3-0.1,0.4-0.1l0.3,1
			c-0.2,0.1-0.4,0.1-0.7,0.2C275.1,51.2,274.8,51.2,274.6,51.2z M279.7,51.2c-0.4,0-0.8-0.1-1-0.2c-0.3-0.1-0.5-0.3-0.7-0.5
			s-0.3-0.5-0.4-0.8s-0.1-0.7-0.1-1.1v-4.3h-1.2v-1l1.2-0.1l0.2-2.2h1.1v2.2h2.1v1.1h-2.1v4.3c0,0.5,0.1,0.9,0.3,1.1
			c0.2,0.3,0.5,0.4,0.9,0.4c0.1,0,0.3,0,0.4-0.1s0.3-0.1,0.4-0.1l0.3,1c-0.2,0.1-0.4,0.1-0.7,0.2S279.9,51.2,279.7,51.2z
			 M282.6,54.3V43.2h1.1l0.1,0.9l0,0c0.4-0.3,0.7-0.6,1.2-0.8c0.4-0.2,0.9-0.3,1.3-0.3c0.5,0,0.9,0.1,1.3,0.3s0.7,0.5,1,0.8
			s0.5,0.8,0.6,1.2s0.2,1,0.2,1.6c0,0.7-0.1,1.3-0.3,1.8c-0.2,0.5-0.4,1-0.7,1.3c-0.3,0.4-0.7,0.6-1.1,0.8s-0.8,0.3-1.3,0.3
			c-0.4,0-0.7-0.1-1.1-0.2c-0.4-0.2-0.7-0.4-1.1-0.7v1.4v2.6h-1.2V54.3z M285.8,50.1c0.3,0,0.6-0.1,0.9-0.2c0.3-0.1,0.5-0.3,0.7-0.6
			s0.4-0.6,0.5-1s0.2-0.8,0.2-1.3c0-0.4,0-0.8-0.1-1.2s-0.2-0.7-0.4-0.9c-0.2-0.3-0.4-0.4-0.6-0.6c-0.3-0.1-0.6-0.2-0.9-0.2
			s-0.7,0.1-1,0.3s-0.7,0.4-1.1,0.8v4.1c0.4,0.3,0.7,0.5,1,0.6C285.3,50,285.6,50.1,285.8,50.1z M293.6,53.8
			c-0.7-1.1-1.2-2.2-1.6-3.4s-0.6-2.5-0.6-3.9s0.2-2.7,0.6-3.9s0.9-2.3,1.6-3.4l0.8,0.4c-0.6,1-1.1,2.1-1.4,3.3s-0.5,2.4-0.5,3.6
			c0,1.2,0.2,2.4,0.5,3.6c0.3,1.2,0.8,2.3,1.4,3.3L293.6,53.8z M298.4,51.2c-0.6,0-1.1-0.1-1.6-0.3s-0.9-0.5-1.3-0.8l0.7-0.9
			c0.3,0.3,0.7,0.5,1,0.7c0.4,0.2,0.8,0.3,1.2,0.3c0.5,0,0.9-0.1,1.2-0.4c0.3-0.2,0.4-0.5,0.4-0.9c0-0.2-0.1-0.4-0.2-0.5
			s-0.2-0.3-0.4-0.4c-0.2-0.1-0.4-0.2-0.6-0.3l-0.6-0.3c-0.3-0.1-0.6-0.2-0.8-0.3c-0.3-0.1-0.5-0.3-0.7-0.4
			c-0.2-0.2-0.4-0.4-0.5-0.6c-0.1-0.2-0.2-0.5-0.2-0.8s0.1-0.6,0.2-0.9c0.1-0.3,0.3-0.5,0.5-0.7s0.5-0.4,0.8-0.5s0.7-0.2,1.1-0.2
			c0.5,0,0.9,0.1,1.4,0.3c0.4,0.2,0.8,0.4,1.1,0.6l-0.6,0.8c-0.3-0.2-0.5-0.4-0.8-0.5s-0.6-0.2-0.9-0.2c-0.5,0-0.9,0.1-1.1,0.3
			s-0.3,0.5-0.3,0.8c0,0.2,0,0.3,0.1,0.5c0.1,0.1,0.2,0.3,0.4,0.4s0.3,0.2,0.6,0.3c0.2,0.1,0.4,0.2,0.6,0.2c0.3,0.1,0.6,0.2,0.8,0.3
			c0.3,0.1,0.5,0.3,0.8,0.4c0.2,0.2,0.4,0.4,0.6,0.6s0.2,0.6,0.2,0.9c0,0.3-0.1,0.6-0.2,0.9c-0.1,0.3-0.3,0.5-0.5,0.7
			s-0.5,0.4-0.9,0.5C299.2,51.1,298.8,51.2,298.4,51.2z M303.2,53.8l-0.8-0.4c0.6-1,1.1-2.1,1.4-3.3s0.5-2.4,0.5-3.6
			c0-1.2-0.2-2.4-0.5-3.6c-0.3-1.2-0.8-2.3-1.4-3.3l0.8-0.4c0.7,1.1,1.2,2.2,1.6,3.4s0.6,2.5,0.6,3.9s-0.2,2.7-0.6,3.9
			C304.3,51.6,303.8,52.7,303.2,53.8z"/>
	</g>
	<g>
		<path class="st3" d="M263.4,51V39.6h1.3v3.1v1.6c0.4-0.4,0.8-0.7,1.2-0.9s0.9-0.4,1.4-0.4c0.8,0,1.4,0.3,1.8,0.8s0.6,1.3,0.6,2.3
			V51h-1.3v-4.8c0-0.7-0.1-1.3-0.4-1.6c-0.2-0.3-0.6-0.5-1.1-0.5c-0.4,0-0.8,0.1-1.1,0.3s-0.7,0.5-1.1,0.9V51H263.4z M274.6,51.2
			c-0.4,0-0.8-0.1-1-0.2c-0.3-0.1-0.5-0.3-0.7-0.5s-0.3-0.5-0.4-0.8s-0.1-0.7-0.1-1.1v-4.3h-1.2v-1l1.2-0.1l0.2-2.2h1.1v2.2h2.1v1.1
			h-2.1v4.3c0,0.5,0.1,0.9,0.3,1.1s0.5,0.4,0.9,0.4c0.1,0,0.3,0,0.4-0.1s0.3-0.1,0.4-0.1l0.3,1c-0.2,0.1-0.4,0.1-0.7,0.2
			C275.1,51.2,274.8,51.2,274.6,51.2z M279.7,51.2c-0.4,0-0.8-0.1-1-0.2c-0.3-0.1-0.5-0.3-0.7-0.5s-0.3-0.5-0.4-0.8
			s-0.1-0.7-0.1-1.1v-4.3h-1.2v-1l1.2-0.1l0.2-2.2h1.1v2.2h2.1v1.1h-2.1v4.3c0,0.5,0.1,0.9,0.3,1.1c0.2,0.3,0.5,0.4,0.9,0.4
			c0.1,0,0.3,0,0.4-0.1s0.3-0.1,0.4-0.1l0.3,1c-0.2,0.1-0.4,0.1-0.7,0.2S279.9,51.2,279.7,51.2z M282.6,54.3V43.2h1.1l0.1,0.9l0,0
			c0.4-0.3,0.7-0.6,1.2-0.8c0.4-0.2,0.9-0.3,1.3-0.3c0.5,0,0.9,0.1,1.3,0.3s0.7,0.5,1,0.8s0.5,0.8,0.6,1.2s0.2,1,0.2,1.6
			c0,0.7-0.1,1.3-0.3,1.8c-0.2,0.5-0.4,1-0.7,1.3c-0.3,0.4-0.7,0.6-1.1,0.8s-0.8,0.3-1.3,0.3c-0.4,0-0.7-0.1-1.1-0.2
			c-0.4-0.2-0.7-0.4-1.1-0.7v1.4v2.6h-1.2V54.3z M285.8,50.1c0.3,0,0.6-0.1,0.9-0.2c0.3-0.1,0.5-0.3,0.7-0.6s0.4-0.6,0.5-1
			s0.2-0.8,0.2-1.3c0-0.4,0-0.8-0.1-1.2s-0.2-0.7-0.4-0.9c-0.2-0.3-0.4-0.4-0.6-0.6c-0.3-0.1-0.6-0.2-0.9-0.2s-0.7,0.1-1,0.3
			s-0.7,0.4-1.1,0.8v4.1c0.4,0.3,0.7,0.5,1,0.6C285.3,50,285.6,50.1,285.8,50.1z M293.6,53.8c-0.7-1.1-1.2-2.2-1.6-3.4
			s-0.6-2.5-0.6-3.9s0.2-2.7,0.6-3.9s0.9-2.3,1.6-3.4l0.8,0.4c-0.6,1-1.1,2.1-1.4,3.3s-0.5,2.4-0.5,3.6c0,1.2,0.2,2.4,0.5,3.6
			c0.3,1.2,0.8,2.3,1.4,3.3L293.6,53.8z M298.4,51.2c-0.6,0-1.1-0.1-1.6-0.3s-0.9-0.5-1.3-0.8l0.7-0.9c0.3,0.3,0.7,0.5,1,0.7
			c0.4,0.2,0.8,0.3,1.2,0.3c0.5,0,0.9-0.1,1.2-0.4c0.3-0.2,0.4-0.5,0.4-0.9c0-0.2-0.1-0.4-0.2-0.5s-0.2-0.3-0.4-0.4
			c-0.2-0.1-0.4-0.2-0.6-0.3l-0.6-0.3c-0.3-0.1-0.6-0.2-0.8-0.3c-0.3-0.1-0.5-0.3-0.7-0.4c-0.2-0.2-0.4-0.4-0.5-0.6
			c-0.1-0.2-0.2-0.5-0.2-0.8s0.1-0.6,0.2-0.9c0.1-0.3,0.3-0.5,0.5-0.7s0.5-0.4,0.8-0.5s0.7-0.2,1.1-0.2c0.5,0,0.9,0.1,1.4,0.3
			c0.4,0.2,0.8,0.4,1.1,0.6l-0.6,0.8c-0.3-0.2-0.5-0.4-0.8-0.5s-0.6-0.2-0.9-0.2c-0.5,0-0.9,0.1-1.1,0.3s-0.3,0.5-0.3,0.8
			c0,0.2,0,0.3,0.1,0.5c0.1,0.1,0.2,0.3,0.4,0.4s0.3,0.2,0.6,0.3c0.2,0.1,0.4,0.2,0.6,0.2c0.3,0.1,0.6,0.2,0.8,0.3
			c0.3,0.1,0.5,0.3,0.8,0.4c0.2,0.2,0.4,0.4,0.6,0.6s0.2,0.6,0.2,0.9c0,0.3-0.1,0.6-0.2,0.9c-0.1,0.3-0.3,0.5-0.5,0.7
			s-0.5,0.4-0.9,0.5C299.2,51.1,298.8,51.2,298.4,51.2z M303.2,53.8l-0.8-0.4c0.6-1,1.1-2.1,1.4-3.3s0.5-2.4,0.5-3.6
			c0-1.2-0.2-2.4-0.5-3.6c-0.3-1.2-0.8-2.3-1.4-3.3l0.8-0.4c0.7,1.1,1.2,2.2,1.6,3.4s0.6,2.5,0.6,3.9s-0.2,2.7-0.6,3.9
			C304.3,51.6,303.8,52.7,303.2,53.8z"/>
	</g>
</g>
<g>
	<g>
		<path id="path-4" class="st2" d="M175.4,73v-1h2v-6.6h-1.6v-0.7c0.4-0.1,0.8-0.2,1.1-0.3c0.3-0.1,0.6-0.2,0.8-0.4h0.9v8h1.8v1
			H175.4z M183,73.2c-0.2,0-0.4-0.1-0.6-0.2c-0.2-0.2-0.2-0.4-0.2-0.6c0-0.3,0.1-0.5,0.2-0.7c0.2-0.2,0.4-0.2,0.6-0.2
			c0.2,0,0.4,0.1,0.6,0.2c0.2,0.2,0.2,0.4,0.2,0.7c0,0.3-0.1,0.5-0.2,0.6C183.4,73.1,183.2,73.2,183,73.2z"/>
	</g>
	<g>
		<path class="st3" d="M175.4,73v-1h2v-6.6h-1.6v-0.7c0.4-0.1,0.8-0.2,1.1-0.3c0.3-0.1,0.6-0.2,0.8-0.4h0.9v8h1.8v1H175.4z
			 M183,73.2c-0.2,0-0.4-0.1-0.6-0.2c-0.2-0.2-0.2-0.4-0.2-0.6c0-0.3,0.1-0.5,0.2-0.7c0.2-0.2,0.4-0.2,0.6-0.2
			c0.2,0,0.4,0.1,0.6,0.2c0.2,0.2,0.2,0.4,0.2,0.7c0,0.3-0.1,0.5-0.2,0.6C183.4,73.1,183.2,73.2,183,73.2z"/>
	</g>
</g>
<g>
	<g>
		<path id="path-5" class="st2" d="M174.8,117v-0.7c0.7-0.7,1.3-1.3,1.8-1.8s1-1,1.3-1.5c0.4-0.5,0.6-0.9,0.8-1.3s0.3-0.8,0.3-1.1
			c0-0.5-0.1-0.9-0.4-1.3s-0.7-0.5-1.3-0.5c-0.4,0-0.7,0.1-1,0.3s-0.6,0.5-0.9,0.8l-0.7-0.7c0.4-0.4,0.8-0.7,1.2-1
			c0.4-0.2,0.9-0.4,1.5-0.4c0.8,0,1.5,0.2,2,0.7s0.7,1.1,0.7,1.9c0,0.4-0.1,0.8-0.3,1.3c-0.2,0.4-0.4,0.9-0.8,1.3
			c-0.3,0.5-0.7,0.9-1.1,1.4c-0.4,0.5-0.9,1-1.5,1.6c0.2,0,0.5,0,0.8-0.1c0.3,0,0.5,0,0.7,0h2.6v1L174.8,117L174.8,117z M183,117.2
			c-0.2,0-0.4-0.1-0.6-0.2c-0.2-0.2-0.2-0.4-0.2-0.6c0-0.3,0.1-0.5,0.2-0.7c0.2-0.2,0.4-0.2,0.6-0.2c0.2,0,0.4,0.1,0.6,0.2
			c0.2,0.2,0.2,0.4,0.2,0.7c0,0.3-0.1,0.5-0.2,0.6C183.4,117.1,183.2,117.2,183,117.2z"/>
	</g>
	<g>
		<path class="st3" d="M174.8,117v-0.7c0.7-0.7,1.3-1.3,1.8-1.8s1-1,1.3-1.5c0.4-0.5,0.6-0.9,0.8-1.3s0.3-0.8,0.3-1.1
			c0-0.5-0.1-0.9-0.4-1.3s-0.7-0.5-1.3-0.5c-0.4,0-0.7,0.1-1,0.3s-0.6,0.5-0.9,0.8l-0.7-0.7c0.4-0.4,0.8-0.7,1.2-1
			c0.4-0.2,0.9-0.4,1.5-0.4c0.8,0,1.5,0.2,2,0.7s0.7,1.1,0.7,1.9c0,0.4-0.1,0.8-0.3,1.3c-0.2,0.4-0.4,0.9-0.8,1.3
			c-0.3,0.5-0.7,0.9-1.1,1.4c-0.4,0.5-0.9,1-1.5,1.6c0.2,0,0.5,0,0.8-0.1c0.3,0,0.5,0,0.7,0h2.6v1L174.8,117L174.8,117z M183,117.2
			c-0.2,0-0.4-0.1-0.6-0.2c-0.2-0.2-0.2-0.4-0.2-0.6c0-0.3,0.1-0.5,0.2-0.7c0.2-0.2,0.4-0.2,0.6-0.2c0.2,0,0.4,0.1,0.6,0.2
			c0.2,0.2,0.2,0.4,0.2,0.7c0,0.3-0.1,0.5-0.2,0.6C183.4,117.1,183.2,117.2,183,117.2z"/>
	</g>
</g>
<g class="st7">
	<path class="st8" d="M318.5,7.8c-0.2,0-0.4-0.1-0.5-0.2s-0.2-0.3-0.2-0.5s0.1-0.4,0.2-0.6c0.1-0.1,0.3-0.2,0.5-0.2s0.4,0.1,0.5,0.2
		s0.2,0.3,0.2,0.6c0,0.2-0.1,0.4-0.2,0.5C318.9,7.7,318.7,7.8,318.5,7.8z M318.5,12.1c-0.2,0-0.4-0.1-0.5-0.2
		c-0.1-0.1-0.2-0.3-0.2-0.5s0.1-0.4,0.2-0.6c0.1-0.1,0.3-0.2,0.5-0.2s0.4,0.1,0.5,0.2c0.1,0.1,0.2,0.3,0.2,0.6
		c0,0.2-0.1,0.4-0.2,0.5C318.9,12.1,318.7,12.1,318.5,12.1z"/>
	<path class="st8" d="M323,12.1c-0.4,0-0.7-0.1-1-0.2c-0.3-0.1-0.6-0.2-0.8-0.4c-0.2-0.2-0.4-0.4-0.5-0.7s-0.2-0.5-0.2-0.8
		c0-0.2,0-0.5,0.1-0.7s0.2-0.4,0.3-0.6c0.1-0.2,0.3-0.3,0.5-0.5s0.4-0.2,0.5-0.3l0,0c-0.3-0.2-0.5-0.4-0.7-0.7s-0.3-0.6-0.3-1
		c0-0.3,0.1-0.6,0.2-0.8c0.1-0.2,0.3-0.4,0.5-0.6s0.4-0.3,0.7-0.4c0.3-0.1,0.6-0.1,0.9-0.1s0.6,0,0.9,0.1s0.5,0.2,0.7,0.4
		s0.3,0.4,0.4,0.6s0.2,0.5,0.2,0.8c0,0.2,0,0.4-0.1,0.6s-0.2,0.4-0.3,0.5s-0.2,0.3-0.3,0.4c-0.1,0.1-0.2,0.2-0.4,0.3l0,0
		c0.2,0.1,0.3,0.2,0.5,0.3s0.3,0.3,0.4,0.4c0.1,0.2,0.2,0.3,0.3,0.5s0.1,0.4,0.1,0.7s-0.1,0.6-0.2,0.8s-0.3,0.5-0.5,0.6
		c-0.2,0.2-0.5,0.3-0.8,0.4C323.7,12.1,323.4,12.1,323,12.1z M323,11.4c0.4,0,0.8-0.1,1.1-0.4s0.4-0.6,0.4-1c0-0.2-0.1-0.5-0.2-0.6
		c-0.1-0.2-0.3-0.3-0.5-0.5s-0.4-0.3-0.7-0.4c-0.3-0.1-0.5-0.2-0.8-0.3c-0.3,0.2-0.6,0.5-0.8,0.7c-0.2,0.3-0.3,0.6-0.3,0.9
		c0,0.2,0,0.4,0.1,0.6s0.2,0.3,0.3,0.5s0.3,0.2,0.5,0.3C322.6,11.4,322.8,11.4,323,11.4z M323.5,7.8c0.3-0.2,0.5-0.5,0.6-0.7
		c0.1-0.3,0.2-0.5,0.2-0.8c0-0.4-0.1-0.7-0.3-1c-0.2-0.3-0.6-0.4-1-0.4s-0.7,0.1-0.9,0.3s-0.3,0.5-0.3,0.9c0,0.2,0,0.4,0.1,0.6
		s0.2,0.3,0.4,0.4c0.2,0.1,0.4,0.2,0.6,0.3C323.1,7.6,323.3,7.7,323.5,7.8z"/>
	<path class="st8" d="M328.9,12.1c-0.8,0-1.4-0.3-1.8-1s-0.6-1.7-0.6-3s0.2-2.3,0.6-2.9c0.4-0.7,1-1,1.8-1s1.4,0.3,1.8,1
		s0.6,1.7,0.6,2.9s-0.2,2.3-0.6,3S329.7,12.1,328.9,12.1z M328.9,11.4c0.2,0,0.4-0.1,0.6-0.2c0.2-0.1,0.3-0.3,0.5-0.6
		c0.1-0.3,0.2-0.6,0.3-1c0.1-0.4,0.1-0.9,0.1-1.4c0-0.6,0-1-0.1-1.4s-0.2-0.7-0.3-1c-0.1-0.3-0.3-0.4-0.5-0.6
		c-0.2-0.1-0.4-0.2-0.6-0.2s-0.4,0.1-0.6,0.2s-0.3,0.3-0.5,0.6c-0.1,0.3-0.2,0.6-0.3,1c-0.1,0.4-0.1,0.9-0.1,1.4
		c0,1.1,0.1,1.9,0.4,2.4C328.1,11.1,328.5,11.4,328.9,11.4z"/>
</g>
<g class="st7">
	<path class="st8" d="M318.5,22.8c-0.2,0-0.4-0.1-0.5-0.2s-0.2-0.3-0.2-0.5s0.1-0.4,0.2-0.6c0.1-0.1,0.3-0.2,0.5-0.2
		s0.4,0.1,0.5,0.2s0.2,0.3,0.2,0.6c0,0.2-0.1,0.4-0.2,0.5C318.9,22.7,318.7,22.8,318.5,22.8z M318.5,27.1c-0.2,0-0.4-0.1-0.5-0.2
		s-0.2-0.3-0.2-0.5s0.1-0.4,0.2-0.6c0.1-0.1,0.3-0.2,0.5-0.2s0.4,0.1,0.5,0.2s0.2,0.3,0.2,0.6c0,0.2-0.1,0.4-0.2,0.5
		C318.9,27.1,318.7,27.1,318.5,27.1z"/>
	<path class="st8" d="M323.6,27v-2.1h-3.4v-0.6l3.3-4.9h1.1v4.8h1V25h-1v2H323.6z M321.2,24.1h2.4v-2.2c0-0.2,0-0.5,0-0.7
		c0-0.3,0-0.5,0-0.7l0,0c-0.1,0.2-0.2,0.4-0.3,0.5c-0.1,0.2-0.2,0.4-0.3,0.5L321.2,24.1z"/>
	<path class="st8" d="M329.6,27v-2.1h-3.4v-0.6l3.3-4.9h1.1v4.8h1V25h-1v2H329.6z M327.2,24.1h2.4v-2.2c0-0.2,0-0.5,0-0.7
		c0-0.3,0-0.5,0-0.7l0,0c-0.1,0.2-0.2,0.4-0.3,0.5c-0.1,0.2-0.2,0.4-0.3,0.5L327.2,24.1z"/>
	<path class="st8" d="M334.7,27.1c-0.3,0-0.6,0-0.8-0.1c-0.3-0.1-0.5-0.1-0.7-0.2s-0.4-0.2-0.6-0.3s-0.3-0.3-0.4-0.4l0.5-0.6
		c0.2,0.2,0.5,0.5,0.8,0.6c0.3,0.2,0.7,0.3,1.1,0.3c0.5,0,0.8-0.1,1.1-0.4s0.4-0.6,0.4-1c0-0.2,0-0.4-0.1-0.6s-0.2-0.3-0.4-0.5
		c-0.2-0.1-0.4-0.2-0.8-0.3c-0.3-0.1-0.7-0.1-1.2-0.1v-0.8c0.4,0,0.8,0,1-0.1c0.3-0.1,0.5-0.2,0.7-0.3c0.2-0.1,0.3-0.3,0.4-0.5
		s0.1-0.4,0.1-0.6c0-0.4-0.1-0.7-0.4-0.9c-0.2-0.2-0.6-0.3-1-0.3c-0.3,0-0.6,0.1-0.9,0.2s-0.5,0.3-0.8,0.6l-0.5-0.6
		c0.3-0.3,0.6-0.5,1-0.7s0.8-0.3,1.2-0.3c0.3,0,0.6,0,0.9,0.1s0.5,0.2,0.7,0.4s0.4,0.4,0.5,0.6s0.2,0.5,0.2,0.8
		c0,0.5-0.1,0.8-0.4,1.1s-0.6,0.5-1,0.7l0,0c0.2,0.1,0.4,0.1,0.6,0.2s0.4,0.2,0.5,0.4c0.2,0.2,0.3,0.4,0.4,0.6s0.1,0.5,0.1,0.7
		c0,0.3-0.1,0.6-0.2,0.9s-0.3,0.5-0.5,0.7s-0.5,0.3-0.8,0.4C335.4,27.1,335.1,27.1,334.7,27.1z"/>
</g>
<g id=":8080">
	<g>
		<path id="path-6" class="st2" d="M631.5,51.8c-0.2,0-0.4-0.1-0.5-0.2c-0.1-0.1-0.2-0.3-0.2-0.5s0.1-0.4,0.2-0.6
			c0.1-0.1,0.3-0.2,0.5-0.2s0.4,0.1,0.5,0.2c0.1,0.1,0.2,0.3,0.2,0.6c0,0.2-0.1,0.4-0.2,0.5C631.9,51.7,631.7,51.8,631.5,51.8z
			 M631.5,56.1c-0.2,0-0.4-0.1-0.5-0.2c-0.1-0.1-0.2-0.3-0.2-0.5s0.1-0.4,0.2-0.6c0.1-0.1,0.3-0.2,0.5-0.2s0.4,0.1,0.5,0.2
			c0.1,0.1,0.2,0.3,0.2,0.6c0,0.2-0.1,0.4-0.2,0.5C631.9,56.1,631.7,56.1,631.5,56.1z M636,56.1c-0.4,0-0.7-0.1-1-0.2
			c-0.3-0.1-0.6-0.2-0.8-0.4s-0.4-0.4-0.5-0.7s-0.2-0.5-0.2-0.8c0-0.2,0-0.5,0.1-0.7s0.2-0.4,0.3-0.6s0.3-0.3,0.5-0.5
			c0.2-0.1,0.4-0.2,0.5-0.3l0,0c-0.3-0.2-0.5-0.4-0.7-0.7s-0.3-0.6-0.3-1c0-0.3,0.1-0.6,0.2-0.8c0.1-0.2,0.3-0.4,0.5-0.6
			s0.4-0.3,0.7-0.4c0.3-0.1,0.6-0.1,0.9-0.1c0.3,0,0.6,0,0.9,0.1c0.3,0.1,0.5,0.2,0.7,0.4s0.3,0.4,0.4,0.6c0.1,0.3,0.2,0.5,0.2,0.8
			c0,0.2,0,0.4-0.1,0.6c-0.1,0.2-0.2,0.4-0.3,0.5c-0.1,0.2-0.2,0.3-0.3,0.4c-0.1,0.1-0.2,0.2-0.4,0.3l0,0c0.2,0.1,0.3,0.2,0.5,0.3
			s0.3,0.3,0.4,0.4c0.1,0.2,0.2,0.3,0.3,0.5s0.1,0.4,0.1,0.7s-0.1,0.6-0.2,0.8c-0.1,0.2-0.3,0.5-0.5,0.6s-0.5,0.3-0.8,0.4
			C636.7,56.1,636.4,56.1,636,56.1z M636.5,51.8c0.3-0.2,0.5-0.5,0.6-0.7s0.2-0.5,0.2-0.8c0-0.4-0.1-0.7-0.3-1s-0.6-0.4-1-0.4
			s-0.7,0.1-0.9,0.3s-0.3,0.5-0.3,0.9c0,0.2,0,0.4,0.1,0.6s0.2,0.3,0.4,0.4c0.2,0.1,0.4,0.2,0.6,0.3
			C636.1,51.6,636.3,51.7,636.5,51.8z M636,55.4c0.4,0,0.8-0.1,1.1-0.4s0.4-0.6,0.4-1c0-0.2-0.1-0.5-0.2-0.6
			c-0.1-0.2-0.3-0.3-0.5-0.5c-0.2-0.1-0.4-0.3-0.7-0.4s-0.5-0.2-0.8-0.3c-0.3,0.2-0.6,0.5-0.8,0.7c-0.2,0.3-0.3,0.6-0.3,0.9
			c0,0.2,0,0.4,0.1,0.6c0.1,0.2,0.2,0.3,0.3,0.5s0.3,0.2,0.5,0.3C635.6,55.4,635.8,55.4,636,55.4z M641.9,56.1c-0.8,0-1.4-0.3-1.8-1
			s-0.6-1.7-0.6-3s0.2-2.3,0.6-2.9s1-1,1.8-1s1.4,0.3,1.8,1s0.6,1.7,0.6,2.9s-0.2,2.3-0.6,3S642.7,56.1,641.9,56.1z M641.9,55.4
			c0.2,0,0.4-0.1,0.6-0.2s0.3-0.3,0.5-0.6c0.1-0.3,0.2-0.6,0.3-1s0.1-0.9,0.1-1.4c0-0.6,0-1-0.1-1.4s-0.2-0.7-0.3-1
			s-0.3-0.4-0.5-0.6c-0.2-0.1-0.4-0.2-0.6-0.2s-0.4,0.1-0.6,0.2c-0.2,0.1-0.3,0.3-0.5,0.6s-0.2,0.6-0.3,1s-0.1,0.9-0.1,1.4
			c0,1.1,0.1,1.9,0.4,2.4S641.5,55.4,641.9,55.4z M647.9,56.1c-0.4,0-0.7-0.1-1-0.2s-0.6-0.2-0.8-0.4s-0.4-0.4-0.5-0.7
			s-0.2-0.5-0.2-0.8c0-0.2,0-0.5,0.1-0.7s0.2-0.4,0.3-0.6c0.1-0.2,0.3-0.3,0.5-0.5c0.2-0.1,0.3-0.2,0.5-0.3l0,0
			c-0.3-0.2-0.5-0.4-0.7-0.7s-0.3-0.6-0.3-1c0-0.3,0.1-0.6,0.2-0.8c0.1-0.2,0.3-0.4,0.5-0.6s0.4-0.3,0.7-0.4
			c0.3-0.1,0.6-0.1,0.9-0.1c0.3,0,0.6,0,0.9,0.1c0.3,0.1,0.5,0.2,0.7,0.4s0.3,0.4,0.4,0.6c0.1,0.3,0.2,0.5,0.2,0.8
			c0,0.2,0,0.4-0.1,0.6c-0.1,0.2-0.2,0.4-0.3,0.5s-0.2,0.3-0.3,0.4s-0.2,0.2-0.4,0.3l0,0c0.2,0.1,0.3,0.2,0.5,0.3s0.3,0.3,0.4,0.4
			c0.1,0.2,0.2,0.3,0.3,0.5s0.1,0.4,0.1,0.7s-0.1,0.6-0.2,0.8s-0.3,0.5-0.5,0.6s-0.5,0.3-0.8,0.4S648.3,56.1,647.9,56.1z
			 M648.5,51.8c0.3-0.2,0.5-0.5,0.6-0.7s0.2-0.5,0.2-0.8c0-0.4-0.1-0.7-0.3-1s-0.6-0.4-1-0.4s-0.7,0.1-0.9,0.3s-0.3,0.5-0.3,0.9
			c0,0.2,0,0.4,0.1,0.6s0.2,0.3,0.4,0.4c0.2,0.1,0.4,0.2,0.6,0.3C648,51.6,648.2,51.7,648.5,51.8z M647.9,55.4
			c0.4,0,0.8-0.1,1.1-0.4s0.4-0.6,0.4-1c0-0.2-0.1-0.5-0.2-0.6c-0.1-0.2-0.3-0.3-0.5-0.5c-0.2-0.1-0.4-0.3-0.7-0.4
			c-0.3-0.1-0.5-0.2-0.8-0.3c-0.3,0.2-0.6,0.5-0.8,0.7c-0.2,0.3-0.3,0.6-0.3,0.9c0,0.2,0,0.4,0.1,0.6c0.1,0.2,0.2,0.3,0.3,0.5
			s0.3,0.2,0.5,0.3C647.5,55.4,647.7,55.4,647.9,55.4z M653.9,56.1c-0.8,0-1.4-0.3-1.8-1c-0.4-0.7-0.6-1.7-0.6-3s0.2-2.3,0.6-2.9
			c0.4-0.7,1-1,1.8-1s1.4,0.3,1.8,1c0.4,0.7,0.6,1.7,0.6,2.9s-0.2,2.3-0.6,3C655.2,55.8,654.6,56.1,653.9,56.1z M653.9,55.4
			c0.2,0,0.4-0.1,0.6-0.2s0.3-0.3,0.5-0.6c0.1-0.3,0.2-0.6,0.3-1s0.1-0.9,0.1-1.4c0-0.6,0-1-0.1-1.4s-0.2-0.7-0.3-1
			s-0.3-0.4-0.5-0.6c-0.2-0.1-0.4-0.2-0.6-0.2s-0.4,0.1-0.6,0.2c-0.2,0.1-0.3,0.3-0.5,0.6c-0.1,0.3-0.2,0.6-0.3,1s-0.1,0.9-0.1,1.4
			c0,1.1,0.1,1.9,0.4,2.4S653.4,55.4,653.9,55.4z"/>
	</g>
	<g>
		<path class="st3" d="M631.5,51.8c-0.2,0-0.4-0.1-0.5-0.2c-0.1-0.1-0.2-0.3-0.2-0.5s0.1-0.4,0.2-0.6c0.1-0.1,0.3-0.2,0.5-0.2
			s0.4,0.1,0.5,0.2c0.1,0.1,0.2,0.3,0.2,0.6c0,0.2-0.1,0.4-0.2,0.5C631.9,51.7,631.7,51.8,631.5,51.8z M631.5,56.1
			c-0.2,0-0.4-0.1-0.5-0.2c-0.1-0.1-0.2-0.3-0.2-0.5s0.1-0.4,0.2-0.6c0.1-0.1,0.3-0.2,0.5-0.2s0.4,0.1,0.5,0.2
			c0.1,0.1,0.2,0.3,0.2,0.6c0,0.2-0.1,0.4-0.2,0.5C631.9,56.1,631.7,56.1,631.5,56.1z M636,56.1c-0.4,0-0.7-0.1-1-0.2
			c-0.3-0.1-0.6-0.2-0.8-0.4s-0.4-0.4-0.5-0.7s-0.2-0.5-0.2-0.8c0-0.2,0-0.5,0.1-0.7s0.2-0.4,0.3-0.6s0.3-0.3,0.5-0.5
			c0.2-0.1,0.4-0.2,0.5-0.3l0,0c-0.3-0.2-0.5-0.4-0.7-0.7s-0.3-0.6-0.3-1c0-0.3,0.1-0.6,0.2-0.8c0.1-0.2,0.3-0.4,0.5-0.6
			s0.4-0.3,0.7-0.4c0.3-0.1,0.6-0.1,0.9-0.1c0.3,0,0.6,0,0.9,0.1c0.3,0.1,0.5,0.2,0.7,0.4s0.3,0.4,0.4,0.6c0.1,0.3,0.2,0.5,0.2,0.8
			c0,0.2,0,0.4-0.1,0.6c-0.1,0.2-0.2,0.4-0.3,0.5c-0.1,0.2-0.2,0.3-0.3,0.4c-0.1,0.1-0.2,0.2-0.4,0.3l0,0c0.2,0.1,0.3,0.2,0.5,0.3
			s0.3,0.3,0.4,0.4c0.1,0.2,0.2,0.3,0.3,0.5s0.1,0.4,0.1,0.7s-0.1,0.6-0.2,0.8c-0.1,0.2-0.3,0.5-0.5,0.6s-0.5,0.3-0.8,0.4
			C636.7,56.1,636.4,56.1,636,56.1z M636.5,51.8c0.3-0.2,0.5-0.5,0.6-0.7s0.2-0.5,0.2-0.8c0-0.4-0.1-0.7-0.3-1s-0.6-0.4-1-0.4
			s-0.7,0.1-0.9,0.3s-0.3,0.5-0.3,0.9c0,0.2,0,0.4,0.1,0.6s0.2,0.3,0.4,0.4c0.2,0.1,0.4,0.2,0.6,0.3
			C636.1,51.6,636.3,51.7,636.5,51.8z M636,55.4c0.4,0,0.8-0.1,1.1-0.4s0.4-0.6,0.4-1c0-0.2-0.1-0.5-0.2-0.6
			c-0.1-0.2-0.3-0.3-0.5-0.5c-0.2-0.1-0.4-0.3-0.7-0.4s-0.5-0.2-0.8-0.3c-0.3,0.2-0.6,0.5-0.8,0.7c-0.2,0.3-0.3,0.6-0.3,0.9
			c0,0.2,0,0.4,0.1,0.6c0.1,0.2,0.2,0.3,0.3,0.5s0.3,0.2,0.5,0.3C635.6,55.4,635.8,55.4,636,55.4z M641.9,56.1c-0.8,0-1.4-0.3-1.8-1
			s-0.6-1.7-0.6-3s0.2-2.3,0.6-2.9s1-1,1.8-1s1.4,0.3,1.8,1s0.6,1.7,0.6,2.9s-0.2,2.3-0.6,3S642.7,56.1,641.9,56.1z M641.9,55.4
			c0.2,0,0.4-0.1,0.6-0.2s0.3-0.3,0.5-0.6c0.1-0.3,0.2-0.6,0.3-1s0.1-0.9,0.1-1.4c0-0.6,0-1-0.1-1.4s-0.2-0.7-0.3-1
			s-0.3-0.4-0.5-0.6c-0.2-0.1-0.4-0.2-0.6-0.2s-0.4,0.1-0.6,0.2c-0.2,0.1-0.3,0.3-0.5,0.6s-0.2,0.6-0.3,1s-0.1,0.9-0.1,1.4
			c0,1.1,0.1,1.9,0.4,2.4S641.5,55.4,641.9,55.4z M647.9,56.1c-0.4,0-0.7-0.1-1-0.2s-0.6-0.2-0.8-0.4s-0.4-0.4-0.5-0.7
			s-0.2-0.5-0.2-0.8c0-0.2,0-0.5,0.1-0.7s0.2-0.4,0.3-0.6c0.1-0.2,0.3-0.3,0.5-0.5c0.2-0.1,0.3-0.2,0.5-0.3l0,0
			c-0.3-0.2-0.5-0.4-0.7-0.7s-0.3-0.6-0.3-1c0-0.3,0.1-0.6,0.2-0.8c0.1-0.2,0.3-0.4,0.5-0.6s0.4-0.3,0.7-0.4
			c0.3-0.1,0.6-0.1,0.9-0.1c0.3,0,0.6,0,0.9,0.1c0.3,0.1,0.5,0.2,0.7,0.4s0.3,0.4,0.4,0.6c0.1,0.3,0.2,0.5,0.2,0.8
			c0,0.2,0,0.4-0.1,0.6c-0.1,0.2-0.2,0.4-0.3,0.5s-0.2,0.3-0.3,0.4s-0.2,0.2-0.4,0.3l0,0c0.2,0.1,0.3,0.2,0.5,0.3s0.3,0.3,0.4,0.4
			c0.1,0.2,0.2,0.3,0.3,0.5s0.1,0.4,0.1,0.7s-0.1,0.6-0.2,0.8s-0.3,0.5-0.5,0.6s-0.5,0.3-0.8,0.4S648.3,56.1,647.9,56.1z
			 M648.5,51.8c0.3-0.2,0.5-0.5,0.6-0.7s0.2-0.5,0.2-0.8c0-0.4-0.1-0.7-0.3-1s-0.6-0.4-1-0.4s-0.7,0.1-0.9,0.3s-0.3,0.5-0.3,0.9
			c0,0.2,0,0.4,0.1,0.6s0.2,0.3,0.4,0.4c0.2,0.1,0.4,0.2,0.6,0.3C648,51.6,648.2,51.7,648.5,51.8z M647.9,55.4
			c0.4,0,0.8-0.1,1.1-0.4s0.4-0.6,0.4-1c0-0.2-0.1-0.5-0.2-0.6c-0.1-0.2-0.3-0.3-0.5-0.5c-0.2-0.1-0.4-0.3-0.7-0.4
			c-0.3-0.1-0.5-0.2-0.8-0.3c-0.3,0.2-0.6,0.5-0.8,0.7c-0.2,0.3-0.3,0.6-0.3,0.9c0,0.2,0,0.4,0.1,0.6c0.1,0.2,0.2,0.3,0.3,0.5
			s0.3,0.2,0.5,0.3C647.5,55.4,647.7,55.4,647.9,55.4z M653.9,56.1c-0.8,0-1.4-0.3-1.8-1c-0.4-0.7-0.6-1.7-0.6-3s0.2-2.3,0.6-2.9
			c0.4-0.7,1-1,1.8-1s1.4,0.3,1.8,1c0.4,0.7,0.6,1.7,0.6,2.9s-0.2,2.3-0.6,3C655.2,55.8,654.6,56.1,653.9,56.1z M653.9,55.4
			c0.2,0,0.4-0.1,0.6-0.2s0.3-0.3,0.5-0.6c0.1-0.3,0.2-0.6,0.3-1s0.1-0.9,0.1-1.4c0-0.6,0-1-0.1-1.4s-0.2-0.7-0.3-1
			s-0.3-0.4-0.5-0.6c-0.2-0.1-0.4-0.2-0.6-0.2s-0.4,0.1-0.6,0.2c-0.2,0.1-0.3,0.3-0.5,0.6c-0.1,0.3-0.2,0.6-0.3,1s-0.1,0.9-0.1,1.4
			c0,1.1,0.1,1.9,0.4,2.4S653.4,55.4,653.9,55.4z"/>
	</g>
</g>
<g id=":8443">
	<g>
		<path id="path-7" class="st2" d="M631.5,66.8c-0.2,0-0.4-0.1-0.5-0.2s-0.2-0.3-0.2-0.5s0.1-0.4,0.2-0.6s0.3-0.2,0.5-0.2
			s0.4,0.1,0.5,0.2s0.2,0.3,0.2,0.6c0,0.2-0.1,0.4-0.2,0.5C631.9,66.7,631.7,66.8,631.5,66.8z M631.5,71.1c-0.2,0-0.4-0.1-0.5-0.2
			s-0.2-0.3-0.2-0.5s0.1-0.4,0.2-0.6c0.1-0.1,0.3-0.2,0.5-0.2s0.4,0.1,0.5,0.2s0.2,0.3,0.2,0.6c0,0.2-0.1,0.4-0.2,0.5
			S631.7,71.1,631.5,71.1z M636,71.1c-0.4,0-0.7-0.1-1-0.2s-0.6-0.2-0.8-0.4c-0.2-0.2-0.4-0.4-0.5-0.7c-0.1-0.3-0.2-0.5-0.2-0.8
			c0-0.2,0-0.5,0.1-0.7s0.2-0.4,0.3-0.6s0.3-0.3,0.5-0.5c0.2-0.1,0.4-0.2,0.5-0.3l0,0c-0.3-0.2-0.5-0.4-0.7-0.7
			c-0.2-0.3-0.3-0.6-0.3-1c0-0.3,0.1-0.6,0.2-0.8c0.1-0.2,0.3-0.4,0.5-0.6s0.4-0.3,0.7-0.4c0.3-0.1,0.6-0.1,0.9-0.1
			c0.3,0,0.6,0,0.9,0.1c0.3,0.1,0.5,0.2,0.7,0.4c0.2,0.2,0.3,0.4,0.4,0.6s0.2,0.5,0.2,0.8c0,0.2,0,0.4-0.1,0.6s-0.2,0.4-0.3,0.5
			c-0.1,0.2-0.2,0.3-0.3,0.4s-0.2,0.2-0.4,0.3l0,0c0.2,0.1,0.3,0.2,0.5,0.3c0.2,0.1,0.3,0.3,0.4,0.4c0.1,0.2,0.2,0.3,0.3,0.5
			s0.1,0.4,0.1,0.7c0,0.3-0.1,0.6-0.2,0.8c-0.1,0.2-0.3,0.5-0.5,0.6s-0.5,0.3-0.8,0.4C636.7,71.1,636.4,71.1,636,71.1z M636.5,66.8
			c0.3-0.2,0.5-0.5,0.6-0.7c0.1-0.3,0.2-0.5,0.2-0.8c0-0.4-0.1-0.7-0.3-1s-0.6-0.4-1-0.4s-0.7,0.1-0.9,0.3c-0.2,0.2-0.3,0.5-0.3,0.9
			c0,0.2,0,0.4,0.1,0.6s0.2,0.3,0.4,0.4s0.4,0.2,0.6,0.3S636.3,66.7,636.5,66.8z M636,70.4c0.4,0,0.8-0.1,1.1-0.4s0.4-0.6,0.4-1
			c0-0.2-0.1-0.5-0.2-0.6s-0.3-0.3-0.5-0.5c-0.2-0.1-0.4-0.3-0.7-0.4s-0.5-0.2-0.8-0.3c-0.3,0.2-0.6,0.4-0.8,0.7
			c-0.2,0.3-0.3,0.6-0.3,0.9c0,0.2,0,0.4,0.1,0.6s0.2,0.3,0.3,0.5c0.1,0.1,0.3,0.2,0.5,0.3S635.8,70.4,636,70.4z M642.6,71v-2.1
			h-3.4v-0.6l3.3-4.9h1.1v4.8h1V69h-1v2H642.6z M640.2,68.1h2.4v-2.2c0-0.2,0-0.5,0-0.7c0-0.3,0-0.5,0-0.7l0,0
			c-0.1,0.2-0.2,0.4-0.3,0.5c-0.1,0.2-0.2,0.4-0.3,0.5L640.2,68.1z M648.6,71v-2.1h-3.4v-0.6l3.3-4.9h1.1v4.8h1V69h-1v2H648.6z
			 M646.2,68.1h2.4v-2.2c0-0.2,0-0.5,0-0.7c0-0.3,0-0.5,0-0.7l0,0c-0.1,0.2-0.2,0.4-0.3,0.5c-0.1,0.2-0.2,0.4-0.3,0.5L646.2,68.1z
			 M653.7,71.1c-0.3,0-0.6,0-0.8-0.1s-0.5-0.1-0.7-0.2s-0.4-0.2-0.6-0.3s-0.3-0.3-0.4-0.4l0.5-0.6c0.2,0.2,0.5,0.5,0.8,0.6
			c0.3,0.2,0.7,0.3,1.1,0.3c0.5,0,0.8-0.1,1.1-0.4s0.4-0.6,0.4-1c0-0.2,0-0.4-0.1-0.6s-0.2-0.3-0.4-0.5c-0.2-0.1-0.4-0.2-0.8-0.3
			c-0.3-0.1-0.7-0.1-1.2-0.1v-0.8c0.4,0,0.8,0,1-0.1c0.3-0.1,0.5-0.2,0.7-0.3s0.3-0.3,0.4-0.5c0.1-0.2,0.1-0.4,0.1-0.6
			c0-0.4-0.1-0.7-0.4-0.9c-0.2-0.2-0.6-0.3-1-0.3c-0.3,0-0.6,0.1-0.9,0.2c-0.3,0.1-0.5,0.3-0.8,0.6l-0.5-0.6c0.3-0.3,0.6-0.5,1-0.7
			s0.8-0.3,1.2-0.3c0.3,0,0.6,0,0.9,0.1c0.3,0.1,0.5,0.2,0.7,0.4s0.4,0.4,0.5,0.6s0.2,0.5,0.2,0.8c0,0.5-0.1,0.8-0.4,1.1
			c-0.3,0.3-0.6,0.5-1,0.7l0,0c0.2,0.1,0.4,0.1,0.6,0.2s0.4,0.2,0.5,0.4c0.2,0.2,0.3,0.4,0.4,0.6c0.1,0.2,0.1,0.5,0.1,0.7
			c0,0.3-0.1,0.6-0.2,0.9s-0.3,0.5-0.5,0.7s-0.5,0.3-0.8,0.4C654.4,71.1,654.1,71.1,653.7,71.1z"/>
	</g>
	<g>
		<path class="st3" d="M631.5,66.8c-0.2,0-0.4-0.1-0.5-0.2s-0.2-0.3-0.2-0.5s0.1-0.4,0.2-0.6s0.3-0.2,0.5-0.2s0.4,0.1,0.5,0.2
			s0.2,0.3,0.2,0.6c0,0.2-0.1,0.4-0.2,0.5C631.9,66.7,631.7,66.8,631.5,66.8z M631.5,71.1c-0.2,0-0.4-0.1-0.5-0.2s-0.2-0.3-0.2-0.5
			s0.1-0.4,0.2-0.6c0.1-0.1,0.3-0.2,0.5-0.2s0.4,0.1,0.5,0.2s0.2,0.3,0.2,0.6c0,0.2-0.1,0.4-0.2,0.5S631.7,71.1,631.5,71.1z
			 M636,71.1c-0.4,0-0.7-0.1-1-0.2s-0.6-0.2-0.8-0.4c-0.2-0.2-0.4-0.4-0.5-0.7c-0.1-0.3-0.2-0.5-0.2-0.8c0-0.2,0-0.5,0.1-0.7
			s0.2-0.4,0.3-0.6s0.3-0.3,0.5-0.5c0.2-0.1,0.4-0.2,0.5-0.3l0,0c-0.3-0.2-0.5-0.4-0.7-0.7c-0.2-0.3-0.3-0.6-0.3-1
			c0-0.3,0.1-0.6,0.2-0.8c0.1-0.2,0.3-0.4,0.5-0.6s0.4-0.3,0.7-0.4c0.3-0.1,0.6-0.1,0.9-0.1c0.3,0,0.6,0,0.9,0.1
			c0.3,0.1,0.5,0.2,0.7,0.4c0.2,0.2,0.3,0.4,0.4,0.6s0.2,0.5,0.2,0.8c0,0.2,0,0.4-0.1,0.6s-0.2,0.4-0.3,0.5
			c-0.1,0.2-0.2,0.3-0.3,0.4s-0.2,0.2-0.4,0.3l0,0c0.2,0.1,0.3,0.2,0.5,0.3c0.2,0.1,0.3,0.3,0.4,0.4c0.1,0.2,0.2,0.3,0.3,0.5
			s0.1,0.4,0.1,0.7c0,0.3-0.1,0.6-0.2,0.8c-0.1,0.2-0.3,0.5-0.5,0.6s-0.5,0.3-0.8,0.4C636.7,71.1,636.4,71.1,636,71.1z M636.5,66.8
			c0.3-0.2,0.5-0.5,0.6-0.7c0.1-0.3,0.2-0.5,0.2-0.8c0-0.4-0.1-0.7-0.3-1s-0.6-0.4-1-0.4s-0.7,0.1-0.9,0.3c-0.2,0.2-0.3,0.5-0.3,0.9
			c0,0.2,0,0.4,0.1,0.6s0.2,0.3,0.4,0.4s0.4,0.2,0.6,0.3S636.3,66.7,636.5,66.8z M636,70.4c0.4,0,0.8-0.1,1.1-0.4s0.4-0.6,0.4-1
			c0-0.2-0.1-0.5-0.2-0.6s-0.3-0.3-0.5-0.5c-0.2-0.1-0.4-0.3-0.7-0.4s-0.5-0.2-0.8-0.3c-0.3,0.2-0.6,0.4-0.8,0.7
			c-0.2,0.3-0.3,0.6-0.3,0.9c0,0.2,0,0.4,0.1,0.6s0.2,0.3,0.3,0.5c0.1,0.1,0.3,0.2,0.5,0.3S635.8,70.4,636,70.4z M642.6,71v-2.1
			h-3.4v-0.6l3.3-4.9h1.1v4.8h1V69h-1v2H642.6z M640.2,68.1h2.4v-2.2c0-0.2,0-0.5,0-0.7c0-0.3,0-0.5,0-0.7l0,0
			c-0.1,0.2-0.2,0.4-0.3,0.5c-0.1,0.2-0.2,0.4-0.3,0.5L640.2,68.1z M648.6,71v-2.1h-3.4v-0.6l3.3-4.9h1.1v4.8h1V69h-1v2H648.6z
			 M646.2,68.1h2.4v-2.2c0-0.2,0-0.5,0-0.7c0-0.3,0-0.5,0-0.7l0,0c-0.1,0.2-0.2,0.4-0.3,0.5c-0.1,0.2-0.2,0.4-0.3,0.5L646.2,68.1z
			 M653.7,71.1c-0.3,0-0.6,0-0.8-0.1s-0.5-0.1-0.7-0.2s-0.4-0.2-0.6-0.3s-0.3-0.3-0.4-0.4l0.5-0.6c0.2,0.2,0.5,0.5,0.8,0.6
			c0.3,0.2,0.7,0.3,1.1,0.3c0.5,0,0.8-0.1,1.1-0.4s0.4-0.6,0.4-1c0-0.2,0-0.4-0.1-0.6s-0.2-0.3-0.4-0.5c-0.2-0.1-0.4-0.2-0.8-0.3
			c-0.3-0.1-0.7-0.1-1.2-0.1v-0.8c0.4,0,0.8,0,1-0.1c0.3-0.1,0.5-0.2,0.7-0.3s0.3-0.3,0.4-0.5c0.1-0.2,0.1-0.4,0.1-0.6
			c0-0.4-0.1-0.7-0.4-0.9c-0.2-0.2-0.6-0.3-1-0.3c-0.3,0-0.6,0.1-0.9,0.2c-0.3,0.1-0.5,0.3-0.8,0.6l-0.5-0.6c0.3-0.3,0.6-0.5,1-0.7
			s0.8-0.3,1.2-0.3c0.3,0,0.6,0,0.9,0.1c0.3,0.1,0.5,0.2,0.7,0.4s0.4,0.4,0.5,0.6s0.2,0.5,0.2,0.8c0,0.5-0.1,0.8-0.4,1.1
			c-0.3,0.3-0.6,0.5-1,0.7l0,0c0.2,0.1,0.4,0.1,0.6,0.2s0.4,0.2,0.5,0.4c0.2,0.2,0.3,0.4,0.4,0.6c0.1,0.2,0.1,0.5,0.1,0.7
			c0,0.3-0.1,0.6-0.2,0.9s-0.3,0.5-0.5,0.7s-0.5,0.3-0.8,0.4C654.4,71.1,654.1,71.1,653.7,71.1z"/>
	</g>
</g>
<g id="WebSocket">
	<g>
		<path id="path-8" class="st2" d="M249,143l-2.2-10.5h1.4l1.1,5.7c0.1,0.6,0.2,1.1,0.3,1.7s0.2,1.1,0.3,1.7h0.1
			c0.1-0.6,0.2-1.1,0.4-1.7c0.1-0.6,0.3-1.1,0.4-1.7l1.5-5.7h1.2l1.5,5.7c0.1,0.6,0.3,1.1,0.4,1.7c0.1,0.6,0.3,1.1,0.4,1.7h0.1
			c0.1-0.6,0.2-1.1,0.3-1.7c0.1-0.6,0.2-1.1,0.3-1.7l1.1-5.7h1.3l-2.2,10.5h-1.6l-1.6-6.3c-0.1-0.4-0.2-0.8-0.3-1.2
			s-0.2-0.8-0.2-1.2h-0.1c-0.1,0.4-0.2,0.8-0.3,1.2s-0.2,0.8-0.3,1.2l-1.6,6.3H249z M263.5,143.2c-0.5,0-1-0.1-1.5-0.3
			s-0.8-0.5-1.2-0.8s-0.6-0.8-0.8-1.3c-0.2-0.5-0.3-1.1-0.3-1.7c0-0.6,0.1-1.2,0.3-1.7c0.2-0.5,0.5-0.9,0.8-1.3
			c0.3-0.4,0.7-0.6,1.1-0.8s0.8-0.3,1.3-0.3s0.9,0.1,1.3,0.3s0.7,0.4,1,0.7s0.5,0.7,0.6,1.2c0.1,0.4,0.2,0.9,0.2,1.5
			c0,0.1,0,0.3,0,0.4s0,0.2,0,0.3H261c0.1,0.8,0.3,1.5,0.8,2s1.1,0.7,1.8,0.7c0.4,0,0.7-0.1,1-0.2s0.6-0.3,0.9-0.4l0.5,0.9
			c-0.3,0.2-0.7,0.4-1.1,0.6C264.5,143.1,264,143.2,263.5,143.2z M261,138.5h4.2c0-0.8-0.2-1.4-0.5-1.8c-0.3-0.4-0.8-0.6-1.4-0.6
			c-0.3,0-0.5,0.1-0.8,0.2c-0.3,0.1-0.5,0.3-0.7,0.5s-0.4,0.5-0.5,0.8C261.2,137.8,261.1,138.1,261,138.5z M271.7,143.2
			c-0.4,0-0.7-0.1-1.1-0.3s-0.8-0.4-1.1-0.7l0,0l-0.1,0.8h-1.1v-11.4h1.3v3.1v1.4c0.4-0.3,0.7-0.6,1.2-0.8c0.4-0.2,0.8-0.3,1.3-0.3
			s0.9,0.1,1.3,0.3s0.7,0.5,1,0.8s0.5,0.8,0.6,1.2s0.2,1,0.2,1.6c0,0.7-0.1,1.3-0.3,1.8c-0.2,0.5-0.4,1-0.7,1.3s-0.7,0.6-1.1,0.8
			C272.6,143.1,272.1,143.2,271.7,143.2z M271.5,142.1c0.3,0,0.6-0.1,0.9-0.2c0.3-0.1,0.5-0.3,0.7-0.6s0.4-0.6,0.5-1
			s0.2-0.8,0.2-1.3c0-0.4,0-0.8-0.1-1.2s-0.2-0.7-0.4-0.9c-0.2-0.3-0.4-0.4-0.6-0.6c-0.3-0.1-0.6-0.2-0.9-0.2
			c-0.6,0-1.3,0.4-2.1,1.1v4.1c0.3,0.3,0.7,0.5,1,0.6C270.9,142,271.2,142.1,271.5,142.1z M280.1,143.2c-0.7,0-1.4-0.1-2-0.4
			s-1.2-0.7-1.6-1.1l0.8-0.9c0.4,0.4,0.8,0.7,1.3,1c0.5,0.2,1,0.4,1.6,0.4c0.7,0,1.2-0.2,1.6-0.5s0.6-0.7,0.6-1.2
			c0-0.3,0-0.5-0.1-0.7s-0.2-0.3-0.4-0.5c-0.2-0.1-0.3-0.3-0.6-0.4c-0.2-0.1-0.4-0.2-0.7-0.3l-1.5-0.7c-0.2-0.1-0.5-0.2-0.8-0.4
			c-0.3-0.1-0.5-0.3-0.7-0.5s-0.4-0.5-0.5-0.8s-0.2-0.6-0.2-1s0.1-0.8,0.2-1.1c0.2-0.3,0.4-0.6,0.7-0.9s0.6-0.4,1-0.6
			c0.4-0.1,0.8-0.2,1.3-0.2c0.6,0,1.2,0.1,1.7,0.4c0.5,0.2,1,0.6,1.4,0.9l-0.7,0.9c-0.3-0.3-0.7-0.6-1.1-0.7
			c-0.4-0.2-0.8-0.3-1.3-0.3c-0.6,0-1.1,0.1-1.4,0.4c-0.4,0.3-0.5,0.6-0.5,1.1c0,0.3,0.1,0.5,0.2,0.6c0.1,0.2,0.2,0.3,0.4,0.5
			c0.2,0.1,0.4,0.3,0.6,0.4s0.4,0.2,0.6,0.3l1.5,0.6c0.3,0.1,0.6,0.3,0.8,0.4c0.3,0.2,0.5,0.4,0.7,0.6c0.2,0.2,0.3,0.5,0.5,0.8
			s0.2,0.6,0.2,1s-0.1,0.8-0.2,1.2c-0.2,0.4-0.4,0.7-0.7,1c-0.3,0.3-0.7,0.5-1.1,0.6C281.2,143.1,280.7,143.2,280.1,143.2z
			 M288.7,143.2c-0.5,0-0.9-0.1-1.4-0.3c-0.4-0.2-0.8-0.4-1.1-0.8c-0.3-0.3-0.6-0.8-0.8-1.3c-0.2-0.5-0.3-1.1-0.3-1.7
			c0-0.7,0.1-1.2,0.3-1.7c0.2-0.5,0.5-0.9,0.8-1.3s0.7-0.6,1.1-0.8s0.9-0.3,1.4-0.3s0.9,0.1,1.4,0.3s0.8,0.4,1.1,0.8
			c0.3,0.4,0.6,0.8,0.8,1.3c0.2,0.5,0.3,1.1,0.3,1.7c0,0.6-0.1,1.2-0.3,1.7c-0.2,0.5-0.5,0.9-0.8,1.3c-0.3,0.3-0.7,0.6-1.1,0.8
			S289.2,143.2,288.7,143.2z M288.7,142.1c0.3,0,0.6-0.1,0.9-0.2c0.3-0.1,0.5-0.3,0.7-0.6s0.3-0.6,0.5-0.9c0.1-0.4,0.2-0.8,0.2-1.2
			s-0.1-0.9-0.2-1.2c-0.1-0.4-0.3-0.7-0.5-1s-0.4-0.5-0.7-0.6c-0.3-0.1-0.6-0.2-0.9-0.2s-0.6,0.1-0.9,0.2c-0.3,0.1-0.5,0.3-0.7,0.6
			s-0.3,0.6-0.5,1c-0.1,0.4-0.2,0.8-0.2,1.2s0.1,0.9,0.2,1.2c0.1,0.4,0.3,0.7,0.5,0.9s0.4,0.5,0.7,0.6
			C288,142,288.3,142.1,288.7,142.1z M297.4,143.2c-0.5,0-1-0.1-1.4-0.3s-0.8-0.4-1.2-0.8c-0.3-0.3-0.6-0.8-0.8-1.3
			c-0.2-0.5-0.3-1.1-0.3-1.7c0-0.7,0.1-1.2,0.3-1.7s0.5-0.9,0.8-1.3c0.3-0.4,0.7-0.6,1.2-0.8s0.9-0.3,1.4-0.3s0.9,0.1,1.3,0.3
			s0.7,0.4,1,0.6l-0.7,0.9c-0.2-0.2-0.5-0.4-0.7-0.5c-0.3-0.1-0.5-0.2-0.8-0.2c-0.4,0-0.7,0.1-1,0.2s-0.6,0.3-0.8,0.6
			c-0.2,0.3-0.4,0.6-0.5,1s-0.2,0.8-0.2,1.2s0.1,0.9,0.2,1.2c0.1,0.4,0.3,0.7,0.5,0.9s0.5,0.5,0.8,0.6s0.6,0.2,1,0.2s0.7-0.1,1-0.2
			c0.3-0.2,0.6-0.3,0.8-0.6l0.6,0.9c-0.4,0.3-0.7,0.6-1.2,0.7C298.3,143.1,297.9,143.2,297.4,143.2z M301.6,143v-11.4h1.3v7.7l0,0
			l3.3-4.1h1.5l-2.6,3.1l3,4.7h-1.4l-2.3-3.7l-1.5,1.7v2H301.6z M312.4,143.2c-0.5,0-1-0.1-1.5-0.3s-0.8-0.5-1.2-0.8
			c-0.3-0.3-0.6-0.8-0.8-1.3c-0.2-0.5-0.3-1.1-0.3-1.7c0-0.6,0.1-1.2,0.3-1.7c0.2-0.5,0.5-0.9,0.8-1.3c0.3-0.4,0.7-0.6,1.1-0.8
			s0.8-0.3,1.3-0.3s0.9,0.1,1.3,0.3s0.7,0.4,1,0.7s0.5,0.7,0.6,1.2c0.1,0.4,0.2,0.9,0.2,1.5c0,0.1,0,0.3,0,0.4c0,0.1,0,0.2,0,0.3
			H310c0.1,0.8,0.3,1.5,0.8,2s1.1,0.7,1.8,0.7c0.4,0,0.7-0.1,1-0.2s0.6-0.3,0.9-0.4l0.5,0.9c-0.3,0.2-0.7,0.4-1.1,0.6
			C313.4,143.1,312.9,143.2,312.4,143.2z M310,138.5h4.2c0-0.8-0.2-1.4-0.5-1.8c-0.3-0.4-0.8-0.6-1.4-0.6c-0.3,0-0.5,0.1-0.8,0.2
			c-0.3,0.1-0.5,0.3-0.7,0.5s-0.4,0.5-0.5,0.8C310.1,137.8,310,138.1,310,138.5z M319.5,143.2c-0.4,0-0.8-0.1-1-0.2
			c-0.3-0.1-0.5-0.3-0.7-0.5s-0.3-0.5-0.4-0.8s-0.1-0.7-0.1-1.1v-4.3h-1.2v-1l1.2-0.1l0.2-2.2h1.1v2.2h2.1v1.1h-2.1v4.3
			c0,0.5,0.1,0.9,0.3,1.1s0.5,0.4,0.9,0.4c0.1,0,0.3,0,0.4-0.1s0.3-0.1,0.4-0.1l0.3,1c-0.2,0.1-0.4,0.1-0.7,0.2
			S319.7,143.2,319.5,143.2z"/>
	</g>
	<g>
		<path class="st3" d="M249,143l-2.2-10.5h1.4l1.1,5.7c0.1,0.6,0.2,1.1,0.3,1.7s0.2,1.1,0.3,1.7h0.1c0.1-0.6,0.2-1.1,0.4-1.7
			c0.1-0.6,0.3-1.1,0.4-1.7l1.5-5.7h1.2l1.5,5.7c0.1,0.6,0.3,1.1,0.4,1.7c0.1,0.6,0.3,1.1,0.4,1.7h0.1c0.1-0.6,0.2-1.1,0.3-1.7
			c0.1-0.6,0.2-1.1,0.3-1.7l1.1-5.7h1.3l-2.2,10.5h-1.6l-1.6-6.3c-0.1-0.4-0.2-0.8-0.3-1.2s-0.2-0.8-0.2-1.2h-0.1
			c-0.1,0.4-0.2,0.8-0.3,1.2s-0.2,0.8-0.3,1.2l-1.6,6.3H249z M263.5,143.2c-0.5,0-1-0.1-1.5-0.3s-0.8-0.5-1.2-0.8s-0.6-0.8-0.8-1.3
			c-0.2-0.5-0.3-1.1-0.3-1.7c0-0.6,0.1-1.2,0.3-1.7c0.2-0.5,0.5-0.9,0.8-1.3c0.3-0.4,0.7-0.6,1.1-0.8s0.8-0.3,1.3-0.3
			s0.9,0.1,1.3,0.3s0.7,0.4,1,0.7s0.5,0.7,0.6,1.2c0.1,0.4,0.2,0.9,0.2,1.5c0,0.1,0,0.3,0,0.4s0,0.2,0,0.3H261
			c0.1,0.8,0.3,1.5,0.8,2s1.1,0.7,1.8,0.7c0.4,0,0.7-0.1,1-0.2s0.6-0.3,0.9-0.4l0.5,0.9c-0.3,0.2-0.7,0.4-1.1,0.6
			C264.5,143.1,264,143.2,263.5,143.2z M261,138.5h4.2c0-0.8-0.2-1.4-0.5-1.8c-0.3-0.4-0.8-0.6-1.4-0.6c-0.3,0-0.5,0.1-0.8,0.2
			c-0.3,0.1-0.5,0.3-0.7,0.5s-0.4,0.5-0.5,0.8C261.2,137.8,261.1,138.1,261,138.5z M271.7,143.2c-0.4,0-0.7-0.1-1.1-0.3
			s-0.8-0.4-1.1-0.7l0,0l-0.1,0.8h-1.1v-11.4h1.3v3.1v1.4c0.4-0.3,0.7-0.6,1.2-0.8c0.4-0.2,0.8-0.3,1.3-0.3s0.9,0.1,1.3,0.3
			s0.7,0.5,1,0.8s0.5,0.8,0.6,1.2s0.2,1,0.2,1.6c0,0.7-0.1,1.3-0.3,1.8c-0.2,0.5-0.4,1-0.7,1.3s-0.7,0.6-1.1,0.8
			C272.6,143.1,272.1,143.2,271.7,143.2z M271.5,142.1c0.3,0,0.6-0.1,0.9-0.2c0.3-0.1,0.5-0.3,0.7-0.6s0.4-0.6,0.5-1
			s0.2-0.8,0.2-1.3c0-0.4,0-0.8-0.1-1.2s-0.2-0.7-0.4-0.9c-0.2-0.3-0.4-0.4-0.6-0.6c-0.3-0.1-0.6-0.2-0.9-0.2
			c-0.6,0-1.3,0.4-2.1,1.1v4.1c0.3,0.3,0.7,0.5,1,0.6C270.9,142,271.2,142.1,271.5,142.1z M280.1,143.2c-0.7,0-1.4-0.1-2-0.4
			s-1.2-0.7-1.6-1.1l0.8-0.9c0.4,0.4,0.8,0.7,1.3,1c0.5,0.2,1,0.4,1.6,0.4c0.7,0,1.2-0.2,1.6-0.5s0.6-0.7,0.6-1.2
			c0-0.3,0-0.5-0.1-0.7s-0.2-0.3-0.4-0.5c-0.2-0.1-0.3-0.3-0.6-0.4c-0.2-0.1-0.4-0.2-0.7-0.3l-1.5-0.7c-0.2-0.1-0.5-0.2-0.8-0.4
			c-0.3-0.1-0.5-0.3-0.7-0.5s-0.4-0.5-0.5-0.8s-0.2-0.6-0.2-1s0.1-0.8,0.2-1.1c0.2-0.3,0.4-0.6,0.7-0.9s0.6-0.4,1-0.6
			c0.4-0.1,0.8-0.2,1.3-0.2c0.6,0,1.2,0.1,1.7,0.4c0.5,0.2,1,0.6,1.4,0.9l-0.7,0.9c-0.3-0.3-0.7-0.6-1.1-0.7
			c-0.4-0.2-0.8-0.3-1.3-0.3c-0.6,0-1.1,0.1-1.4,0.4c-0.4,0.3-0.5,0.6-0.5,1.1c0,0.3,0.1,0.5,0.2,0.6c0.1,0.2,0.2,0.3,0.4,0.5
			c0.2,0.1,0.4,0.3,0.6,0.4s0.4,0.2,0.6,0.3l1.5,0.6c0.3,0.1,0.6,0.3,0.8,0.4c0.3,0.2,0.5,0.4,0.7,0.6c0.2,0.2,0.3,0.5,0.5,0.8
			s0.2,0.6,0.2,1s-0.1,0.8-0.2,1.2c-0.2,0.4-0.4,0.7-0.7,1c-0.3,0.3-0.7,0.5-1.1,0.6C281.2,143.1,280.7,143.2,280.1,143.2z
			 M288.7,143.2c-0.5,0-0.9-0.1-1.4-0.3c-0.4-0.2-0.8-0.4-1.1-0.8c-0.3-0.3-0.6-0.8-0.8-1.3c-0.2-0.5-0.3-1.1-0.3-1.7
			c0-0.7,0.1-1.2,0.3-1.7c0.2-0.5,0.5-0.9,0.8-1.3s0.7-0.6,1.1-0.8s0.9-0.3,1.4-0.3s0.9,0.1,1.4,0.3s0.8,0.4,1.1,0.8
			c0.3,0.4,0.6,0.8,0.8,1.3c0.2,0.5,0.3,1.1,0.3,1.7c0,0.6-0.1,1.2-0.3,1.7c-0.2,0.5-0.5,0.9-0.8,1.3c-0.3,0.3-0.7,0.6-1.1,0.8
			S289.2,143.2,288.7,143.2z M288.7,142.1c0.3,0,0.6-0.1,0.9-0.2c0.3-0.1,0.5-0.3,0.7-0.6s0.3-0.6,0.5-0.9c0.1-0.4,0.2-0.8,0.2-1.2
			s-0.1-0.9-0.2-1.2c-0.1-0.4-0.3-0.7-0.5-1s-0.4-0.5-0.7-0.6c-0.3-0.1-0.6-0.2-0.9-0.2s-0.6,0.1-0.9,0.2c-0.3,0.1-0.5,0.3-0.7,0.6
			s-0.3,0.6-0.5,1c-0.1,0.4-0.2,0.8-0.2,1.2s0.1,0.9,0.2,1.2c0.1,0.4,0.3,0.7,0.5,0.9s0.4,0.5,0.7,0.6
			C288,142,288.3,142.1,288.7,142.1z M297.4,143.2c-0.5,0-1-0.1-1.4-0.3s-0.8-0.4-1.2-0.8c-0.3-0.3-0.6-0.8-0.8-1.3
			c-0.2-0.5-0.3-1.1-0.3-1.7c0-0.7,0.1-1.2,0.3-1.7s0.5-0.9,0.8-1.3c0.3-0.4,0.7-0.6,1.2-0.8s0.9-0.3,1.4-0.3s0.9,0.1,1.3,0.3
			s0.7,0.4,1,0.6l-0.7,0.9c-0.2-0.2-0.5-0.4-0.7-0.5c-0.3-0.1-0.5-0.2-0.8-0.2c-0.4,0-0.7,0.1-1,0.2s-0.6,0.3-0.8,0.6
			c-0.2,0.3-0.4,0.6-0.5,1s-0.2,0.8-0.2,1.2s0.1,0.9,0.2,1.2c0.1,0.4,0.3,0.7,0.5,0.9s0.5,0.5,0.8,0.6s0.6,0.2,1,0.2s0.7-0.1,1-0.2
			c0.3-0.2,0.6-0.3,0.8-0.6l0.6,0.9c-0.4,0.3-0.7,0.6-1.2,0.7C298.3,143.1,297.9,143.2,297.4,143.2z M301.6,143v-11.4h1.3v7.7l0,0
			l3.3-4.1h1.5l-2.6,3.1l3,4.7h-1.4l-2.3-3.7l-1.5,1.7v2H301.6z M312.4,143.2c-0.5,0-1-0.1-1.5-0.3s-0.8-0.5-1.2-0.8
			c-0.3-0.3-0.6-0.8-0.8-1.3c-0.2-0.5-0.3-1.1-0.3-1.7c0-0.6,0.1-1.2,0.3-1.7c0.2-0.5,0.5-0.9,0.8-1.3c0.3-0.4,0.7-0.6,1.1-0.8
			s0.8-0.3,1.3-0.3s0.9,0.1,1.3,0.3s0.7,0.4,1,0.7s0.5,0.7,0.6,1.2c0.1,0.4,0.2,0.9,0.2,1.5c0,0.1,0,0.3,0,0.4c0,0.1,0,0.2,0,0.3
			H310c0.1,0.8,0.3,1.5,0.8,2s1.1,0.7,1.8,0.7c0.4,0,0.7-0.1,1-0.2s0.6-0.3,0.9-0.4l0.5,0.9c-0.3,0.2-0.7,0.4-1.1,0.6
			C313.4,143.1,312.9,143.2,312.4,143.2z M310,138.5h4.2c0-0.8-0.2-1.4-0.5-1.8c-0.3-0.4-0.8-0.6-1.4-0.6c-0.3,0-0.5,0.1-0.8,0.2
			c-0.3,0.1-0.5,0.3-0.7,0.5s-0.4,0.5-0.5,0.8C310.1,137.8,310,138.1,310,138.5z M319.5,143.2c-0.4,0-0.8-0.1-1-0.2
			c-0.3-0.1-0.5-0.3-0.7-0.5s-0.3-0.5-0.4-0.8s-0.1-0.7-0.1-1.1v-4.3h-1.2v-1l1.2-0.1l0.2-2.2h1.1v2.2h2.1v1.1h-2.1v4.3
			c0,0.5,0.1,0.9,0.3,1.1s0.5,0.4,0.9,0.4c0.1,0,0.3,0,0.4-0.1s0.3-0.1,0.4-0.1l0.3,1c-0.2,0.1-0.4,0.1-0.7,0.2
			S319.7,143.2,319.5,143.2z"/>
	</g>
</g>
<g>
	<g>
		<path id="path-9" class="st2" d="M567,143l-2.2-10.5h1.4l1.1,5.7c0.1,0.6,0.2,1.1,0.3,1.7c0.1,0.6,0.2,1.1,0.3,1.7h0.1
			c0.1-0.6,0.2-1.1,0.4-1.7c0.1-0.6,0.3-1.1,0.4-1.7l1.5-5.7h1.2l1.5,5.7c0.1,0.6,0.3,1.1,0.4,1.7s0.3,1.1,0.4,1.7h0.1
			c0.1-0.6,0.2-1.1,0.3-1.7c0.1-0.6,0.2-1.1,0.3-1.7l1.1-5.7h1.3l-2.2,10.5h-1.6l-1.6-6.3c-0.1-0.4-0.2-0.8-0.3-1.2
			s-0.2-0.8-0.2-1.2h-0.1c-0.1,0.4-0.2,0.8-0.3,1.2s-0.2,0.8-0.3,1.2l-1.6,6.3H567z M581.5,143.2c-0.5,0-1-0.1-1.5-0.3
			s-0.8-0.5-1.2-0.8s-0.6-0.8-0.8-1.3s-0.3-1.1-0.3-1.7c0-0.6,0.1-1.2,0.3-1.7s0.5-0.9,0.8-1.3c0.3-0.4,0.7-0.6,1.1-0.8
			c0.4-0.2,0.8-0.3,1.3-0.3s0.9,0.1,1.3,0.3s0.7,0.4,1,0.7s0.5,0.7,0.6,1.2c0.1,0.4,0.2,0.9,0.2,1.5c0,0.1,0,0.3,0,0.4s0,0.2,0,0.3
			H579c0.1,0.8,0.3,1.5,0.8,2s1.1,0.7,1.8,0.7c0.4,0,0.7-0.1,1-0.2c0.3-0.1,0.6-0.3,0.9-0.4l0.5,0.9c-0.3,0.2-0.7,0.4-1.1,0.6
			S582,143.2,581.5,143.2z M579,138.5h4.2c0-0.8-0.2-1.4-0.5-1.8c-0.3-0.4-0.8-0.6-1.4-0.6c-0.3,0-0.5,0.1-0.8,0.2
			c-0.3,0.1-0.5,0.3-0.7,0.5s-0.4,0.5-0.5,0.8C579.2,137.8,579.1,138.1,579,138.5z M589.7,143.2c-0.4,0-0.7-0.1-1.1-0.3
			c-0.4-0.2-0.8-0.4-1.1-0.7l0,0l-0.1,0.8h-1.1v-11.4h1.3v3.1v1.4c0.4-0.3,0.7-0.6,1.2-0.8c0.4-0.2,0.8-0.3,1.3-0.3s0.9,0.1,1.3,0.3
			c0.4,0.2,0.7,0.5,1,0.8s0.5,0.8,0.6,1.2c0.1,0.5,0.2,1,0.2,1.6c0,0.7-0.1,1.3-0.3,1.8s-0.4,1-0.7,1.3c-0.3,0.4-0.7,0.6-1.1,0.8
			C590.6,143.1,590.1,143.2,589.7,143.2z M589.5,142.1c0.3,0,0.6-0.1,0.9-0.2c0.3-0.1,0.5-0.3,0.7-0.6s0.4-0.6,0.5-1
			s0.2-0.8,0.2-1.3c0-0.4,0-0.8-0.1-1.2s-0.2-0.7-0.4-0.9c-0.2-0.3-0.4-0.4-0.6-0.6c-0.3-0.1-0.6-0.2-0.9-0.2
			c-0.6,0-1.3,0.4-2.1,1.1v4.1c0.3,0.3,0.7,0.5,1,0.6C588.9,142,589.2,142.1,589.5,142.1z M598.1,143.2c-0.7,0-1.4-0.1-2-0.4
			s-1.2-0.7-1.6-1.1l0.8-0.9c0.4,0.4,0.8,0.7,1.3,1c0.5,0.2,1,0.4,1.6,0.4c0.7,0,1.2-0.2,1.6-0.5c0.4-0.3,0.6-0.7,0.6-1.2
			c0-0.3,0-0.5-0.1-0.7s-0.2-0.3-0.4-0.5c-0.2-0.1-0.3-0.3-0.6-0.4c-0.2-0.1-0.4-0.2-0.7-0.3l-1.5-0.7c-0.2-0.1-0.5-0.2-0.8-0.4
			s-0.5-0.3-0.7-0.5s-0.4-0.5-0.5-0.8s-0.2-0.6-0.2-1s0.1-0.8,0.2-1.1c0.2-0.3,0.4-0.6,0.7-0.9s0.6-0.4,1-0.6
			c0.4-0.1,0.8-0.2,1.3-0.2c0.6,0,1.2,0.1,1.7,0.4s1,0.6,1.4,0.9l-0.7,0.9c-0.3-0.3-0.7-0.6-1.1-0.7c-0.4-0.2-0.8-0.3-1.3-0.3
			c-0.6,0-1.1,0.1-1.4,0.4c-0.4,0.3-0.5,0.6-0.5,1.1c0,0.3,0.1,0.5,0.2,0.6c0.1,0.2,0.2,0.3,0.4,0.5c0.2,0.1,0.4,0.3,0.6,0.4
			c0.2,0.1,0.4,0.2,0.6,0.3l1.5,0.6c0.3,0.1,0.6,0.3,0.8,0.4c0.3,0.2,0.5,0.4,0.7,0.6s0.3,0.5,0.5,0.8s0.2,0.6,0.2,1
			s-0.1,0.8-0.2,1.2s-0.4,0.7-0.7,1s-0.7,0.5-1.1,0.6C599.2,143.1,598.7,143.2,598.1,143.2z M606.7,143.2c-0.5,0-0.9-0.1-1.4-0.3
			s-0.8-0.4-1.1-0.8c-0.3-0.3-0.6-0.8-0.8-1.3s-0.3-1.1-0.3-1.7c0-0.7,0.1-1.2,0.3-1.7s0.5-0.9,0.8-1.3c0.3-0.4,0.7-0.6,1.1-0.8
			s0.9-0.3,1.4-0.3s0.9,0.1,1.4,0.3s0.8,0.4,1.1,0.8c0.3,0.4,0.6,0.8,0.8,1.3s0.3,1.1,0.3,1.7c0,0.6-0.1,1.2-0.3,1.7
			s-0.5,0.9-0.8,1.3c-0.3,0.3-0.7,0.6-1.1,0.8S607.2,143.2,606.7,143.2z M606.7,142.1c0.3,0,0.6-0.1,0.9-0.2s0.5-0.3,0.7-0.6
			s0.3-0.6,0.5-0.9c0.1-0.4,0.2-0.8,0.2-1.2s-0.1-0.9-0.2-1.2c-0.1-0.4-0.3-0.7-0.5-1s-0.4-0.5-0.7-0.6s-0.6-0.2-0.9-0.2
			s-0.6,0.1-0.9,0.2s-0.5,0.3-0.7,0.6s-0.3,0.6-0.5,1c-0.1,0.4-0.2,0.8-0.2,1.2s0.1,0.9,0.2,1.2c0.1,0.4,0.3,0.7,0.5,0.9
			c0.2,0.3,0.4,0.5,0.7,0.6S606.3,142.1,606.7,142.1z M615.4,143.2c-0.5,0-1-0.1-1.4-0.3s-0.8-0.4-1.2-0.8c-0.3-0.3-0.6-0.8-0.8-1.3
			s-0.3-1.1-0.3-1.7c0-0.7,0.1-1.2,0.3-1.7s0.5-0.9,0.8-1.3c0.3-0.4,0.7-0.6,1.2-0.8s0.9-0.3,1.4-0.3s0.9,0.1,1.3,0.3s0.7,0.4,1,0.6
			l-0.7,0.9c-0.2-0.2-0.5-0.4-0.7-0.5c-0.3-0.1-0.5-0.2-0.8-0.2c-0.4,0-0.7,0.1-1,0.2s-0.6,0.3-0.8,0.6s-0.4,0.6-0.5,1
			s-0.2,0.8-0.2,1.2s0.1,0.9,0.2,1.2c0.1,0.4,0.3,0.7,0.5,0.9s0.5,0.5,0.8,0.6s0.6,0.2,1,0.2s0.7-0.1,1-0.2c0.3-0.2,0.6-0.3,0.8-0.6
			l0.6,0.9c-0.4,0.3-0.7,0.6-1.2,0.7C616.3,143.1,615.9,143.2,615.4,143.2z M619.6,143v-11.4h1.3v7.7l0,0l3.3-4.1h1.5l-2.6,3.1
			l3,4.7h-1.4l-2.3-3.7l-1.5,1.7v2H619.6z M630.4,143.2c-0.5,0-1-0.1-1.5-0.3s-0.8-0.5-1.2-0.8s-0.6-0.8-0.8-1.3s-0.3-1.1-0.3-1.7
			c0-0.6,0.1-1.2,0.3-1.7s0.5-0.9,0.8-1.3c0.3-0.4,0.7-0.6,1.1-0.8c0.4-0.2,0.8-0.3,1.3-0.3s0.9,0.1,1.3,0.3s0.7,0.4,1,0.7
			s0.5,0.7,0.6,1.2c0.1,0.4,0.2,0.9,0.2,1.5c0,0.1,0,0.3,0,0.4c0,0.1,0,0.2,0,0.3H628c0.1,0.8,0.3,1.5,0.8,2s1.1,0.7,1.8,0.7
			c0.4,0,0.7-0.1,1-0.2c0.3-0.1,0.6-0.3,0.9-0.4l0.5,0.9c-0.3,0.2-0.7,0.4-1.1,0.6C631.4,143.1,630.9,143.2,630.4,143.2z M628,138.5
			h4.2c0-0.8-0.2-1.4-0.5-1.8c-0.3-0.4-0.8-0.6-1.4-0.6c-0.3,0-0.5,0.1-0.8,0.2c-0.3,0.1-0.5,0.3-0.7,0.5s-0.4,0.5-0.5,0.8
			C628.1,137.8,628,138.1,628,138.5z M637.5,143.2c-0.4,0-0.8-0.1-1-0.2s-0.5-0.3-0.7-0.5s-0.3-0.5-0.4-0.8
			c-0.1-0.3-0.1-0.7-0.1-1.1v-4.3h-1.2v-1l1.2-0.1l0.2-2.2h1.1v2.2h2.1v1.1h-2.1v4.3c0,0.5,0.1,0.9,0.3,1.1c0.2,0.3,0.5,0.4,0.9,0.4
			c0.1,0,0.3,0,0.4-0.1s0.3-0.1,0.4-0.1l0.3,1c-0.2,0.1-0.4,0.1-0.7,0.2S637.7,143.2,637.5,143.2z"/>
	</g>
	<g>
		<path class="st3" d="M567,143l-2.2-10.5h1.4l1.1,5.7c0.1,0.6,0.2,1.1,0.3,1.7c0.1,0.6,0.2,1.1,0.3,1.7h0.1
			c0.1-0.6,0.2-1.1,0.4-1.7c0.1-0.6,0.3-1.1,0.4-1.7l1.5-5.7h1.2l1.5,5.7c0.1,0.6,0.3,1.1,0.4,1.7s0.3,1.1,0.4,1.7h0.1
			c0.1-0.6,0.2-1.1,0.3-1.7c0.1-0.6,0.2-1.1,0.3-1.7l1.1-5.7h1.3l-2.2,10.5h-1.6l-1.6-6.3c-0.1-0.4-0.2-0.8-0.3-1.2
			s-0.2-0.8-0.2-1.2h-0.1c-0.1,0.4-0.2,0.8-0.3,1.2s-0.2,0.8-0.3,1.2l-1.6,6.3H567z M581.5,143.2c-0.5,0-1-0.1-1.5-0.3
			s-0.8-0.5-1.2-0.8s-0.6-0.8-0.8-1.3s-0.3-1.1-0.3-1.7c0-0.6,0.1-1.2,0.3-1.7s0.5-0.9,0.8-1.3c0.3-0.4,0.7-0.6,1.1-0.8
			c0.4-0.2,0.8-0.3,1.3-0.3s0.9,0.1,1.3,0.3s0.7,0.4,1,0.7s0.5,0.7,0.6,1.2c0.1,0.4,0.2,0.9,0.2,1.5c0,0.1,0,0.3,0,0.4s0,0.2,0,0.3
			H579c0.1,0.8,0.3,1.5,0.8,2s1.1,0.7,1.8,0.7c0.4,0,0.7-0.1,1-0.2c0.3-0.1,0.6-0.3,0.9-0.4l0.5,0.9c-0.3,0.2-0.7,0.4-1.1,0.6
			S582,143.2,581.5,143.2z M579,138.5h4.2c0-0.8-0.2-1.4-0.5-1.8c-0.3-0.4-0.8-0.6-1.4-0.6c-0.3,0-0.5,0.1-0.8,0.2
			c-0.3,0.1-0.5,0.3-0.7,0.5s-0.4,0.5-0.5,0.8C579.2,137.8,579.1,138.1,579,138.5z M589.7,143.2c-0.4,0-0.7-0.1-1.1-0.3
			c-0.4-0.2-0.8-0.4-1.1-0.7l0,0l-0.1,0.8h-1.1v-11.4h1.3v3.1v1.4c0.4-0.3,0.7-0.6,1.2-0.8c0.4-0.2,0.8-0.3,1.3-0.3s0.9,0.1,1.3,0.3
			c0.4,0.2,0.7,0.5,1,0.8s0.5,0.8,0.6,1.2c0.1,0.5,0.2,1,0.2,1.6c0,0.7-0.1,1.3-0.3,1.8s-0.4,1-0.7,1.3c-0.3,0.4-0.7,0.6-1.1,0.8
			C590.6,143.1,590.1,143.2,589.7,143.2z M589.5,142.1c0.3,0,0.6-0.1,0.9-0.2c0.3-0.1,0.5-0.3,0.7-0.6s0.4-0.6,0.5-1
			s0.2-0.8,0.2-1.3c0-0.4,0-0.8-0.1-1.2s-0.2-0.7-0.4-0.9c-0.2-0.3-0.4-0.4-0.6-0.6c-0.3-0.1-0.6-0.2-0.9-0.2
			c-0.6,0-1.3,0.4-2.1,1.1v4.1c0.3,0.3,0.7,0.5,1,0.6C588.9,142,589.2,142.1,589.5,142.1z M598.1,143.2c-0.7,0-1.4-0.1-2-0.4
			s-1.2-0.7-1.6-1.1l0.8-0.9c0.4,0.4,0.8,0.7,1.3,1c0.5,0.2,1,0.4,1.6,0.4c0.7,0,1.2-0.2,1.6-0.5c0.4-0.3,0.6-0.7,0.6-1.2
			c0-0.3,0-0.5-0.1-0.7s-0.2-0.3-0.4-0.5c-0.2-0.1-0.3-0.3-0.6-0.4c-0.2-0.1-0.4-0.2-0.7-0.3l-1.5-0.7c-0.2-0.1-0.5-0.2-0.8-0.4
			s-0.5-0.3-0.7-0.5s-0.4-0.5-0.5-0.8s-0.2-0.6-0.2-1s0.1-0.8,0.2-1.1c0.2-0.3,0.4-0.6,0.7-0.9s0.6-0.4,1-0.6
			c0.4-0.1,0.8-0.2,1.3-0.2c0.6,0,1.2,0.1,1.7,0.4s1,0.6,1.4,0.9l-0.7,0.9c-0.3-0.3-0.7-0.6-1.1-0.7c-0.4-0.2-0.8-0.3-1.3-0.3
			c-0.6,0-1.1,0.1-1.4,0.4c-0.4,0.3-0.5,0.6-0.5,1.1c0,0.3,0.1,0.5,0.2,0.6c0.1,0.2,0.2,0.3,0.4,0.5c0.2,0.1,0.4,0.3,0.6,0.4
			c0.2,0.1,0.4,0.2,0.6,0.3l1.5,0.6c0.3,0.1,0.6,0.3,0.8,0.4c0.3,0.2,0.5,0.4,0.7,0.6s0.3,0.5,0.5,0.8s0.2,0.6,0.2,1
			s-0.1,0.8-0.2,1.2s-0.4,0.7-0.7,1s-0.7,0.5-1.1,0.6C599.2,143.1,598.7,143.2,598.1,143.2z M606.7,143.2c-0.5,0-0.9-0.1-1.4-0.3
			s-0.8-0.4-1.1-0.8c-0.3-0.3-0.6-0.8-0.8-1.3s-0.3-1.1-0.3-1.7c0-0.7,0.1-1.2,0.3-1.7s0.5-0.9,0.8-1.3c0.3-0.4,0.7-0.6,1.1-0.8
			s0.9-0.3,1.4-0.3s0.9,0.1,1.4,0.3s0.8,0.4,1.1,0.8c0.3,0.4,0.6,0.8,0.8,1.3s0.3,1.1,0.3,1.7c0,0.6-0.1,1.2-0.3,1.7
			s-0.5,0.9-0.8,1.3c-0.3,0.3-0.7,0.6-1.1,0.8S607.2,143.2,606.7,143.2z M606.7,142.1c0.3,0,0.6-0.1,0.9-0.2s0.5-0.3,0.7-0.6
			s0.3-0.6,0.5-0.9c0.1-0.4,0.2-0.8,0.2-1.2s-0.1-0.9-0.2-1.2c-0.1-0.4-0.3-0.7-0.5-1s-0.4-0.5-0.7-0.6s-0.6-0.2-0.9-0.2
			s-0.6,0.1-0.9,0.2s-0.5,0.3-0.7,0.6s-0.3,0.6-0.5,1c-0.1,0.4-0.2,0.8-0.2,1.2s0.1,0.9,0.2,1.2c0.1,0.4,0.3,0.7,0.5,0.9
			c0.2,0.3,0.4,0.5,0.7,0.6S606.3,142.1,606.7,142.1z M615.4,143.2c-0.5,0-1-0.1-1.4-0.3s-0.8-0.4-1.2-0.8c-0.3-0.3-0.6-0.8-0.8-1.3
			s-0.3-1.1-0.3-1.7c0-0.7,0.1-1.2,0.3-1.7s0.5-0.9,0.8-1.3c0.3-0.4,0.7-0.6,1.2-0.8s0.9-0.3,1.4-0.3s0.9,0.1,1.3,0.3s0.7,0.4,1,0.6
			l-0.7,0.9c-0.2-0.2-0.5-0.4-0.7-0.5c-0.3-0.1-0.5-0.2-0.8-0.2c-0.4,0-0.7,0.1-1,0.2s-0.6,0.3-0.8,0.6s-0.4,0.6-0.5,1
			s-0.2,0.8-0.2,1.2s0.1,0.9,0.2,1.2c0.1,0.4,0.3,0.7,0.5,0.9s0.5,0.5,0.8,0.6s0.6,0.2,1,0.2s0.7-0.1,1-0.2c0.3-0.2,0.6-0.3,0.8-0.6
			l0.6,0.9c-0.4,0.3-0.7,0.6-1.2,0.7C616.3,143.1,615.9,143.2,615.4,143.2z M619.6,143v-11.4h1.3v7.7l0,0l3.3-4.1h1.5l-2.6,3.1
			l3,4.7h-1.4l-2.3-3.7l-1.5,1.7v2H619.6z M630.4,143.2c-0.5,0-1-0.1-1.5-0.3s-0.8-0.5-1.2-0.8s-0.6-0.8-0.8-1.3s-0.3-1.1-0.3-1.7
			c0-0.6,0.1-1.2,0.3-1.7s0.5-0.9,0.8-1.3c0.3-0.4,0.7-0.6,1.1-0.8c0.4-0.2,0.8-0.3,1.3-0.3s0.9,0.1,1.3,0.3s0.7,0.4,1,0.7
			s0.5,0.7,0.6,1.2c0.1,0.4,0.2,0.9,0.2,1.5c0,0.1,0,0.3,0,0.4c0,0.1,0,0.2,0,0.3H628c0.1,0.8,0.3,1.5,0.8,2s1.1,0.7,1.8,0.7
			c0.4,0,0.7-0.1,1-0.2c0.3-0.1,0.6-0.3,0.9-0.4l0.5,0.9c-0.3,0.2-0.7,0.4-1.1,0.6C631.4,143.1,630.9,143.2,630.4,143.2z M628,138.5
			h4.2c0-0.8-0.2-1.4-0.5-1.8c-0.3-0.4-0.8-0.6-1.4-0.6c-0.3,0-0.5,0.1-0.8,0.2c-0.3,0.1-0.5,0.3-0.7,0.5s-0.4,0.5-0.5,0.8
			C628.1,137.8,628,138.1,628,138.5z M637.5,143.2c-0.4,0-0.8-0.1-1-0.2s-0.5-0.3-0.7-0.5s-0.3-0.5-0.4-0.8
			c-0.1-0.3-0.1-0.7-0.1-1.1v-4.3h-1.2v-1l1.2-0.1l0.2-2.2h1.1v2.2h2.1v1.1h-2.1v4.3c0,0.5,0.1,0.9,0.3,1.1c0.2,0.3,0.5,0.4,0.9,0.4
			c0.1,0,0.3,0,0.4-0.1s0.3-0.1,0.4-0.1l0.3,1c-0.2,0.1-0.4,0.1-0.7,0.2S637.7,143.2,637.5,143.2z"/>
	</g>
</g>
<path id="Path" class="st10" d="M217,63v-1h5v1H217z M224,63v-1h5v1H224z M231,63v-1h5v1H231z M238,63v-1h5v1H238z M245,63v-1h5v1
	H245z M252,63v-1h5v1H252z M259,63v-1h5v1H259z M266,63v-1h5v1H266z M273,63v-1h5v1H273z M280,63v-1h5v1H280z M287,63v-1h5v1H287z
	 M294,63v-1h5v1H294z M301,63v-1h5v1H301z M308,63v-1h5v1H308z M315,63v-1h5v1H315z M322,63v-1h5v1H322z M329,63v-1h5v1H329z
	 M336,63v-1h5v1H336z M343,63v-1h5v1H343z M350,63v-1h5v1H350z M357,63v-1h5v1H357z M364,63v-1h5v1H364z M371,63v-1h2.5
	c0.9,0,1.8,0.2,2.6,0.5l-0.4,0.9c-0.7-0.3-1.5-0.4-2.3-0.4H371z M377.5,64.3l0.6-0.8c1.5,1.1,2.5,2.7,2.8,4.5l-1,0.2
	C379.6,66.7,378.7,65.3,377.5,64.3z M380,70l1,0.1c-0.1,1.8-1,3.5-2.3,4.8l-0.7-0.7C379.1,73.1,379.8,71.6,380,70z M376.5,75.3
	l0.5,0.9c-1.1,0.5-2.2,0.8-3.4,0.8H372v-1h1.6C374.6,76,375.6,75.8,376.5,75.3z M369.9,76v1h-5v-1H369.9z M362.9,76v1h-5v-1H362.9z
	 M355.9,76v1h-5v-1H355.9z M348.9,76v1h-5v-1H348.9z M341.9,76v1h-5v-1H341.9z M334.9,76v1h-5v-1H334.9z M327.9,76v1h-5v-1H327.9z
	 M320.9,76v1h-5v-1H320.9z M313.9,76v1h-5v-1H313.9z M306.9,76v1h-5v-1H306.9z M299.9,76v1h-5v-1H299.9z M292.9,76v1h-5v-1H292.9z
	 M285.9,76v1h-5v-1H285.9z M278.9,76v1h-5v-1H278.9z M271.9,76v1h-5v-1H271.9z M264.9,76v1h-5v-1H264.9z M257.9,76v1h-5v-1H257.9z
	 M250.9,76v1h-5v-1H250.9z M243.9,76v1h-5v-1H243.9z M236.9,76v1h-5v-1H236.9z M229.9,76v1h-5v-1H229.9z M222.9,76v1h-5v-1H222.9z
	 M215.9,76v1h-2.6v-1H215.9z"/>
<path class="st10" d="M217,107v-1h5v1H217z M224,107v-1h5v1H224z M231,107v-1h5v1H231z M238,107v-1h5v1H238z M245,107v-1h5v1H245z
	 M252,107v-1h5v1H252z M259,107v-1h5v1H259z M266,107v-1h5v1H266z M273,107v-1h5v1H273z M280,107v-1h5v1H280z M287,107v-1h5v1H287z
	 M294,107v-1h5v1H294z M301,107v-1h5v1H301z M308,107v-1h5v1H308z M315,107v-1h5v1H315z M322,107v-1h5v1H322z M329,107v-1h5v1H329z
	 M336,107v-1h5v1H336z M343,107v-1h5v1H343z M350,107v-1h5v1H350z M357,107v-1h5v1H357z M364,107v-1h5v1H364z M371,107v-1h5v1H371z
	 M378,107v-1h5v1H378z M385,107v-1h5v1H385z M392,107v-1h5v1H392z M399,107v-1h5v1H399z M406,107v-1h5v1H406z M413,107v-1h5v1H413z
	 M420,107v-1h5v1H420z M427,107v-1h5v1H427z M434,107v-1h5v1H434z M441,107v-1h5v1H441z M448,107v-1h5v1H448z M455,107v-1h5v1H455z
	 M462,107v-1h5v1H462z M469,107v-1h5v1H469z M476,107v-1h5v1H476z M483,107v-1h5v1H483z M490,107v-1h5v1H490z M497,107v-1h5v1H497z
	 M504,107v-1h5v1H504z M511,107v-1h5v1H511z M518,107v-1h5v1H518z M525,107v-1h5v1H525z M532,107v-1h5v1H532z M539,107v-1h5v1H539z
	 M546,107v-1h5v1H546z M553,107v-1h5v1H553z M560,107v-1h5v1H560z M567,107v-1h5v1H567z M574,107v-1h5v1H574z M581,107v-1h5v1H581z
	 M588,107v-1h5v1H588z M595,107v-1h5v1H595z M602,107v-1h5v1H602z M609,107v-1h5v1H609z M616,107v-1h5v1H616z M623,107v-1h5v1H623z
	 M630,107v-1h5v1H630z M637,107v-1h5v1H637z M644,107v-1h5v1H644z M651,107v-1h5v1H651z M658,107v-1h5v1H658z M665,107v-1h5v1H665z
	 M672,107v-1h5v1H672z M679,107v-1h5v1H679z M686,107v-1h5v1H686z M692.9,107.2l0.2-1c1.8,0.4,3.4,1.5,4.5,2.9l-0.8,0.6
	C695.8,108.4,694.4,107.5,692.9,107.2z M697.6,111.4l0.9-0.3c0.3,0.8,0.4,1.6,0.4,2.4c0,1-0.2,1.9-0.5,2.8l-0.9-0.4
	c0.3-0.8,0.5-1.6,0.5-2.4C698,112.8,697.9,112.1,697.6,111.4z M696.6,117.5l0.8,0.6c-1.2,1.4-2.8,2.4-4.6,2.7l-0.2-1
	C694.1,119.6,695.6,118.8,696.6,117.5z M690.8,120v1h-5v-1H690.8z M683.8,120v1h-5v-1H683.8z M676.8,120v1h-5v-1H676.8z M669.8,120
	v1h-5v-1H669.8z M662.8,120v1h-5v-1H662.8z M655.8,120v1h-5v-1H655.8z M648.8,120v1h-5v-1H648.8z M641.8,120v1h-5v-1H641.8z
	 M634.8,120v1h-5v-1H634.8z M627.8,120v1h-5v-1H627.8z M620.8,120v1h-5v-1H620.8z M613.8,120v1h-5v-1H613.8z M606.8,120v1h-5v-1
	H606.8z M599.8,120v1h-5v-1H599.8z M592.8,120v1h-5v-1H592.8z M585.8,120v1h-5v-1H585.8z M578.8,120v1h-5v-1H578.8z M571.8,120v1h-5
	v-1H571.8z M564.8,120v1h-5v-1H564.8z M557.8,120v1h-5v-1H557.8z M550.8,120v1h-5v-1H550.8z M543.8,120v1h-5v-1H543.8z M536.8,120v1
	h-5v-1H536.8z M529.8,120v1h-5v-1H529.8z M522.8,120v1h-5v-1H522.8z M515.8,120v1h-5v-1H515.8z M508.8,120v1h-5v-1H508.8z
	 M501.8,120v1h-5v-1H501.8z M494.8,120v1h-5v-1H494.8z M487.8,120v1h-5v-1H487.8z M480.8,120v1h-5v-1H480.8z M473.8,120v1h-5v-1
	H473.8z M466.8,120v1h-5v-1H466.8z M459.8,120v1h-5v-1H459.8z M452.8,120v1h-5v-1H452.8z M445.8,120v1h-5v-1H445.8z M438.8,120v1h-5
	v-1H438.8z M431.8,120v1h-5v-1H431.8z M424.8,120v1h-5v-1H424.8z M417.8,120v1h-5v-1H417.8z M410.8,120v1h-5v-1H410.8z M403.8,120v1
	h-5v-1H403.8z M396.8,120v1h-5v-1H396.8z M389.8,120v1h-5v-1H389.8z M382.8,120v1h-5v-1H382.8z M375.8,120v1h-5v-1H375.8z
	 M368.8,120v1h-5v-1H368.8z M361.8,120v1h-5v-1H361.8z M354.8,120v1h-5v-1H354.8z M347.8,120v1h-5v-1H347.8z M340.8,120v1h-5v-1
	H340.8z M333.8,120v1h-5v-1H333.8z M326.8,120v1h-5v-1H326.8z M319.8,120v1h-5v-1H319.8z M312.8,120v1h-5v-1H312.8z M305.8,120v1h-5
	v-1H305.8z M298.8,120v1h-5v-1H298.8z M291.8,120v1h-5v-1H291.8z M284.8,120v1h-5v-1H284.8z M277.8,120v1h-5v-1H277.8z M270.8,120v1
	h-5v-1H270.8z M263.8,120v1h-5v-1H263.8z M256.8,120v1h-5v-1H256.8z M249.8,120v1h-5v-1H249.8z M242.8,120v1h-5v-1H242.8z
	 M235.8,120v1h-5v-1H235.8z M228.8,120v1h-5v-1H228.8z M221.8,120v1h-5v-1H221.8z M214.8,120v1H213v-1H214.8z"/>
<path class="st11" d="M213.6,66c-0.2,0-0.3-0.1-0.4-0.2c-0.2-0.2-0.1-0.6,0.1-0.8l3.2-2.4l-3.2-2.4c-0.2-0.2-0.3-0.6-0.1-0.8
	s0.6-0.3,0.8-0.1l3.9,2.9c0.1,0.1,0.2,0.2,0.2,0.5s-0.1,0.3-0.2,0.5l-3.9,2.9C213.8,65.9,213.7,66,213.6,66z"/>
<path id="Path-Copy-7" class="st11" d="M213.5,110c-0.2,0-0.3-0.1-0.4-0.2c-0.2-0.2-0.1-0.6,0.1-0.8l3.2-2.4l-3.2-2.4
	c-0.2-0.2-0.3-0.6-0.1-0.8c0.2-0.2,0.6-0.3,0.8-0.1l3.9,2.9c0.1,0.1,0.2,0.2,0.2,0.5c0,0.2-0.1,0.3-0.2,0.5l-3.9,2.9
	C213.7,109.9,213.6,110,213.5,110z"/>
<path id="Path-Copy-6" class="st11" d="M345.6,66c-0.2,0-0.3-0.1-0.4-0.2c-0.2-0.2-0.1-0.6,0.1-0.8l3.2-2.4l-3.2-2.4
	c-0.2-0.2-0.3-0.6-0.1-0.8s0.6-0.3,0.8-0.1l3.9,2.9c0.1,0.1,0.2,0.2,0.2,0.5s-0.1,0.3-0.2,0.5l-3.9,2.9
	C345.8,65.9,345.7,66,345.6,66z"/>
<path id="Path-Copy-2" class="st11" d="M344.6,110c-0.2,0-0.3-0.1-0.4-0.2c-0.2-0.2-0.1-0.6,0.1-0.8l3.2-2.4l-3.2-2.4
	c-0.2-0.2-0.3-0.6-0.1-0.8c0.2-0.2,0.6-0.3,0.8-0.1l3.9,2.9c0.1,0.1,0.2,0.2,0.2,0.5c0,0.2-0.1,0.3-0.2,0.5l-3.9,2.9
	C344.8,109.9,344.7,110,344.6,110z"/>
<path id="Path-Copy-4" class="st11" d="M666.6,110c-0.2,0-0.3-0.1-0.4-0.2c-0.2-0.2-0.1-0.6,0.1-0.8l3.2-2.4l-3.2-2.4
	c-0.2-0.2-0.3-0.6-0.1-0.8c0.2-0.2,0.6-0.3,0.8-0.1l3.9,2.9c0.1,0.1,0.2,0.2,0.2,0.5c0,0.2-0.1,0.3-0.2,0.5l-3.9,2.9
	C666.8,109.9,666.7,110,666.6,110z"/>
<path id="Path-Copy" class="st11" d="M216.4,80c0.2,0,0.3-0.1,0.4-0.2c0.2-0.2,0.1-0.6-0.1-0.8l-3.2-2.4l3.2-2.4
	c0.2-0.2,0.3-0.6,0.1-0.8c-0.2-0.2-0.6-0.3-0.8-0.1l-3.9,2.9c-0.1,0.1-0.2,0.2-0.2,0.5c0,0.2,0.1,0.3,0.2,0.5l3.9,2.9
	C216.2,79.9,216.3,80,216.4,80z"/>
<path id="Path-Copy-3" class="st11" d="M216.4,124c0.2,0,0.3-0.1,0.4-0.2c0.2-0.2,0.1-0.6-0.1-0.8l-3.2-2.4l3.2-2.4
	c0.2-0.2,0.3-0.6,0.1-0.8c-0.2-0.2-0.6-0.3-0.8-0.1l-3.9,2.9c-0.1,0.1-0.2,0.2-0.2,0.5c0,0.2,0.1,0.3,0.2,0.5l3.9,2.9
	C216.2,123.9,216.3,124,216.4,124z"/>
<path id="Path-Copy-5" class="st11" d="M535.4,124c0.2,0,0.3-0.1,0.4-0.2c0.2-0.2,0.1-0.6-0.1-0.8l-3.2-2.4l3.2-2.4
	c0.2-0.2,0.3-0.6,0.1-0.8c-0.2-0.2-0.6-0.3-0.8-0.1l-3.9,2.9c-0.1,0.1-0.2,0.2-0.2,0.5c0,0.2,0.1,0.3,0.2,0.5l3.9,2.9
	C535.2,123.9,535.3,124,535.4,124z"/>
<polygon id="Path-7" class="st3" points="317,33 317,32 338.1,32 357,50.3 356.3,51 337.7,33 "/>
<polygon id="Path-7-Copy" class="st3" points="630,77 630,76 656.1,76 675,94.3 674.3,95 655.7,77 "/>
<rect x="368" y="102" class="st12" width="150" height="25"/>
<rect id="Rectangle-Copy-4" x="368" y="54" class="st12" width="16" height="25"/>
<rect id="Rectangle-Copy-5" x="686" y="98" class="st12" width="15" height="31"/>
</svg>
