<?xml version="1.0" encoding="utf-8"?>
<!-- Generator: Adobe Illustrator 23.0.1, SVG Export Plug-In . SVG Version: 6.00 Build 0)  -->
<svg version="1.1" id="Слой_1" xmlns="http://www.w3.org/2000/svg" xmlns:xlink="http://www.w3.org/1999/xlink" x="0px" y="0px"
	 width="836px" height="195px" viewBox="0 0 836 195" style="enable-background:new 0 0 836 195;" xml:space="preserve">
<style type="text/css">
	.st0{fill-rule:evenodd;clip-rule:evenodd;fill:#E1E3E8;}
	.st1{fill-rule:evenodd;clip-rule:evenodd;fill:#FFFFFF;}
	.st2{fill-rule:evenodd;clip-rule:evenodd;}
	.st3{fill-rule:evenodd;clip-rule:evenodd;fill:#333333;}
	.st4{fill-rule:evenodd;clip-rule:evenodd;fill:#ECEDF2;}
	.st5{fill-rule:evenodd;clip-rule:evenodd;fill:#4CABE9;}
	.st6{fill:#4CABE9;}
	.st7{enable-background:new    ;}
	.st8{fill:#333333;}
	.st9{fill-rule:evenodd;clip-rule:evenodd;fill:#BAC0CF;}
	.st10{fill:#979797;}
	.st11{fill-rule:evenodd;clip-rule:evenodd;fill:#979797;}
	.st12{opacity:0.6953;fill-rule:evenodd;clip-rule:evenodd;fill:#ECEDF2;enable-background:new    ;}
</style>
<g id="without-proxy">
	<path id="Rectangle-11" class="st0" d="M2,19h196c1.1,0,2,0.9,2,2v138c0,1.1-0.9,2-2,2H2c-1.1,0-2-0.9-2-2V21C0,19.9,0.9,19,2,19z"
		/>
	<rect id="Rectangle-12" x="5" y="34" class="st1" width="190" height="122"/>
	<circle id="Oval-2" class="st1" cx="174" cy="27" r="3"/>
	<circle id="Oval-Copy-4" class="st1" cx="183" cy="27" r="3"/>
	<circle id="Oval-Copy-5" class="st1" cx="192" cy="27" r="3"/>
	<path id="Rectangle" class="st1" d="M8,24h155c1.7,0,3,1.3,3,3l0,0c0,1.7-1.3,3-3,3H8c-1.7,0-3-1.3-3-3l0,0C5,25.3,6.3,24,8,24z"/>
	<g id="Браузер">
		<g>
			<path id="path-1" class="st2" d="M63.7,98V85h8.9v2.5h-6v2.6h1.8c0.7,0,1.3,0.1,1.9,0.2c0.6,0.1,1.1,0.3,1.6,0.6
				c0.5,0.3,0.8,0.7,1.1,1.2s0.4,1.1,0.4,1.8c0,0.7-0.1,1.4-0.4,1.9c-0.3,0.5-0.6,1-1,1.3s-1,0.6-1.6,0.7c-0.6,0.2-1.2,0.2-1.9,0.2
				H63.7z M66.6,95.7h1.6c0.8,0,1.4-0.1,1.8-0.4c0.4-0.3,0.6-0.8,0.6-1.4c0-0.6-0.2-1-0.6-1.3s-1-0.4-1.8-0.4h-1.6V95.7z
				 M75.4,101.7V88.1h2.4l0.2,1h0.1c0.4-0.3,0.8-0.6,1.3-0.9c0.5-0.2,1-0.4,1.5-0.4c0.6,0,1.1,0.1,1.6,0.4c0.5,0.2,0.9,0.6,1.2,1
				s0.6,1,0.8,1.6s0.3,1.3,0.3,2.1c0,0.9-0.1,1.6-0.4,2.3c-0.2,0.7-0.5,1.2-0.9,1.7c-0.4,0.5-0.8,0.8-1.3,1c-0.5,0.2-1,0.4-1.5,0.4
				c-0.4,0-0.8-0.1-1.2-0.3s-0.8-0.4-1.1-0.8l0.1,1.6v2.9H75.4z M79.9,95.8c0.5,0,0.9-0.2,1.3-0.7c0.4-0.5,0.5-1.2,0.5-2.2
				c0-1.8-0.6-2.7-1.7-2.7c-0.6,0-1.1,0.3-1.7,0.9v4.1c0.3,0.2,0.5,0.4,0.8,0.5C79.4,95.8,79.7,95.8,79.9,95.8z M89.2,98.2
				c-0.5,0-0.9-0.1-1.2-0.2s-0.7-0.4-0.9-0.6c-0.3-0.3-0.4-0.6-0.6-1c-0.1-0.4-0.2-0.8-0.2-1.2c0-1,0.4-1.9,1.3-2.4
				c0.9-0.6,2.3-1,4.3-1.2c0-0.4-0.2-0.8-0.4-1.1s-0.6-0.4-1.2-0.4c-0.4,0-0.8,0.1-1.3,0.2c-0.4,0.2-0.9,0.4-1.3,0.7l-1.1-1.9
				c0.6-0.4,1.3-0.7,2-0.9c0.7-0.2,1.4-0.4,2.2-0.4c1.3,0,2.3,0.4,2.9,1.1c0.7,0.7,1,1.9,1,3.4V98h-2.4l-0.2-1H92
				c-0.4,0.4-0.9,0.7-1.3,0.9C90.2,98.1,89.7,98.2,89.2,98.2z M90.2,96c0.3,0,0.6-0.1,0.9-0.2c0.2-0.1,0.5-0.4,0.8-0.6v-1.7
				c-1,0.1-1.8,0.4-2.2,0.6c-0.4,0.3-0.6,0.6-0.6,1c0,0.3,0.1,0.6,0.3,0.7C89.5,95.9,89.8,96,90.2,96z M98.3,101.9
				c-0.3,0-0.6,0-0.8,0c-0.2,0-0.4-0.1-0.6-0.2l0.5-2.2c0.1,0,0.2,0.1,0.3,0.1c0.1,0,0.2,0,0.3,0c0.5,0,0.9-0.1,1.1-0.4
				c0.3-0.2,0.5-0.6,0.6-0.9l0.1-0.5l-3.8-9.7h3l1.4,4.3c0.1,0.5,0.3,0.9,0.4,1.4s0.2,0.9,0.4,1.4h0.1c0.1-0.5,0.2-0.9,0.3-1.4
				s0.2-0.9,0.3-1.4l1.2-4.3h2.8l-3.4,10c-0.2,0.6-0.5,1.2-0.8,1.7s-0.6,0.9-0.9,1.2c-0.3,0.3-0.7,0.5-1.2,0.7
				S98.9,101.9,98.3,101.9z M110.4,98.2c-0.7,0-1.3-0.1-1.9-0.2c-0.6-0.2-1.2-0.5-1.9-0.9l1.1-1.9c0.4,0.3,0.8,0.5,1.3,0.6
				c0.4,0.1,0.8,0.2,1.2,0.2c0.5,0,1-0.1,1.3-0.3c0.4-0.2,0.5-0.5,0.5-0.8c0-0.7-0.5-1-1.5-1h-1.6V92h1.4c0.9,0,1.4-0.3,1.4-1
				c0-0.6-0.5-0.9-1.5-0.9c-0.4,0-0.8,0-1.2,0.1c-0.4,0.1-0.8,0.3-1.1,0.5l-1.1-1.9c0.5-0.3,1.1-0.6,1.7-0.8
				c0.6-0.2,1.2-0.2,1.9-0.2c0.5,0,1,0.1,1.5,0.2c0.5,0.1,0.9,0.3,1.3,0.5c0.4,0.2,0.7,0.5,0.9,0.9s0.3,0.8,0.3,1.3
				c0,0.4-0.1,0.8-0.4,1.2c-0.2,0.4-0.6,0.7-1.2,0.9v0.1c0.6,0.2,1.1,0.4,1.4,0.8c0.3,0.4,0.5,0.9,0.5,1.6c0,0.5-0.1,0.9-0.4,1.3
				c-0.3,0.4-0.6,0.7-1,0.9c-0.4,0.3-0.9,0.4-1.4,0.6S110.9,98.2,110.4,98.2z M121.2,98.2c-0.7,0-1.4-0.1-2-0.3s-1.1-0.6-1.6-1
				c-0.5-0.4-0.8-1-1.1-1.6c-0.3-0.6-0.4-1.4-0.4-2.2c0-0.8,0.1-1.5,0.4-2.2c0.3-0.6,0.6-1.2,1.1-1.6c0.4-0.4,0.9-0.8,1.5-1
				c0.6-0.2,1.1-0.4,1.7-0.4c0.7,0,1.3,0.1,1.9,0.4c0.5,0.2,1,0.6,1.3,1c0.4,0.4,0.6,0.9,0.8,1.5c0.2,0.6,0.3,1.2,0.3,1.9
				c0,0.3,0,0.5,0,0.8c0,0.2-0.1,0.4-0.1,0.5H119c0.1,0.7,0.4,1.2,0.9,1.6c0.5,0.3,1,0.5,1.7,0.5c0.7,0,1.4-0.2,2.1-0.7l1,1.8
				c-0.5,0.3-1.1,0.6-1.7,0.8C122.4,98.1,121.8,98.2,121.2,98.2z M119,92h3.6c0-0.6-0.1-1-0.4-1.4c-0.3-0.3-0.7-0.5-1.3-0.5
				c-0.5,0-0.9,0.2-1.2,0.5C119.4,90.8,119.1,91.3,119,92z M127.1,101.7V88.1h2.4l0.2,1h0.1c0.4-0.3,0.8-0.6,1.3-0.9
				c0.5-0.2,1-0.4,1.5-0.4c0.6,0,1.1,0.1,1.6,0.4c0.5,0.2,0.9,0.6,1.2,1c0.3,0.4,0.6,1,0.8,1.6s0.3,1.3,0.3,2.1
				c0,0.9-0.1,1.6-0.4,2.3s-0.5,1.2-0.9,1.7c-0.4,0.5-0.8,0.8-1.3,1c-0.5,0.2-1,0.4-1.6,0.4c-0.4,0-0.8-0.1-1.2-0.3
				c-0.4-0.2-0.8-0.4-1.1-0.8l0.1,1.6v2.9H127.1z M131.7,95.8c0.5,0,0.9-0.2,1.3-0.7c0.4-0.5,0.5-1.2,0.5-2.2c0-1.8-0.6-2.7-1.7-2.7
				c-0.6,0-1.1,0.3-1.7,0.9v4.1c0.3,0.2,0.5,0.4,0.8,0.5C131.1,95.8,131.4,95.8,131.7,95.8z"/>
		</g>
		<g>
			<path class="st3" d="M63.7,98V85h8.9v2.5h-6v2.6h1.8c0.7,0,1.3,0.1,1.9,0.2c0.6,0.1,1.1,0.3,1.6,0.6c0.5,0.3,0.8,0.7,1.1,1.2
				s0.4,1.1,0.4,1.8c0,0.7-0.1,1.4-0.4,1.9c-0.3,0.5-0.6,1-1,1.3s-1,0.6-1.6,0.7c-0.6,0.2-1.2,0.2-1.9,0.2H63.7z M66.6,95.7h1.6
				c0.8,0,1.4-0.1,1.8-0.4c0.4-0.3,0.6-0.8,0.6-1.4c0-0.6-0.2-1-0.6-1.3s-1-0.4-1.8-0.4h-1.6V95.7z M75.4,101.7V88.1h2.4l0.2,1h0.1
				c0.4-0.3,0.8-0.6,1.3-0.9c0.5-0.2,1-0.4,1.5-0.4c0.6,0,1.1,0.1,1.6,0.4c0.5,0.2,0.9,0.6,1.2,1s0.6,1,0.8,1.6s0.3,1.3,0.3,2.1
				c0,0.9-0.1,1.6-0.4,2.3c-0.2,0.7-0.5,1.2-0.9,1.7c-0.4,0.5-0.8,0.8-1.3,1c-0.5,0.2-1,0.4-1.5,0.4c-0.4,0-0.8-0.1-1.2-0.3
				s-0.8-0.4-1.1-0.8l0.1,1.6v2.9H75.4z M79.9,95.8c0.5,0,0.9-0.2,1.3-0.7c0.4-0.5,0.5-1.2,0.5-2.2c0-1.8-0.6-2.7-1.7-2.7
				c-0.6,0-1.1,0.3-1.7,0.9v4.1c0.3,0.2,0.5,0.4,0.8,0.5C79.4,95.8,79.7,95.8,79.9,95.8z M89.2,98.2c-0.5,0-0.9-0.1-1.2-0.2
				s-0.7-0.4-0.9-0.6c-0.3-0.3-0.4-0.6-0.6-1c-0.1-0.4-0.2-0.8-0.2-1.2c0-1,0.4-1.9,1.3-2.4c0.9-0.6,2.3-1,4.3-1.2
				c0-0.4-0.2-0.8-0.4-1.1s-0.6-0.4-1.2-0.4c-0.4,0-0.8,0.1-1.3,0.2c-0.4,0.2-0.9,0.4-1.3,0.7l-1.1-1.9c0.6-0.4,1.3-0.7,2-0.9
				c0.7-0.2,1.4-0.4,2.2-0.4c1.3,0,2.3,0.4,2.9,1.1c0.7,0.7,1,1.9,1,3.4V98h-2.4l-0.2-1H92c-0.4,0.4-0.9,0.7-1.3,0.9
				C90.2,98.1,89.7,98.2,89.2,98.2z M90.2,96c0.3,0,0.6-0.1,0.9-0.2c0.2-0.1,0.5-0.4,0.8-0.6v-1.7c-1,0.1-1.8,0.4-2.2,0.6
				c-0.4,0.3-0.6,0.6-0.6,1c0,0.3,0.1,0.6,0.3,0.7C89.5,95.9,89.8,96,90.2,96z M98.3,101.9c-0.3,0-0.6,0-0.8,0
				c-0.2,0-0.4-0.1-0.6-0.2l0.5-2.2c0.1,0,0.2,0.1,0.3,0.1c0.1,0,0.2,0,0.3,0c0.5,0,0.9-0.1,1.1-0.4c0.3-0.2,0.5-0.6,0.6-0.9
				l0.1-0.5l-3.8-9.7h3l1.4,4.3c0.1,0.5,0.3,0.9,0.4,1.4s0.2,0.9,0.4,1.4h0.1c0.1-0.5,0.2-0.9,0.3-1.4s0.2-0.9,0.3-1.4l1.2-4.3h2.8
				l-3.4,10c-0.2,0.6-0.5,1.2-0.8,1.7s-0.6,0.9-0.9,1.2c-0.3,0.3-0.7,0.5-1.2,0.7S98.9,101.9,98.3,101.9z M110.4,98.2
				c-0.7,0-1.3-0.1-1.9-0.2c-0.6-0.2-1.2-0.5-1.9-0.9l1.1-1.9c0.4,0.3,0.8,0.5,1.3,0.6c0.4,0.1,0.8,0.2,1.2,0.2c0.5,0,1-0.1,1.3-0.3
				c0.4-0.2,0.5-0.5,0.5-0.8c0-0.7-0.5-1-1.5-1h-1.6V92h1.4c0.9,0,1.4-0.3,1.4-1c0-0.6-0.5-0.9-1.5-0.9c-0.4,0-0.8,0-1.2,0.1
				c-0.4,0.1-0.8,0.3-1.1,0.5l-1.1-1.9c0.5-0.3,1.1-0.6,1.7-0.8c0.6-0.2,1.2-0.2,1.9-0.2c0.5,0,1,0.1,1.5,0.2
				c0.5,0.1,0.9,0.3,1.3,0.5c0.4,0.2,0.7,0.5,0.9,0.9s0.3,0.8,0.3,1.3c0,0.4-0.1,0.8-0.4,1.2c-0.2,0.4-0.6,0.7-1.2,0.9v0.1
				c0.6,0.2,1.1,0.4,1.4,0.8c0.3,0.4,0.5,0.9,0.5,1.6c0,0.5-0.1,0.9-0.4,1.3c-0.3,0.4-0.6,0.7-1,0.9c-0.4,0.3-0.9,0.4-1.4,0.6
				S110.9,98.2,110.4,98.2z M121.2,98.2c-0.7,0-1.4-0.1-2-0.3s-1.1-0.6-1.6-1c-0.5-0.4-0.8-1-1.1-1.6c-0.3-0.6-0.4-1.4-0.4-2.2
				c0-0.8,0.1-1.5,0.4-2.2c0.3-0.6,0.6-1.2,1.1-1.6c0.4-0.4,0.9-0.8,1.5-1c0.6-0.2,1.1-0.4,1.7-0.4c0.7,0,1.3,0.1,1.9,0.4
				c0.5,0.2,1,0.6,1.3,1c0.4,0.4,0.6,0.9,0.8,1.5c0.2,0.6,0.3,1.2,0.3,1.9c0,0.3,0,0.5,0,0.8c0,0.2-0.1,0.4-0.1,0.5H119
				c0.1,0.7,0.4,1.2,0.9,1.6c0.5,0.3,1,0.5,1.7,0.5c0.7,0,1.4-0.2,2.1-0.7l1,1.8c-0.5,0.3-1.1,0.6-1.7,0.8
				C122.4,98.1,121.8,98.2,121.2,98.2z M119,92h3.6c0-0.6-0.1-1-0.4-1.4c-0.3-0.3-0.7-0.5-1.3-0.5c-0.5,0-0.9,0.2-1.2,0.5
				C119.4,90.8,119.1,91.3,119,92z M127.1,101.7V88.1h2.4l0.2,1h0.1c0.4-0.3,0.8-0.6,1.3-0.9c0.5-0.2,1-0.4,1.5-0.4
				c0.6,0,1.1,0.1,1.6,0.4c0.5,0.2,0.9,0.6,1.2,1c0.3,0.4,0.6,1,0.8,1.6s0.3,1.3,0.3,2.1c0,0.9-0.1,1.6-0.4,2.3s-0.5,1.2-0.9,1.7
				c-0.4,0.5-0.8,0.8-1.3,1c-0.5,0.2-1,0.4-1.6,0.4c-0.4,0-0.8-0.1-1.2-0.3c-0.4-0.2-0.8-0.4-1.1-0.8l0.1,1.6v2.9H127.1z
				 M131.7,95.8c0.5,0,0.9-0.2,1.3-0.7c0.4-0.5,0.5-1.2,0.5-2.2c0-1.8-0.6-2.7-1.7-2.7c-0.6,0-1.1,0.3-1.7,0.9v4.1
				c0.3,0.2,0.5,0.4,0.8,0.5C131.1,95.8,131.4,95.8,131.7,95.8z"/>
		</g>
	</g>
	<path id="Rectangle-Copy-8-Copy-3" class="st4" d="M373,15h140c2.8,0,5,2.3,5,5.1v97.8c0,2.8-2.2,5.1-5,5.1H373c-2.8,0-5-2.3-5-5.1
		V20.1C368,17.3,370.2,15,373,15z"/>
	<path id="Rectangle-Copy-8-Copy-3-Copy" class="st4" d="M691,15h140c2.8,0,5,3.2,5,7.1v135.9c0,3.9-2.2,7.1-5,7.1H691
		c-2.8,0-5-3.2-5-7.1V22.1C686,18.2,688.2,15,691,15z"/>
	<path id="Path-32" class="st5" d="M754.7,121l-2.6-10.1h1.4l1.2,5c0.3,1.3,0.6,2.5,0.8,3.5c0.2-0.9,0.5-2.2,0.8-3.5l1.4-5h1.5
		l1.2,5c0.3,1.3,0.6,2.4,0.8,3.5c0.2-1.1,0.5-2.2,0.8-3.5l1.4-5h1.4l-2.9,10.1h-1.4l-1.2-5.2c-0.3-1.1-0.5-2.2-0.6-3.3
		c-0.2,1.1-0.5,2.2-0.8,3.3l-1.7,5.2H754.7z"/>
	<path id="Shape-9" class="st6" d="M768.3,111.7c0,0.3-0.2,0.6-0.5,0.8c-0.3,0.2-0.6,0.2-0.9,0c-0.3-0.2-0.5-0.5-0.5-0.8
		c0-0.2,0.2-0.5,0.3-0.6s0.3-0.2,0.6-0.2c0.2,0,0.5,0,0.6,0.2S768.3,111.6,768.3,111.7z M766.7,121v-7.2h1.4v7.2H766.7z"/>
	<path id="Path-33" class="st5" d="M770.9,115.8c0-0.8,0-1.4,0-1.9h1.2v1.3c0.5-0.8,1.4-1.4,2.5-1.4c1.1,0,2.6,0.6,2.6,3v4.2h-1.4
		v-4.1c0-1.1-0.5-2.2-1.7-2.2c-0.8,0-1.5,0.6-1.8,1.4c0,0.2-0.2,0.5-0.2,0.6v4.4h-1.4v-5.3H770.9z"/>
	<path id="Shape-10" class="st6" d="M785.8,110.5v8.6c0,0.6,0,1.4,0,1.9h-1.2v-1.3c-0.6,0.9-1.5,1.4-2.6,1.4c-0.9,0-1.8-0.5-2.5-1.1
		c-0.6-0.6-0.9-1.6-0.8-2.5c-0.2-0.9,0.2-1.9,0.8-2.7c0.6-0.8,1.5-1.1,2.5-1.3c0.9,0,1.7,0.3,2.2,1.1v-4.2H785.8z M784.4,116.7
		c0-0.2,0-0.3,0-0.6c-0.2-0.9-1.1-1.6-2-1.6c-1.4,0-2.2,1.3-2.2,2.8c0,1.4,0.8,2.7,2.2,2.7c0.9,0,1.7-0.6,2-1.6c0-0.2,0-0.3,0-0.6
		V116.7z"/>
	<path id="Shape-11" class="st6" d="M794.7,117.4c0.2,0.9-0.3,2-0.9,2.7c-0.8,0.8-1.7,1.1-2.8,1.1c-0.9,0-2-0.3-2.6-1.1
		c-0.6-0.6-1.1-1.7-0.9-2.7c0-0.9,0.3-1.9,0.9-2.7c0.8-0.8,1.7-1.1,2.8-1.1c0.9,0,2,0.3,2.6,1.1
		C794.4,115.5,794.7,116.4,794.7,117.4z M788.9,117.4c0,1.6,0.9,2.8,2.2,2.8s2.3-1.1,2.3-2.8c0-1.3-0.6-2.7-2.2-2.7
		C789.6,114.7,788.9,116.1,788.9,117.4z"/>
	<path id="Path-34" class="st5" d="M797.2,113.8l0.9,3.6c0.2,0.8,0.5,1.6,0.6,2.4c0.2-0.8,0.5-1.6,0.6-2.4l1.2-3.6h1.1l1.1,3.6
		c0.3,0.8,0.5,1.6,0.6,2.4c0.2-0.8,0.3-1.4,0.6-2.4l1.1-3.6h1.4l-2.3,7.2h-1.2l-1.1-3.5c-0.3-0.8-0.5-1.6-0.6-2.4
		c-0.2,0.8-0.5,1.6-0.6,2.4l-1.4,3.5h-1.2l-2.2-7.2H797.2z"/>
	<path id="Path-35" class="st5" d="M808.1,119.7c0.5,0.3,1.1,0.5,1.8,0.5c0.9,0,1.4-0.5,1.4-1.1s-0.5-0.9-1.4-1.3
		c-1.4-0.5-2-1.1-2-2c0-0.6,0.3-1.3,0.8-1.6c0.5-0.5,1.1-0.6,1.7-0.5c0.6,0,1.2,0.2,1.8,0.5l-0.3,0.9c-0.5-0.3-0.9-0.5-1.5-0.5
		c-0.8,0-1.2,0.5-1.2,0.9c0,0.6,0.5,0.8,1.4,1.3c1.2,0.5,2,1.1,2,2.2s-1.1,2-2.8,2c-0.8,0-1.4-0.2-2-0.5L808.1,119.7z"/>
	<path id="Path-36" class="st5" d="M752.3,134.8c0.8,0.5,1.5,0.6,2.3,0.6c1.4,0,2.2-0.6,2.2-1.7c0-0.9-0.6-1.4-2-2
		c-1.7-0.6-2.8-1.4-2.8-2.8c0-0.8,0.5-1.6,1.1-2c0.6-0.5,1.4-0.8,2.3-0.6c0.8,0,1.5,0.2,2.3,0.5l-0.3,1.1c-0.6-0.3-1.2-0.5-2-0.5
		c-1.4,0-2,0.8-2,1.6c0,0.9,0.6,1.4,2,1.9c1.7,0.6,2.6,1.4,2.6,3c0,1.6-1.2,2.8-3.5,2.8c-0.9,0-1.8-0.2-2.6-0.6L752.3,134.8z"/>
	<path id="Shape-12" class="st6" d="M760.7,133.1c0,0.6,0.2,1.4,0.6,1.9c0.5,0.5,1.2,0.8,1.8,0.6c0.8,0,1.4-0.2,2-0.3l0.3,0.9
		c-0.8,0.3-1.5,0.5-2.5,0.5c-0.9,0-2-0.3-2.6-0.9c-0.8-0.6-1.1-1.7-0.9-2.7c-0.2-0.9,0.2-1.9,0.9-2.7c0.6-0.8,1.5-1.1,2.6-1.3
		c0.9,0,1.7,0.3,2.3,1.1c0.6,0.8,0.9,1.6,0.8,2.4c0,0.2,0,0.5,0,0.6L760.7,133.1z M764.7,132.1c0-0.5-0.2-1.1-0.5-1.4
		c-0.3-0.5-0.9-0.6-1.4-0.6c-1.1,0-2,0.9-2,2H764.7z"/>
	<path id="Path-37" class="st5" d="M768.1,131.5c0-0.8,0-1.6,0-2.2h1.2v1.4c0.3-0.9,1.1-1.6,2-1.6c0.2,0,0.3,0,0.3,0v1.3
		c-0.2,0-0.3,0-0.5,0c-0.9,0-1.7,0.8-1.8,1.7c0,0.2,0,0.5,0,0.6v3.8H768L768.1,131.5z"/>
	<path id="Path-38" class="st5" d="M774.4,129.2l1.4,4.1c0.3,0.6,0.5,1.3,0.6,1.9c0.2-0.6,0.3-1.3,0.6-1.9l1.4-4.1h1.4l-2.9,7.2
		h-1.2l-2.6-7.2H774.4z"/>
	<path id="Shape-13" class="st6" d="M781.9,133.1c0,0.6,0.2,1.4,0.6,1.9c0.5,0.5,1.2,0.8,1.8,0.6c0.8,0,1.4-0.2,2-0.3l0.3,0.9
		c-0.8,0.3-1.5,0.5-2.5,0.5c-0.9,0-2-0.3-2.6-0.9s-0.9-1.9-0.9-2.8c-0.2-0.9,0.2-1.9,0.9-2.7c0.6-0.8,1.5-1.1,2.6-1.3
		c0.9,0,1.7,0.3,2.3,1.1c0.6,0.6,0.9,1.6,0.8,2.4c0,0.2,0,0.5,0,0.6H781.9z M785.9,132.1c0-0.5-0.2-1.1-0.5-1.4
		c-0.3-0.3-0.9-0.6-1.4-0.6c-1.1,0-2,0.9-2,2H785.9z"/>
	<path id="Path-39" class="st5" d="M789.5,131.5c0-0.8,0-1.6,0-2.2h1.2v1.4c0.3-0.9,1.1-1.6,2-1.6c0.2,0,0.3,0,0.3,0v1.3
		c-0.2,0-0.3,0-0.5,0c-0.9,0-1.7,0.8-1.8,1.7c0,0.2,0,0.5,0,0.6v3.8h-1.4L789.5,131.5z"/>
	<polygon id="Path-40" class="st5" points="723.7,122.6 723.7,109.7 710,111.4 710,122.6 	"/>
	<polygon id="Path-41" class="st5" points="725.7,122.6 743.8,122.6 743.8,107 725.7,109.4 	"/>
	<polygon id="Path-42" class="st5" points="723.7,124.4 710,124.4 710,135.1 723.7,137 	"/>
	<polygon id="Path-43" class="st5" points="725.7,124.4 725.7,137.3 743.8,139.8 743.8,124.4 	"/>
	<g class="st7">
		<path class="st8" d="M723.9,61V48h2.9v10.6h5.2V61H723.9z"/>
		<path class="st8" d="M738,61.2c-0.6,0-1.2-0.1-1.8-0.4c-0.6-0.2-1.1-0.6-1.5-1c-0.4-0.4-0.8-1-1.1-1.6s-0.4-1.4-0.4-2.2
			c0-0.8,0.1-1.6,0.4-2.2c0.3-0.6,0.6-1.2,1.1-1.6c0.4-0.4,1-0.8,1.5-1c0.6-0.2,1.2-0.4,1.8-0.4c0.6,0,1.2,0.1,1.8,0.4
			c0.6,0.2,1.1,0.6,1.5,1c0.4,0.4,0.8,1,1.1,1.6c0.3,0.6,0.4,1.4,0.4,2.2c0,0.8-0.1,1.6-0.4,2.2c-0.3,0.6-0.6,1.2-1.1,1.6
			c-0.4,0.4-1,0.8-1.5,1C739.2,61.1,738.6,61.2,738,61.2z M738,58.9c0.6,0,1.1-0.3,1.4-0.8c0.3-0.5,0.5-1.2,0.5-2.1
			c0-0.9-0.2-1.6-0.5-2.1c-0.3-0.5-0.8-0.8-1.4-0.8c-0.6,0-1.1,0.3-1.4,0.8c-0.3,0.5-0.5,1.2-0.5,2.1c0,0.9,0.1,1.6,0.5,2.1
			C736.9,58.6,737.4,58.9,738,58.9z"/>
		<path class="st8" d="M748.3,65.2c-0.6,0-1.1,0-1.6-0.1c-0.5-0.1-0.9-0.2-1.3-0.5s-0.7-0.5-0.9-0.8c-0.2-0.3-0.3-0.7-0.3-1.1
			c0-0.8,0.5-1.5,1.4-2v-0.1c-0.3-0.2-0.5-0.4-0.7-0.7c-0.2-0.3-0.3-0.6-0.3-1c0-0.4,0.1-0.7,0.3-1c0.2-0.3,0.5-0.6,0.8-0.8V57
			c-0.3-0.2-0.7-0.6-0.9-1c-0.3-0.4-0.4-1-0.4-1.5c0-0.6,0.1-1.1,0.3-1.6s0.5-0.8,0.9-1.1s0.8-0.5,1.3-0.7c0.5-0.1,1-0.2,1.5-0.2
			c0.6,0,1.1,0.1,1.5,0.2h3.6v2.1h-1.6c0.1,0.1,0.2,0.3,0.2,0.6c0.1,0.2,0.1,0.5,0.1,0.7c0,0.6-0.1,1.1-0.3,1.5s-0.5,0.8-0.8,1
			c-0.4,0.3-0.8,0.5-1.2,0.6s-1,0.2-1.5,0.2c-0.4,0-0.8-0.1-1.2-0.2c-0.1,0.1-0.2,0.2-0.3,0.3c-0.1,0.1-0.1,0.2-0.1,0.4
			c0,0.3,0.1,0.4,0.3,0.6s0.6,0.2,1.2,0.2h1.6c1.2,0,2.2,0.2,2.8,0.6c0.6,0.4,1,1,1,1.9c0,0.5-0.1,1-0.4,1.4s-0.6,0.8-1.1,1.1
			c-0.5,0.3-1.1,0.6-1.7,0.7C750,65.1,749.2,65.2,748.3,65.2z M748.8,63.4c0.7,0,1.2-0.1,1.6-0.3c0.4-0.2,0.6-0.5,0.6-0.9
			c0-0.3-0.1-0.5-0.4-0.6c-0.3-0.1-0.6-0.2-1.1-0.2h-1c-0.3,0-0.6,0-0.8,0c-0.2,0-0.4,0-0.6-0.1c-0.4,0.3-0.5,0.6-0.5,1
			c0,0.4,0.2,0.7,0.6,0.8C747.6,63.3,748.1,63.4,748.8,63.4z M748.6,56.1c0.4,0,0.7-0.1,1-0.4c0.3-0.3,0.4-0.7,0.4-1.2
			c0-0.5-0.1-0.9-0.4-1.2c-0.3-0.3-0.6-0.4-1-0.4s-0.7,0.1-1,0.4s-0.4,0.7-0.4,1.2c0,0.6,0.1,1,0.4,1.2S748.2,56.1,748.6,56.1z"/>
		<path class="st8" d="M756.9,49.6c-0.5,0-0.9-0.1-1.2-0.4c-0.3-0.3-0.5-0.7-0.5-1.1s0.2-0.8,0.5-1.1s0.7-0.4,1.2-0.4
			c0.5,0,0.9,0.1,1.2,0.4c0.3,0.3,0.5,0.6,0.5,1.1s-0.2,0.8-0.5,1.1C757.9,49.5,757.5,49.6,756.9,49.6z M755.5,61v-9.9h2.9V61H755.5
			z"/>
		<path class="st8" d="M761,61v-9.9h2.4l0.2,1.3h0.1c0.4-0.4,0.9-0.8,1.4-1s1.1-0.5,1.8-0.5c1.1,0,1.9,0.4,2.3,1.1
			c0.5,0.7,0.7,1.7,0.7,2.9V61H767v-5.8c0-0.7-0.1-1.2-0.3-1.5s-0.5-0.4-0.9-0.4c-0.4,0-0.7,0.1-1,0.2c-0.3,0.2-0.6,0.4-0.9,0.7V61
			H761z"/>
		<path class="st8" d="M776.7,61.2c-0.6,0-1.2-0.1-1.8-0.4c-0.6-0.2-1.1-0.6-1.5-1c-0.4-0.4-0.8-1-1.1-1.6s-0.4-1.4-0.4-2.2
			c0-0.8,0.1-1.6,0.4-2.2c0.3-0.6,0.6-1.2,1.1-1.6c0.4-0.4,1-0.8,1.5-1c0.6-0.2,1.2-0.4,1.8-0.4c0.6,0,1.2,0.1,1.8,0.4
			c0.6,0.2,1.1,0.6,1.5,1c0.4,0.4,0.8,1,1.1,1.6c0.3,0.6,0.4,1.4,0.4,2.2c0,0.8-0.1,1.6-0.4,2.2c-0.3,0.6-0.6,1.2-1.1,1.6
			c-0.4,0.4-1,0.8-1.5,1C777.9,61.1,777.3,61.2,776.7,61.2z M776.7,58.9c0.6,0,1.1-0.3,1.4-0.8c0.3-0.5,0.5-1.2,0.5-2.1
			c0-0.9-0.2-1.6-0.5-2.1c-0.3-0.5-0.8-0.8-1.4-0.8c-0.6,0-1.1,0.3-1.4,0.8c-0.3,0.5-0.5,1.2-0.5,2.1c0,0.9,0.1,1.6,0.5,2.1
			C775.6,58.6,776.1,58.9,776.7,58.9z"/>
		<path class="st8" d="M783.5,61v-9.9h2.4l0.2,1.3h0.1c0.4-0.4,0.9-0.8,1.3-1.1s1-0.5,1.7-0.5c0.7,0,1.3,0.1,1.7,0.4
			c0.4,0.3,0.8,0.7,1,1.2c0.4-0.5,0.9-0.8,1.4-1.2c0.5-0.3,1.1-0.5,1.7-0.5c1.1,0,1.9,0.4,2.4,1.1s0.8,1.7,0.8,2.9V61h-2.9v-5.8
			c0-0.7-0.1-1.2-0.3-1.5s-0.5-0.4-0.9-0.4c-0.5,0-1.1,0.3-1.7,1V61h-2.9v-5.8c0-0.7-0.1-1.2-0.3-1.5s-0.5-0.4-0.9-0.4
			c-0.5,0-1.1,0.3-1.7,1V61H783.5z"/>
	</g>
	<g class="st7">
		<path class="st8" d="M737.4,86.2c-0.9,0-1.7-0.2-2.5-0.5c-0.8-0.3-1.6-0.8-2.3-1.4l1.7-2c0.5,0.4,1,0.7,1.6,1
			c0.6,0.3,1.1,0.4,1.7,0.4c0.6,0,1.1-0.1,1.4-0.3s0.5-0.5,0.5-0.9c0-0.2,0-0.4-0.1-0.5s-0.2-0.3-0.4-0.4c-0.2-0.1-0.4-0.2-0.6-0.3
			s-0.5-0.2-0.8-0.3l-1.7-0.7c-0.3-0.1-0.7-0.3-1-0.5s-0.6-0.5-0.8-0.8c-0.2-0.3-0.4-0.6-0.6-1c-0.1-0.4-0.2-0.8-0.2-1.3
			c0-0.5,0.1-1,0.3-1.5c0.2-0.5,0.5-0.9,1-1.2c0.4-0.4,0.9-0.6,1.5-0.8s1.2-0.3,1.9-0.3c0.8,0,1.5,0.1,2.2,0.4
			c0.7,0.3,1.4,0.7,1.9,1.3l-1.5,1.9c-0.4-0.3-0.9-0.6-1.3-0.8c-0.4-0.2-0.9-0.3-1.4-0.3c-0.5,0-0.9,0.1-1.2,0.3
			c-0.3,0.2-0.5,0.5-0.5,0.9c0,0.2,0,0.4,0.2,0.5c0.1,0.1,0.2,0.3,0.4,0.4c0.2,0.1,0.4,0.2,0.6,0.3s0.5,0.2,0.8,0.3l1.7,0.7
			c0.8,0.3,1.4,0.8,1.9,1.3s0.7,1.3,0.7,2.2c0,0.5-0.1,1.1-0.3,1.5c-0.2,0.5-0.5,0.9-1,1.3c-0.4,0.4-0.9,0.7-1.6,0.9
			S738.2,86.2,737.4,86.2z"/>
		<path class="st8" d="M748.8,86.2c-0.7,0-1.4-0.1-2-0.4c-0.6-0.2-1.1-0.6-1.6-1s-0.8-1-1.1-1.6c-0.3-0.6-0.4-1.4-0.4-2.2
			c0-0.8,0.1-1.5,0.4-2.2c0.3-0.6,0.6-1.2,1-1.6s0.9-0.8,1.5-1c0.6-0.2,1.1-0.4,1.7-0.4c0.7,0,1.3,0.1,1.8,0.4c0.5,0.2,1,0.6,1.3,1
			c0.4,0.4,0.6,0.9,0.8,1.5c0.2,0.6,0.3,1.2,0.3,1.9c0,0.3,0,0.5,0,0.8c0,0.2-0.1,0.4-0.1,0.5h-5.9c0.1,0.7,0.4,1.2,0.9,1.6
			s1,0.5,1.7,0.5c0.7,0,1.4-0.2,2.1-0.7l1,1.8c-0.5,0.3-1.1,0.6-1.7,0.8C750,86.1,749.3,86.2,748.8,86.2z M746.5,80h3.6
			c0-0.6-0.1-1-0.4-1.4c-0.3-0.3-0.7-0.5-1.3-0.5c-0.5,0-0.9,0.2-1.2,0.5C746.9,78.8,746.7,79.3,746.5,80z"/>
		<path class="st8" d="M754.7,86v-9.9h2.4l0.2,1.7h0.1c0.4-0.7,0.8-1.2,1.3-1.5c0.5-0.3,1-0.5,1.5-0.5c0.3,0,0.5,0,0.7,0.1
			c0.2,0,0.3,0.1,0.5,0.1l-0.5,2.5c-0.2-0.1-0.4-0.1-0.5-0.1c-0.2,0-0.3,0-0.6,0c-0.4,0-0.8,0.1-1.2,0.4c-0.4,0.3-0.7,0.7-1,1.4V86
			H754.7z"/>
		<path class="st8" d="M765,86l-3.3-9.9h3l1.3,4.7c0.1,0.5,0.3,1,0.4,1.5c0.1,0.5,0.3,1,0.4,1.6h0.1c0.1-0.5,0.2-1,0.4-1.6
			c0.1-0.5,0.3-1,0.4-1.5l1.3-4.7h2.8l-3.2,9.9H765z"/>
		<path class="st8" d="M777.5,86.2c-0.7,0-1.4-0.1-2-0.4c-0.6-0.2-1.1-0.6-1.6-1s-0.8-1-1.1-1.6c-0.3-0.6-0.4-1.4-0.4-2.2
			c0-0.8,0.1-1.5,0.4-2.2c0.3-0.6,0.6-1.2,1-1.6s0.9-0.8,1.5-1c0.6-0.2,1.1-0.4,1.7-0.4c0.7,0,1.3,0.1,1.8,0.4c0.5,0.2,1,0.6,1.3,1
			c0.4,0.4,0.6,0.9,0.8,1.5c0.2,0.6,0.3,1.2,0.3,1.9c0,0.3,0,0.5,0,0.8c0,0.2-0.1,0.4-0.1,0.5h-5.9c0.1,0.7,0.4,1.2,0.9,1.6
			s1,0.5,1.7,0.5c0.7,0,1.4-0.2,2.1-0.7l1,1.8c-0.5,0.3-1.1,0.6-1.7,0.8C778.7,86.1,778.1,86.2,777.5,86.2z M775.3,80h3.6
			c0-0.6-0.1-1-0.4-1.4c-0.3-0.3-0.7-0.5-1.3-0.5c-0.5,0-0.9,0.2-1.2,0.5C775.6,78.8,775.4,79.3,775.3,80z"/>
		<path class="st8" d="M783.4,86v-9.9h2.4l0.2,1.7h0.1c0.4-0.7,0.8-1.2,1.3-1.5c0.5-0.3,1-0.5,1.5-0.5c0.3,0,0.5,0,0.7,0.1
			c0.2,0,0.3,0.1,0.5,0.1l-0.5,2.5c-0.2-0.1-0.4-0.1-0.5-0.1c-0.2,0-0.3,0-0.6,0c-0.4,0-0.8,0.1-1.2,0.4c-0.4,0.3-0.7,0.7-1,1.4V86
			H783.4z"/>
	</g>
	<g id="Веб-сервер">
		<g>
			<path id="path-2" class="st2" d="M392.6,76V63h4.5c0.7,0,1.3,0,1.9,0.2c0.6,0.1,1.1,0.3,1.5,0.5c0.4,0.3,0.8,0.6,1,1
				s0.4,0.9,0.4,1.6c0,0.3,0,0.6-0.1,0.9s-0.2,0.6-0.3,0.8s-0.3,0.5-0.5,0.7c-0.2,0.2-0.4,0.3-0.7,0.4v0.1c0.3,0.1,0.6,0.2,0.9,0.4
				c0.3,0.2,0.5,0.4,0.7,0.6c0.2,0.3,0.4,0.6,0.5,0.9c0.1,0.3,0.2,0.7,0.2,1.2c0,0.7-0.1,1.2-0.4,1.7s-0.6,0.9-1.1,1.2
				c-0.5,0.3-1,0.5-1.6,0.7c-0.6,0.2-1.3,0.2-2,0.2H392.6z M395.5,68.2h1.4c0.7,0,1.2-0.1,1.6-0.4c0.3-0.3,0.5-0.7,0.5-1.1
				c0-0.5-0.2-0.9-0.5-1.1c-0.3-0.2-0.8-0.3-1.5-0.3h-1.4V68.2z M395.5,73.7h1.7c1.6,0,2.4-0.6,2.4-1.8c0-0.6-0.2-1-0.6-1.2
				c-0.4-0.2-1-0.4-1.8-0.4h-1.7V73.7z M408.9,76.2c-0.7,0-1.4-0.1-2-0.3s-1.1-0.6-1.6-1c-0.5-0.4-0.8-1-1.1-1.6
				c-0.3-0.6-0.4-1.4-0.4-2.2c0-0.8,0.1-1.5,0.4-2.2c0.3-0.6,0.6-1.2,1-1.6c0.4-0.4,0.9-0.8,1.5-1c0.6-0.2,1.1-0.4,1.7-0.4
				c0.7,0,1.3,0.1,1.9,0.4c0.5,0.2,1,0.6,1.3,1c0.4,0.4,0.6,0.9,0.8,1.5s0.3,1.2,0.3,1.9c0,0.3,0,0.5,0,0.8c0,0.2-0.1,0.4-0.1,0.5
				h-5.9c0.1,0.7,0.4,1.2,0.9,1.6c0.5,0.3,1,0.5,1.7,0.5c0.7,0,1.4-0.2,2.1-0.7l1,1.8c-0.5,0.3-1.1,0.6-1.7,0.8
				C410.1,76.1,409.5,76.2,408.9,76.2z M406.7,70h3.6c0-0.6-0.1-1-0.4-1.4c-0.3-0.3-0.7-0.5-1.3-0.5c-0.5,0-0.9,0.2-1.2,0.5
				C407,68.8,406.8,69.3,406.7,70z M419.3,76.2c-1.6,0-2.8-0.6-3.6-1.7c-0.8-1.1-1.3-2.7-1.3-4.8c0-1.5,0.2-2.7,0.5-3.7
				c0.3-1,0.7-1.7,1.3-2.3s1.2-1,2-1.3s1.6-0.5,2.5-0.6c0.6-0.1,1.1-0.2,1.4-0.2c0.3-0.1,0.7-0.2,1-0.3l0.6,2.6
				c-0.3,0.2-0.6,0.4-1,0.5c-0.4,0.1-0.9,0.2-1.3,0.3c-0.7,0.1-1.3,0.2-1.8,0.3c-0.5,0.1-0.9,0.2-1.2,0.4c-0.3,0.2-0.5,0.5-0.7,0.8
				s-0.3,0.9-0.3,1.5c0.3-0.4,0.8-0.7,1.3-0.9c0.5-0.2,1-0.3,1.6-0.3c0.5,0,1,0.1,1.5,0.3c0.5,0.2,0.9,0.5,1.2,0.9
				c0.4,0.4,0.6,0.9,0.8,1.4c0.2,0.6,0.3,1.2,0.3,2c0,0.8-0.1,1.5-0.4,2.1c-0.2,0.6-0.6,1.2-1,1.6c-0.4,0.4-0.9,0.8-1.5,1
				C420.6,76.1,420,76.2,419.3,76.2z M419.2,73.9c0.5,0,1-0.2,1.2-0.7s0.4-1.1,0.4-2c0-0.9-0.2-1.5-0.5-1.9s-0.7-0.6-1.2-0.6
				c-0.3,0-0.7,0.1-1.1,0.3s-0.7,0.5-1,0.9v0.6c0,1.1,0.2,2,0.5,2.5C418.1,73.6,418.6,73.9,419.2,73.9z M425.6,72v-2.1h4.9V72H425.6
				z M437,76.2c-0.7,0-1.3-0.1-1.9-0.3c-0.6-0.2-1.1-0.6-1.5-1s-0.8-1-1-1.6c-0.3-0.6-0.4-1.4-0.4-2.2c0-0.8,0.1-1.6,0.4-2.2
				c0.3-0.6,0.7-1.2,1.1-1.6s1-0.8,1.6-1c0.6-0.2,1.3-0.4,2-0.4c0.6,0,1.2,0.1,1.6,0.3c0.5,0.2,0.9,0.5,1.3,0.8l-1.4,1.9
				c-0.5-0.4-0.9-0.6-1.3-0.6c-0.7,0-1.3,0.3-1.7,0.8c-0.4,0.5-0.6,1.2-0.6,2.1s0.2,1.6,0.6,2.1c0.4,0.5,0.9,0.8,1.6,0.8
				c0.3,0,0.6-0.1,0.9-0.2s0.6-0.3,0.9-0.5l1.2,1.9c-0.5,0.4-1,0.7-1.6,0.9S437.6,76.2,437,76.2z M445.9,76.2c-0.7,0-1.4-0.1-2-0.3
				s-1.1-0.6-1.6-1c-0.5-0.4-0.8-1-1.1-1.6c-0.3-0.6-0.4-1.4-0.4-2.2c0-0.8,0.1-1.5,0.4-2.2c0.3-0.6,0.6-1.2,1-1.6
				c0.4-0.4,0.9-0.8,1.5-1c0.6-0.2,1.1-0.4,1.7-0.4c0.7,0,1.3,0.1,1.9,0.4c0.5,0.2,1,0.6,1.3,1c0.4,0.4,0.6,0.9,0.8,1.5
				s0.3,1.2,0.3,1.9c0,0.3,0,0.5,0,0.8c0,0.2-0.1,0.4-0.1,0.5h-5.9c0.1,0.7,0.4,1.2,0.9,1.6c0.5,0.3,1,0.5,1.7,0.5
				c0.7,0,1.4-0.2,2.1-0.7l1,1.8c-0.5,0.3-1.1,0.6-1.7,0.8C447.1,76.1,446.5,76.2,445.9,76.2z M443.7,70h3.6c0-0.6-0.1-1-0.4-1.4
				c-0.3-0.3-0.7-0.5-1.3-0.5c-0.5,0-0.9,0.2-1.2,0.5C444,68.8,443.8,69.3,443.7,70z M451.8,79.7V66.1h2.4l0.2,1h0.1
				c0.4-0.3,0.8-0.6,1.3-0.9c0.5-0.2,1-0.4,1.5-0.4c0.6,0,1.1,0.1,1.6,0.4c0.5,0.2,0.9,0.6,1.2,1c0.3,0.4,0.6,1,0.8,1.6
				s0.3,1.3,0.3,2.1c0,0.9-0.1,1.6-0.4,2.3c-0.2,0.7-0.5,1.2-0.9,1.7c-0.4,0.5-0.8,0.8-1.3,1c-0.5,0.2-1,0.4-1.5,0.4
				c-0.4,0-0.8-0.1-1.2-0.3c-0.4-0.2-0.8-0.4-1.1-0.8l0.1,1.6v2.9H451.8z M456.4,73.8c0.5,0,0.9-0.2,1.3-0.7
				c0.4-0.5,0.5-1.2,0.5-2.2c0-1.8-0.6-2.7-1.7-2.7c-0.6,0-1.1,0.3-1.7,0.9v4.1c0.3,0.2,0.5,0.4,0.8,0.5
				C455.8,73.8,456.1,73.8,456.4,73.8z M463.3,76v-9.9h4.2c0.6,0,1.1,0,1.6,0.1c0.5,0.1,0.9,0.2,1.3,0.4c0.4,0.2,0.6,0.5,0.9,0.8
				s0.3,0.7,0.3,1.2c0,0.4-0.1,0.8-0.4,1.2c-0.3,0.4-0.7,0.7-1.3,0.8v0.1c0.6,0.1,1.1,0.4,1.5,0.8s0.5,0.9,0.5,1.6
				c0,0.5-0.1,0.9-0.3,1.3s-0.5,0.7-0.9,0.9c-0.4,0.2-0.8,0.4-1.3,0.5c-0.5,0.1-1,0.2-1.6,0.2H463.3z M466.1,70h1.2
				c0.5,0,0.8-0.1,1.1-0.2c0.2-0.2,0.3-0.4,0.3-0.7s-0.1-0.5-0.3-0.7s-0.6-0.3-1.1-0.3h-1.2V70z M466.1,74.1h1.4
				c0.5,0,0.9-0.1,1.1-0.3s0.3-0.5,0.3-0.8c0-0.3-0.1-0.5-0.4-0.7c-0.2-0.2-0.6-0.3-1.1-0.3h-1.4V74.1z M478.3,76.2
				c-0.7,0-1.4-0.1-2-0.3s-1.1-0.6-1.6-1c-0.5-0.4-0.8-1-1.1-1.6c-0.3-0.6-0.4-1.4-0.4-2.2c0-0.8,0.1-1.5,0.4-2.2
				c0.3-0.6,0.6-1.2,1-1.6c0.4-0.4,0.9-0.8,1.5-1c0.6-0.2,1.1-0.4,1.7-0.4c0.7,0,1.3,0.1,1.8,0.4c0.5,0.2,1,0.6,1.3,1
				c0.4,0.4,0.6,0.9,0.8,1.5s0.3,1.2,0.3,1.9c0,0.3,0,0.5,0,0.8c0,0.2-0.1,0.4-0.1,0.5h-5.9c0.1,0.7,0.4,1.2,0.9,1.6
				c0.5,0.3,1,0.5,1.7,0.5c0.7,0,1.4-0.2,2.1-0.7l1,1.8c-0.5,0.3-1.1,0.6-1.7,0.8C479.5,76.1,478.9,76.2,478.3,76.2z M476.1,70h3.6
				c0-0.6-0.1-1-0.4-1.4c-0.3-0.3-0.7-0.5-1.3-0.5c-0.5,0-0.9,0.2-1.2,0.5C476.4,68.8,476.2,69.3,476.1,70z M484.2,79.7V66.1h2.4
				l0.2,1h0.1c0.4-0.3,0.8-0.6,1.3-0.9c0.5-0.2,1-0.4,1.5-0.4c0.6,0,1.1,0.1,1.6,0.4c0.5,0.2,0.9,0.6,1.2,1c0.3,0.4,0.6,1,0.8,1.6
				c0.2,0.6,0.3,1.3,0.3,2.1c0,0.9-0.1,1.6-0.4,2.3s-0.5,1.2-0.9,1.7c-0.4,0.5-0.8,0.8-1.3,1c-0.5,0.2-1,0.4-1.5,0.4
				c-0.4,0-0.8-0.1-1.2-0.3c-0.4-0.2-0.8-0.4-1.1-0.8l0.1,1.6v2.9H484.2z M488.7,73.8c0.5,0,0.9-0.2,1.3-0.7
				c0.4-0.5,0.5-1.2,0.5-2.2c0-1.8-0.6-2.7-1.7-2.7c-0.6,0-1.1,0.3-1.7,0.9v4.1c0.3,0.2,0.5,0.4,0.8,0.5
				C488.2,73.8,488.5,73.8,488.7,73.8z"/>
		</g>
		<g>
			<path class="st3" d="M392.6,76V63h4.5c0.7,0,1.3,0,1.9,0.2c0.6,0.1,1.1,0.3,1.5,0.5c0.4,0.3,0.8,0.6,1,1s0.4,0.9,0.4,1.6
				c0,0.3,0,0.6-0.1,0.9s-0.2,0.6-0.3,0.8s-0.3,0.5-0.5,0.7c-0.2,0.2-0.4,0.3-0.7,0.4v0.1c0.3,0.1,0.6,0.2,0.9,0.4
				c0.3,0.2,0.5,0.4,0.7,0.6c0.2,0.3,0.4,0.6,0.5,0.9c0.1,0.3,0.2,0.7,0.2,1.2c0,0.7-0.1,1.2-0.4,1.7s-0.6,0.9-1.1,1.2
				c-0.5,0.3-1,0.5-1.6,0.7c-0.6,0.2-1.3,0.2-2,0.2H392.6z M395.5,68.2h1.4c0.7,0,1.2-0.1,1.6-0.4c0.3-0.3,0.5-0.7,0.5-1.1
				c0-0.5-0.2-0.9-0.5-1.1c-0.3-0.2-0.8-0.3-1.5-0.3h-1.4V68.2z M395.5,73.7h1.7c1.6,0,2.4-0.6,2.4-1.8c0-0.6-0.2-1-0.6-1.2
				c-0.4-0.2-1-0.4-1.8-0.4h-1.7V73.7z M408.9,76.2c-0.7,0-1.4-0.1-2-0.3s-1.1-0.6-1.6-1c-0.5-0.4-0.8-1-1.1-1.6
				c-0.3-0.6-0.4-1.4-0.4-2.2c0-0.8,0.1-1.5,0.4-2.2c0.3-0.6,0.6-1.2,1-1.6c0.4-0.4,0.9-0.8,1.5-1c0.6-0.2,1.1-0.4,1.7-0.4
				c0.7,0,1.3,0.1,1.9,0.4c0.5,0.2,1,0.6,1.3,1c0.4,0.4,0.6,0.9,0.8,1.5s0.3,1.2,0.3,1.9c0,0.3,0,0.5,0,0.8c0,0.2-0.1,0.4-0.1,0.5
				h-5.9c0.1,0.7,0.4,1.2,0.9,1.6c0.5,0.3,1,0.5,1.7,0.5c0.7,0,1.4-0.2,2.1-0.7l1,1.8c-0.5,0.3-1.1,0.6-1.7,0.8
				C410.1,76.1,409.5,76.2,408.9,76.2z M406.7,70h3.6c0-0.6-0.1-1-0.4-1.4c-0.3-0.3-0.7-0.5-1.3-0.5c-0.5,0-0.9,0.2-1.2,0.5
				C407,68.8,406.8,69.3,406.7,70z M419.3,76.2c-1.6,0-2.8-0.6-3.6-1.7c-0.8-1.1-1.3-2.7-1.3-4.8c0-1.5,0.2-2.7,0.5-3.7
				c0.3-1,0.7-1.7,1.3-2.3s1.2-1,2-1.3s1.6-0.5,2.5-0.6c0.6-0.1,1.1-0.2,1.4-0.2c0.3-0.1,0.7-0.2,1-0.3l0.6,2.6
				c-0.3,0.2-0.6,0.4-1,0.5c-0.4,0.1-0.9,0.2-1.3,0.3c-0.7,0.1-1.3,0.2-1.8,0.3c-0.5,0.1-0.9,0.2-1.2,0.4c-0.3,0.2-0.5,0.5-0.7,0.8
				s-0.3,0.9-0.3,1.5c0.3-0.4,0.8-0.7,1.3-0.9c0.5-0.2,1-0.3,1.6-0.3c0.5,0,1,0.1,1.5,0.3c0.5,0.2,0.9,0.5,1.2,0.9
				c0.4,0.4,0.6,0.9,0.8,1.4c0.2,0.6,0.3,1.2,0.3,2c0,0.8-0.1,1.5-0.4,2.1c-0.2,0.6-0.6,1.2-1,1.6c-0.4,0.4-0.9,0.8-1.5,1
				C420.6,76.1,420,76.2,419.3,76.2z M419.2,73.9c0.5,0,1-0.2,1.2-0.7s0.4-1.1,0.4-2c0-0.9-0.2-1.5-0.5-1.9s-0.7-0.6-1.2-0.6
				c-0.3,0-0.7,0.1-1.1,0.3s-0.7,0.5-1,0.9v0.6c0,1.1,0.2,2,0.5,2.5C418.1,73.6,418.6,73.9,419.2,73.9z M425.6,72v-2.1h4.9V72H425.6
				z M437,76.2c-0.7,0-1.3-0.1-1.9-0.3c-0.6-0.2-1.1-0.6-1.5-1s-0.8-1-1-1.6c-0.3-0.6-0.4-1.4-0.4-2.2c0-0.8,0.1-1.6,0.4-2.2
				c0.3-0.6,0.7-1.2,1.1-1.6s1-0.8,1.6-1c0.6-0.2,1.3-0.4,2-0.4c0.6,0,1.2,0.1,1.6,0.3c0.5,0.2,0.9,0.5,1.3,0.8l-1.4,1.9
				c-0.5-0.4-0.9-0.6-1.3-0.6c-0.7,0-1.3,0.3-1.7,0.8c-0.4,0.5-0.6,1.2-0.6,2.1s0.2,1.6,0.6,2.1c0.4,0.5,0.9,0.8,1.6,0.8
				c0.3,0,0.6-0.1,0.9-0.2s0.6-0.3,0.9-0.5l1.2,1.9c-0.5,0.4-1,0.7-1.6,0.9S437.6,76.2,437,76.2z M445.9,76.2c-0.7,0-1.4-0.1-2-0.3
				s-1.1-0.6-1.6-1c-0.5-0.4-0.8-1-1.1-1.6c-0.3-0.6-0.4-1.4-0.4-2.2c0-0.8,0.1-1.5,0.4-2.2c0.3-0.6,0.6-1.2,1-1.6
				c0.4-0.4,0.9-0.8,1.5-1c0.6-0.2,1.1-0.4,1.7-0.4c0.7,0,1.3,0.1,1.9,0.4c0.5,0.2,1,0.6,1.3,1c0.4,0.4,0.6,0.9,0.8,1.5
				s0.3,1.2,0.3,1.9c0,0.3,0,0.5,0,0.8c0,0.2-0.1,0.4-0.1,0.5h-5.9c0.1,0.7,0.4,1.2,0.9,1.6c0.5,0.3,1,0.5,1.7,0.5
				c0.7,0,1.4-0.2,2.1-0.7l1,1.8c-0.5,0.3-1.1,0.6-1.7,0.8C447.1,76.1,446.5,76.2,445.9,76.2z M443.7,70h3.6c0-0.6-0.1-1-0.4-1.4
				c-0.3-0.3-0.7-0.5-1.3-0.5c-0.5,0-0.9,0.2-1.2,0.5C444,68.8,443.8,69.3,443.7,70z M451.8,79.7V66.1h2.4l0.2,1h0.1
				c0.4-0.3,0.8-0.6,1.3-0.9c0.5-0.2,1-0.4,1.5-0.4c0.6,0,1.1,0.1,1.6,0.4c0.5,0.2,0.9,0.6,1.2,1c0.3,0.4,0.6,1,0.8,1.6
				s0.3,1.3,0.3,2.1c0,0.9-0.1,1.6-0.4,2.3c-0.2,0.7-0.5,1.2-0.9,1.7c-0.4,0.5-0.8,0.8-1.3,1c-0.5,0.2-1,0.4-1.5,0.4
				c-0.4,0-0.8-0.1-1.2-0.3c-0.4-0.2-0.8-0.4-1.1-0.8l0.1,1.6v2.9H451.8z M456.4,73.8c0.5,0,0.9-0.2,1.3-0.7
				c0.4-0.5,0.5-1.2,0.5-2.2c0-1.8-0.6-2.7-1.7-2.7c-0.6,0-1.1,0.3-1.7,0.9v4.1c0.3,0.2,0.5,0.4,0.8,0.5
				C455.8,73.8,456.1,73.8,456.4,73.8z M463.3,76v-9.9h4.2c0.6,0,1.1,0,1.6,0.1c0.5,0.1,0.9,0.2,1.3,0.4c0.4,0.2,0.6,0.5,0.9,0.8
				s0.3,0.7,0.3,1.2c0,0.4-0.1,0.8-0.4,1.2c-0.3,0.4-0.7,0.7-1.3,0.8v0.1c0.6,0.1,1.1,0.4,1.5,0.8s0.5,0.9,0.5,1.6
				c0,0.5-0.1,0.9-0.3,1.3s-0.5,0.7-0.9,0.9c-0.4,0.2-0.8,0.4-1.3,0.5c-0.5,0.1-1,0.2-1.6,0.2H463.3z M466.1,70h1.2
				c0.5,0,0.8-0.1,1.1-0.2c0.2-0.2,0.3-0.4,0.3-0.7s-0.1-0.5-0.3-0.7s-0.6-0.3-1.1-0.3h-1.2V70z M466.1,74.1h1.4
				c0.5,0,0.9-0.1,1.1-0.3s0.3-0.5,0.3-0.8c0-0.3-0.1-0.5-0.4-0.7c-0.2-0.2-0.6-0.3-1.1-0.3h-1.4V74.1z M478.3,76.2
				c-0.7,0-1.4-0.1-2-0.3s-1.1-0.6-1.6-1c-0.5-0.4-0.8-1-1.1-1.6c-0.3-0.6-0.4-1.4-0.4-2.2c0-0.8,0.1-1.5,0.4-2.2
				c0.3-0.6,0.6-1.2,1-1.6c0.4-0.4,0.9-0.8,1.5-1c0.6-0.2,1.1-0.4,1.7-0.4c0.7,0,1.3,0.1,1.8,0.4c0.5,0.2,1,0.6,1.3,1
				c0.4,0.4,0.6,0.9,0.8,1.5s0.3,1.2,0.3,1.9c0,0.3,0,0.5,0,0.8c0,0.2-0.1,0.4-0.1,0.5h-5.9c0.1,0.7,0.4,1.2,0.9,1.6
				c0.5,0.3,1,0.5,1.7,0.5c0.7,0,1.4-0.2,2.1-0.7l1,1.8c-0.5,0.3-1.1,0.6-1.7,0.8C479.5,76.1,478.9,76.2,478.3,76.2z M476.1,70h3.6
				c0-0.6-0.1-1-0.4-1.4c-0.3-0.3-0.7-0.5-1.3-0.5c-0.5,0-0.9,0.2-1.2,0.5C476.4,68.8,476.2,69.3,476.1,70z M484.2,79.7V66.1h2.4
				l0.2,1h0.1c0.4-0.3,0.8-0.6,1.3-0.9c0.5-0.2,1-0.4,1.5-0.4c0.6,0,1.1,0.1,1.6,0.4c0.5,0.2,0.9,0.6,1.2,1c0.3,0.4,0.6,1,0.8,1.6
				c0.2,0.6,0.3,1.3,0.3,2.1c0,0.9-0.1,1.6-0.4,2.3s-0.5,1.2-0.9,1.7c-0.4,0.5-0.8,0.8-1.3,1c-0.5,0.2-1,0.4-1.5,0.4
				c-0.4,0-0.8-0.1-1.2-0.3c-0.4-0.2-0.8-0.4-1.1-0.8l0.1,1.6v2.9H484.2z M488.7,73.8c0.5,0,0.9-0.2,1.3-0.7
				c0.4-0.5,0.5-1.2,0.5-2.2c0-1.8-0.6-2.7-1.7-2.7c-0.6,0-1.1,0.3-1.7,0.9v4.1c0.3,0.2,0.5,0.4,0.8,0.5
				C488.2,73.8,488.5,73.8,488.7,73.8z"/>
		</g>
	</g>
	<rect x="358" y="54" class="st9" width="10" height="31"/>
	<rect id="Rectangle-Copy-2" x="200" y="54" class="st9" width="10" height="31"/>
	<rect id="Rectangle-Copy-3" x="200" y="97" class="st9" width="10" height="31"/>
	<rect id="Rectangle-Copy" x="676" y="97" class="st9" width="10" height="31"/>
	<g>
		<g>
			<path id="path-3" class="st2" d="M263.4,47V35.6h1.3v3.1l0,1.6c0.4-0.4,0.8-0.7,1.2-0.9s0.9-0.4,1.4-0.4c0.8,0,1.4,0.3,1.8,0.8
				c0.4,0.5,0.6,1.3,0.6,2.3V47h-1.3v-4.8c0-0.7-0.1-1.3-0.4-1.6c-0.2-0.3-0.6-0.5-1.1-0.5c-0.4,0-0.8,0.1-1.1,0.3s-0.7,0.5-1.1,0.9
				V47H263.4z M274.6,47.2c-0.4,0-0.8-0.1-1-0.2c-0.3-0.1-0.5-0.3-0.7-0.5s-0.3-0.5-0.4-0.8c-0.1-0.3-0.1-0.7-0.1-1.1v-4.3h-1.2v-1
				l1.2-0.1l0.2-2.2h1.1v2.2h2.1v1.1h-2.1v4.3c0,0.5,0.1,0.9,0.3,1.1s0.5,0.4,0.9,0.4c0.1,0,0.3,0,0.4-0.1s0.3-0.1,0.4-0.1l0.3,1
				c-0.2,0.1-0.4,0.1-0.7,0.2C275.1,47.2,274.8,47.2,274.6,47.2z M279.7,47.2c-0.4,0-0.8-0.1-1-0.2c-0.3-0.1-0.5-0.3-0.7-0.5
				c-0.2-0.2-0.3-0.5-0.4-0.8c-0.1-0.3-0.1-0.7-0.1-1.1v-4.3h-1.2v-1l1.2-0.1l0.2-2.2h1.1v2.2h2.1v1.1h-2.1v4.3
				c0,0.5,0.1,0.9,0.3,1.1c0.2,0.3,0.5,0.4,0.9,0.4c0.1,0,0.3,0,0.4-0.1s0.3-0.1,0.4-0.1l0.3,1c-0.2,0.1-0.4,0.1-0.7,0.2
				S279.9,47.2,279.7,47.2z M282.6,50.3V39.2h1.1l0.1,0.9h0c0.4-0.3,0.7-0.6,1.2-0.8c0.4-0.2,0.9-0.3,1.3-0.3c0.5,0,0.9,0.1,1.3,0.3
				s0.7,0.5,1,0.8c0.3,0.3,0.5,0.8,0.6,1.2s0.2,1,0.2,1.6c0,0.7-0.1,1.3-0.3,1.8c-0.2,0.5-0.4,1-0.7,1.3c-0.3,0.4-0.7,0.6-1.1,0.8
				c-0.4,0.2-0.8,0.3-1.3,0.3c-0.4,0-0.7-0.1-1.1-0.2c-0.4-0.2-0.7-0.4-1.1-0.7l0,1.4v2.6H282.6z M285.8,46.1c0.3,0,0.6-0.1,0.9-0.2
				c0.3-0.1,0.5-0.3,0.7-0.6c0.2-0.3,0.4-0.6,0.5-1c0.1-0.4,0.2-0.8,0.2-1.3c0-0.4,0-0.8-0.1-1.2s-0.2-0.7-0.4-0.9
				c-0.2-0.3-0.4-0.4-0.6-0.6c-0.3-0.1-0.6-0.2-0.9-0.2c-0.3,0-0.7,0.1-1,0.3c-0.3,0.2-0.7,0.4-1.1,0.8v4.1c0.4,0.3,0.7,0.5,1,0.6
				C285.3,46,285.6,46.1,285.8,46.1z M293.6,49.8c-0.7-1.1-1.2-2.2-1.6-3.4c-0.4-1.2-0.6-2.5-0.6-3.9c0-1.4,0.2-2.7,0.6-3.9
				c0.4-1.2,0.9-2.3,1.6-3.4l0.8,0.4c-0.6,1-1.1,2.1-1.4,3.3c-0.3,1.2-0.5,2.4-0.5,3.6c0,1.2,0.2,2.4,0.5,3.6
				c0.3,1.2,0.8,2.3,1.4,3.3L293.6,49.8z M298.4,47.2c-0.6,0-1.1-0.1-1.6-0.3s-0.9-0.5-1.3-0.8l0.7-0.9c0.3,0.3,0.7,0.5,1,0.7
				c0.4,0.2,0.8,0.3,1.2,0.3c0.5,0,0.9-0.1,1.2-0.4c0.3-0.2,0.4-0.5,0.4-0.9c0-0.2-0.1-0.4-0.2-0.5c-0.1-0.1-0.2-0.3-0.4-0.4
				c-0.2-0.1-0.4-0.2-0.6-0.3l-0.6-0.3c-0.3-0.1-0.6-0.2-0.8-0.3c-0.3-0.1-0.5-0.3-0.7-0.4c-0.2-0.2-0.4-0.4-0.5-0.6
				c-0.1-0.2-0.2-0.5-0.2-0.8c0-0.3,0.1-0.6,0.2-0.9c0.1-0.3,0.3-0.5,0.5-0.7s0.5-0.4,0.8-0.5c0.3-0.1,0.7-0.2,1.1-0.2
				c0.5,0,0.9,0.1,1.4,0.3c0.4,0.2,0.8,0.4,1.1,0.6l-0.6,0.8c-0.3-0.2-0.5-0.4-0.8-0.5c-0.3-0.1-0.6-0.2-0.9-0.2
				c-0.5,0-0.9,0.1-1.1,0.3c-0.2,0.2-0.3,0.5-0.3,0.8c0,0.2,0,0.3,0.1,0.5c0.1,0.1,0.2,0.3,0.4,0.4s0.3,0.2,0.6,0.3
				c0.2,0.1,0.4,0.2,0.6,0.2c0.3,0.1,0.6,0.2,0.8,0.3c0.3,0.1,0.5,0.3,0.8,0.4c0.2,0.2,0.4,0.4,0.6,0.6s0.2,0.6,0.2,0.9
				c0,0.3-0.1,0.6-0.2,0.9c-0.1,0.3-0.3,0.5-0.5,0.7c-0.2,0.2-0.5,0.4-0.9,0.5C299.2,47.1,298.8,47.2,298.4,47.2z M303.2,49.8
				l-0.8-0.4c0.6-1,1.1-2.1,1.4-3.3c0.3-1.2,0.5-2.4,0.5-3.6c0-1.2-0.2-2.4-0.5-3.6c-0.3-1.2-0.8-2.3-1.4-3.3l0.8-0.4
				c0.7,1.1,1.2,2.2,1.6,3.4c0.4,1.2,0.6,2.5,0.6,3.9c0,1.4-0.2,2.7-0.6,3.9C304.3,47.6,303.8,48.7,303.2,49.8z"/>
		</g>
		<g>
			<path class="st3" d="M263.4,47V35.6h1.3v3.1l0,1.6c0.4-0.4,0.8-0.7,1.2-0.9s0.9-0.4,1.4-0.4c0.8,0,1.4,0.3,1.8,0.8
				c0.4,0.5,0.6,1.3,0.6,2.3V47h-1.3v-4.8c0-0.7-0.1-1.3-0.4-1.6c-0.2-0.3-0.6-0.5-1.1-0.5c-0.4,0-0.8,0.1-1.1,0.3s-0.7,0.5-1.1,0.9
				V47H263.4z M274.6,47.2c-0.4,0-0.8-0.1-1-0.2c-0.3-0.1-0.5-0.3-0.7-0.5s-0.3-0.5-0.4-0.8c-0.1-0.3-0.1-0.7-0.1-1.1v-4.3h-1.2v-1
				l1.2-0.1l0.2-2.2h1.1v2.2h2.1v1.1h-2.1v4.3c0,0.5,0.1,0.9,0.3,1.1s0.5,0.4,0.9,0.4c0.1,0,0.3,0,0.4-0.1s0.3-0.1,0.4-0.1l0.3,1
				c-0.2,0.1-0.4,0.1-0.7,0.2C275.1,47.2,274.8,47.2,274.6,47.2z M279.7,47.2c-0.4,0-0.8-0.1-1-0.2c-0.3-0.1-0.5-0.3-0.7-0.5
				c-0.2-0.2-0.3-0.5-0.4-0.8c-0.1-0.3-0.1-0.7-0.1-1.1v-4.3h-1.2v-1l1.2-0.1l0.2-2.2h1.1v2.2h2.1v1.1h-2.1v4.3
				c0,0.5,0.1,0.9,0.3,1.1c0.2,0.3,0.5,0.4,0.9,0.4c0.1,0,0.3,0,0.4-0.1s0.3-0.1,0.4-0.1l0.3,1c-0.2,0.1-0.4,0.1-0.7,0.2
				S279.9,47.2,279.7,47.2z M282.6,50.3V39.2h1.1l0.1,0.9h0c0.4-0.3,0.7-0.6,1.2-0.8c0.4-0.2,0.9-0.3,1.3-0.3c0.5,0,0.9,0.1,1.3,0.3
				s0.7,0.5,1,0.8c0.3,0.3,0.5,0.8,0.6,1.2s0.2,1,0.2,1.6c0,0.7-0.1,1.3-0.3,1.8c-0.2,0.5-0.4,1-0.7,1.3c-0.3,0.4-0.7,0.6-1.1,0.8
				c-0.4,0.2-0.8,0.3-1.3,0.3c-0.4,0-0.7-0.1-1.1-0.2c-0.4-0.2-0.7-0.4-1.1-0.7l0,1.4v2.6H282.6z M285.8,46.1c0.3,0,0.6-0.1,0.9-0.2
				c0.3-0.1,0.5-0.3,0.7-0.6c0.2-0.3,0.4-0.6,0.5-1c0.1-0.4,0.2-0.8,0.2-1.3c0-0.4,0-0.8-0.1-1.2s-0.2-0.7-0.4-0.9
				c-0.2-0.3-0.4-0.4-0.6-0.6c-0.3-0.1-0.6-0.2-0.9-0.2c-0.3,0-0.7,0.1-1,0.3c-0.3,0.2-0.7,0.4-1.1,0.8v4.1c0.4,0.3,0.7,0.5,1,0.6
				C285.3,46,285.6,46.1,285.8,46.1z M293.6,49.8c-0.7-1.1-1.2-2.2-1.6-3.4c-0.4-1.2-0.6-2.5-0.6-3.9c0-1.4,0.2-2.7,0.6-3.9
				c0.4-1.2,0.9-2.3,1.6-3.4l0.8,0.4c-0.6,1-1.1,2.1-1.4,3.3c-0.3,1.2-0.5,2.4-0.5,3.6c0,1.2,0.2,2.4,0.5,3.6
				c0.3,1.2,0.8,2.3,1.4,3.3L293.6,49.8z M298.4,47.2c-0.6,0-1.1-0.1-1.6-0.3s-0.9-0.5-1.3-0.8l0.7-0.9c0.3,0.3,0.7,0.5,1,0.7
				c0.4,0.2,0.8,0.3,1.2,0.3c0.5,0,0.9-0.1,1.2-0.4c0.3-0.2,0.4-0.5,0.4-0.9c0-0.2-0.1-0.4-0.2-0.5c-0.1-0.1-0.2-0.3-0.4-0.4
				c-0.2-0.1-0.4-0.2-0.6-0.3l-0.6-0.3c-0.3-0.1-0.6-0.2-0.8-0.3c-0.3-0.1-0.5-0.3-0.7-0.4c-0.2-0.2-0.4-0.4-0.5-0.6
				c-0.1-0.2-0.2-0.5-0.2-0.8c0-0.3,0.1-0.6,0.2-0.9c0.1-0.3,0.3-0.5,0.5-0.7s0.5-0.4,0.8-0.5c0.3-0.1,0.7-0.2,1.1-0.2
				c0.5,0,0.9,0.1,1.4,0.3c0.4,0.2,0.8,0.4,1.1,0.6l-0.6,0.8c-0.3-0.2-0.5-0.4-0.8-0.5c-0.3-0.1-0.6-0.2-0.9-0.2
				c-0.5,0-0.9,0.1-1.1,0.3c-0.2,0.2-0.3,0.5-0.3,0.8c0,0.2,0,0.3,0.1,0.5c0.1,0.1,0.2,0.3,0.4,0.4s0.3,0.2,0.6,0.3
				c0.2,0.1,0.4,0.2,0.6,0.2c0.3,0.1,0.6,0.2,0.8,0.3c0.3,0.1,0.5,0.3,0.8,0.4c0.2,0.2,0.4,0.4,0.6,0.6s0.2,0.6,0.2,0.9
				c0,0.3-0.1,0.6-0.2,0.9c-0.1,0.3-0.3,0.5-0.5,0.7c-0.2,0.2-0.5,0.4-0.9,0.5C299.2,47.1,298.8,47.2,298.4,47.2z M303.2,49.8
				l-0.8-0.4c0.6-1,1.1-2.1,1.4-3.3c0.3-1.2,0.5-2.4,0.5-3.6c0-1.2-0.2-2.4-0.5-3.6c-0.3-1.2-0.8-2.3-1.4-3.3l0.8-0.4
				c0.7,1.1,1.2,2.2,1.6,3.4c0.4,1.2,0.6,2.5,0.6,3.9c0,1.4-0.2,2.7-0.6,3.9C304.3,47.6,303.8,48.7,303.2,49.8z"/>
		</g>
	</g>
	<g id=":80">
		<g>
			<path id="path-4" class="st2" d="M318.5,7.8c-0.2,0-0.4-0.1-0.5-0.2c-0.1-0.1-0.2-0.3-0.2-0.5c0-0.2,0.1-0.4,0.2-0.6
				c0.1-0.1,0.3-0.2,0.5-0.2c0.2,0,0.4,0.1,0.5,0.2c0.1,0.1,0.2,0.3,0.2,0.6c0,0.2-0.1,0.4-0.2,0.5C318.9,7.7,318.7,7.8,318.5,7.8z
				 M318.5,12.1c-0.2,0-0.4-0.1-0.5-0.2c-0.1-0.1-0.2-0.3-0.2-0.5c0-0.2,0.1-0.4,0.2-0.6c0.1-0.1,0.3-0.2,0.5-0.2
				c0.2,0,0.4,0.1,0.5,0.2c0.1,0.1,0.2,0.3,0.2,0.6c0,0.2-0.1,0.4-0.2,0.5C318.9,12.1,318.7,12.1,318.5,12.1z M323,12.1
				c-0.4,0-0.7-0.1-1-0.2c-0.3-0.1-0.6-0.2-0.8-0.4s-0.4-0.4-0.5-0.7s-0.2-0.5-0.2-0.8c0-0.2,0-0.5,0.1-0.7c0.1-0.2,0.2-0.4,0.3-0.6
				c0.1-0.2,0.3-0.3,0.5-0.5c0.2-0.1,0.4-0.2,0.5-0.3v0c-0.3-0.2-0.5-0.4-0.7-0.7s-0.3-0.6-0.3-1c0-0.3,0.1-0.6,0.2-0.8
				s0.3-0.4,0.5-0.6c0.2-0.2,0.4-0.3,0.7-0.4c0.3-0.1,0.6-0.1,0.9-0.1c0.3,0,0.6,0,0.9,0.2c0.3,0.1,0.5,0.2,0.7,0.4
				c0.2,0.2,0.3,0.4,0.4,0.6c0.1,0.3,0.1,0.5,0.1,0.8c0,0.2,0,0.4-0.1,0.6s-0.2,0.4-0.3,0.5c-0.1,0.2-0.2,0.3-0.3,0.4
				c-0.1,0.1-0.2,0.2-0.4,0.3v0c0.2,0.1,0.3,0.2,0.5,0.3s0.3,0.3,0.4,0.4c0.1,0.2,0.2,0.3,0.3,0.5c0.1,0.2,0.1,0.4,0.1,0.7
				c0,0.3-0.1,0.6-0.2,0.8s-0.3,0.5-0.5,0.6s-0.5,0.3-0.8,0.4C323.7,12.1,323.4,12.1,323,12.1z M323.5,7.8c0.3-0.2,0.5-0.5,0.6-0.7
				c0.1-0.3,0.2-0.5,0.2-0.8c0-0.4-0.1-0.7-0.3-1s-0.6-0.4-1-0.4c-0.4,0-0.7,0.1-0.9,0.3c-0.2,0.2-0.3,0.5-0.3,0.9
				c0,0.2,0,0.4,0.1,0.6c0.1,0.2,0.2,0.3,0.4,0.4c0.2,0.1,0.4,0.2,0.6,0.3C323.1,7.6,323.3,7.7,323.5,7.8z M323,11.4
				c0.4,0,0.8-0.1,1.1-0.4s0.4-0.6,0.4-1c0-0.2-0.1-0.5-0.2-0.6s-0.3-0.3-0.5-0.5c-0.2-0.1-0.4-0.3-0.7-0.4
				c-0.3-0.1-0.5-0.2-0.8-0.3c-0.3,0.2-0.6,0.4-0.8,0.7c-0.2,0.3-0.3,0.6-0.3,0.9c0,0.2,0,0.4,0.1,0.6c0.1,0.2,0.2,0.3,0.3,0.5
				c0.1,0.1,0.3,0.2,0.5,0.3C322.6,11.4,322.8,11.4,323,11.4z M328.9,12.1c-0.8,0-1.4-0.3-1.8-1c-0.4-0.7-0.6-1.7-0.6-3
				s0.2-2.3,0.6-2.9s1-1,1.8-1c0.8,0,1.4,0.3,1.8,1s0.6,1.7,0.6,2.9s-0.2,2.3-0.6,3C330.3,11.8,329.7,12.1,328.9,12.1z M328.9,11.4
				c0.2,0,0.4-0.1,0.6-0.2c0.2-0.1,0.3-0.3,0.5-0.6c0.1-0.3,0.2-0.6,0.3-1c0.1-0.4,0.1-0.9,0.1-1.4c0-0.6,0-1-0.1-1.4
				c-0.1-0.4-0.2-0.7-0.3-1c-0.1-0.3-0.3-0.4-0.5-0.6c-0.2-0.1-0.4-0.2-0.6-0.2s-0.4,0.1-0.6,0.2c-0.2,0.1-0.3,0.3-0.5,0.6
				c-0.1,0.3-0.2,0.6-0.3,1s-0.1,0.9-0.1,1.4c0,1.1,0.1,1.9,0.4,2.4S328.5,11.4,328.9,11.4z"/>
		</g>
		<g>
			<path class="st3" d="M318.5,7.8c-0.2,0-0.4-0.1-0.5-0.2c-0.1-0.1-0.2-0.3-0.2-0.5c0-0.2,0.1-0.4,0.2-0.6c0.1-0.1,0.3-0.2,0.5-0.2
				c0.2,0,0.4,0.1,0.5,0.2c0.1,0.1,0.2,0.3,0.2,0.6c0,0.2-0.1,0.4-0.2,0.5C318.9,7.7,318.7,7.8,318.5,7.8z M318.5,12.1
				c-0.2,0-0.4-0.1-0.5-0.2c-0.1-0.1-0.2-0.3-0.2-0.5c0-0.2,0.1-0.4,0.2-0.6c0.1-0.1,0.3-0.2,0.5-0.2c0.2,0,0.4,0.1,0.5,0.2
				c0.1,0.1,0.2,0.3,0.2,0.6c0,0.2-0.1,0.4-0.2,0.5C318.9,12.1,318.7,12.1,318.5,12.1z M323,12.1c-0.4,0-0.7-0.1-1-0.2
				c-0.3-0.1-0.6-0.2-0.8-0.4s-0.4-0.4-0.5-0.7s-0.2-0.5-0.2-0.8c0-0.2,0-0.5,0.1-0.7c0.1-0.2,0.2-0.4,0.3-0.6
				c0.1-0.2,0.3-0.3,0.5-0.5c0.2-0.1,0.4-0.2,0.5-0.3v0c-0.3-0.2-0.5-0.4-0.7-0.7s-0.3-0.6-0.3-1c0-0.3,0.1-0.6,0.2-0.8
				s0.3-0.4,0.5-0.6c0.2-0.2,0.4-0.3,0.7-0.4c0.3-0.1,0.6-0.1,0.9-0.1c0.3,0,0.6,0,0.9,0.2c0.3,0.1,0.5,0.2,0.7,0.4
				c0.2,0.2,0.3,0.4,0.4,0.6c0.1,0.3,0.1,0.5,0.1,0.8c0,0.2,0,0.4-0.1,0.6s-0.2,0.4-0.3,0.5c-0.1,0.2-0.2,0.3-0.3,0.4
				c-0.1,0.1-0.2,0.2-0.4,0.3v0c0.2,0.1,0.3,0.2,0.5,0.3s0.3,0.3,0.4,0.4c0.1,0.2,0.2,0.3,0.3,0.5c0.1,0.2,0.1,0.4,0.1,0.7
				c0,0.3-0.1,0.6-0.2,0.8s-0.3,0.5-0.5,0.6s-0.5,0.3-0.8,0.4C323.7,12.1,323.4,12.1,323,12.1z M323.5,7.8c0.3-0.2,0.5-0.5,0.6-0.7
				c0.1-0.3,0.2-0.5,0.2-0.8c0-0.4-0.1-0.7-0.3-1s-0.6-0.4-1-0.4c-0.4,0-0.7,0.1-0.9,0.3c-0.2,0.2-0.3,0.5-0.3,0.9
				c0,0.2,0,0.4,0.1,0.6c0.1,0.2,0.2,0.3,0.4,0.4c0.2,0.1,0.4,0.2,0.6,0.3C323.1,7.6,323.3,7.7,323.5,7.8z M323,11.4
				c0.4,0,0.8-0.1,1.1-0.4s0.4-0.6,0.4-1c0-0.2-0.1-0.5-0.2-0.6s-0.3-0.3-0.5-0.5c-0.2-0.1-0.4-0.3-0.7-0.4
				c-0.3-0.1-0.5-0.2-0.8-0.3c-0.3,0.2-0.6,0.4-0.8,0.7c-0.2,0.3-0.3,0.6-0.3,0.9c0,0.2,0,0.4,0.1,0.6c0.1,0.2,0.2,0.3,0.3,0.5
				c0.1,0.1,0.3,0.2,0.5,0.3C322.6,11.4,322.8,11.4,323,11.4z M328.9,12.1c-0.8,0-1.4-0.3-1.8-1c-0.4-0.7-0.6-1.7-0.6-3
				s0.2-2.3,0.6-2.9s1-1,1.8-1c0.8,0,1.4,0.3,1.8,1s0.6,1.7,0.6,2.9s-0.2,2.3-0.6,3C330.3,11.8,329.7,12.1,328.9,12.1z M328.9,11.4
				c0.2,0,0.4-0.1,0.6-0.2c0.2-0.1,0.3-0.3,0.5-0.6c0.1-0.3,0.2-0.6,0.3-1c0.1-0.4,0.1-0.9,0.1-1.4c0-0.6,0-1-0.1-1.4
				c-0.1-0.4-0.2-0.7-0.3-1c-0.1-0.3-0.3-0.4-0.5-0.6c-0.2-0.1-0.4-0.2-0.6-0.2s-0.4,0.1-0.6,0.2c-0.2,0.1-0.3,0.3-0.5,0.6
				c-0.1,0.3-0.2,0.6-0.3,1s-0.1,0.9-0.1,1.4c0,1.1,0.1,1.9,0.4,2.4S328.5,11.4,328.9,11.4z"/>
		</g>
	</g>
	<g id=":443">
		<g>
			<path id="path-5" class="st2" d="M318.5,22.8c-0.2,0-0.4-0.1-0.5-0.2c-0.1-0.1-0.2-0.3-0.2-0.5c0-0.2,0.1-0.4,0.2-0.6
				c0.1-0.1,0.3-0.2,0.5-0.2c0.2,0,0.4,0.1,0.5,0.2c0.1,0.1,0.2,0.3,0.2,0.6c0,0.2-0.1,0.4-0.2,0.5
				C318.9,22.7,318.7,22.8,318.5,22.8z M318.5,27.1c-0.2,0-0.4-0.1-0.5-0.2c-0.1-0.1-0.2-0.3-0.2-0.5c0-0.2,0.1-0.4,0.2-0.6
				c0.1-0.1,0.3-0.2,0.5-0.2c0.2,0,0.4,0.1,0.5,0.2c0.1,0.1,0.2,0.3,0.2,0.6c0,0.2-0.1,0.4-0.2,0.5
				C318.9,27.1,318.7,27.1,318.5,27.1z M323.6,27v-2.1h-3.4v-0.6l3.3-4.9h1.1v4.8h1v0.8h-1V27H323.6z M321.2,24.1h2.4v-2.2
				c0-0.2,0-0.5,0-0.7c0-0.3,0-0.5,0-0.7h0c-0.1,0.2-0.2,0.4-0.3,0.5s-0.2,0.4-0.3,0.5L321.2,24.1z M329.6,27v-2.1h-3.4v-0.6
				l3.3-4.9h1.1v4.8h1v0.8h-1V27H329.6z M327.2,24.1h2.4v-2.2c0-0.2,0-0.5,0-0.7c0-0.3,0-0.5,0-0.7h0c-0.1,0.2-0.2,0.4-0.3,0.5
				s-0.2,0.4-0.3,0.5L327.2,24.1z M334.7,27.1c-0.3,0-0.6,0-0.8-0.1c-0.3-0.1-0.5-0.1-0.7-0.2s-0.4-0.2-0.6-0.3
				c-0.2-0.1-0.3-0.3-0.4-0.4l0.5-0.6c0.2,0.2,0.5,0.5,0.8,0.6c0.3,0.2,0.7,0.3,1.1,0.3c0.5,0,0.8-0.1,1.1-0.4
				c0.3-0.3,0.4-0.6,0.4-1c0-0.2,0-0.4-0.1-0.6c-0.1-0.2-0.2-0.3-0.4-0.5c-0.2-0.1-0.4-0.2-0.8-0.3c-0.3-0.1-0.7-0.1-1.2-0.1v-0.8
				c0.4,0,0.8,0,1-0.1s0.5-0.2,0.7-0.3s0.3-0.3,0.4-0.5c0.1-0.2,0.1-0.4,0.1-0.6c0-0.4-0.1-0.7-0.4-0.9c-0.2-0.2-0.6-0.3-1-0.3
				c-0.3,0-0.6,0.1-0.9,0.2c-0.3,0.1-0.5,0.3-0.8,0.6l-0.5-0.6c0.3-0.3,0.6-0.5,1-0.7c0.4-0.2,0.8-0.3,1.2-0.3c0.3,0,0.6,0,0.9,0.1
				c0.3,0.1,0.5,0.2,0.7,0.4c0.2,0.2,0.4,0.4,0.5,0.6s0.2,0.5,0.2,0.8c0,0.5-0.1,0.8-0.4,1.1c-0.3,0.3-0.6,0.5-1,0.7v0
				c0.2,0.1,0.4,0.1,0.6,0.2c0.2,0.1,0.4,0.2,0.5,0.4s0.3,0.4,0.4,0.6c0.1,0.2,0.1,0.5,0.1,0.7c0,0.3-0.1,0.6-0.2,0.9
				c-0.1,0.3-0.3,0.5-0.5,0.7c-0.2,0.2-0.5,0.3-0.8,0.4C335.4,27.1,335.1,27.1,334.7,27.1z"/>
		</g>
		<g>
			<path class="st3" d="M318.5,22.8c-0.2,0-0.4-0.1-0.5-0.2c-0.1-0.1-0.2-0.3-0.2-0.5c0-0.2,0.1-0.4,0.2-0.6
				c0.1-0.1,0.3-0.2,0.5-0.2c0.2,0,0.4,0.1,0.5,0.2c0.1,0.1,0.2,0.3,0.2,0.6c0,0.2-0.1,0.4-0.2,0.5
				C318.9,22.7,318.7,22.8,318.5,22.8z M318.5,27.1c-0.2,0-0.4-0.1-0.5-0.2c-0.1-0.1-0.2-0.3-0.2-0.5c0-0.2,0.1-0.4,0.2-0.6
				c0.1-0.1,0.3-0.2,0.5-0.2c0.2,0,0.4,0.1,0.5,0.2c0.1,0.1,0.2,0.3,0.2,0.6c0,0.2-0.1,0.4-0.2,0.5
				C318.9,27.1,318.7,27.1,318.5,27.1z M323.6,27v-2.1h-3.4v-0.6l3.3-4.9h1.1v4.8h1v0.8h-1V27H323.6z M321.2,24.1h2.4v-2.2
				c0-0.2,0-0.5,0-0.7c0-0.3,0-0.5,0-0.7h0c-0.1,0.2-0.2,0.4-0.3,0.5s-0.2,0.4-0.3,0.5L321.2,24.1z M329.6,27v-2.1h-3.4v-0.6
				l3.3-4.9h1.1v4.8h1v0.8h-1V27H329.6z M327.2,24.1h2.4v-2.2c0-0.2,0-0.5,0-0.7c0-0.3,0-0.5,0-0.7h0c-0.1,0.2-0.2,0.4-0.3,0.5
				s-0.2,0.4-0.3,0.5L327.2,24.1z M334.7,27.1c-0.3,0-0.6,0-0.8-0.1c-0.3-0.1-0.5-0.1-0.7-0.2s-0.4-0.2-0.6-0.3
				c-0.2-0.1-0.3-0.3-0.4-0.4l0.5-0.6c0.2,0.2,0.5,0.5,0.8,0.6c0.3,0.2,0.7,0.3,1.1,0.3c0.5,0,0.8-0.1,1.1-0.4
				c0.3-0.3,0.4-0.6,0.4-1c0-0.2,0-0.4-0.1-0.6c-0.1-0.2-0.2-0.3-0.4-0.5c-0.2-0.1-0.4-0.2-0.8-0.3c-0.3-0.1-0.7-0.1-1.2-0.1v-0.8
				c0.4,0,0.8,0,1-0.1s0.5-0.2,0.7-0.3s0.3-0.3,0.4-0.5c0.1-0.2,0.1-0.4,0.1-0.6c0-0.4-0.1-0.7-0.4-0.9c-0.2-0.2-0.6-0.3-1-0.3
				c-0.3,0-0.6,0.1-0.9,0.2c-0.3,0.1-0.5,0.3-0.8,0.6l-0.5-0.6c0.3-0.3,0.6-0.5,1-0.7c0.4-0.2,0.8-0.3,1.2-0.3c0.3,0,0.6,0,0.9,0.1
				c0.3,0.1,0.5,0.2,0.7,0.4c0.2,0.2,0.4,0.4,0.5,0.6s0.2,0.5,0.2,0.8c0,0.5-0.1,0.8-0.4,1.1c-0.3,0.3-0.6,0.5-1,0.7v0
				c0.2,0.1,0.4,0.1,0.6,0.2c0.2,0.1,0.4,0.2,0.5,0.4s0.3,0.4,0.4,0.6c0.1,0.2,0.1,0.5,0.1,0.7c0,0.3-0.1,0.6-0.2,0.9
				c-0.1,0.3-0.3,0.5-0.5,0.7c-0.2,0.2-0.5,0.3-0.8,0.4C335.4,27.1,335.1,27.1,334.7,27.1z"/>
		</g>
	</g>
	<g id=":8080">
		<g>
			<path id="path-6" class="st2" d="M629.5,51.8c-0.2,0-0.4-0.1-0.5-0.2c-0.1-0.1-0.2-0.3-0.2-0.5c0-0.2,0.1-0.4,0.2-0.6
				c0.1-0.1,0.3-0.2,0.5-0.2c0.2,0,0.4,0.1,0.5,0.2c0.1,0.1,0.2,0.3,0.2,0.6c0,0.2-0.1,0.4-0.2,0.5
				C629.9,51.7,629.7,51.8,629.5,51.8z M629.5,56.1c-0.2,0-0.4-0.1-0.5-0.2c-0.1-0.1-0.2-0.3-0.2-0.5c0-0.2,0.1-0.4,0.2-0.6
				c0.1-0.1,0.3-0.2,0.5-0.2c0.2,0,0.4,0.1,0.5,0.2c0.1,0.1,0.2,0.3,0.2,0.6c0,0.2-0.1,0.4-0.2,0.5
				C629.9,56.1,629.7,56.1,629.5,56.1z M634,56.1c-0.4,0-0.7-0.1-1-0.2c-0.3-0.1-0.6-0.2-0.8-0.4c-0.2-0.2-0.4-0.4-0.5-0.7
				c-0.1-0.3-0.2-0.5-0.2-0.8c0-0.2,0-0.5,0.1-0.7c0.1-0.2,0.2-0.4,0.3-0.6s0.3-0.3,0.5-0.5c0.2-0.1,0.4-0.2,0.5-0.3v0
				c-0.3-0.2-0.5-0.4-0.7-0.7c-0.2-0.3-0.3-0.6-0.3-1c0-0.3,0.1-0.6,0.2-0.8c0.1-0.2,0.3-0.4,0.5-0.6s0.4-0.3,0.7-0.4
				c0.3-0.1,0.6-0.1,0.9-0.1c0.3,0,0.6,0,0.9,0.1c0.3,0.1,0.5,0.2,0.7,0.4s0.3,0.4,0.4,0.6c0.1,0.3,0.2,0.5,0.2,0.8
				c0,0.2,0,0.4-0.1,0.6c-0.1,0.2-0.2,0.4-0.3,0.5c-0.1,0.2-0.2,0.3-0.3,0.4c-0.1,0.1-0.2,0.2-0.4,0.3v0c0.2,0.1,0.3,0.2,0.5,0.3
				c0.2,0.1,0.3,0.3,0.4,0.4c0.1,0.2,0.2,0.3,0.3,0.5c0.1,0.2,0.1,0.4,0.1,0.7c0,0.3-0.1,0.6-0.2,0.8c-0.1,0.2-0.3,0.5-0.5,0.6
				s-0.5,0.3-0.8,0.4C634.7,56.1,634.4,56.1,634,56.1z M634.5,51.8c0.3-0.2,0.5-0.5,0.6-0.7s0.2-0.5,0.2-0.8c0-0.4-0.1-0.7-0.3-1
				c-0.2-0.3-0.6-0.4-1-0.4c-0.4,0-0.7,0.1-0.9,0.3c-0.2,0.2-0.3,0.5-0.3,0.9c0,0.2,0,0.4,0.1,0.6s0.2,0.3,0.4,0.4
				c0.2,0.1,0.4,0.2,0.6,0.3C634.1,51.6,634.3,51.7,634.5,51.8z M634,55.4c0.4,0,0.8-0.1,1.1-0.4s0.4-0.6,0.4-1
				c0-0.2-0.1-0.5-0.2-0.6c-0.1-0.2-0.3-0.3-0.5-0.5c-0.2-0.1-0.4-0.3-0.7-0.4s-0.5-0.2-0.8-0.3c-0.3,0.2-0.6,0.5-0.8,0.7
				c-0.2,0.3-0.3,0.6-0.3,0.9c0,0.2,0,0.4,0.1,0.6c0.1,0.2,0.2,0.3,0.3,0.5s0.3,0.2,0.5,0.3C633.6,55.4,633.8,55.4,634,55.4z
				 M639.9,56.1c-0.8,0-1.4-0.3-1.8-1s-0.6-1.7-0.6-3s0.2-2.3,0.6-2.9s1-1,1.8-1c0.8,0,1.4,0.3,1.8,1s0.6,1.7,0.6,2.9
				s-0.2,2.3-0.6,3S640.7,56.1,639.9,56.1z M639.9,55.4c0.2,0,0.4-0.1,0.6-0.2s0.3-0.3,0.5-0.6c0.1-0.3,0.2-0.6,0.3-1
				c0.1-0.4,0.1-0.9,0.1-1.4c0-0.6,0-1-0.1-1.4s-0.2-0.7-0.3-1c-0.1-0.3-0.3-0.4-0.5-0.6c-0.2-0.1-0.4-0.2-0.6-0.2s-0.4,0.1-0.6,0.2
				c-0.2,0.1-0.3,0.3-0.5,0.6s-0.2,0.6-0.3,1c-0.1,0.4-0.1,0.9-0.1,1.4c0,1.1,0.1,1.9,0.4,2.4S639.5,55.4,639.9,55.4z M645.9,56.1
				c-0.4,0-0.7-0.1-1-0.2s-0.6-0.2-0.8-0.4c-0.2-0.2-0.4-0.4-0.5-0.7c-0.1-0.3-0.2-0.5-0.2-0.8c0-0.2,0-0.5,0.1-0.7s0.2-0.4,0.3-0.6
				c0.1-0.2,0.3-0.3,0.5-0.5c0.2-0.1,0.3-0.2,0.5-0.3v0c-0.3-0.2-0.5-0.4-0.7-0.7c-0.2-0.3-0.3-0.6-0.3-1c0-0.3,0.1-0.6,0.2-0.8
				c0.1-0.2,0.3-0.4,0.5-0.6s0.4-0.3,0.7-0.4c0.3-0.1,0.6-0.1,0.9-0.1c0.3,0,0.6,0,0.9,0.1c0.3,0.1,0.5,0.2,0.7,0.4
				c0.2,0.2,0.3,0.4,0.4,0.6c0.1,0.3,0.2,0.5,0.2,0.8c0,0.2,0,0.4-0.1,0.6c-0.1,0.2-0.2,0.4-0.3,0.5s-0.2,0.3-0.3,0.4
				s-0.2,0.2-0.4,0.3v0c0.2,0.1,0.3,0.2,0.5,0.3c0.2,0.1,0.3,0.3,0.4,0.4c0.1,0.2,0.2,0.3,0.3,0.5c0.1,0.2,0.1,0.4,0.1,0.7
				c0,0.3-0.1,0.6-0.2,0.8s-0.3,0.5-0.5,0.6s-0.5,0.3-0.8,0.4S646.3,56.1,645.9,56.1z M646.5,51.8c0.3-0.2,0.5-0.5,0.6-0.7
				s0.2-0.5,0.2-0.8c0-0.4-0.1-0.7-0.3-1c-0.2-0.3-0.6-0.4-1-0.4c-0.4,0-0.7,0.1-0.9,0.3c-0.2,0.2-0.3,0.5-0.3,0.9
				c0,0.2,0,0.4,0.1,0.6s0.2,0.3,0.4,0.4c0.2,0.1,0.4,0.2,0.6,0.3C646,51.6,646.2,51.7,646.5,51.8z M645.9,55.4
				c0.4,0,0.8-0.1,1.1-0.4s0.4-0.6,0.4-1c0-0.2-0.1-0.5-0.2-0.6c-0.1-0.2-0.3-0.3-0.5-0.5c-0.2-0.1-0.4-0.3-0.7-0.4
				c-0.3-0.1-0.5-0.2-0.8-0.3c-0.3,0.2-0.6,0.5-0.8,0.7c-0.2,0.3-0.3,0.6-0.3,0.9c0,0.2,0,0.4,0.1,0.6c0.1,0.2,0.2,0.3,0.3,0.5
				s0.3,0.2,0.5,0.3C645.5,55.4,645.7,55.4,645.9,55.4z M651.9,56.1c-0.8,0-1.4-0.3-1.8-1c-0.4-0.7-0.6-1.7-0.6-3s0.2-2.3,0.6-2.9
				c0.4-0.7,1-1,1.8-1c0.8,0,1.4,0.3,1.8,1c0.4,0.7,0.6,1.7,0.6,2.9s-0.2,2.3-0.6,3C653.2,55.8,652.6,56.1,651.9,56.1z M651.9,55.4
				c0.2,0,0.4-0.1,0.6-0.2s0.3-0.3,0.5-0.6c0.1-0.3,0.2-0.6,0.3-1c0.1-0.4,0.1-0.9,0.1-1.4c0-0.6,0-1-0.1-1.4
				c-0.1-0.4-0.2-0.7-0.3-1c-0.1-0.3-0.3-0.4-0.5-0.6c-0.2-0.1-0.4-0.2-0.6-0.2s-0.4,0.1-0.6,0.2c-0.2,0.1-0.3,0.3-0.5,0.6
				c-0.1,0.3-0.2,0.6-0.3,1c-0.1,0.4-0.1,0.9-0.1,1.4c0,1.1,0.1,1.9,0.4,2.4S651.4,55.4,651.9,55.4z"/>
		</g>
		<g>
			<path class="st3" d="M629.5,51.8c-0.2,0-0.4-0.1-0.5-0.2c-0.1-0.1-0.2-0.3-0.2-0.5c0-0.2,0.1-0.4,0.2-0.6
				c0.1-0.1,0.3-0.2,0.5-0.2c0.2,0,0.4,0.1,0.5,0.2c0.1,0.1,0.2,0.3,0.2,0.6c0,0.2-0.1,0.4-0.2,0.5
				C629.9,51.7,629.7,51.8,629.5,51.8z M629.5,56.1c-0.2,0-0.4-0.1-0.5-0.2c-0.1-0.1-0.2-0.3-0.2-0.5c0-0.2,0.1-0.4,0.2-0.6
				c0.1-0.1,0.3-0.2,0.5-0.2c0.2,0,0.4,0.1,0.5,0.2c0.1,0.1,0.2,0.3,0.2,0.6c0,0.2-0.1,0.4-0.2,0.5
				C629.9,56.1,629.7,56.1,629.5,56.1z M634,56.1c-0.4,0-0.7-0.1-1-0.2c-0.3-0.1-0.6-0.2-0.8-0.4c-0.2-0.2-0.4-0.4-0.5-0.7
				c-0.1-0.3-0.2-0.5-0.2-0.8c0-0.2,0-0.5,0.1-0.7c0.1-0.2,0.2-0.4,0.3-0.6s0.3-0.3,0.5-0.5c0.2-0.1,0.4-0.2,0.5-0.3v0
				c-0.3-0.2-0.5-0.4-0.7-0.7c-0.2-0.3-0.3-0.6-0.3-1c0-0.3,0.1-0.6,0.2-0.8c0.1-0.2,0.3-0.4,0.5-0.6s0.4-0.3,0.7-0.4
				c0.3-0.1,0.6-0.1,0.9-0.1c0.3,0,0.6,0,0.9,0.1c0.3,0.1,0.5,0.2,0.7,0.4s0.3,0.4,0.4,0.6c0.1,0.3,0.2,0.5,0.2,0.8
				c0,0.2,0,0.4-0.1,0.6c-0.1,0.2-0.2,0.4-0.3,0.5c-0.1,0.2-0.2,0.3-0.3,0.4c-0.1,0.1-0.2,0.2-0.4,0.3v0c0.2,0.1,0.3,0.2,0.5,0.3
				c0.2,0.1,0.3,0.3,0.4,0.4c0.1,0.2,0.2,0.3,0.3,0.5c0.1,0.2,0.1,0.4,0.1,0.7c0,0.3-0.1,0.6-0.2,0.8c-0.1,0.2-0.3,0.5-0.5,0.6
				s-0.5,0.3-0.8,0.4C634.7,56.1,634.4,56.1,634,56.1z M634.5,51.8c0.3-0.2,0.5-0.5,0.6-0.7s0.2-0.5,0.2-0.8c0-0.4-0.1-0.7-0.3-1
				c-0.2-0.3-0.6-0.4-1-0.4c-0.4,0-0.7,0.1-0.9,0.3c-0.2,0.2-0.3,0.5-0.3,0.9c0,0.2,0,0.4,0.1,0.6s0.2,0.3,0.4,0.4
				c0.2,0.1,0.4,0.2,0.6,0.3C634.1,51.6,634.3,51.7,634.5,51.8z M634,55.4c0.4,0,0.8-0.1,1.1-0.4s0.4-0.6,0.4-1
				c0-0.2-0.1-0.5-0.2-0.6c-0.1-0.2-0.3-0.3-0.5-0.5c-0.2-0.1-0.4-0.3-0.7-0.4s-0.5-0.2-0.8-0.3c-0.3,0.2-0.6,0.5-0.8,0.7
				c-0.2,0.3-0.3,0.6-0.3,0.9c0,0.2,0,0.4,0.1,0.6c0.1,0.2,0.2,0.3,0.3,0.5s0.3,0.2,0.5,0.3C633.6,55.4,633.8,55.4,634,55.4z
				 M639.9,56.1c-0.8,0-1.4-0.3-1.8-1s-0.6-1.7-0.6-3s0.2-2.3,0.6-2.9s1-1,1.8-1c0.8,0,1.4,0.3,1.8,1s0.6,1.7,0.6,2.9
				s-0.2,2.3-0.6,3S640.7,56.1,639.9,56.1z M639.9,55.4c0.2,0,0.4-0.1,0.6-0.2s0.3-0.3,0.5-0.6c0.1-0.3,0.2-0.6,0.3-1
				c0.1-0.4,0.1-0.9,0.1-1.4c0-0.6,0-1-0.1-1.4s-0.2-0.7-0.3-1c-0.1-0.3-0.3-0.4-0.5-0.6c-0.2-0.1-0.4-0.2-0.6-0.2s-0.4,0.1-0.6,0.2
				c-0.2,0.1-0.3,0.3-0.5,0.6s-0.2,0.6-0.3,1c-0.1,0.4-0.1,0.9-0.1,1.4c0,1.1,0.1,1.9,0.4,2.4S639.5,55.4,639.9,55.4z M645.9,56.1
				c-0.4,0-0.7-0.1-1-0.2s-0.6-0.2-0.8-0.4c-0.2-0.2-0.4-0.4-0.5-0.7c-0.1-0.3-0.2-0.5-0.2-0.8c0-0.2,0-0.5,0.1-0.7s0.2-0.4,0.3-0.6
				c0.1-0.2,0.3-0.3,0.5-0.5c0.2-0.1,0.3-0.2,0.5-0.3v0c-0.3-0.2-0.5-0.4-0.7-0.7c-0.2-0.3-0.3-0.6-0.3-1c0-0.3,0.1-0.6,0.2-0.8
				c0.1-0.2,0.3-0.4,0.5-0.6s0.4-0.3,0.7-0.4c0.3-0.1,0.6-0.1,0.9-0.1c0.3,0,0.6,0,0.9,0.1c0.3,0.1,0.5,0.2,0.7,0.4
				c0.2,0.2,0.3,0.4,0.4,0.6c0.1,0.3,0.2,0.5,0.2,0.8c0,0.2,0,0.4-0.1,0.6c-0.1,0.2-0.2,0.4-0.3,0.5s-0.2,0.3-0.3,0.4
				s-0.2,0.2-0.4,0.3v0c0.2,0.1,0.3,0.2,0.5,0.3c0.2,0.1,0.3,0.3,0.4,0.4c0.1,0.2,0.2,0.3,0.3,0.5c0.1,0.2,0.1,0.4,0.1,0.7
				c0,0.3-0.1,0.6-0.2,0.8s-0.3,0.5-0.5,0.6s-0.5,0.3-0.8,0.4S646.3,56.1,645.9,56.1z M646.5,51.8c0.3-0.2,0.5-0.5,0.6-0.7
				s0.2-0.5,0.2-0.8c0-0.4-0.1-0.7-0.3-1c-0.2-0.3-0.6-0.4-1-0.4c-0.4,0-0.7,0.1-0.9,0.3c-0.2,0.2-0.3,0.5-0.3,0.9
				c0,0.2,0,0.4,0.1,0.6s0.2,0.3,0.4,0.4c0.2,0.1,0.4,0.2,0.6,0.3C646,51.6,646.2,51.7,646.5,51.8z M645.9,55.4
				c0.4,0,0.8-0.1,1.1-0.4s0.4-0.6,0.4-1c0-0.2-0.1-0.5-0.2-0.6c-0.1-0.2-0.3-0.3-0.5-0.5c-0.2-0.1-0.4-0.3-0.7-0.4
				c-0.3-0.1-0.5-0.2-0.8-0.3c-0.3,0.2-0.6,0.5-0.8,0.7c-0.2,0.3-0.3,0.6-0.3,0.9c0,0.2,0,0.4,0.1,0.6c0.1,0.2,0.2,0.3,0.3,0.5
				s0.3,0.2,0.5,0.3C645.5,55.4,645.7,55.4,645.9,55.4z M651.9,56.1c-0.8,0-1.4-0.3-1.8-1c-0.4-0.7-0.6-1.7-0.6-3s0.2-2.3,0.6-2.9
				c0.4-0.7,1-1,1.8-1c0.8,0,1.4,0.3,1.8,1c0.4,0.7,0.6,1.7,0.6,2.9s-0.2,2.3-0.6,3C653.2,55.8,652.6,56.1,651.9,56.1z M651.9,55.4
				c0.2,0,0.4-0.1,0.6-0.2s0.3-0.3,0.5-0.6c0.1-0.3,0.2-0.6,0.3-1c0.1-0.4,0.1-0.9,0.1-1.4c0-0.6,0-1-0.1-1.4
				c-0.1-0.4-0.2-0.7-0.3-1c-0.1-0.3-0.3-0.4-0.5-0.6c-0.2-0.1-0.4-0.2-0.6-0.2s-0.4,0.1-0.6,0.2c-0.2,0.1-0.3,0.3-0.5,0.6
				c-0.1,0.3-0.2,0.6-0.3,1c-0.1,0.4-0.1,0.9-0.1,1.4c0,1.1,0.1,1.9,0.4,2.4S651.4,55.4,651.9,55.4z"/>
		</g>
	</g>
	<g id=":8443">
		<g>
			<path id="path-7" class="st2" d="M629.5,66.8c-0.2,0-0.4-0.1-0.5-0.2c-0.1-0.1-0.2-0.3-0.2-0.5c0-0.2,0.1-0.4,0.2-0.6
				s0.3-0.2,0.5-0.2c0.2,0,0.4,0.1,0.5,0.2s0.2,0.3,0.2,0.6c0,0.2-0.1,0.4-0.2,0.5C629.9,66.7,629.7,66.8,629.5,66.8z M629.5,71.1
				c-0.2,0-0.4-0.1-0.5-0.2s-0.2-0.3-0.2-0.5c0-0.2,0.1-0.4,0.2-0.6c0.1-0.1,0.3-0.2,0.5-0.2c0.2,0,0.4,0.1,0.5,0.2
				c0.1,0.1,0.2,0.3,0.2,0.6c0,0.2-0.1,0.4-0.2,0.5S629.7,71.1,629.5,71.1z M634,71.1c-0.4,0-0.7-0.1-1-0.2
				c-0.3-0.1-0.6-0.2-0.8-0.4c-0.2-0.2-0.4-0.4-0.5-0.7c-0.1-0.3-0.2-0.5-0.2-0.8c0-0.2,0-0.5,0.1-0.7c0.1-0.2,0.2-0.4,0.3-0.6
				c0.1-0.2,0.3-0.3,0.5-0.5c0.2-0.1,0.4-0.2,0.5-0.3v0c-0.3-0.2-0.5-0.4-0.7-0.7c-0.2-0.3-0.3-0.6-0.3-1c0-0.3,0.1-0.6,0.2-0.8
				c0.1-0.2,0.3-0.4,0.5-0.6s0.4-0.3,0.7-0.4c0.3-0.1,0.6-0.1,0.9-0.1c0.3,0,0.6,0,0.9,0.1c0.3,0.1,0.5,0.2,0.7,0.4s0.3,0.4,0.4,0.6
				s0.2,0.5,0.2,0.8c0,0.2,0,0.4-0.1,0.6c-0.1,0.2-0.2,0.4-0.3,0.5c-0.1,0.2-0.2,0.3-0.3,0.4c-0.1,0.1-0.2,0.2-0.4,0.3v0
				c0.2,0.1,0.3,0.2,0.5,0.3c0.2,0.1,0.3,0.3,0.4,0.4c0.1,0.2,0.2,0.3,0.3,0.5c0.1,0.2,0.1,0.4,0.1,0.7c0,0.3-0.1,0.6-0.2,0.8
				c-0.1,0.2-0.3,0.5-0.5,0.6s-0.5,0.3-0.8,0.4C634.7,71.1,634.4,71.1,634,71.1z M634.5,66.8c0.3-0.2,0.5-0.5,0.6-0.7
				c0.1-0.3,0.2-0.5,0.2-0.8c0-0.4-0.1-0.7-0.3-1s-0.6-0.4-1-0.4c-0.4,0-0.7,0.1-0.9,0.3c-0.2,0.2-0.3,0.5-0.3,0.9
				c0,0.2,0,0.4,0.1,0.6s0.2,0.3,0.4,0.4c0.2,0.1,0.4,0.2,0.6,0.3S634.3,66.7,634.5,66.8z M634,70.4c0.4,0,0.8-0.1,1.1-0.4
				s0.4-0.6,0.4-1c0-0.2-0.1-0.5-0.2-0.6s-0.3-0.3-0.5-0.5c-0.2-0.1-0.4-0.3-0.7-0.4s-0.5-0.2-0.8-0.3c-0.3,0.2-0.6,0.4-0.8,0.7
				c-0.2,0.3-0.3,0.6-0.3,0.9c0,0.2,0,0.4,0.1,0.6c0.1,0.2,0.2,0.3,0.3,0.5c0.1,0.1,0.3,0.2,0.5,0.3S633.8,70.4,634,70.4z M640.6,71
				v-2.1h-3.4v-0.6l3.3-4.9h1.1v4.8h1v0.8h-1V71H640.6z M638.2,68.1h2.4v-2.2c0-0.2,0-0.5,0-0.7c0-0.3,0-0.5,0-0.7h0
				c-0.1,0.2-0.2,0.4-0.3,0.5c-0.1,0.2-0.2,0.4-0.3,0.5L638.2,68.1z M646.6,71v-2.1h-3.4v-0.6l3.3-4.9h1.1v4.8h1v0.8h-1V71H646.6z
				 M644.2,68.1h2.4v-2.2c0-0.2,0-0.5,0-0.7c0-0.3,0-0.5,0-0.7h0c-0.1,0.2-0.2,0.4-0.3,0.5c-0.1,0.2-0.2,0.4-0.3,0.5L644.2,68.1z
				 M651.7,71.1c-0.3,0-0.6,0-0.8-0.1s-0.5-0.1-0.7-0.2c-0.2-0.1-0.4-0.2-0.6-0.3s-0.3-0.3-0.4-0.4l0.5-0.6c0.2,0.2,0.5,0.5,0.8,0.6
				c0.3,0.2,0.7,0.3,1.1,0.3c0.5,0,0.8-0.1,1.1-0.4c0.3-0.3,0.4-0.6,0.4-1c0-0.2,0-0.4-0.1-0.6s-0.2-0.3-0.4-0.5
				c-0.2-0.1-0.4-0.2-0.8-0.3c-0.3-0.1-0.7-0.1-1.2-0.1v-0.8c0.4,0,0.8,0,1-0.1c0.3-0.1,0.5-0.2,0.7-0.3s0.3-0.3,0.4-0.5
				c0.1-0.2,0.1-0.4,0.1-0.6c0-0.4-0.1-0.7-0.4-0.9c-0.2-0.2-0.6-0.3-1-0.3c-0.3,0-0.6,0.1-0.9,0.2c-0.3,0.1-0.5,0.3-0.8,0.6
				l-0.5-0.6c0.3-0.3,0.6-0.5,1-0.7s0.8-0.3,1.2-0.3c0.3,0,0.6,0,0.9,0.1c0.3,0.1,0.5,0.2,0.7,0.4c0.2,0.2,0.4,0.4,0.5,0.6
				c0.1,0.2,0.2,0.5,0.2,0.8c0,0.5-0.1,0.8-0.4,1.1c-0.3,0.3-0.6,0.5-1,0.7v0c0.2,0.1,0.4,0.1,0.6,0.2s0.4,0.2,0.5,0.4
				c0.2,0.2,0.3,0.4,0.4,0.6c0.1,0.2,0.1,0.5,0.1,0.7c0,0.3-0.1,0.6-0.2,0.9s-0.3,0.5-0.5,0.7c-0.2,0.2-0.5,0.3-0.8,0.4
				C652.4,71.1,652.1,71.1,651.7,71.1z"/>
		</g>
		<g>
			<path class="st3" d="M629.5,66.8c-0.2,0-0.4-0.1-0.5-0.2c-0.1-0.1-0.2-0.3-0.2-0.5c0-0.2,0.1-0.4,0.2-0.6s0.3-0.2,0.5-0.2
				c0.2,0,0.4,0.1,0.5,0.2s0.2,0.3,0.2,0.6c0,0.2-0.1,0.4-0.2,0.5C629.9,66.7,629.7,66.8,629.5,66.8z M629.5,71.1
				c-0.2,0-0.4-0.1-0.5-0.2s-0.2-0.3-0.2-0.5c0-0.2,0.1-0.4,0.2-0.6c0.1-0.1,0.3-0.2,0.5-0.2c0.2,0,0.4,0.1,0.5,0.2
				c0.1,0.1,0.2,0.3,0.2,0.6c0,0.2-0.1,0.4-0.2,0.5S629.7,71.1,629.5,71.1z M634,71.1c-0.4,0-0.7-0.1-1-0.2
				c-0.3-0.1-0.6-0.2-0.8-0.4c-0.2-0.2-0.4-0.4-0.5-0.7c-0.1-0.3-0.2-0.5-0.2-0.8c0-0.2,0-0.5,0.1-0.7c0.1-0.2,0.2-0.4,0.3-0.6
				c0.1-0.2,0.3-0.3,0.5-0.5c0.2-0.1,0.4-0.2,0.5-0.3v0c-0.3-0.2-0.5-0.4-0.7-0.7c-0.2-0.3-0.3-0.6-0.3-1c0-0.3,0.1-0.6,0.2-0.8
				c0.1-0.2,0.3-0.4,0.5-0.6s0.4-0.3,0.7-0.4c0.3-0.1,0.6-0.1,0.9-0.1c0.3,0,0.6,0,0.9,0.1c0.3,0.1,0.5,0.2,0.7,0.4s0.3,0.4,0.4,0.6
				s0.2,0.5,0.2,0.8c0,0.2,0,0.4-0.1,0.6c-0.1,0.2-0.2,0.4-0.3,0.5c-0.1,0.2-0.2,0.3-0.3,0.4c-0.1,0.1-0.2,0.2-0.4,0.3v0
				c0.2,0.1,0.3,0.2,0.5,0.3c0.2,0.1,0.3,0.3,0.4,0.4c0.1,0.2,0.2,0.3,0.3,0.5c0.1,0.2,0.1,0.4,0.1,0.7c0,0.3-0.1,0.6-0.2,0.8
				c-0.1,0.2-0.3,0.5-0.5,0.6s-0.5,0.3-0.8,0.4C634.7,71.1,634.4,71.1,634,71.1z M634.5,66.8c0.3-0.2,0.5-0.5,0.6-0.7
				c0.1-0.3,0.2-0.5,0.2-0.8c0-0.4-0.1-0.7-0.3-1s-0.6-0.4-1-0.4c-0.4,0-0.7,0.1-0.9,0.3c-0.2,0.2-0.3,0.5-0.3,0.9
				c0,0.2,0,0.4,0.1,0.6s0.2,0.3,0.4,0.4c0.2,0.1,0.4,0.2,0.6,0.3S634.3,66.7,634.5,66.8z M634,70.4c0.4,0,0.8-0.1,1.1-0.4
				s0.4-0.6,0.4-1c0-0.2-0.1-0.5-0.2-0.6s-0.3-0.3-0.5-0.5c-0.2-0.1-0.4-0.3-0.7-0.4s-0.5-0.2-0.8-0.3c-0.3,0.2-0.6,0.4-0.8,0.7
				c-0.2,0.3-0.3,0.6-0.3,0.9c0,0.2,0,0.4,0.1,0.6c0.1,0.2,0.2,0.3,0.3,0.5c0.1,0.1,0.3,0.2,0.5,0.3S633.8,70.4,634,70.4z M640.6,71
				v-2.1h-3.4v-0.6l3.3-4.9h1.1v4.8h1v0.8h-1V71H640.6z M638.2,68.1h2.4v-2.2c0-0.2,0-0.5,0-0.7c0-0.3,0-0.5,0-0.7h0
				c-0.1,0.2-0.2,0.4-0.3,0.5c-0.1,0.2-0.2,0.4-0.3,0.5L638.2,68.1z M646.6,71v-2.1h-3.4v-0.6l3.3-4.9h1.1v4.8h1v0.8h-1V71H646.6z
				 M644.2,68.1h2.4v-2.2c0-0.2,0-0.5,0-0.7c0-0.3,0-0.5,0-0.7h0c-0.1,0.2-0.2,0.4-0.3,0.5c-0.1,0.2-0.2,0.4-0.3,0.5L644.2,68.1z
				 M651.7,71.1c-0.3,0-0.6,0-0.8-0.1s-0.5-0.1-0.7-0.2c-0.2-0.1-0.4-0.2-0.6-0.3s-0.3-0.3-0.4-0.4l0.5-0.6c0.2,0.2,0.5,0.5,0.8,0.6
				c0.3,0.2,0.7,0.3,1.1,0.3c0.5,0,0.8-0.1,1.1-0.4c0.3-0.3,0.4-0.6,0.4-1c0-0.2,0-0.4-0.1-0.6s-0.2-0.3-0.4-0.5
				c-0.2-0.1-0.4-0.2-0.8-0.3c-0.3-0.1-0.7-0.1-1.2-0.1v-0.8c0.4,0,0.8,0,1-0.1c0.3-0.1,0.5-0.2,0.7-0.3s0.3-0.3,0.4-0.5
				c0.1-0.2,0.1-0.4,0.1-0.6c0-0.4-0.1-0.7-0.4-0.9c-0.2-0.2-0.6-0.3-1-0.3c-0.3,0-0.6,0.1-0.9,0.2c-0.3,0.1-0.5,0.3-0.8,0.6
				l-0.5-0.6c0.3-0.3,0.6-0.5,1-0.7s0.8-0.3,1.2-0.3c0.3,0,0.6,0,0.9,0.1c0.3,0.1,0.5,0.2,0.7,0.4c0.2,0.2,0.4,0.4,0.5,0.6
				c0.1,0.2,0.2,0.5,0.2,0.8c0,0.5-0.1,0.8-0.4,1.1c-0.3,0.3-0.6,0.5-1,0.7v0c0.2,0.1,0.4,0.1,0.6,0.2s0.4,0.2,0.5,0.4
				c0.2,0.2,0.3,0.4,0.4,0.6c0.1,0.2,0.1,0.5,0.1,0.7c0,0.3-0.1,0.6-0.2,0.9s-0.3,0.5-0.5,0.7c-0.2,0.2-0.5,0.3-0.8,0.4
				C652.4,71.1,652.1,71.1,651.7,71.1z"/>
		</g>
	</g>
	<g id="WebSocket">
		<g>
			<path id="path-8" class="st2" d="M410,179.5l-2.2-10.5h1.4l1.1,5.7c0.1,0.6,0.2,1.1,0.3,1.7c0.1,0.6,0.2,1.1,0.3,1.7h0.1
				c0.1-0.6,0.2-1.1,0.4-1.7c0.1-0.6,0.3-1.1,0.4-1.7l1.5-5.7h1.2l1.5,5.7c0.1,0.6,0.3,1.1,0.4,1.7c0.1,0.6,0.3,1.1,0.4,1.7h0.1
				c0.1-0.6,0.2-1.1,0.3-1.7c0.1-0.6,0.2-1.1,0.3-1.7l1.1-5.7h1.3l-2.2,10.5h-1.6l-1.6-6.3c-0.1-0.4-0.2-0.8-0.3-1.2
				c-0.1-0.4-0.2-0.8-0.2-1.2h-0.1c-0.1,0.4-0.2,0.8-0.3,1.2c-0.1,0.4-0.2,0.8-0.3,1.2l-1.6,6.3H410z M424.5,179.7
				c-0.5,0-1-0.1-1.5-0.3c-0.5-0.2-0.8-0.5-1.2-0.8s-0.6-0.8-0.8-1.3c-0.2-0.5-0.3-1.1-0.3-1.7c0-0.6,0.1-1.2,0.3-1.7
				c0.2-0.5,0.5-0.9,0.8-1.3c0.3-0.4,0.7-0.6,1.1-0.8c0.4-0.2,0.8-0.3,1.3-0.3c0.5,0,0.9,0.1,1.3,0.3s0.7,0.4,1,0.7
				c0.3,0.3,0.5,0.7,0.6,1.2c0.1,0.4,0.2,0.9,0.2,1.5c0,0.1,0,0.3,0,0.4s0,0.2,0,0.3H422c0.1,0.8,0.3,1.5,0.8,2
				c0.5,0.5,1.1,0.7,1.8,0.7c0.4,0,0.7-0.1,1-0.2s0.6-0.3,0.9-0.4l0.5,0.9c-0.3,0.2-0.7,0.4-1.1,0.6
				C425.5,179.6,425,179.7,424.5,179.7z M422,175h4.2c0-0.8-0.2-1.4-0.5-1.8c-0.3-0.4-0.8-0.6-1.4-0.6c-0.3,0-0.5,0.1-0.8,0.2
				c-0.3,0.1-0.5,0.3-0.7,0.5c-0.2,0.2-0.4,0.5-0.5,0.8C422.2,174.3,422.1,174.6,422,175z M432.7,179.7c-0.4,0-0.7-0.1-1.1-0.3
				c-0.4-0.2-0.8-0.4-1.1-0.7h0l-0.1,0.8h-1.1v-11.4h1.3v3.1l0,1.4c0.4-0.3,0.7-0.6,1.2-0.8c0.4-0.2,0.8-0.3,1.3-0.3
				c0.5,0,0.9,0.1,1.3,0.3c0.4,0.2,0.7,0.5,1,0.8c0.3,0.3,0.5,0.8,0.6,1.2s0.2,1,0.2,1.6c0,0.7-0.1,1.3-0.3,1.8
				c-0.2,0.5-0.4,1-0.7,1.3s-0.7,0.6-1.1,0.8C433.6,179.6,433.1,179.7,432.7,179.7z M432.5,178.6c0.3,0,0.6-0.1,0.9-0.2
				c0.3-0.1,0.5-0.3,0.7-0.6c0.2-0.3,0.4-0.6,0.5-1c0.1-0.4,0.2-0.8,0.2-1.3c0-0.4,0-0.8-0.1-1.2c-0.1-0.4-0.2-0.7-0.4-0.9
				c-0.2-0.3-0.4-0.4-0.6-0.6c-0.3-0.1-0.6-0.2-0.9-0.2c-0.6,0-1.3,0.4-2.1,1.1v4.1c0.3,0.3,0.7,0.5,1,0.6
				C431.9,178.5,432.2,178.6,432.5,178.6z M441.1,179.7c-0.7,0-1.4-0.1-2-0.4s-1.2-0.7-1.6-1.1l0.8-0.9c0.4,0.4,0.8,0.7,1.3,1
				c0.5,0.2,1,0.4,1.6,0.4c0.7,0,1.2-0.2,1.6-0.5s0.6-0.7,0.6-1.2c0-0.3,0-0.5-0.1-0.7c-0.1-0.2-0.2-0.3-0.4-0.5
				c-0.2-0.1-0.3-0.3-0.6-0.4c-0.2-0.1-0.4-0.2-0.7-0.3l-1.5-0.7c-0.2-0.1-0.5-0.2-0.8-0.4c-0.3-0.1-0.5-0.3-0.7-0.5
				s-0.4-0.5-0.5-0.8s-0.2-0.6-0.2-1c0-0.4,0.1-0.8,0.2-1.1c0.2-0.3,0.4-0.6,0.7-0.9s0.6-0.4,1-0.6c0.4-0.1,0.8-0.2,1.3-0.2
				c0.6,0,1.2,0.1,1.7,0.4c0.5,0.2,1,0.6,1.4,0.9l-0.7,0.9c-0.3-0.3-0.7-0.6-1.1-0.7c-0.4-0.2-0.8-0.3-1.3-0.3
				c-0.6,0-1.1,0.1-1.4,0.4c-0.4,0.3-0.5,0.6-0.5,1.1c0,0.3,0.1,0.5,0.2,0.6c0.1,0.2,0.2,0.3,0.4,0.5c0.2,0.1,0.4,0.3,0.6,0.4
				s0.4,0.2,0.6,0.3l1.5,0.6c0.3,0.1,0.6,0.3,0.8,0.4c0.3,0.2,0.5,0.4,0.7,0.6c0.2,0.2,0.3,0.5,0.5,0.8s0.2,0.6,0.2,1
				c0,0.4-0.1,0.8-0.2,1.2c-0.2,0.4-0.4,0.7-0.7,1c-0.3,0.3-0.7,0.5-1.1,0.6C442.2,179.6,441.7,179.7,441.1,179.7z M449.7,179.7
				c-0.5,0-0.9-0.1-1.4-0.3c-0.4-0.2-0.8-0.4-1.1-0.8c-0.3-0.3-0.6-0.8-0.8-1.3c-0.2-0.5-0.3-1.1-0.3-1.7c0-0.7,0.1-1.2,0.3-1.7
				c0.2-0.5,0.5-0.9,0.8-1.3s0.7-0.6,1.1-0.8c0.4-0.2,0.9-0.3,1.4-0.3s0.9,0.1,1.4,0.3s0.8,0.4,1.1,0.8c0.3,0.4,0.6,0.8,0.8,1.3
				c0.2,0.5,0.3,1.1,0.3,1.7c0,0.6-0.1,1.2-0.3,1.7c-0.2,0.5-0.5,0.9-0.8,1.3c-0.3,0.3-0.7,0.6-1.1,0.8S450.2,179.7,449.7,179.7z
				 M449.7,178.6c0.3,0,0.6-0.1,0.9-0.2c0.3-0.1,0.5-0.3,0.7-0.6c0.2-0.3,0.3-0.6,0.5-0.9c0.1-0.4,0.2-0.8,0.2-1.2
				c0-0.4-0.1-0.9-0.2-1.2c-0.1-0.4-0.3-0.7-0.5-1c-0.2-0.3-0.4-0.5-0.7-0.6c-0.3-0.1-0.6-0.2-0.9-0.2s-0.6,0.1-0.9,0.2
				c-0.3,0.1-0.5,0.3-0.7,0.6c-0.2,0.3-0.3,0.6-0.5,1c-0.1,0.4-0.2,0.8-0.2,1.2c0,0.4,0.1,0.9,0.2,1.2c0.1,0.4,0.3,0.7,0.5,0.9
				s0.4,0.5,0.7,0.6C449,178.5,449.3,178.6,449.7,178.6z M458.4,179.7c-0.5,0-1-0.1-1.4-0.3s-0.8-0.4-1.2-0.8
				c-0.3-0.3-0.6-0.8-0.8-1.3c-0.2-0.5-0.3-1.1-0.3-1.7c0-0.7,0.1-1.2,0.3-1.7s0.5-0.9,0.8-1.3c0.3-0.4,0.7-0.6,1.2-0.8
				s0.9-0.3,1.4-0.3c0.5,0,0.9,0.1,1.3,0.3s0.7,0.4,1,0.6l-0.7,0.9c-0.2-0.2-0.5-0.4-0.7-0.5c-0.3-0.1-0.5-0.2-0.8-0.2
				c-0.4,0-0.7,0.1-1,0.2s-0.6,0.3-0.8,0.6c-0.2,0.3-0.4,0.6-0.5,1c-0.1,0.4-0.2,0.8-0.2,1.2c0,0.4,0.1,0.9,0.2,1.2
				c0.1,0.4,0.3,0.7,0.5,0.9s0.5,0.5,0.8,0.6c0.3,0.1,0.6,0.2,1,0.2c0.4,0,0.7-0.1,1-0.2c0.3-0.2,0.6-0.3,0.8-0.6l0.6,0.9
				c-0.4,0.3-0.7,0.6-1.2,0.7C459.3,179.6,458.9,179.7,458.4,179.7z M462.6,179.5v-11.4h1.3v7.7h0l3.3-4.1h1.5l-2.6,3.1l3,4.7h-1.4
				l-2.3-3.7l-1.5,1.7v2H462.6z M473.4,179.7c-0.5,0-1-0.1-1.5-0.3c-0.5-0.2-0.8-0.5-1.2-0.8c-0.3-0.3-0.6-0.8-0.8-1.3
				c-0.2-0.5-0.3-1.1-0.3-1.7c0-0.6,0.1-1.2,0.3-1.7c0.2-0.5,0.5-0.9,0.8-1.3c0.3-0.4,0.7-0.6,1.1-0.8c0.4-0.2,0.8-0.3,1.3-0.3
				c0.5,0,0.9,0.1,1.3,0.3c0.4,0.2,0.7,0.4,1,0.7c0.3,0.3,0.5,0.7,0.6,1.2c0.1,0.4,0.2,0.9,0.2,1.5c0,0.1,0,0.3,0,0.4
				c0,0.1,0,0.2,0,0.3H471c0.1,0.8,0.3,1.5,0.8,2c0.5,0.5,1.1,0.7,1.8,0.7c0.4,0,0.7-0.1,1-0.2s0.6-0.3,0.9-0.4l0.5,0.9
				c-0.3,0.2-0.7,0.4-1.1,0.6C474.4,179.6,473.9,179.7,473.4,179.7z M471,175h4.2c0-0.8-0.2-1.4-0.5-1.8c-0.3-0.4-0.8-0.6-1.4-0.6
				c-0.3,0-0.5,0.1-0.8,0.2c-0.3,0.1-0.5,0.3-0.7,0.5c-0.2,0.2-0.4,0.5-0.5,0.8C471.1,174.3,471,174.6,471,175z M480.5,179.7
				c-0.4,0-0.8-0.1-1-0.2c-0.3-0.1-0.5-0.3-0.7-0.5s-0.3-0.5-0.4-0.8c-0.1-0.3-0.1-0.7-0.1-1.1v-4.3h-1.2v-1l1.2-0.1l0.2-2.2h1.1
				v2.2h2.1v1.1h-2.1v4.3c0,0.5,0.1,0.9,0.3,1.1s0.5,0.4,0.9,0.4c0.1,0,0.3,0,0.4-0.1s0.3-0.1,0.4-0.1l0.3,1
				c-0.2,0.1-0.4,0.1-0.7,0.2S480.7,179.7,480.5,179.7z"/>
		</g>
		<g>
			<path class="st3" d="M410,179.5l-2.2-10.5h1.4l1.1,5.7c0.1,0.6,0.2,1.1,0.3,1.7c0.1,0.6,0.2,1.1,0.3,1.7h0.1
				c0.1-0.6,0.2-1.1,0.4-1.7c0.1-0.6,0.3-1.1,0.4-1.7l1.5-5.7h1.2l1.5,5.7c0.1,0.6,0.3,1.1,0.4,1.7c0.1,0.6,0.3,1.1,0.4,1.7h0.1
				c0.1-0.6,0.2-1.1,0.3-1.7c0.1-0.6,0.2-1.1,0.3-1.7l1.1-5.7h1.3l-2.2,10.5h-1.6l-1.6-6.3c-0.1-0.4-0.2-0.8-0.3-1.2
				c-0.1-0.4-0.2-0.8-0.2-1.2h-0.1c-0.1,0.4-0.2,0.8-0.3,1.2c-0.1,0.4-0.2,0.8-0.3,1.2l-1.6,6.3H410z M424.5,179.7
				c-0.5,0-1-0.1-1.5-0.3c-0.5-0.2-0.8-0.5-1.2-0.8s-0.6-0.8-0.8-1.3c-0.2-0.5-0.3-1.1-0.3-1.7c0-0.6,0.1-1.2,0.3-1.7
				c0.2-0.5,0.5-0.9,0.8-1.3c0.3-0.4,0.7-0.6,1.1-0.8c0.4-0.2,0.8-0.3,1.3-0.3c0.5,0,0.9,0.1,1.3,0.3s0.7,0.4,1,0.7
				c0.3,0.3,0.5,0.7,0.6,1.2c0.1,0.4,0.2,0.9,0.2,1.5c0,0.1,0,0.3,0,0.4s0,0.2,0,0.3H422c0.1,0.8,0.3,1.5,0.8,2
				c0.5,0.5,1.1,0.7,1.8,0.7c0.4,0,0.7-0.1,1-0.2s0.6-0.3,0.9-0.4l0.5,0.9c-0.3,0.2-0.7,0.4-1.1,0.6
				C425.5,179.6,425,179.7,424.5,179.7z M422,175h4.2c0-0.8-0.2-1.4-0.5-1.8c-0.3-0.4-0.8-0.6-1.4-0.6c-0.3,0-0.5,0.1-0.8,0.2
				c-0.3,0.1-0.5,0.3-0.7,0.5c-0.2,0.2-0.4,0.5-0.5,0.8C422.2,174.3,422.1,174.6,422,175z M432.7,179.7c-0.4,0-0.7-0.1-1.1-0.3
				c-0.4-0.2-0.8-0.4-1.1-0.7h0l-0.1,0.8h-1.1v-11.4h1.3v3.1l0,1.4c0.4-0.3,0.7-0.6,1.2-0.8c0.4-0.2,0.8-0.3,1.3-0.3
				c0.5,0,0.9,0.1,1.3,0.3c0.4,0.2,0.7,0.5,1,0.8c0.3,0.3,0.5,0.8,0.6,1.2s0.2,1,0.2,1.6c0,0.7-0.1,1.3-0.3,1.8
				c-0.2,0.5-0.4,1-0.7,1.3s-0.7,0.6-1.1,0.8C433.6,179.6,433.1,179.7,432.7,179.7z M432.5,178.6c0.3,0,0.6-0.1,0.9-0.2
				c0.3-0.1,0.5-0.3,0.7-0.6c0.2-0.3,0.4-0.6,0.5-1c0.1-0.4,0.2-0.8,0.2-1.3c0-0.4,0-0.8-0.1-1.2c-0.1-0.4-0.2-0.7-0.4-0.9
				c-0.2-0.3-0.4-0.4-0.6-0.6c-0.3-0.1-0.6-0.2-0.9-0.2c-0.6,0-1.3,0.4-2.1,1.1v4.1c0.3,0.3,0.7,0.5,1,0.6
				C431.9,178.5,432.2,178.6,432.5,178.6z M441.1,179.7c-0.7,0-1.4-0.1-2-0.4s-1.2-0.7-1.6-1.1l0.8-0.9c0.4,0.4,0.8,0.7,1.3,1
				c0.5,0.2,1,0.4,1.6,0.4c0.7,0,1.2-0.2,1.6-0.5s0.6-0.7,0.6-1.2c0-0.3,0-0.5-0.1-0.7c-0.1-0.2-0.2-0.3-0.4-0.5
				c-0.2-0.1-0.3-0.3-0.6-0.4c-0.2-0.1-0.4-0.2-0.7-0.3l-1.5-0.7c-0.2-0.1-0.5-0.2-0.8-0.4c-0.3-0.1-0.5-0.3-0.7-0.5
				s-0.4-0.5-0.5-0.8s-0.2-0.6-0.2-1c0-0.4,0.1-0.8,0.2-1.1c0.2-0.3,0.4-0.6,0.7-0.9s0.6-0.4,1-0.6c0.4-0.1,0.8-0.2,1.3-0.2
				c0.6,0,1.2,0.1,1.7,0.4c0.5,0.2,1,0.6,1.4,0.9l-0.7,0.9c-0.3-0.3-0.7-0.6-1.1-0.7c-0.4-0.2-0.8-0.3-1.3-0.3
				c-0.6,0-1.1,0.1-1.4,0.4c-0.4,0.3-0.5,0.6-0.5,1.1c0,0.3,0.1,0.5,0.2,0.6c0.1,0.2,0.2,0.3,0.4,0.5c0.2,0.1,0.4,0.3,0.6,0.4
				s0.4,0.2,0.6,0.3l1.5,0.6c0.3,0.1,0.6,0.3,0.8,0.4c0.3,0.2,0.5,0.4,0.7,0.6c0.2,0.2,0.3,0.5,0.5,0.8s0.2,0.6,0.2,1
				c0,0.4-0.1,0.8-0.2,1.2c-0.2,0.4-0.4,0.7-0.7,1c-0.3,0.3-0.7,0.5-1.1,0.6C442.2,179.6,441.7,179.7,441.1,179.7z M449.7,179.7
				c-0.5,0-0.9-0.1-1.4-0.3c-0.4-0.2-0.8-0.4-1.1-0.8c-0.3-0.3-0.6-0.8-0.8-1.3c-0.2-0.5-0.3-1.1-0.3-1.7c0-0.7,0.1-1.2,0.3-1.7
				c0.2-0.5,0.5-0.9,0.8-1.3s0.7-0.6,1.1-0.8c0.4-0.2,0.9-0.3,1.4-0.3s0.9,0.1,1.4,0.3s0.8,0.4,1.1,0.8c0.3,0.4,0.6,0.8,0.8,1.3
				c0.2,0.5,0.3,1.1,0.3,1.7c0,0.6-0.1,1.2-0.3,1.7c-0.2,0.5-0.5,0.9-0.8,1.3c-0.3,0.3-0.7,0.6-1.1,0.8S450.2,179.7,449.7,179.7z
				 M449.7,178.6c0.3,0,0.6-0.1,0.9-0.2c0.3-0.1,0.5-0.3,0.7-0.6c0.2-0.3,0.3-0.6,0.5-0.9c0.1-0.4,0.2-0.8,0.2-1.2
				c0-0.4-0.1-0.9-0.2-1.2c-0.1-0.4-0.3-0.7-0.5-1c-0.2-0.3-0.4-0.5-0.7-0.6c-0.3-0.1-0.6-0.2-0.9-0.2s-0.6,0.1-0.9,0.2
				c-0.3,0.1-0.5,0.3-0.7,0.6c-0.2,0.3-0.3,0.6-0.5,1c-0.1,0.4-0.2,0.8-0.2,1.2c0,0.4,0.1,0.9,0.2,1.2c0.1,0.4,0.3,0.7,0.5,0.9
				s0.4,0.5,0.7,0.6C449,178.5,449.3,178.6,449.7,178.6z M458.4,179.7c-0.5,0-1-0.1-1.4-0.3s-0.8-0.4-1.2-0.8
				c-0.3-0.3-0.6-0.8-0.8-1.3c-0.2-0.5-0.3-1.1-0.3-1.7c0-0.7,0.1-1.2,0.3-1.7s0.5-0.9,0.8-1.3c0.3-0.4,0.7-0.6,1.2-0.8
				s0.9-0.3,1.4-0.3c0.5,0,0.9,0.1,1.3,0.3s0.7,0.4,1,0.6l-0.7,0.9c-0.2-0.2-0.5-0.4-0.7-0.5c-0.3-0.1-0.5-0.2-0.8-0.2
				c-0.4,0-0.7,0.1-1,0.2s-0.6,0.3-0.8,0.6c-0.2,0.3-0.4,0.6-0.5,1c-0.1,0.4-0.2,0.8-0.2,1.2c0,0.4,0.1,0.9,0.2,1.2
				c0.1,0.4,0.3,0.7,0.5,0.9s0.5,0.5,0.8,0.6c0.3,0.1,0.6,0.2,1,0.2c0.4,0,0.7-0.1,1-0.2c0.3-0.2,0.6-0.3,0.8-0.6l0.6,0.9
				c-0.4,0.3-0.7,0.6-1.2,0.7C459.3,179.6,458.9,179.7,458.4,179.7z M462.6,179.5v-11.4h1.3v7.7h0l3.3-4.1h1.5l-2.6,3.1l3,4.7h-1.4
				l-2.3-3.7l-1.5,1.7v2H462.6z M473.4,179.7c-0.5,0-1-0.1-1.5-0.3c-0.5-0.2-0.8-0.5-1.2-0.8c-0.3-0.3-0.6-0.8-0.8-1.3
				c-0.2-0.5-0.3-1.1-0.3-1.7c0-0.6,0.1-1.2,0.3-1.7c0.2-0.5,0.5-0.9,0.8-1.3c0.3-0.4,0.7-0.6,1.1-0.8c0.4-0.2,0.8-0.3,1.3-0.3
				c0.5,0,0.9,0.1,1.3,0.3c0.4,0.2,0.7,0.4,1,0.7c0.3,0.3,0.5,0.7,0.6,1.2c0.1,0.4,0.2,0.9,0.2,1.5c0,0.1,0,0.3,0,0.4
				c0,0.1,0,0.2,0,0.3H471c0.1,0.8,0.3,1.5,0.8,2c0.5,0.5,1.1,0.7,1.8,0.7c0.4,0,0.7-0.1,1-0.2s0.6-0.3,0.9-0.4l0.5,0.9
				c-0.3,0.2-0.7,0.4-1.1,0.6C474.4,179.6,473.9,179.7,473.4,179.7z M471,175h4.2c0-0.8-0.2-1.4-0.5-1.8c-0.3-0.4-0.8-0.6-1.4-0.6
				c-0.3,0-0.5,0.1-0.8,0.2c-0.3,0.1-0.5,0.3-0.7,0.5c-0.2,0.2-0.4,0.5-0.5,0.8C471.1,174.3,471,174.6,471,175z M480.5,179.7
				c-0.4,0-0.8-0.1-1-0.2c-0.3-0.1-0.5-0.3-0.7-0.5s-0.3-0.5-0.4-0.8c-0.1-0.3-0.1-0.7-0.1-1.1v-4.3h-1.2v-1l1.2-0.1l0.2-2.2h1.1
				v2.2h2.1v1.1h-2.1v4.3c0,0.5,0.1,0.9,0.3,1.1s0.5,0.4,0.9,0.4c0.1,0,0.3,0,0.4-0.1s0.3-0.1,0.4-0.1l0.3,1
				c-0.2,0.1-0.4,0.1-0.7,0.2S480.7,179.7,480.5,179.7z"/>
		</g>
	</g>
	<path id="Path" class="st10" d="M218,63v-1h5v1H218z M225,63v-1h5v1H225z M232,63v-1h5v1H232z M239,63v-1h5v1H239z M246,63v-1h5v1
		H246z M253,63v-1h5v1H253z M260,63v-1h5v1H260z M267,63v-1h5v1H267z M274,63v-1h5v1H274z M281,63v-1h5v1H281z M288,63v-1h5v1H288z
		 M295,63v-1h5v1H295z M302,63v-1h5v1H302z M309,63v-1h5v1H309z M316,63v-1h5v1H316z M323,63v-1h5v1H323z M330,63v-1h5v1H330z
		 M337,63v-1h5v1H337z M344,63v-1h6v1H344z M352,63v-1h4v1H352z M358,63v-1h5v1H358z M365,63v-1h5v1H365z M372,63v-1h2.5
		c0.9,0,1.8,0.2,2.6,0.5l-0.4,0.9c-0.7-0.3-1.5-0.4-2.3-0.4H372z M378.5,64.3l0.6-0.8c1.5,1.1,2.5,2.7,2.8,4.5l-1,0.2
		C380.6,66.7,379.7,65.3,378.5,64.3z M381,70l1,0.1c-0.1,1.8-1,3.5-2.3,4.8l-0.7-0.7C380.1,73.1,380.8,71.6,381,70z M377.5,75.3
		l0.5,0.9c-1.1,0.5-2.2,0.8-3.4,0.8h-1.6v-1h1.6C375.6,76,376.6,75.8,377.5,75.3z M370.9,76v1h-5v-1H370.9z M363.9,76v1h-5v-1H363.9
		z M356.9,76v1h-5v-1H356.9z M349.9,76v1h-5v-1H349.9z M342.9,76v1h-5v-1H342.9z M335.9,76v1h-5v-1H335.9z M328.9,76v1h-5v-1H328.9z
		 M321.9,76v1h-5v-1H321.9z M314.9,76v1h-5v-1H314.9z M307.9,76v1h-5v-1H307.9z M300.9,76v1h-5v-1H300.9z M293.9,76v1h-5v-1H293.9z
		 M286.9,76v1h-5v-1H286.9z M279.9,76v1h-5v-1H279.9z M272.9,76v1h-5v-1H272.9z M265.9,76v1h-5v-1H265.9z M258.9,76v1h-5v-1H258.9z
		 M251.9,76v1h-5v-1H251.9z M244.9,76v1h-5v-1H244.9z M237.9,76v1h-5v-1H237.9z M230.9,76v1h-5v-1H230.9z M223.9,76v1h-5v-1H223.9z
		 M216.9,76v1h-3.6v-1H216.9z"/>
	<path class="st10" d="M218.3,106v-1h5v1H218.3z M225.3,106v-1h5v1H225.3z M232.3,106v-1h5v1H232.3z M239.3,106v-1h5v1H239.3z
		 M246.3,106l0-1c1.7,0,3.3,0,5,0l0,1C249.6,106,248,106,246.3,106z M253.3,106.1l0-1c1.7,0,3.3,0.1,5,0.2l0,1
		C256.6,106.2,255,106.1,253.3,106.1z M260.3,106.4l0-1c1.7,0.1,3.3,0.2,5,0.3l-0.1,1C263.6,106.5,261.9,106.4,260.3,106.4z
		 M267.3,106.8l0.1-1c1.7,0.1,3.3,0.3,5,0.4l-0.1,1C270.6,107.1,268.9,106.9,267.3,106.8z M274.2,107.4l0.1-1c1.7,0.2,3.3,0.4,5,0.5
		l-0.1,1C277.5,107.7,275.9,107.6,274.2,107.4z M281.2,108.2l0.1-1c1.7,0.2,3.3,0.4,5,0.7l-0.1,1
		C284.5,108.6,282.8,108.4,281.2,108.2z M288.1,109.2l0.2-1c1.6,0.3,3.3,0.5,4.9,0.8l-0.2,1C291.4,109.7,289.7,109.4,288.1,109.2z
		 M295,110.3l0.2-1c1.6,0.3,3.3,0.6,4.9,0.9l-0.2,1C298.3,110.9,296.6,110.6,295,110.3z M301.8,111.6l0.2-1c1.6,0.3,3.3,0.7,4.9,1
		l-0.2,1C305.1,112.3,303.5,111.9,301.8,111.6z M308.7,113l0.2-1c1.6,0.4,3.2,0.7,4.9,1.1l-0.2,1C311.9,113.8,310.3,113.4,308.7,113
		z M315.5,114.6l0.2-1c1.6,0.4,3.2,0.8,4.9,1.2l-0.2,1C318.7,115.4,317.1,115,315.5,114.6z M322.3,116.3l0.3-1
		c1.6,0.4,3.2,0.8,4.8,1.3l-0.3,1C325.5,117.2,323.8,116.8,322.3,116.3z M329,118.2l0.3-1c1.6,0.4,3.2,0.9,4.8,1.3l-0.3,1
		C332.2,119,330.6,118.6,329,118.2z M335.8,120l0.3-1c1.5,0.4,3.1,0.9,4.8,1.4l-0.3,1C338.8,120.9,337.3,120.5,335.8,120z
		 M342.5,122l0.3-1c1,0.3,2.1,0.6,3.5,1c0.7,0.2,0.7,0.2,1.3,0.4l-0.3,1c-0.7-0.2-0.7-0.2-1.3-0.4
		C344.5,122.6,343.5,122.3,342.5,122z M349.2,123.9l0.3-1c1.9,0.5,3.4,1,4.8,1.4l-0.3,1C352.6,124.9,351.1,124.5,349.2,123.9z
		 M355.9,125.9l0.3-1c1.7,0.5,3.3,0.9,4.8,1.4l-0.3,1C359.2,126.8,357.6,126.3,355.9,125.9z M362.7,127.8l0.3-1
		c1.7,0.5,3.3,0.9,4.8,1.3l-0.3,1C365.9,128.7,364.3,128.2,362.7,127.8z M369.4,129.6l0.3-1c1.6,0.4,3.3,0.9,4.8,1.3l-0.2,1
		C372.7,130.5,371.1,130,369.4,129.6z M376.2,131.4l0.2-1c1.6,0.4,3.3,0.8,4.9,1.2l-0.2,1C379.5,132.2,377.9,131.8,376.2,131.4z
		 M383,133l0.2-1c1.6,0.4,3.3,0.7,4.9,1.1l-0.2,1C386.3,133.7,384.7,133.4,383,133z M389.9,134.5l0.2-1c1.6,0.3,3.3,0.7,4.9,1
		l-0.2,1C393.2,135.1,391.5,134.8,389.9,134.5z M396.8,135.8l0.2-1c1.6,0.3,3.3,0.6,4.9,0.8l-0.2,1
		C400.1,136.4,398.4,136.1,396.8,135.8z M403.7,137l0.2-1c1.6,0.3,3.3,0.5,4.9,0.7l-0.1,1C407,137.5,405.4,137.2,403.7,137z
		 M410.6,137.9l0.1-1c1.6,0.2,3.3,0.4,5,0.6l-0.1,1C414,138.3,412.3,138.2,410.6,137.9z M417.6,138.7l0.1-1c1.7,0.2,3.3,0.3,5,0.4
		l-0.1,1C420.9,139,419.3,138.9,417.6,138.7z M424.6,139.3l0.1-1c1.7,0.1,3.3,0.2,5,0.3l-0.1,1C427.9,139.6,426.3,139.4,424.6,139.3
		z M431.6,139.7l0-1c1.7,0.1,3.3,0.1,5,0.2l0,1C434.9,139.9,433.3,139.8,431.6,139.7z M438.6,140l0-1c1.6,0,3.2,0,4.9,0
		c0.1,0,0.1,0,0.1,0l0,1c-0.1,0-0.1,0-0.1,0C441.9,140,440.2,140,438.6,140z M445.6,140l0-1c1.6,0,3.3,0,5-0.1l0,1
		C449,140,447.3,140,445.6,140z M452.6,139.9l0-1c1.6-0.1,3.3-0.1,5-0.2l0,1C456,139.7,454.3,139.8,452.6,139.9z M459.6,139.6
		l-0.1-1c1.6-0.1,3.3-0.2,5-0.3l0.1,1C463,139.4,461.3,139.5,459.6,139.6z M466.7,139.1l-0.1-1c1.6-0.1,3.3-0.3,5-0.4l0.1,1
		C470,138.8,468.3,139,466.7,139.1z M473.6,138.5l-0.1-1c1.6-0.2,3.3-0.3,5-0.5l0.1,1C476.9,138.2,475.3,138.4,473.6,138.5z
		 M480.6,137.8l-0.1-1c1.6-0.2,3.3-0.4,5-0.6l0.1,1C483.9,137.4,482.2,137.6,480.6,137.8z M487.6,137l-0.1-1c1.6-0.2,3.3-0.4,5-0.7
		l0.1,1C490.9,136.5,489.2,136.7,487.6,137z M494.5,136l-0.1-1c1.6-0.2,3.3-0.5,4.9-0.7l0.2,1C497.8,135.5,496.1,135.8,494.5,136z
		 M501.5,135l-0.2-1c1.6-0.3,3.3-0.5,4.9-0.8l0.2,1C504.7,134.5,503.1,134.7,501.5,135z M508.4,133.9l-0.2-1
		c1.6-0.3,3.3-0.6,4.9-0.8l0.2,1C511.6,133.3,510,133.6,508.4,133.9z M515.3,132.7l-0.2-1c1.6-0.3,3.3-0.6,4.9-0.9l0.2,1
		C518.5,132.1,516.9,132.4,515.3,132.7z M522.2,131.4l-0.2-1c1.6-0.3,3.3-0.6,4.9-0.9l0.2,1C525.4,130.8,523.8,131.1,522.2,131.4z
		 M529,130.1l-0.2-1c1.6-0.3,3.2-0.6,4.9-1l0.2,1C532.3,129.4,530.7,129.8,529,130.1z M535.9,128.7l-0.2-1c1.6-0.3,3.2-0.7,4.9-1
		l0.2,1C539.1,128,537.5,128.4,535.9,128.7z M542.8,127.3l-0.2-1c1.6-0.3,3.2-0.7,4.9-1l0.2,1C546,126.6,544.4,126.9,542.8,127.3z
		 M549.6,125.8l-0.2-1c1.6-0.3,3.2-0.7,4.9-1.1l0.2,1C552.8,125.1,551.2,125.5,549.6,125.8z M556.4,124.3l-0.2-1
		c1.6-0.3,3.2-0.7,4.9-1.1l0.2,1C559.6,123.6,558,124,556.4,124.3z M563.3,122.8l-0.2-1c1.5-0.3,3-0.7,4.9-1.1l0.2,1
		C566.3,122.2,564.8,122.5,563.3,122.8z M570.1,121.3l-0.2-1c2.4-0.5,3.7-0.8,4.9-1.1l0.2,1C573.8,120.5,572.6,120.8,570.1,121.3z
		 M577,119.8l-0.2-1c1.8-0.4,3.4-0.7,4.9-1.1l0.2,1C580.3,119.1,578.7,119.4,577,119.8z M583.8,118.3l-0.2-1
		c1.7-0.4,3.3-0.7,4.9-1.1l0.2,1C587.1,117.6,585.5,117.9,583.8,118.3z M590.6,116.8l-0.2-1c1.7-0.4,3.3-0.7,4.9-1l0.2,1
		C593.9,116.1,592.3,116.4,590.6,116.8z M597.5,115.3l-0.2-1c1.7-0.4,3.3-0.7,4.9-1l0.2,1C600.8,114.6,599.1,115,597.5,115.3z
		 M604.3,113.9l-0.2-1c1.7-0.3,3.3-0.7,4.9-1l0.2,1C607.6,113.2,606,113.6,604.3,113.9z M611.2,112.6l-0.2-1
		c1.7-0.3,3.3-0.6,4.9-0.9l0.2,1C614.5,111.9,612.9,112.2,611.2,112.6z M618.1,111.3l-0.2-1c1.7-0.3,3.3-0.6,4.9-0.9l0.2,1
		C621.4,110.7,619.7,110.9,618.1,111.3z M624.9,110l-0.2-1c1.7-0.3,3.3-0.6,4.9-0.8l0.2,1C628.3,109.5,626.6,109.8,624.9,110z
		 M631.8,108.9l-0.1-1c1.7-0.3,3.3-0.5,5-0.7l0.1,1C635.2,108.4,633.5,108.7,631.8,108.9z M638.8,108l-0.1-1c1.7-0.2,3.3-0.4,5-0.6
		l0.1,1C642.1,107.5,640.5,107.7,638.8,108z M645.7,107.1l-0.1-1c1.7-0.2,3.4-0.3,5-0.5l0.1,1C649.1,106.8,647.4,107,645.7,107.1z
		 M652.7,106.5l-0.1-1c1.7-0.1,3.4-0.2,5-0.3l0,1C656,106.3,654.4,106.4,652.7,106.5z M659.7,106.1l0-1c1.7-0.1,3.4-0.1,5-0.1l0,1
		C663,106,661.3,106.1,659.7,106.1z M666.6,106v-1h4v1H666.6z M673.6,106v-1h5v1H673.6z M680.6,106v-1h5v1H680.6z M687.6,106v-1h3.9
		c0.4,0,0.8,0,1.2,0.1l-0.2,1c-0.3-0.1-0.7-0.1-1-0.1H687.6z M694.3,106.7l0.4-0.9c1.6,0.8,3,2.2,3.7,3.9l-0.9,0.4
		C696.9,108.6,695.8,107.4,694.3,106.7z M698,111.8l1-0.1c0,0.3,0,0.5,0,0.8c0,1.6-0.5,3.1-1.4,4.3l-0.8-0.6
		c0.8-1.1,1.2-2.4,1.2-3.7C698,112.3,698,112.1,698,111.8z M695.5,117.6l0.6,0.8c-1.3,1.1-3,1.6-4.7,1.6h-0.3v-1h0.3
		C693,119,694.4,118.5,695.5,117.6z M689.2,119v1h-5v-1H689.2z M682.2,119v1h-5v-1H682.2z M675.2,119v1h-3.8c-0.4,0-0.8,0-1.2,0l0-1
		c0.4,0,0.8,0,1.2,0H675.2z M668.2,119l0,1c-1.6,0-3.3,0.1-5,0.2l0-1C664.9,119.1,666.5,119.1,668.2,119z M661.2,119.3l0.1,1
		c-1.6,0.1-3.3,0.2-5,0.4l-0.1-1C657.9,119.5,659.5,119.4,661.2,119.3z M654.2,119.9l0.1,1c-1.6,0.2-3.3,0.3-5,0.5l-0.1-1
		C650.9,120.2,652.5,120,654.2,119.9z M647.2,120.6l0.1,1c-1.6,0.2-3.3,0.4-4.9,0.7l-0.1-1C643.9,121.1,645.6,120.8,647.2,120.6z
		 M640.2,121.6l0.1,1c-1.6,0.2-3.3,0.5-4.9,0.8l-0.2-1C637,122.1,638.6,121.8,640.2,121.6z M633.3,122.7l0.2,1
		c-1.6,0.3-3.3,0.6-4.9,0.9l-0.2-1C630.1,123.2,631.7,123,633.3,122.7z M626.4,123.9l0.2,1c-1.6,0.3-3.2,0.6-4.9,0.9l-0.2-1
		C623.2,124.5,624.8,124.2,626.4,123.9z M619.5,125.2l0.2,1c-1.6,0.3-3.2,0.7-4.9,1l-0.2-1C616.3,125.9,617.9,125.6,619.5,125.2z
		 M612.7,126.6l0.2,1c-1.6,0.3-3.2,0.7-4.9,1l-0.2-1C609.5,127.3,611.1,127,612.7,126.6z M605.8,128.1l0.2,1
		c-1.6,0.3-3.2,0.7-4.9,1.1l-0.2-1C602.6,128.8,604.2,128.5,605.8,128.1z M599,129.6l0.2,1c-1.6,0.4-3.2,0.7-4.9,1.1l-0.2-1
		C595.8,130.4,597.4,130,599,129.6z M592.2,131.2l0.2,1c-1.5,0.3-3.1,0.7-4.9,1.1l-0.2-1C589.1,131.9,590.6,131.5,592.2,131.2z
		 M585.3,132.8l0.2,1c-0.7,0.2-1.5,0.3-2.4,0.6c-1.2,0.3-1.2,0.3-2.4,0.6l-0.2-1c1.2-0.3,1.2-0.3,2.4-0.6
		C583.8,133.1,584.6,132.9,585.3,132.8z M578.5,134.3l0.2,1c-1.9,0.4-3.4,0.8-4.9,1.1l-0.2-1C575.1,135.1,576.7,134.8,578.5,134.3z
		 M571.7,135.9l0.2,1c-1.7,0.4-3.3,0.8-4.9,1.1l-0.2-1C568.4,136.7,570,136.3,571.7,135.9z M564.9,137.5l0.2,1
		c-1.7,0.4-3.3,0.7-4.9,1.1l-0.2-1C561.6,138.2,563.2,137.8,564.9,137.5z M558,139l0.2,1c-1.7,0.4-3.3,0.7-4.9,1.1l-0.2-1
		C554.8,139.7,556.4,139.4,558,139z M551.2,140.5l0.2,1c-1.7,0.4-3.3,0.7-4.9,1l-0.2-1C547.9,141.2,549.6,140.9,551.2,140.5z
		 M544.4,142l0.2,1c-1.7,0.3-3.3,0.7-4.9,1l-0.2-1C541.1,142.6,542.7,142.3,544.4,142z M537.5,143.4l0.2,1c-1.7,0.3-3.3,0.7-4.9,1
		l-0.2-1C534.2,144,535.9,143.7,537.5,143.4z M530.6,144.7l0.2,1c-1.7,0.3-3.3,0.6-4.9,0.9l-0.2-1C527.4,145.3,529,145,530.6,144.7z
		 M523.8,146l0.2,1c-1.7,0.3-3.3,0.6-4.9,0.9l-0.2-1C520.5,146.6,522.1,146.3,523.8,146z M516.9,147.2l0.2,1
		c-1.7,0.3-3.3,0.6-4.9,0.8l-0.2-1C513.6,147.8,515.2,147.5,516.9,147.2z M510,148.3l0.2,1c-1.7,0.3-3.3,0.5-4.9,0.8l-0.1-1
		C506.7,148.8,508.3,148.6,510,148.3z M503.1,149.4l0.1,1c-1.7,0.2-3.3,0.5-5,0.7l-0.1-1C499.8,149.8,501.4,149.6,503.1,149.4z
		 M496.1,150.3l0.1,1c-1.7,0.2-3.3,0.4-5,0.6l-0.1-1C492.8,150.8,494.5,150.5,496.1,150.3z M489.2,151.2l0.1,1
		c-1.7,0.2-3.3,0.4-5,0.5l-0.1-1C485.9,151.6,487.5,151.4,489.2,151.2z M482.2,151.9l0.1,1c-1.7,0.2-3.3,0.3-5,0.5l-0.1-1
		C478.9,152.3,480.6,152.1,482.2,151.9z M475.3,152.6l0.1,1c-1.7,0.1-3.3,0.3-5,0.4l-0.1-1C472,152.9,473.6,152.7,475.3,152.6z
		 M468.3,153.1l0.1,1c-1.7,0.1-3.3,0.2-5,0.3l-0.1-1C465,153.3,466.6,153.2,468.3,153.1z M461.3,153.5l0,1c-1.7,0.1-3.3,0.2-5,0.2
		l0-1C458,153.7,459.6,153.6,461.3,153.5z M454.3,153.8l0,1c-1.7,0.1-3.3,0.1-5,0.1l0-1C451,153.9,452.7,153.9,454.3,153.8z
		 M447.3,154l0,1c-1.6,0-3.2,0-4.8,0c-0.1,0-0.1,0-0.2,0l0-1c0.1,0,0.1,0,0.2,0C444.1,154,445.7,154,447.3,154z M440.3,154l0,1
		c-1.7,0-3.4,0-5-0.1l0-1C437,154,438.7,154,440.3,154z M433.4,153.9l0,1c-1.7,0-3.4-0.1-5-0.2l0-1
		C430,153.8,431.7,153.8,433.4,153.9z M426.4,153.6l-0.1,1c-1.7-0.1-3.4-0.2-5-0.3l0.1-1C423,153.4,424.7,153.5,426.4,153.6z
		 M419.4,153.2l-0.1,1c-1.7-0.1-3.3-0.3-5-0.4l0.1-1C416.1,152.9,417.7,153,419.4,153.2z M412.4,152.5l-0.1,1
		c-1.7-0.2-3.3-0.4-5-0.6l0.1-1C409.1,152.2,410.8,152.4,412.4,152.5z M405.5,151.7l-0.1,1c-1.7-0.2-3.3-0.4-5-0.7l0.1-1
		C402.2,151.3,403.8,151.5,405.5,151.7z M398.6,150.7l-0.2,1c-1.7-0.3-3.3-0.5-4.9-0.8l0.2-1C395.3,150.2,396.9,150.5,398.6,150.7z
		 M391.7,149.6l-0.2,1c-1.6-0.3-3.3-0.6-4.9-1l0.2-1C388.4,148.9,390.1,149.3,391.7,149.6z M384.8,148.2l-0.2,1
		c-1.6-0.4-3.3-0.7-4.9-1.1l0.2-1C381.6,147.5,383.2,147.8,384.8,148.2z M378,146.6l-0.2,1c-1.6-0.4-3.2-0.8-4.9-1.2l0.3-1
		C374.8,145.8,376.4,146.2,378,146.6z M371.3,144.9l-0.3,1c-1.6-0.4-3.2-0.9-4.8-1.3l0.3-1C368.1,144,369.7,144.4,371.3,144.9z
		 M364.5,143l-0.3,1c-1.6-0.5-3.2-0.9-4.8-1.4l0.3-1C361.4,142.1,363,142.5,364.5,143z M357.8,141l-0.3,1c-1.5-0.5-3.1-1-4.8-1.5
		l0.3-1C354.7,140,356.3,140.5,357.8,141z M351.2,138.9l-0.3,1c-1.4-0.4-2.9-0.9-4.8-1.5l0.3-1C348.3,138,349.7,138.4,351.2,138.9z
		 M344.5,136.8l-0.3,1c-2.3-0.7-3.4-1.1-4.8-1.5l0.3-1C341.1,135.7,342.2,136,344.5,136.8z M337.8,134.6l-0.3,1
		c-1.7-0.5-3.3-1-4.8-1.5l0.3-1C334.6,133.6,336.1,134.1,337.8,134.6z M331.1,132.5l-0.3,1c-1.6-0.5-3.2-1-4.8-1.4l0.3-1
		C327.9,131.6,329.5,132,331.1,132.5z M324.4,130.5l-0.3,1c-1.6-0.5-3.2-0.9-4.8-1.4l0.3-1C321.2,129.6,322.8,130.1,324.4,130.5z
		 M317.7,128.6l-0.3,1c-1.6-0.4-3.2-0.9-4.8-1.3l0.2-1C314.4,127.8,316,128.2,317.7,128.6z M310.9,126.9l-0.2,1
		c-1.6-0.4-3.2-0.8-4.9-1.1l0.2-1C307.6,126.1,309.2,126.5,310.9,126.9z M304,125.3l-0.2,1c-1.6-0.4-3.3-0.7-4.9-1l0.2-1
		C300.8,124.6,302.4,125,304,125.3z M297.2,123.9l-0.2,1c-1.6-0.3-3.3-0.6-4.9-0.9l0.2-1C293.9,123.3,295.5,123.6,297.2,123.9z
		 M290.3,122.7l-0.2,1c-1.6-0.3-3.3-0.5-4.9-0.8l0.1-1C287,122.2,288.6,122.4,290.3,122.7z M283.3,121.7l-0.1,1
		c-1.6-0.2-3.3-0.4-5-0.6l0.1-1C280,121.2,281.7,121.4,283.3,121.7z M276.4,120.8l-0.1,1c-1.6-0.2-3.3-0.3-5-0.5l0.1-1
		C273,120.5,274.7,120.6,276.4,120.8z M269.4,120.1l-0.1,1c-1.6-0.1-3.3-0.3-5-0.4l0.1-1C266.1,119.9,267.7,120,269.4,120.1z
		 M262.4,119.6l-0.1,1c-1.6-0.1-3.3-0.2-5-0.3l0-1C259.1,119.4,260.7,119.5,262.4,119.6z M255.4,119.3l0,1c-1.6-0.1-3.3-0.1-5-0.2
		l0-1C252.1,119.1,253.7,119.2,255.4,119.3z M248.4,119.1l0,1c-1.6,0-3.3-0.1-5-0.1l0-1C245.1,119,246.7,119,248.4,119.1z
		 M241.4,119v1h-5v-1H241.4z M234.4,119v1h-5v-1H234.4z M227.4,119v1h-5v-1H227.4z M220.4,119v1h-5v-1H220.4z"/>
	<path class="st11" d="M214.6,66c-0.2,0-0.3-0.1-0.4-0.2c-0.2-0.2-0.1-0.6,0.1-0.8l3.2-2.4l-3.2-2.4c-0.2-0.2-0.3-0.6-0.1-0.8
		c0.2-0.2,0.6-0.3,0.8-0.1l3.9,2.9c0.1,0.1,0.2,0.2,0.2,0.5s-0.1,0.3-0.2,0.5l-3.9,2.9C214.8,65.9,214.7,66,214.6,66z"/>
	<path id="Path-Copy-7" class="st11" d="M215.1,109c-0.2,0-0.3-0.1-0.4-0.2c-0.2-0.2-0.1-0.6,0.1-0.8l3.2-2.4l-3.2-2.4
		c-0.2-0.2-0.3-0.6-0.1-0.8c0.2-0.2,0.6-0.3,0.8-0.1l3.9,2.9c0.1,0.1,0.2,0.2,0.2,0.5c0,0.2-0.1,0.3-0.2,0.5l-3.9,2.9
		C215.3,108.9,215.2,109,215.1,109z"/>
	<path id="Path-Copy-6" class="st11" d="M346.6,66c-0.2,0-0.3-0.1-0.4-0.2c-0.2-0.2-0.1-0.6,0.1-0.8l3.2-2.4l-3.2-2.4
		c-0.2-0.2-0.3-0.6-0.1-0.8s0.6-0.3,0.8-0.1l3.9,2.9c0.1,0.1,0.2,0.2,0.2,0.5s-0.1,0.3-0.2,0.5l-3.9,2.9
		C346.8,65.9,346.7,66,346.6,66z"/>
	<path id="Path-Copy-2" class="st11" d="M446.6,143c-0.2,0-0.3-0.1-0.4-0.2c-0.2-0.2-0.1-0.6,0.1-0.8l3.2-2.4l-3.2-2.4
		c-0.2-0.2-0.3-0.6-0.1-0.8s0.6-0.3,0.8-0.1l3.9,2.9c0.1,0.1,0.2,0.2,0.2,0.5s-0.1,0.3-0.2,0.5l-3.9,2.9
		C446.8,142.9,446.7,143,446.6,143z"/>
	<path id="Path-Copy-4" class="st11" d="M667.6,109c-0.2,0-0.3-0.1-0.4-0.2c-0.2-0.2-0.1-0.6,0.1-0.8l3.2-2.4l-3.2-2.4
		c-0.2-0.2-0.3-0.6-0.1-0.8c0.2-0.2,0.6-0.3,0.8-0.1l3.9,2.9c0.1,0.1,0.2,0.2,0.2,0.5c0,0.2-0.1,0.3-0.2,0.5l-3.9,2.9
		C667.8,108.9,667.7,109,667.6,109z"/>
	<path id="Path-Copy-3" class="st11" d="M218.4,123c0.2,0,0.3-0.1,0.4-0.2c0.2-0.2,0.1-0.6-0.1-0.8l-3.2-2.4l3.2-2.4
		c0.2-0.2,0.3-0.6,0.1-0.8c-0.2-0.2-0.6-0.3-0.8-0.1l-3.9,2.9c-0.1,0.1-0.2,0.2-0.2,0.5c0,0.2,0.1,0.3,0.2,0.5l3.9,2.9
		C218.2,122.9,218.3,123,218.4,123z"/>
	<path id="Path-Copy-8" class="st11" d="M217.4,80c0.2,0,0.3-0.1,0.4-0.2c0.2-0.2,0.1-0.6-0.1-0.8l-3.2-2.4l3.2-2.4
		c0.2-0.2,0.3-0.6,0.1-0.8c-0.2-0.2-0.6-0.3-0.8-0.1l-3.9,2.9c-0.1,0.1-0.2,0.2-0.2,0.5c0,0.2,0.1,0.3,0.2,0.5l3.9,2.9
		C217.2,79.9,217.3,80,217.4,80z"/>
	<path id="Path-Copy-5" class="st11" d="M439.4,158c0.2,0,0.3-0.1,0.4-0.2c0.2-0.2,0.1-0.6-0.1-0.8l-3.2-2.4l3.2-2.4
		c0.2-0.2,0.3-0.6,0.1-0.8s-0.6-0.3-0.8-0.1l-3.9,2.9c-0.1,0.1-0.2,0.2-0.2,0.5s0.1,0.3,0.2,0.5l3.9,2.9
		C439.2,157.9,439.3,158,439.4,158z"/>
	<polygon id="Path-7" class="st3" points="317,33 317,32 338.1,32 357,50.3 356.3,51 337.7,33 	"/>
	<polygon id="Path-7-Copy" class="st3" points="628,77 628,76 656.1,76 675,94.3 674.3,95 655.7,77 	"/>
	<rect id="Rectangle-Copy-6" x="368" y="54" class="st12" width="16" height="31"/>
	<rect id="Rectangle-Copy-7" x="686" y="97" class="st12" width="16" height="31"/>
	<g>
		<g>
			<path id="path-9" class="st2" d="M176.2,76v-0.9h1.9V69h-1.5v-0.7c0.4-0.1,0.7-0.2,1-0.3s0.5-0.2,0.8-0.4h0.8v7.4h1.7V76H176.2z
				 M183.2,76.2c-0.2,0-0.4-0.1-0.6-0.2c-0.2-0.2-0.2-0.3-0.2-0.6c0-0.3,0.1-0.5,0.2-0.6c0.2-0.2,0.3-0.2,0.6-0.2
				c0.2,0,0.4,0.1,0.5,0.2c0.2,0.2,0.2,0.4,0.2,0.6c0,0.2-0.1,0.4-0.2,0.6C183.6,76.1,183.4,76.2,183.2,76.2z"/>
		</g>
		<g>
			<path class="st3" d="M176.2,76v-0.9h1.9V69h-1.5v-0.7c0.4-0.1,0.7-0.2,1-0.3s0.5-0.2,0.8-0.4h0.8v7.4h1.7V76H176.2z M183.2,76.2
				c-0.2,0-0.4-0.1-0.6-0.2c-0.2-0.2-0.2-0.3-0.2-0.6c0-0.3,0.1-0.5,0.2-0.6c0.2-0.2,0.3-0.2,0.6-0.2c0.2,0,0.4,0.1,0.5,0.2
				c0.2,0.2,0.2,0.4,0.2,0.6c0,0.2-0.1,0.4-0.2,0.6C183.6,76.1,183.4,76.2,183.2,76.2z"/>
		</g>
	</g>
	<g>
		<g>
			<path id="path-10" class="st2" d="M175.7,115v-0.6c0.6-0.6,1.2-1.2,1.7-1.7c0.5-0.5,0.9-1,1.2-1.4c0.3-0.4,0.6-0.8,0.8-1.2
				c0.2-0.4,0.3-0.7,0.3-1c0-0.5-0.1-0.9-0.4-1.2s-0.7-0.5-1.2-0.5c-0.3,0-0.7,0.1-1,0.3c-0.3,0.2-0.6,0.4-0.8,0.7l-0.6-0.6
				c0.3-0.4,0.7-0.7,1.1-0.9s0.9-0.3,1.4-0.3c0.8,0,1.4,0.2,1.8,0.7s0.7,1,0.7,1.8c0,0.4-0.1,0.8-0.3,1.2c-0.2,0.4-0.4,0.8-0.7,1.2
				s-0.7,0.9-1.1,1.3c-0.4,0.5-0.9,0.9-1.4,1.4c0.2,0,0.5,0,0.7-0.1c0.2,0,0.5,0,0.7,0h2.4v0.9H175.7z M183.2,115.2
				c-0.2,0-0.4-0.1-0.6-0.2c-0.2-0.2-0.2-0.3-0.2-0.6c0-0.3,0.1-0.5,0.2-0.6c0.2-0.2,0.3-0.2,0.6-0.2c0.2,0,0.4,0.1,0.5,0.2
				c0.2,0.2,0.2,0.4,0.2,0.6c0,0.2-0.1,0.4-0.2,0.6C183.6,115.1,183.4,115.2,183.2,115.2z"/>
		</g>
		<g>
			<path class="st3" d="M175.7,115v-0.6c0.6-0.6,1.2-1.2,1.7-1.7c0.5-0.5,0.9-1,1.2-1.4c0.3-0.4,0.6-0.8,0.8-1.2
				c0.2-0.4,0.3-0.7,0.3-1c0-0.5-0.1-0.9-0.4-1.2s-0.7-0.5-1.2-0.5c-0.3,0-0.7,0.1-1,0.3c-0.3,0.2-0.6,0.4-0.8,0.7l-0.6-0.6
				c0.3-0.4,0.7-0.7,1.1-0.9s0.9-0.3,1.4-0.3c0.8,0,1.4,0.2,1.8,0.7s0.7,1,0.7,1.8c0,0.4-0.1,0.8-0.3,1.2c-0.2,0.4-0.4,0.8-0.7,1.2
				s-0.7,0.9-1.1,1.3c-0.4,0.5-0.9,0.9-1.4,1.4c0.2,0,0.5,0,0.7-0.1c0.2,0,0.5,0,0.7,0h2.4v0.9H175.7z M183.2,115.2
				c-0.2,0-0.4-0.1-0.6-0.2c-0.2-0.2-0.2-0.3-0.2-0.6c0-0.3,0.1-0.5,0.2-0.6c0.2-0.2,0.3-0.2,0.6-0.2c0.2,0,0.4,0.1,0.5,0.2
				c0.2,0.2,0.2,0.4,0.2,0.6c0,0.2-0.1,0.4-0.2,0.6C183.6,115.1,183.4,115.2,183.2,115.2z"/>
		</g>
	</g>
</g>
</svg>
