<?xml version="1.0" encoding="utf-8"?>
<!-- Generator: Adobe Illustrator 22.1.0, SVG Export Plug-In . SVG Version: 6.00 Build 0)  -->
<!DOCTYPE svg PUBLIC "-//W3C//DTD SVG 1.1//EN" "http://www.w3.org/Graphics/SVG/1.1/DTD/svg11.dtd" [
<!ENTITY st0 "fill:#8D4390;">
<!ENTITY st1 "fill:#22B3CC;">
<!ENTITY st2 "fill:#E3EFFA;">
<!ENTITY st3 "fill:#ECEDF2;">
<!ENTITY st4 "fill:#BAC0CF;">
<!ENTITY st5 "fill:#FFFFFF;">
<!ENTITY st6 "fill:#9A9FAF;">
<!ENTITY st7 "fill:#4CABE9;">
<!ENTITY st8 "fill:#E16B5A;">
<!ENTITY st9 "fill:#FFD464;">
<!ENTITY st10 "fill:#74B340;">
<!ENTITY st11 "fill:#2995CC;">
<!ENTITY st12 "fill:#2179A6;">
<!ENTITY st13 "fill:#E78244;">
<!ENTITY st14 "fill:#4899EF;">
<!ENTITY st15 "fill:#F5F5F5;">
<!ENTITY st16 "fill:#E6E6E6;">
<!ENTITY st17 "opacity:0.8;">
<!ENTITY st18 "fill:#9BC13C;">
<!ENTITY st19 "fill:#E7703F;">
<!ENTITY st20 "fill:#4FB2EC;">
<!ENTITY st21 "fill:#F6C443;">
<!ENTITY st22 "fill:#71B1E4;">
<!ENTITY st23 "fill:#F7931E;">
]>
<svg xmlns="http://www.w3.org/2000/svg" xmlns:xlink="http://www.w3.org/1999/xlink" version="1.1" id="Layer_1" x="0px" y="0px" width="532px" height="481px" viewBox="0 0 532 481" style="enable-background:new 0 0 532 481;" xml:space="preserve">
<polygon style="&st0;" points="206,162.8238983 206,164.8238983 208,164.8238983 294,164.8238983 294,162.8238983 208,162.8238983   208,42.8238945 144,42.8238945 144,44.8238945 206,44.8238945 "/>
<g>
	<path style="&st0;" d="M52.4306641,33.0927734h2.8554688l4.4726562,13.7314453h-2.5615234l-1.0712891-3.7158203h-4.6191406   l-1.0703125,3.7158203h-2.4775391L52.4306641,33.0927734z M52.0742188,41.1972656h3.5068359l-0.4833984-1.6796875   c-0.4404297-1.4482422-0.8398438-3.0234375-1.2392578-4.5351562h-0.0839844   c-0.3769531,1.5332031-0.7763672,3.0869141-1.2167969,4.5351562L52.0742188,41.1972656z"/>
	<path style="&st0;" d="M60.5791016,41.6806641c0-3.4433594,2.4150391-5.4169922,5.1660156-5.4169922   c1.3222656,0,2.2675781,0.5039062,3.0234375,1.1542969l-1.1757812,1.5751953   c-0.546875-0.4833984-1.0712891-0.7558594-1.7226562-0.7558594c-1.6582031,0-2.8125,1.3642578-2.8125,3.4433594   c0,2.0576172,1.1328125,3.421875,2.75,3.421875c0.7978516,0,1.5332031-0.3984375,2.1210938-0.8818359l0.9863281,1.5957031   c-0.9658203,0.8398438-2.1835938,1.2597656-3.359375,1.2597656C62.7421875,47.0761719,60.5791016,45.1025391,60.5791016,41.6806641   z"/>
	<path style="&st0;" d="M70.1982422,44.0527344c0-2.2041016,1.8261719-3.359375,6.0673828-3.8212891   c-0.0419922-1.0917969-0.4833984-2.015625-1.8896484-2.015625c-1.0078125,0-1.9736328,0.4619141-2.8974609,1.0078125   l-0.8818359-1.6162109c1.1337891-0.7138672,2.6035156-1.34375,4.2412109-1.34375   c2.5615234,0,3.8427734,1.5742188,3.8427734,4.4511719v6.109375h-1.9951172l-0.1679688-1.1337891h-0.0839844   c-0.9238281,0.7773438-1.9736328,1.3857422-3.1914062,1.3857422   C71.4365234,47.0761719,70.1982422,45.8583984,70.1982422,44.0527344z M76.265625,44.0527344v-2.3095703   c-2.8134766,0.3574219-3.7373047,1.0917969-3.7373047,2.1210938c0,0.9238281,0.6298828,1.3222656,1.4902344,1.3222656   C74.8583984,45.1865234,75.4892578,44.7666016,76.265625,44.0527344z"/>
	<path style="&st0;" d="M80.9501953,41.6806641c0-3.359375,2.1201172-5.4169922,4.3671875-5.4169922   c1.1757812,0,1.9101562,0.4404297,2.7080078,1.1337891l-0.0839844-1.6591797v-3.7373047h2.4150391v14.8232422h-1.9951172   l-0.1679688-1.1123047H88.109375c-0.7558594,0.7558594-1.8056641,1.3642578-2.9189453,1.3642578   C82.6083984,47.0761719,80.9501953,45.0820312,80.9501953,41.6806641z M87.9414062,43.9267578v-4.8076172   c-0.7138672-0.6298828-1.4072266-0.8613281-2.0996094-0.8613281c-1.3232422,0-2.3935547,1.2392578-2.3935547,3.4013672   c0,2.2255859,0.8398438,3.4228516,2.3300781,3.4228516C86.5771484,45.0820312,87.2490234,44.7246094,87.9414062,43.9267578z"/>
	<path style="&st0;" d="M92.7509766,41.6806641c0-3.359375,2.3310547-5.4169922,4.7460938-5.4169922   c2.7919922,0,4.2617188,2.015625,4.2617188,4.8916016c0,0.4619141-0.0419922,0.9238281-0.1054688,1.1757812h-6.5507812   c0.2109375,1.8271484,1.3867188,2.8769531,3.0449219,2.8769531c0.8818359,0,1.6376953-0.2734375,2.3935547-0.7558594   l0.8193359,1.5117188c-0.9873047,0.6503906-2.2265625,1.1123047-3.5273438,1.1123047   C94.9775391,47.0761719,92.7509766,45.0820312,92.7509766,41.6806641z M99.6591797,40.6933594   c0-1.5957031-0.6933594-2.5615234-2.0996094-2.5615234c-1.2177734,0-2.2675781,0.9033203-2.4775391,2.5615234H99.6591797z"/>
	<path style="&st0;" d="M104.0693359,36.515625h1.9951172l0.1679688,1.40625h0.0839844   c0.8603516-0.9238281,1.8681641-1.6582031,3.1494141-1.6582031c1.5117188,0,2.3730469,0.6923828,2.8554688,1.8476562   c0.9863281-1.0498047,2.015625-1.8476562,3.3173828-1.8476562c2.1835938,0,3.1914062,1.4902344,3.1914062,4.09375v6.4667969   h-2.4355469v-6.1513672c0-1.7011719-0.5039062-2.3310547-1.5751953-2.3310547c-0.6503906,0-1.3642578,0.4199219-2.1621094,1.28125   v7.2011719h-2.4140625v-6.1513672c0-1.7011719-0.5039062-2.3310547-1.5957031-2.3310547   c-0.6308594,0-1.3652344,0.4199219-2.1630859,1.28125v7.2011719h-2.4150391V36.515625z"/>
	<path style="&st0;" d="M121.5,33.3447266c0-0.8183594,0.6298828-1.3857422,1.4912109-1.3857422   c0.8603516,0,1.4902344,0.5673828,1.4902344,1.3857422c0,0.7978516-0.6298828,1.3652344-1.4902344,1.3652344   C122.1298828,34.7099609,121.5,34.1425781,121.5,33.3447266z M121.7724609,36.515625H124.1875v10.3085938h-2.4150391V36.515625z"/>
	<path style="&st0;" d="M126.6025391,41.6806641c0-3.4433594,2.4150391-5.4169922,5.1660156-5.4169922   c1.3222656,0,2.2675781,0.5039062,3.0234375,1.1542969l-1.1757812,1.5751953   c-0.546875-0.4833984-1.0712891-0.7558594-1.7226562-0.7558594c-1.6582031,0-2.8125,1.3642578-2.8125,3.4433594   c0,2.0576172,1.1328125,3.421875,2.75,3.421875c0.7978516,0,1.5332031-0.3984375,2.1210938-0.8818359l0.9863281,1.5957031   c-0.9658203,0.8398438-2.1835938,1.2597656-3.359375,1.2597656   C128.765625,47.0761719,126.6025391,45.1025391,126.6025391,41.6806641z"/>
</g>
<polygon style="&st1;" points="108,10.8238935 108,14.8238935 528,14.8238935 528,476.8238831 4,476.8238831 4,14.8238935   16,14.8238935 16,10.8238935 0,10.8238935 0,480.8238831 532,480.8238831 532,10.8238935 "/>
<g>
	<path style="&st1;" d="M23.7431641,1.0917969h4.3261719c3.0439453,0,5.3115234,1.0498047,5.3115234,4.2412109   c0,3.0449219-2.2675781,4.4511719-5.2275391,4.4511719h-1.9746094v5.0390625h-2.4355469V1.0917969z M27.9638672,7.8320312   c2.0371094,0,3.0234375-0.8193359,3.0234375-2.4990234c0-1.7216797-1.0703125-2.2880859-3.1074219-2.2880859h-1.7011719v4.7871094   H27.9638672z"/>
	<path style="&st1;" d="M34.6220703,9.6796875c0-3.359375,2.3300781-5.4169922,4.7441406-5.4169922   c2.7929688,0,4.2626953,2.015625,4.2626953,4.8916016c0,0.4619141-0.0419922,0.9238281-0.1044922,1.1757812h-6.5507812   c0.2089844,1.8271484,1.3847656,2.8769531,3.0439453,2.8769531c0.8818359,0,1.6376953-0.2734375,2.3935547-0.7558594   l0.8183594,1.5117188c-0.9863281,0.6503906-2.2246094,1.1123047-3.5273438,1.1123047   C36.8466797,15.0751953,34.6220703,13.0810547,34.6220703,9.6796875z M41.5292969,8.6923828   c0-1.5957031-0.6923828-2.5615234-2.0996094-2.5615234c-1.2177734,0-2.2675781,0.9033203-2.4775391,2.5615234H41.5292969z"/>
	<path style="&st1;" d="M45.9404297,4.5146484h1.9941406l0.1679688,1.8261719h0.0839844   c0.734375-1.34375,1.8261719-2.078125,2.9179688-2.078125c0.5253906,0,0.8613281,0.0625,1.1757812,0.2099609l-0.4199219,2.0996094   c-0.3564453-0.1054688-0.6289062-0.1679688-1.0703125-0.1679688c-0.8183594,0-1.8056641,0.5664062-2.4355469,2.1201172v6.2988281   h-2.4140625V4.5146484z"/>
	<path style="&st1;" d="M52.6181641,13.6474609l1.1337891-1.5537109c0.9238281,0.7138672,1.8056641,1.1552734,2.8554688,1.1552734   c1.1123047,0,1.6376953-0.5253906,1.6376953-1.2392578c0-0.8603516-1.1132812-1.2382812-2.2050781-1.6582031   c-1.3642578-0.5039062-2.8964844-1.28125-2.8964844-3.0029297c0-1.8056641,1.4482422-3.0859375,3.7578125-3.0859375   c1.4277344,0,2.5820312,0.5878906,3.421875,1.2382812l-1.1123047,1.4697266   c-0.7138672-0.5244141-1.4482422-0.8818359-2.2675781-0.8818359c-1.0283203,0-1.5117188,0.4833984-1.5117188,1.1337891   c0,0.8193359,1.0283203,1.1337891,2.1416016,1.5332031c1.40625,0.5244141,2.9609375,1.1962891,2.9609375,3.1279297   c0,1.7636719-1.4072266,3.1914062-4.0107422,3.1914062C55.1162109,15.0751953,53.6259766,14.4667969,52.6181641,13.6474609z"/>
	<path style="&st1;" d="M62.0263672,9.6796875c0-3.4433594,2.3300781-5.4169922,4.8916016-5.4169922   c2.5830078,0,4.9130859,1.9736328,4.9130859,5.4169922c0,3.421875-2.3300781,5.3955078-4.9130859,5.3955078   C64.3564453,15.0751953,62.0263672,13.1015625,62.0263672,9.6796875z M69.3535156,9.6796875   c0-2.0791016-0.9238281-3.4433594-2.4355469-3.4433594s-2.4150391,1.3642578-2.4150391,3.4433594   c0,2.0576172,0.9033203,3.421875,2.4150391,3.421875S69.3535156,11.7373047,69.3535156,9.6796875z"/>
	<path style="&st1;" d="M74.2275391,4.5146484h1.9941406l0.1679688,1.3857422h0.0839844   c0.9238281-0.9033203,1.9736328-1.6376953,3.3808594-1.6376953c2.2041016,0,3.1699219,1.4902344,3.1699219,4.09375v6.4667969   h-2.4140625V8.671875c0-1.7011719-0.4833984-2.3310547-1.6171875-2.3310547c-0.9023438,0-1.4902344,0.4414062-2.3515625,1.28125   v7.2011719h-2.4140625V4.5146484z"/>
	<path style="&st1;" d="M85.4404297,12.0517578c0-2.2041016,1.8271484-3.359375,6.0683594-3.8212891   c-0.0419922-1.0917969-0.4824219-2.015625-1.8896484-2.015625c-1.0078125,0-1.9736328,0.4619141-2.8974609,1.0078125   l-0.8818359-1.6162109c1.1337891-0.7138672,2.6035156-1.34375,4.2412109-1.34375   c2.5615234,0,3.8417969,1.5742188,3.8417969,4.4511719v6.109375h-1.9941406l-0.1679688-1.1337891h-0.0839844   c-0.9238281,0.7773438-1.9736328,1.3857422-3.1914062,1.3857422   C86.6796875,15.0751953,85.4404297,13.8574219,85.4404297,12.0517578z M91.5087891,12.0517578V9.7421875   c-2.8134766,0.3574219-3.7373047,1.0917969-3.7373047,2.1210938c0,0.9238281,0.6298828,1.3222656,1.4912109,1.3222656   C90.1025391,13.1855469,90.7314453,12.765625,91.5087891,12.0517578z"/>
	<path style="&st1;" d="M96.8232422,12.1777344V0h2.4140625v12.3037109c0,0.5878906,0.2734375,0.7978516,0.5253906,0.7978516   c0.1044922,0,0.1884766,0,0.3769531-0.0419922l0.3154297,1.8056641c-0.2939453,0.1259766-0.7138672,0.2099609-1.2802734,0.2099609   C97.4521484,15.0751953,96.8232422,13.9628906,96.8232422,12.1777344z"/>
</g>
<g>
	<rect x="302" y="162.8238983" style="&st0;" width="137.894043" height="2"/>
	<polygon style="&st0;" points="447.894043,162.8238983 447.894043,164.8238983 498.0522461,164.8238983 498.0522461,440.8238831    33.9990234,440.8238831 33.9990234,44.8238945 40,44.8238945 40,42.8238945 31.9990234,42.8238945 31.9990234,442.8238831    500.0522461,442.8238831 500.0522461,162.8238983  "/>
</g>
<g>
	<path id="XMLID_5_" style="&st4;" d="M379.2219238,381.6106873H152.7780914c-2.7614288,0-5-2.2385864-5-5V229.8447723   c0-2.7614288,2.2385712-5,5-5h226.4438324c2.7614136,0,5,2.2385712,5,5v146.7659149   C384.2219238,379.3721008,381.9833374,381.6106873,379.2219238,381.6106873z"/>
	<rect id="XMLID_4_" x="158.4666748" y="235.5332031" style="&st5;" width="215.0666656" height="114.4569244"/>
	<path id="XMLID_3_" style="&st3;" d="M307.4741821,414.8238831h-82.948349l0,0   c0-4.8372803,3.9213867-8.7586975,8.7586823-8.7586975h65.4309692   C303.5527954,406.0651855,307.4741821,409.9866028,307.4741821,414.8238831L307.4741821,414.8238831z"/>
	<rect id="XMLID_2_" x="246.7491608" y="381.6106873" style="&st4;" width="38.5016632" height="24.4545059"/>
	<rect id="XMLID_1_" x="246.7491608" y="381.6106873" style="&st6;" width="38.5016632" height="9.3123455"/>
	<path style="&st3;" d="M379.2219238,382.4687805H152.7780914c-2.7614288,0-5-2.2385559-5-5v-15.789917h236.4438324v15.789917   C384.2219238,380.2302246,381.9833374,382.4687805,379.2219238,382.4687805z"/>
	<g>
		<path d="M209.59375,274.3134766h1.7392578v8.3398438h4.0800781v1.4697266H209.59375V274.3134766z"/>
		<path d="M216.2988281,280.4482422c0-2.4599609,1.6640625-3.8701172,3.4941406-3.8701172    c1.8457031,0,3.5097656,1.4101562,3.5097656,3.8701172c0,2.4453125-1.6640625,3.8544922-3.5097656,3.8544922    C217.9628906,284.3027344,216.2988281,282.8935547,216.2988281,280.4482422z M221.5332031,280.4482422    c0-1.4853516-0.6601562-2.4599609-1.7402344-2.4599609s-1.7246094,0.9746094-1.7246094,2.4599609    c0,1.4697266,0.6445312,2.4453125,1.7246094,2.4453125S221.5332031,281.9179688,221.5332031,280.4482422z"/>
		<path d="M224.5185547,285.4580078c0-0.6152344,0.375-1.1552734,1.0498047-1.5751953v-0.0595703    c-0.375-0.2402344-0.6601562-0.6298828-0.6601562-1.2304688c0-0.5693359,0.390625-1.0644531,0.8105469-1.3642578v-0.0605469    c-0.4951172-0.375-0.9609375-1.0800781-0.9609375-1.9501953c0-1.6943359,1.3652344-2.6396484,2.9101562-2.6396484    c0.4052734,0,0.7802734,0.0751953,1.0800781,0.1806641h2.640625v1.2744141h-1.3505859    c0.2402344,0.2851562,0.4199219,0.7353516,0.4199219,1.2451172c0,1.6347656-1.2294922,2.5048828-2.7900391,2.5048828    c-0.3144531,0-0.6748047-0.0605469-1.0039062-0.1953125c-0.2255859,0.1953125-0.3613281,0.375-0.3613281,0.7050781    c0,0.4199219,0.3007812,0.6748047,1.2011719,0.6748047h1.3046875c1.7695312,0,2.6992188,0.5400391,2.6992188,1.8154297    c0,1.4550781-1.5292969,2.5947266-3.9296875,2.5947266C225.8232422,287.3779297,224.5185547,286.7480469,224.5185547,285.4580078z     M229.84375,285.0683594c0-0.5703125-0.4648438-0.7353516-1.3056641-0.7353516h-1.0048828    c-0.4042969,0-0.7197266-0.0302734-1.0048828-0.1044922c-0.3896484,0.2998047-0.5693359,0.6298828-0.5693359,0.9746094    c0,0.6601562,0.71875,1.0498047,1.8886719,1.0498047C229.0332031,286.2529297,229.84375,285.6982422,229.84375,285.0683594z     M228.9433594,279.2177734c0-0.9140625-0.5546875-1.4541016-1.2753906-1.4541016    c-0.7197266,0-1.2890625,0.5244141-1.2890625,1.4541016c0,0.9453125,0.5693359,1.4853516,1.2890625,1.4853516    C228.3730469,280.703125,228.9433594,280.1630859,228.9433594,279.2177734z"/>
		<path d="M232.6181641,274.4931641c0-0.5849609,0.4501953-0.9892578,1.0654297-0.9892578s1.0644531,0.4042969,1.0644531,0.9892578    c0,0.5703125-0.4492188,0.9755859-1.0644531,0.9755859S232.6181641,275.0634766,232.6181641,274.4931641z M232.8125,276.7587891    h1.7255859v7.3642578H232.8125V276.7587891z"/>
		<path d="M236.7421875,276.7587891h1.4257812l0.1201172,0.9892578h0.0595703    c0.6601562-0.6445312,1.4101562-1.1699219,2.4150391-1.1699219c1.5751953,0,2.2646484,1.0654297,2.2646484,2.9248047v4.6201172    h-1.7246094v-4.3945312c0-1.2148438-0.3457031-1.6650391-1.1542969-1.6650391    c-0.6455078,0-1.0654297,0.3144531-1.6806641,0.9150391v5.1445312h-1.7255859V276.7587891z"/>
		<path d="M244.6621094,280.4482422c0-2.4599609,1.6660156-3.8701172,3.4960938-3.8701172    c1.84375,0,3.5097656,1.4101562,3.5097656,3.8701172c0,2.4453125-1.6660156,3.8544922-3.5097656,3.8544922    C246.328125,284.3027344,244.6621094,282.8935547,244.6621094,280.4482422z M249.8974609,280.4482422    c0-1.4853516-0.6591797-2.4599609-1.7392578-2.4599609s-1.7255859,0.9746094-1.7255859,2.4599609    c0,1.4697266,0.6455078,2.4453125,1.7255859,2.4453125S249.8974609,281.9179688,249.8974609,280.4482422z"/>
		<path d="M253.3769531,276.7587891h1.4257812l0.1201172,1.0048828h0.0595703    c0.6152344-0.6601562,1.3349609-1.1855469,2.25-1.1855469c1.0800781,0,1.6953125,0.4951172,2.0400391,1.3203125    c0.7050781-0.75,1.4404297-1.3203125,2.3701172-1.3203125c1.5595703,0,2.2792969,1.0654297,2.2792969,2.9248047v4.6201172    h-1.7402344v-4.3945312c0-1.2148438-0.359375-1.6650391-1.125-1.6650391c-0.4648438,0-0.9746094,0.2998047-1.5449219,0.9150391    v5.1445312h-1.7246094v-4.3945312c0-1.2148438-0.359375-1.6650391-1.1396484-1.6650391    c-0.4501953,0-0.9755859,0.2998047-1.5449219,0.9150391v5.1445312h-1.7255859V276.7587891z"/>
		<path d="M269.1728516,274.3134766h2.6240234c3,0,4.7705078,1.6201172,4.7705078,4.859375    c0,3.2548828-1.7705078,4.9501953-4.6796875,4.9501953h-2.7148438V274.3134766z M271.6777344,282.7128906    c1.9804688,0,3.1044922-1.125,3.1044922-3.5400391c0-2.3994141-1.1240234-3.4492188-3.1044922-3.4492188h-0.765625v6.9892578    H271.6777344z"/>
		<path d="M277.9179688,280.4482422c0-2.4003906,1.6640625-3.8701172,3.3896484-3.8701172    c1.9951172,0,3.0449219,1.4404297,3.0449219,3.4951172c0,0.3300781-0.0302734,0.6601562-0.0751953,0.8398438h-4.6796875    c0.1503906,1.3046875,0.9902344,2.0546875,2.1748047,2.0546875c0.6298828,0,1.1699219-0.1943359,1.7099609-0.5400391    l0.5849609,1.0800781c-0.7050781,0.4648438-1.5898438,0.7949219-2.5205078,0.7949219    C279.5078125,284.3027344,277.9179688,282.8779297,277.9179688,280.4482422z M282.8525391,279.7431641    c0-1.1396484-0.4951172-1.8300781-1.5-1.8300781c-0.8701172,0-1.6201172,0.6455078-1.7705078,1.8300781H282.8525391z"/>
		<path d="M285.2675781,283.2832031l0.8105469-1.1103516c0.6601562,0.5107422,1.2890625,0.8251953,2.0390625,0.8251953    c0.7949219,0,1.1699219-0.375,1.1699219-0.8847656c0-0.6152344-0.7949219-0.8847656-1.5742188-1.1855469    c-0.9746094-0.359375-2.0703125-0.9140625-2.0703125-2.1445312c0-1.2900391,1.0351562-2.2050781,2.6855469-2.2050781    c1.0195312,0,1.84375,0.4199219,2.4443359,0.8847656l-0.7949219,1.0507812    c-0.5097656-0.375-1.0351562-0.6308594-1.6201172-0.6308594c-0.734375,0-1.0800781,0.3457031-1.0800781,0.8105469    c0,0.5849609,0.7353516,0.8095703,1.5302734,1.0947266c1.0048828,0.375,2.1142578,0.8554688,2.1142578,2.2353516    c0,1.2597656-1.0039062,2.2792969-2.8642578,2.2792969C287.0527344,284.3027344,285.9882812,283.8681641,285.2675781,283.2832031z    "/>
		<path d="M292.4667969,273.5332031h1.6953125v6.6152344h0.0449219l2.7304688-3.3896484h1.8896484l-2.5205078,2.9990234    l2.7753906,4.3652344h-1.875l-1.8896484-3.1953125l-1.1552734,1.3203125v1.875h-1.6953125V273.5332031z"/>
		<path d="M300.1328125,281.6328125v-3.5097656h-1.0507812v-1.2900391l1.140625-0.0742188l0.2089844-2.0107422h1.4404297v2.0107422    h1.875v1.3642578h-1.875v3.5097656c0,0.8701172,0.3300781,1.2900391,1.0351562,1.2900391    c0.2548828,0,0.5546875-0.0751953,0.7646484-0.1650391l0.3007812,1.2753906c-0.40625,0.1347656-0.9160156,0.2695312-1.5,0.2695312    C300.7617188,284.3027344,300.1328125,283.2226562,300.1328125,281.6328125z"/>
		<path d="M304.5722656,280.4482422c0-2.4599609,1.6650391-3.8701172,3.4951172-3.8701172    c1.8447266,0,3.5097656,1.4101562,3.5097656,3.8701172c0,2.4453125-1.6650391,3.8544922-3.5097656,3.8544922    C306.2373047,284.3027344,304.5722656,282.8935547,304.5722656,280.4482422z M309.8066406,280.4482422    c0-1.4853516-0.6591797-2.4599609-1.7392578-2.4599609s-1.7255859,0.9746094-1.7255859,2.4599609    c0,1.4697266,0.6455078,2.4453125,1.7255859,2.4453125S309.8066406,281.9179688,309.8066406,280.4482422z"/>
		<path d="M313.2871094,276.7587891h1.4257812l0.1191406,0.7792969h0.0605469    c0.6152344-0.5244141,1.4101562-0.9599609,2.2197266-0.9599609c1.8291016,0,2.8945312,1.4697266,2.8945312,3.75    c0,2.5195312-1.5146484,3.9746094-3.1494141,3.9746094c-0.6445312,0-1.2900391-0.2998047-1.890625-0.8095703l0.0449219,1.2294922    v2.3105469h-1.7246094V276.7587891z M318.2226562,280.3427734c0-1.4697266-0.4804688-2.3398438-1.5898438-2.3398438    c-0.5410156,0-1.0507812,0.2705078-1.6210938,0.8251953v3.4345703c0.5410156,0.4501953,1.0507812,0.6152344,1.4853516,0.6152344    C317.4726562,282.8779297,318.2226562,282.0078125,318.2226562,280.3427734z"/>
	</g>
	<g>
		<g>
			<g>
				<path style="&st7;" d="M254.090744,311.134552l-2.0940857-8.2635803h1.1316223l0.98349,4.181488      c0.2379913,1.0332031,0.4597168,2.0568237,0.605957,2.8568115h0.0296326      c0.1338043-0.8205261,0.3928223-1.806427,0.6719055-2.8692322l1.1096344-4.1690674h1.105835l1.0102539,4.1877136      c0.2303467,0.9896851,0.4530334,1.9631348,0.5801392,2.8338623h0.0267639      c0.1643982-0.9051208,0.3937683-1.8264771,0.651825-2.8548889l1.0924683-4.166687h1.0962524l-2.345459,8.2635803h-1.1144104      l-1.0398865-4.2999878c-0.2618713-1.0637817-0.4348755-1.8675842-0.5466919-2.7029419h-0.0238953      c-0.1366882,0.8291321-0.3297424,1.6324768-0.6365356,2.7015076l-1.1698761,4.3014221H254.090744z"/>
				<path style="&st7;" d="M264.9500732,303.5290222c0.0009766,0.3665466-0.2570801,0.6699829-0.6862183,0.6699829      c-0.3899536,0-0.6518555-0.3034363-0.6508789-0.6699829c-0.0009766-0.3703613,0.2762146-0.6714172,0.670929-0.6714172      C264.6862793,302.857605,264.9472046,303.1519775,264.9500732,303.5290222z M263.744873,311.134552v-5.9295959h1.0733032      v5.9295959H263.744873z"/>
				<path style="&st7;" d="M267.146759,306.8068237c0-0.6188354-0.0200806-1.1101074-0.0487366-1.6018677h0.9528809      l0.0592651,0.9753723h0.0305786c0.2915344-0.5572205,0.9806213-1.1101379,1.9602966-1.1101379      c0.8143005,0,2.089325,0.4903259,2.089325,2.5270691v3.5372925h-1.0723877v-3.4187927      c0-0.9586182-0.3612671-1.7614746-1.370575-1.7614746c-0.7082214,0-1.2597046,0.5032043-1.4527588,1.106781      c-0.0449219,0.131897-0.0745544,0.3230591-0.0745544,0.5003357v3.5731506h-1.0733337V306.8068237z"/>
				<path style="&st7;" d="M279.0594177,302.4294128v7.1759033c0,0.5271301,0.0200806,1.1201782,0.0487366,1.5292358h-0.9586182      l-0.0544739-1.0255432h-0.0286865c-0.3297424,0.6623535-1.0437012,1.1603088-2.0119019,1.1603088      c-1.4365234,0-2.5451965-1.2147827-2.5451965-3.0125732c-0.008606-1.981781,1.22052-3.186554,2.6646729-3.186554      c0.9108582,0,1.5234985,0.4267578,1.7892151,0.8998718h0.0238953v-3.5406494H279.0594177z M277.9870605,307.6177979      c0-0.1405029-0.0124207-0.3197021-0.0449219-0.4611511c-0.1682129-0.6800232-0.7493286-1.2406006-1.5617371-1.2406006      c-1.1172791,0-1.7844238,0.979187-1.7844238,2.2823792c0,1.2042847,0.5992737,2.20401,1.7624512,2.20401      c0.7215881,0,1.3772583-0.486969,1.5760498-1.2945862c0.0382385-0.1419373,0.0525818-0.2938843,0.0525818-0.4625854V307.6177979      z"/>
				<path style="&st7;" d="M286.289856,308.1128845c0,2.1958923-1.5234985,3.1564331-2.9485474,3.1564331      c-1.608551,0-2.8510437-1.1717834-2.8510437-3.0546265c0-1.9841919,1.3046265-3.1445007,2.9447021-3.1445007      C285.1400757,305.0701904,286.289856,306.3069763,286.289856,308.1128845z M281.5884399,308.1817017      c0,1.3008118,0.7445374,2.2799988,1.7968445,2.2799988c1.0341492,0,1.8073425-0.9662781,1.8073425-2.3120117      c0-1.0030823-0.5055847-2.2713928-1.787262-2.2713928C282.1389465,305.8782959,281.5884399,307.0577393,281.5884399,308.1817017      z"/>
				<path style="&st7;" d="M288.2610779,305.2049561l0.7971191,3.0087585      c0.170105,0.6623535,0.3211365,1.2821655,0.4406128,1.8924255h0.0296021      c0.131897-0.5973511,0.3278503-1.2410583,0.5314331-1.8833313l0.9681702-3.0178528h0.9070435l0.9232788,2.9657593      c0.2112122,0.7029724,0.3861084,1.3318787,0.5237427,1.9354248h0.0286865      c0.1080017-0.6006775,0.2676086-1.2252808,0.4597168-1.9258728l0.8477783-2.9753113h1.0628052l-1.9153748,5.9295959h-0.9796448      l-0.9013062-2.8295593c-0.2140808-0.6647339-0.3813477-1.2582703-0.5256653-1.9545288h-0.0248413      c-0.1500549,0.7153931-0.3335571,1.3304138-0.5428772,1.9641113l-0.9529114,2.8199768h-0.9863586l-1.7872925-5.9295959      H288.2610779z"/>
				<path style="&st7;" d="M297.0515137,310.0368652c0.3249512,0.2026062,0.8917236,0.4219666,1.4288635,0.4219666      c0.7875671,0,1.1526489-0.387085,1.1526489-0.8826599c0-0.5184937-0.3144226-0.7904053-1.1019897-1.0857544      c-1.0714111-0.388031-1.5789185-0.9710693-1.5760498-1.6816711c0-0.9548035,0.776062-1.7385559,2.0510559-1.7385559      c0.6040649,0,1.1230469,0.1634521,1.4527893,0.364624l-0.2685852,0.7842102      c-0.227478-0.1433411-0.6623535-0.3493347-1.2157288-0.3493347c-0.6365356,0-0.9825439,0.3670349-0.9825439,0.8138428      c0,0.4907837,0.348877,0.710144,1.1259155,1.0116882c1.021698,0.3804016,1.5531311,0.8960266,1.5559998,1.7815552      c0,1.0508728-0.8171997,1.7863464-2.2183533,1.7863464c-0.6489563,0-1.24823-0.1677551-1.6658936-0.4129028      L297.0515137,310.0368652z"/>
			</g>
			<g>
				<polygon style="&st7;" points="238.0548706,305.9319153 238.0548706,299.480835 231.3261261,300.3814697       231.3261261,305.9319153     "/>
				<polygon style="&st7;" points="239.0214233,305.9319153 247.9063263,305.9319153 247.9063263,298.162262       239.0214233,299.3514709     "/>
				<polygon style="&st7;" points="238.0548706,306.898468 231.3261261,306.898468 231.3261261,312.2889099       238.0548706,313.2544556     "/>
				<polygon style="&st7;" points="239.0214233,306.898468 239.0214233,313.393158 247.9063263,314.6681213 247.9063263,306.898468           "/>
			</g>
		</g>
	</g>
</g>
<path style="&st3;" d="M175,136.8238983H65c-2.761425,0-5-2.2385864-5-5V81.8238907c0-2.7614212,2.238575-5,5-5h110  c2.7614288,0,5,2.2385788,5,5v50.0000076C180,134.5853119,177.7614288,136.8238983,175,136.8238983z"/>
<path style="&st3;" d="M363,136.8238983H233c-2.7614288,0-5-2.2385864-5-5V81.8238907c0-2.7614212,2.2385712-5,5-5h130  c2.7614136,0,5,2.2385788,5,5v50.0000076C368,134.5853119,365.7614136,136.8238983,363,136.8238983z"/>
<g>
	<polygon style="&st23;" points="212.5,218.7890625 211.5,218.7890625 211.5,191.3242188 119.5,191.3242188 119.5,142.859375    120.5,142.859375 120.5,190.3242188 212.5,190.3242188  "/>
	<g>
		<path style="&st23;" d="M120,136.8238983c-1.0537109,2.8398438-2.8515625,6.3632812-4.7558594,8.5473633L120,143.6510468    l4.7548828,1.7202148C122.8505859,143.1871796,121.0527344,139.6637421,120,136.8238983z"/>
	</g>
	<g>
		<path style="&st23;" d="M212,224.8238983c-1.0537109-2.8398438-2.8515625-6.3632812-4.7558594-8.5473633L212,217.9967499    l4.7548828-1.7202148C214.8505859,218.4606171,213.0527344,221.9840546,212,224.8238983z"/>
	</g>
</g>
<g>
	<polygon style="&st23;" points="266.5,218.7890625 265.5,218.7890625 265.5,190.3242188 297.5,190.3242188 297.5,142.859375    298.5,142.859375 298.5,191.3242188 266.5,191.3242188  "/>
	<g>
		<path style="&st23;" d="M298,136.8238983c-1.0537109,2.8398438-2.8515625,6.3632812-4.7558594,8.5473633L298,143.6510468    l4.7548828,1.7202148C300.8505859,143.1871796,299.0527344,139.6637421,298,136.8238983z"/>
	</g>
	<g>
		<path style="&st23;" d="M266,224.8238983c-1.0537109-2.8398438-2.8515625-6.3632812-4.7558594-8.5473633L266,217.9967499    l4.7548828-1.7202148C268.8505859,218.4606171,267.0527344,221.9840546,266,224.8238983z"/>
	</g>
</g>
<g>
	<path style="&st3;" d="M388,79.5356369v54.5765152c0,4.8113403,25.072052,8.7117462,56,8.7117462s56-3.9004059,56-8.7117462   V79.5356369H388z"/>
	<ellipse style="&st4;" cx="444" cy="79.5356369" rx="56" ry="8.7117434"/>
</g>
<g>
	<path d="M410.8916016,108.9560547h4.8564453v0.8388672h-3.8613281v2.4707031h1.5117188   c1.6660156,0,2.8779297,0.5996094,2.8779297,2.1708984c0,1.6435547-1.1035156,2.3867188-2.8310547,2.3867188h-2.5537109   V108.9560547z M413.2783203,116.03125c1.3427734,0,2.0146484-0.4912109,2.0146484-1.5703125   c0-1.0078125-0.6953125-1.4277344-2.0390625-1.4277344h-1.3671875v2.9980469H413.2783203z"/>
	<path d="M417.3955078,115.3125c0-1.2714844,1.0908203-1.9072266,3.5742188-2.1835938   c0-0.7431641-0.2392578-1.4628906-1.1992188-1.4628906c-0.671875,0-1.2841797,0.3115234-1.7392578,0.6240234l-0.3837891-0.6835938   c0.5400391-0.3476562,1.3554688-0.7558594,2.2910156-0.7558594c1.4267578,0,2.0263672,0.9472656,2.0263672,2.3984375v3.5742188   h-0.8154297l-0.0839844-0.6953125h-0.0361328c-0.5507812,0.4550781-1.1992188,0.8388672-1.9306641,0.8388672   C418.1269531,116.9667969,417.3955078,116.3554688,417.3955078,115.3125z M420.9697266,115.3964844v-1.6191406   c-1.9423828,0.2392578-2.6142578,0.71875-2.6142578,1.4628906c0,0.6591797,0.4550781,0.9355469,1.03125,0.9355469   C419.9501953,116.1757812,420.40625,115.8994141,420.9697266,115.3964844z"/>
	<path d="M423.2636719,116.2236328l0.4199219-0.6357422c0.5390625,0.4433594,1.1152344,0.5878906,1.703125,0.5878906   c0.7910156,0,1.4511719-0.3955078,1.4511719-1.0439453c0-0.6591797-0.5400391-0.9833984-1.4873047-0.9833984h-0.8037109v-0.7070312   h0.6601562c0.9355469,0,1.4023438-0.3476562,1.4023438-0.9238281c0-0.5878906-0.5039062-0.8876953-1.2109375-0.8876953   c-0.671875,0-1.1152344,0.1796875-1.5830078,0.515625l-0.4199219-0.6474609   c0.5634766-0.3955078,1.2119141-0.6474609,2.0507812-0.6474609c1.1396484,0,2.1230469,0.5039062,2.1230469,1.5712891   c0,0.5634766-0.3603516,1.0556641-0.9599609,1.2949219v0.0478516c0.671875,0.1796875,1.2119141,0.6123047,1.2119141,1.4511719   c0,1.0800781-1.1035156,1.7509766-2.3505859,1.7509766C424.6669922,116.9667969,423.9472656,116.7871094,423.2636719,116.2236328z"/>
	<path d="M429.2753906,110.9941406h0.9833984v2.1474609h0.8271484c1.3798828,0,2.3154297,0.5517578,2.3154297,1.8222656   c0,1.2958984-0.9355469,1.859375-2.3154297,1.859375h-1.8105469V110.9941406z M430.9785156,116.03125   c0.9833984,0,1.4511719-0.3349609,1.4511719-1.0673828c0-0.7314453-0.4677734-1.0546875-1.4511719-1.0546875h-0.7197266v2.1220703   H430.9785156z M434.4082031,110.9941406h0.984375v5.8291016h-0.984375V110.9941406z"/>
	<path d="M439.9667969,118.8857422h-0.8515625l-0.1074219-2.2421875v-0.6240234h0.2871094   c0.3242188-0.1796875,0.5878906-0.5634766,0.8164062-2.4462891l0.3115234-2.5791016h3.6220703v5.0253906h0.8515625v0.6240234   l-0.0957031,2.2421875h-0.8515625v-2.0625h-3.9824219V118.8857422z M440.3515625,116.0195312h2.7099609v-4.2216797h-1.8583984   l-0.2285156,1.9667969C440.8427734,114.9160156,440.6269531,115.5996094,440.3515625,116.0195312z"/>
	<path d="M445.8349609,115.3125c0-1.2714844,1.0908203-1.9072266,3.5742188-2.1835938   c0-0.7431641-0.2392578-1.4628906-1.1992188-1.4628906c-0.671875,0-1.2841797,0.3115234-1.7392578,0.6240234l-0.3837891-0.6835938   c0.5400391-0.3476562,1.3554688-0.7558594,2.2910156-0.7558594c1.4267578,0,2.0263672,0.9472656,2.0263672,2.3984375v3.5742188   h-0.8154297l-0.0839844-0.6953125H449.46875c-0.5507812,0.4550781-1.1992188,0.8388672-1.9306641,0.8388672   C446.5664062,116.9667969,445.8349609,116.3554688,445.8349609,115.3125z M449.4091797,115.3964844v-1.6191406   c-1.9423828,0.2392578-2.6142578,0.71875-2.6142578,1.4628906c0,0.6591797,0.4550781,0.9355469,1.03125,0.9355469   C448.3896484,116.1757812,448.8457031,115.8994141,449.4091797,115.3964844z"/>
	<path d="M452.2431641,110.9941406h0.9833984v2.3632812h2.8066406v-2.3632812h0.9833984v5.8291016h-0.9833984v-2.5908203h-2.8066406   v2.5908203h-0.9833984V110.9941406z"/>
	<path d="M458.9863281,110.9941406h0.984375v2.3632812h2.8066406v-2.3632812h0.9824219v5.8291016h-0.9824219v-2.5908203h-2.8066406   v2.5908203h-0.984375V110.9941406z"/>
	<path d="M465.7304688,110.9941406h0.984375v2.1474609h0.8271484c1.3798828,0,2.3154297,0.5517578,2.3154297,1.8222656   c0,1.2958984-0.9355469,1.859375-2.3154297,1.859375h-1.8115234V110.9941406z M467.4335938,116.03125   c0.984375,0,1.4511719-0.3349609,1.4511719-1.0673828c0-0.7314453-0.4667969-1.0546875-1.4511719-1.0546875h-0.71875v2.1220703   H467.4335938z M470.8642578,110.9941406h0.9833984v5.8291016h-0.9833984V110.9941406z"/>
	<path d="M474.9101562,113.7773438l-1.7626953-2.7832031h1.0673828l0.7792969,1.2832031   c0.1796875,0.3125,0.3720703,0.6484375,0.5761719,0.9716797h0.0478516   c0.1669922-0.3232422,0.3476562-0.6591797,0.5273438-0.9716797l0.7080078-1.2832031h1.03125l-1.7636719,2.890625   l1.8955078,2.9384766h-1.0673828l-0.8515625-1.3554688c-0.2041016-0.3476562-0.4199219-0.7070312-0.6357422-1.0429688h-0.0478516   c-0.2041016,0.3359375-0.3964844,0.6835938-0.5878906,1.0429688l-0.7910156,1.3554688h-1.03125L474.9101562,113.7773438z"/>
</g>
<g>
	<path d="M78.7714844,109.0634766c-2.1347656-0.0722656-3.3818359-1.140625-3.3818359-2.9863281   c0-1.8359375,1.2470703-2.8671875,3.3818359-2.9277344v-1.1152344h0.8886719v1.1152344   c2.1220703,0.0605469,3.3808594,1.0917969,3.3808594,2.9277344c0,1.8457031-1.2587891,2.9140625-3.3808594,2.9863281v1.1269531   h-0.8886719V109.0634766z M78.7714844,108.2958984v-4.3789062c-1.5585938,0.0488281-2.421875,0.8046875-2.421875,2.1601562   S77.2128906,108.2470703,78.7714844,108.2958984z M79.6601562,103.9169922v4.3789062   c1.5585938-0.0488281,2.421875-0.8632812,2.421875-2.21875S81.21875,103.9658203,79.6601562,103.9169922z"/>
	<path d="M83.9941406,108.5361328c0-1.2714844,1.0908203-1.9082031,3.5742188-2.1835938   c0-0.7441406-0.2402344-1.4628906-1.1992188-1.4628906c-0.671875,0-1.2841797,0.3105469-1.7402344,0.6230469l-0.3828125-0.6835938   c0.5390625-0.3476562,1.3554688-0.7558594,2.2910156-0.7558594c1.4257812,0,2.0263672,0.9472656,2.0263672,2.3984375v3.5742188   h-0.8154297l-0.0839844-0.6953125h-0.0361328c-0.5517578,0.4550781-1.2001953,0.8398438-1.9306641,0.8398438   C84.7255859,110.1904297,83.9941406,109.5791016,83.9941406,108.5361328z M87.5683594,108.6201172v-1.6191406   c-1.9433594,0.2382812-2.6152344,0.71875-2.6152344,1.4628906c0,0.6582031,0.4560547,0.9355469,1.03125,0.9355469   C86.5488281,109.3994141,87.0039062,109.1220703,87.5683594,108.6201172z"/>
	<path d="M90.4023438,104.2177734h0.9589844v2.421875c0,0.625-0.0478516,1.4042969-0.0957031,2.1464844h0.0478516   c0.2158203-0.359375,0.5634766-0.8867188,0.7675781-1.2460938l2.2060547-3.3222656h0.9238281v5.828125h-0.9589844v-2.421875   c0-0.6230469,0.0478516-1.4042969,0.0957031-2.1582031h-0.0478516c-0.2158203,0.359375-0.5634766,0.8984375-0.7675781,1.2460938   l-2.21875,3.3339844h-0.9111328V104.2177734z M90.953125,101.3388672h0.8164062   c0.0234375,0.6835938,0.2753906,1.2597656,1.0664062,1.2597656c0.7919922,0,1.0439453-0.5761719,1.0683594-1.2597656h0.8154297   c-0.0478516,0.9355469-0.5400391,1.8359375-1.8837891,1.8359375   C91.4931641,103.1748047,91.0019531,102.2744141,90.953125,101.3388672z"/>
	<path d="M96.3183594,110.0947266l0.1914062-0.9121094c0.0722656,0.0234375,0.15625,0.0488281,0.2636719,0.0488281   c0.4082031,0,0.671875-0.3730469,0.7802734-1.2363281c0.1552734-1.2597656,0.2998047-2.5175781,0.4433594-3.7773438h3.5869141   v5.828125h-0.9960938v-5.0253906h-1.8105469c-0.1210938,1.0683594-0.2519531,2.1601562-0.3847656,3.2265625   c-0.1679688,1.2949219-0.6835938,1.9433594-1.546875,1.9433594   C96.6298828,110.1904297,96.4863281,110.1552734,96.3183594,110.0947266z"/>
	<path d="M103.5527344,104.2177734h0.984375v2.1464844h0.8271484c1.3798828,0,2.3154297,0.5527344,2.3154297,1.8222656   c0,1.296875-0.9355469,1.859375-2.3154297,1.859375h-1.8115234V104.2177734z M105.2558594,109.2548828   c0.984375,0,1.4511719-0.3359375,1.4511719-1.0683594c0-0.7304688-0.4667969-1.0546875-1.4511719-1.0546875h-0.71875v2.1230469   H105.2558594z M108.6865234,104.2177734h0.9833984v5.828125h-0.9833984V104.2177734z"/>
	<path d="M114.0410156,106.7119141c0-2.1113281,0.5878906-3.8378906,1.5839844-5.4453125l0.6113281,0.2890625   c-0.9238281,1.5234375-1.3789062,3.3339844-1.3789062,5.15625c0,1.8242188,0.4550781,3.6347656,1.3789062,5.1582031   L115.625,112.1572266C114.6289062,110.5498047,114.0410156,108.8232422,114.0410156,106.7119141z"/>
	<path d="M117.7734375,102.1787109h0.9951172v7.015625h3.4423828v0.8515625h-4.4375V102.1787109z"/>
	<path d="M122.8378906,106.1123047c0-2.53125,1.5234375-4.078125,3.609375-4.078125   c1.0917969,0,1.8105469,0.4921875,2.2675781,0.9726562l-0.5527344,0.6464844   c-0.3955078-0.40625-0.8984375-0.7421875-1.6904297-0.7421875c-1.5830078,0-2.6025391,1.2226562-2.6025391,3.1777344   c0,1.9785156,0.9355469,3.2265625,2.6142578,3.2265625c0.5634766,0,1.1035156-0.1796875,1.4150391-0.46875v-2.0507812h-1.6669922   v-0.828125h2.5791016v3.3105469c-0.5039062,0.5273438-1.3671875,0.9121094-2.4228516,0.9121094   C124.3125,110.1904297,122.8378906,108.6787109,122.8378906,106.1123047z"/>
	<path d="M130.6972656,102.1787109h1.9667969c2.421875,0,3.7177734,1.4023438,3.7177734,3.8984375   c0,2.5058594-1.2958984,3.96875-3.6699219,3.96875h-2.0146484V102.1787109z M132.5917969,109.2314453   c1.8359375,0,2.7587891-1.1640625,2.7587891-3.1542969c0-1.9804688-0.9228516-3.0820312-2.7587891-3.0820312h-0.8994141v6.2363281   H132.5917969z"/>
	<path d="M137.5605469,111.5087891c0.6835938-0.2988281,1.0917969-0.8261719,1.0800781-1.4628906   c-0.0361328,0.0117188-0.0839844,0.0117188-0.1201172,0.0117188c-0.3837891,0-0.7080078-0.2382812-0.7080078-0.6835938   c0-0.4316406,0.3359375-0.6953125,0.7324219-0.6953125c0.515625,0,0.8271484,0.4433594,0.8271484,1.1640625   c0,1.03125-0.5996094,1.8339844-1.5712891,2.2421875L137.5605469,111.5087891z"/>
	<path d="M143.0087891,106.1123047c0-2.53125,1.4873047-4.078125,3.4902344-4.078125   c0.9599609,0,1.703125,0.4570312,2.1591797,0.9726562l-0.5400391,0.6464844   c-0.4199219-0.4433594-0.9355469-0.7421875-1.6064453-0.7421875c-1.4882812,0-2.4707031,1.2226562-2.4707031,3.1777344   c0,1.9785156,0.9472656,3.2265625,2.4335938,3.2265625c0.7558594,0,1.3203125-0.3359375,1.8232422-0.8886719l0.5517578,0.625   c-0.6230469,0.71875-1.390625,1.1386719-2.4101562,1.1386719   C144.4726562,110.1904297,143.0087891,108.6787109,143.0087891,106.1123047z"/>
	<path d="M149.453125,109.0263672l0.5996094-0.6953125c0.5644531,0.5878906,1.3554688,0.984375,2.171875,0.984375   c1.03125,0,1.6425781-0.515625,1.6425781-1.2832031c0-0.8046875-0.5644531-1.0566406-1.3076172-1.3925781l-1.1279297-0.4902344   c-0.7421875-0.3125-1.59375-0.8769531-1.59375-2.0273438c0-1.1992188,1.0429688-2.0878906,2.4707031-2.0878906   c0.9345703,0,1.7617188,0.3964844,2.3261719,0.9726562l-0.5400391,0.6464844   c-0.4794922-0.4550781-1.0556641-0.7421875-1.7861328-0.7421875c-0.8769531,0-1.4638672,0.4433594-1.4638672,1.1503906   c0,0.7558594,0.6835938,1.0429688,1.3076172,1.3066406l1.1152344,0.4804688   c0.9111328,0.3964844,1.6191406,0.9355469,1.6191406,2.0996094c0,1.2460938-1.0195312,2.2421875-2.6748047,2.2421875   C151.1083984,110.1904297,150.1367188,109.7353516,149.453125,109.0263672z"/>
	<path d="M155.3574219,102.1787109h1.0673828l1.2587891,4.2460938c0.2890625,0.9355469,0.46875,1.6777344,0.7675781,2.6015625H158.5   c0.2871094-0.9238281,0.4794922-1.6660156,0.7558594-2.6015625l1.2587891-4.2460938h1.0195312l-2.4951172,7.8671875h-1.1630859   L155.3574219,102.1787109z"/>
	<path d="M161.9931641,111.8701172c0.9238281-1.5234375,1.3798828-3.3339844,1.3798828-5.1582031   c0-1.8222656-0.4560547-3.6328125-1.3798828-5.15625l0.6123047-0.2890625   c0.9951172,1.6074219,1.5820312,3.3339844,1.5820312,5.4453125s-0.5869141,3.8378906-1.5820312,5.4453125L161.9931641,111.8701172z   "/>
</g>
<g>
	<path d="M243.0585938,102.1787109h5.5761719v7.8671875h-0.9941406v-7.0283203h-3.5869141v7.0283203h-0.9951172V102.1787109z"/>
	<path d="M250.7021484,104.2167969h0.8154297l0.0839844,0.671875h0.0361328   c0.5283203-0.4433594,1.1748047-0.8154297,1.8583984-0.8154297c1.5,0,2.3027344,1.1630859,2.3027344,2.9746094   c0,1.9785156-1.1875,3.1416016-2.5175781,3.1416016c-0.5400391,0-1.0800781-0.2519531-1.6191406-0.6708984l0.0234375,1.0195312   v1.9667969h-0.9833984V104.2167969z M254.7792969,107.0478516c0-1.2832031-0.4316406-2.1474609-1.5351562-2.1474609   c-0.4912109,0-0.9824219,0.2763672-1.5585938,0.7919922v3.0585938c0.5273438,0.4433594,1.0429688,0.6113281,1.4277344,0.6113281   C254.0722656,109.3623047,254.7792969,108.4863281,254.7792969,107.0478516z"/>
	<path d="M256.9306641,107.1435547c0-1.9550781,1.2705078-3.0703125,2.6982422-3.0703125s2.6992188,1.1152344,2.6992188,3.0703125   c0,1.9306641-1.2714844,3.0458984-2.6992188,3.0458984S256.9306641,109.0742188,256.9306641,107.1435547z M261.3085938,107.1435547   c0-1.34375-0.671875-2.2548828-1.6796875-2.2548828c-0.9951172,0-1.6787109,0.9111328-1.6787109,2.2548828   c0,1.3310547,0.6835938,2.2304688,1.6787109,2.2304688C260.6367188,109.3740234,261.3085938,108.4746094,261.3085938,107.1435547z"/>
	<path d="M267.0566406,107.71875c-0.4082031,0.0839844-0.6230469,0.1201172-1.1396484,0.1201172   c-1.4755859,0-2.3271484-0.5751953-2.3271484-2.0263672v-1.5957031h0.984375V105.8125   c0,0.8632812,0.4667969,1.2226562,1.5351562,1.2226562c0.3476562,0,0.6113281-0.0351562,0.9472656-0.1074219v-2.7109375h0.9833984   v5.8291016h-0.9833984V107.71875z"/>
	<path d="M270.0097656,104.2167969h0.9599609v2.4228516c0,0.6240234-0.0478516,1.4033203-0.0957031,2.1464844h0.0478516   c0.2158203-0.359375,0.5634766-0.8867188,0.7675781-1.2470703l2.2070312-3.3222656h0.9238281v5.8291016h-0.9599609v-2.4228516   c0-0.6230469,0.0478516-1.4033203,0.0957031-2.1582031h-0.0478516c-0.2158203,0.359375-0.5644531,0.8994141-0.7675781,1.2470703   l-2.21875,3.3339844h-0.9121094V104.2167969z"/>
	<path d="M276.3583984,107.1435547c0-1.9072266,1.2832031-3.0703125,2.6142578-3.0703125   c1.4873047,0,2.3271484,1.0673828,2.3271484,2.734375c0,0.2041016-0.0126953,0.4199219-0.0361328,0.5634766h-3.9335938   c0.0722656,1.2353516,0.8271484,2.0273438,1.9433594,2.0273438c0.5507812,0,1.0185547-0.1796875,1.4511719-0.4560547   l0.3476562,0.6474609c-0.5039062,0.3242188-1.1279297,0.5996094-1.9199219,0.5996094   C277.59375,110.1894531,276.3583984,109.0507812,276.3583984,107.1435547z M280.4355469,106.6640625   c0-1.1757812-0.5273438-1.8115234-1.4384766-1.8115234c-0.8154297,0-1.5595703,0.6601562-1.6787109,1.8115234H280.4355469z"/>
	<path d="M286.4248047,105.0205078h-1.9541016v-0.8037109h4.8925781v0.8037109h-1.9550781v5.0253906h-0.9833984V105.0205078z"/>
	<path d="M290.6621094,104.2167969h0.9589844v2.4228516c0,0.6240234-0.0478516,1.4033203-0.0957031,2.1464844h0.0478516   c0.2158203-0.359375,0.5634766-0.8867188,0.7675781-1.2470703l2.2060547-3.3222656h0.9238281v5.8291016h-0.9589844v-2.4228516   c0-0.6230469,0.0478516-1.4033203,0.0957031-2.1582031h-0.0478516c-0.2158203,0.359375-0.5634766,0.8994141-0.7675781,1.2470703   l-2.21875,3.3339844h-0.9111328V104.2167969z"/>
	<path d="M297.4414062,104.2167969h4.6660156v5.8291016h-0.984375v-5.0253906h-2.6982422v5.0253906h-0.9833984V104.2167969z"/>
	<path d="M304.0771484,104.2167969h0.9833984v2.1474609h0.828125c1.3789062,0,2.3144531,0.5517578,2.3144531,1.8222656   c0,1.2958984-0.9355469,1.859375-2.3144531,1.859375h-1.8115234V104.2167969z M305.7802734,109.2539062   c0.9833984,0,1.4511719-0.3349609,1.4511719-1.0673828c0-0.7314453-0.4677734-1.0546875-1.4511719-1.0546875h-0.7197266v2.1220703   H305.7802734z M309.2109375,104.2167969h0.9824219v5.8291016h-0.9824219V104.2167969z"/>
	<path d="M317.5039062,110.6337891l0.0234375-0.8759766c-0.3232422,0.2402344-0.71875,0.4316406-1.1748047,0.4316406   c-1.3310547,0-2.2070312-1.1025391-2.2070312-3.0458984c0-1.8945312,1.0322266-3.0703125,2.2070312-3.0703125   c0.4560547,0,0.8271484,0.1796875,1.1748047,0.4199219l-0.0234375-0.8632812v-2.1230469h0.9589844v2.1230469l-0.0234375,0.8867188   c0.3710938-0.2636719,0.828125-0.4433594,1.2597656-0.4433594c1.3671875,0,2.1220703,1.1630859,2.1220703,2.9746094   c0,1.9785156-1.03125,3.1416016-2.2304688,3.1416016c-0.3720703,0-0.7675781-0.1552734-1.1513672-0.4189453l0.0234375,0.8632812   v1.8710938h-0.9589844V110.6337891z M317.5273438,108.9423828v-3.6455078   c-0.3232422-0.2880859-0.6708984-0.3964844-1.0068359-0.3964844c-0.7675781,0-1.3554688,0.8994141-1.3554688,2.2314453   c0,1.390625,0.515625,2.2304688,1.4033203,2.2304688C316.9160156,109.3623047,317.2041016,109.2539062,317.5273438,108.9423828z    M320.8027344,107.0478516c0-1.2832031-0.3964844-2.1474609-1.34375-2.1474609   c-0.3242188,0-0.6601562,0.0966797-1.0195312,0.4082031v3.6582031c0.3476562,0.3115234,0.7197266,0.3955078,0.9833984,0.3955078   C320.2382812,109.3623047,320.8027344,108.4863281,320.8027344,107.0478516z"/>
	<path d="M322.8457031,108.5351562c0-1.2714844,1.0908203-1.9072266,3.5742188-2.1835938   c0-0.7431641-0.2402344-1.4628906-1.1992188-1.4628906c-0.671875,0-1.2841797,0.3115234-1.7402344,0.6240234l-0.3828125-0.6835938   c0.5390625-0.3476562,1.3554688-0.7558594,2.2910156-0.7558594c1.4257812,0,2.0263672,0.9472656,2.0263672,2.3984375v3.5742188   h-0.8154297l-0.0839844-0.6953125h-0.0361328c-0.5517578,0.4550781-1.2001953,0.8388672-1.9306641,0.8388672   C323.5771484,110.1894531,322.8457031,109.578125,322.8457031,108.5351562z M326.4199219,108.6191406V107   c-1.9433594,0.2392578-2.6152344,0.71875-2.6152344,1.4628906c0,0.6591797,0.4560547,0.9355469,1.03125,0.9355469   C325.4003906,109.3984375,325.8554688,109.1220703,326.4199219,108.6191406z"/>
	<path d="M329.2539062,104.2167969h0.9589844v2.4228516c0,0.6240234-0.0478516,1.4033203-0.0957031,2.1464844h0.0478516   c0.2158203-0.359375,0.5634766-0.8867188,0.7675781-1.2470703l2.2060547-3.3222656H334.0625v5.8291016h-0.9589844v-2.4228516   c0-0.6230469,0.0478516-1.4033203,0.0957031-2.1582031h-0.0478516c-0.2158203,0.359375-0.5634766,0.8994141-0.7675781,1.2470703   l-2.21875,3.3339844h-0.9111328V104.2167969z M329.8046875,101.3388672h0.8164062   c0.0234375,0.6835938,0.2753906,1.2587891,1.0664062,1.2587891c0.7919922,0,1.0439453-0.5751953,1.0683594-1.2587891h0.8154297   c-0.0478516,0.9355469-0.5400391,1.8349609-1.8837891,1.8349609   C330.3447266,103.1738281,329.8535156,102.2744141,329.8046875,101.3388672z"/>
	<path d="M335.1699219,110.09375l0.1914062-0.9111328c0.0722656,0.0234375,0.15625,0.0478516,0.2636719,0.0478516   c0.4082031,0,0.671875-0.3720703,0.7802734-1.2353516c0.1552734-1.2597656,0.2998047-2.5185547,0.4433594-3.7783203h3.5869141   v5.8291016h-0.9960938v-5.0253906h-1.8105469c-0.1210938,1.0673828-0.2519531,2.1591797-0.3847656,3.2265625   c-0.1679688,1.2949219-0.6835938,1.9423828-1.546875,1.9423828   C335.4814453,110.1894531,335.3378906,110.1542969,335.1699219,110.09375z"/>
	<path d="M341.9726562,107.1435547c0-1.9550781,1.2714844-3.0703125,2.6992188-3.0703125   c1.4267578,0,2.6982422,1.1152344,2.6982422,3.0703125c0,1.9306641-1.2714844,3.0458984-2.6982422,3.0458984   C343.2441406,110.1894531,341.9726562,109.0742188,341.9726562,107.1435547z M346.3505859,107.1435547   c0-1.34375-0.6708984-2.2548828-1.6787109-2.2548828c-0.9960938,0-1.6796875,0.9111328-1.6796875,2.2548828   c0,1.3310547,0.6835938,2.2304688,1.6796875,2.2304688C345.6796875,109.3740234,346.3505859,108.4746094,346.3505859,107.1435547z"/>
	<path d="M348.9082031,104.2167969h2.2431641c1.2714844,0,2.1474609,0.4199219,2.1474609,1.4755859   c0,0.6474609-0.3720703,1.0673828-0.9726562,1.2470703v0.0361328c0.6601562,0.15625,1.2246094,0.5634766,1.2246094,1.4033203   c0,1.1513672-0.9599609,1.6669922-2.3027344,1.6669922h-2.3398438V104.2167969z M350.9833984,106.6640625   c0.9716797,0,1.3554688-0.3359375,1.3554688-0.8759766c0-0.5390625-0.3837891-0.8632812-1.2832031-0.8632812h-1.1748047v1.7392578   H350.9833984z M351.1396484,109.3378906c0.9599609,0,1.4267578-0.3710938,1.4267578-1.0185547   c0-0.5878906-0.5039062-0.9482422-1.4863281-0.9482422h-1.1992188v1.9667969H351.1396484z"/>
</g>
<g>
	<polygon style="&st23;" points="320.5,218.8095703 319.5,218.8095703 319.5,190.3242188 443.3945312,190.3242188    443.3945312,148.3779297 444.3945312,148.3779297 444.3945312,191.3242188 320.5,191.3242188  "/>
	<g>
		<path style="&st23;" d="M443.894043,142.342453c-1.0537109,2.8398438-2.8515625,6.3632812-4.7558594,8.5473633    l4.7558594-1.7202148l4.7548828,1.7202148C446.7446289,148.7057343,444.9467773,145.1822968,443.894043,142.342453z"/>
	</g>
	<g>
		<path style="&st23;" d="M320,224.8447723c-1.0537109-2.8398438-2.8515625-6.3632812-4.7558594-8.5473633L320,218.0176239    l4.7548828-1.7202148C322.8505859,218.4814911,321.0527344,222.0049286,320,224.8447723z"/>
	</g>
</g>
</svg>
